<?xml version="1.0" standalone="no"?>
<!DOCTYPE svg PUBLIC "-//W3C//DTD SVG 1.1//EN" "http://www.w3.org/Graphics/SVG/1.1/DTD/svg11.dtd" >
<svg xmlns="http://www.w3.org/2000/svg" xmlns:xlink="http://www.w3.org/1999/xlink" version="1.1">
<metadata>
Created by FontForge 20170731 at Mon Mar 13 23:52:02 2017
 By Aleksey,,,
Copyright (c) 2016 The Economist. All rights reserved.
</metadata>
<defs>
<font id="EconSansOS-Regular" horiz-adv-x="362" >
  <font-face 
    font-family="Econ Sans OS"
    font-weight="400"
    font-stretch="normal"
    units-per-em="1000"
    panose-1="2 0 5 3 2 0 0 2 0 4"
    ascent="750"
    descent="-250"
    x-height="500"
    cap-height="706"
    bbox="-156 -294 1170 999"
    underline-thickness="50"
    underline-position="-200"
    unicode-range="U+000D-FB04"
  />
<missing-glyph horiz-adv-x="210" 
 />
    <glyph glyph-name="f_f" unicode="ff" horiz-adv-x="644" 
d="M188 0h-92v422h-68v78h68v44q0 81 17 118q35 76 146 76q53 0 87 -16v-82q-29 18 -71 18q-59 0 -76 -38q-11 -22 -11 -76v-44h107v-78h-107v-422zM510 0h-92v422h-65v78h65v60q0 81 18 120q34 76 145 76q51 0 86 -16v-83q-29 19 -70 19q-58 0 -75 -38q-12 -22 -12 -80v-58
h117v-78h-117v-422z" />
    <glyph glyph-name="fi" unicode="fi" horiz-adv-x="566" 
d="M343 740v-80q-32 16 -68 16q-57 0 -76 -38q-11 -22 -11 -80v-58h124v-78h-124v-422h-92v422h-68v78h68v60q0 80 17 120q34 76 146 76q49 0 84 -16zM491 0h-92v500h92v-500zM499 661q0 -25 -15.5 -41t-40.5 -16q-22 0 -37 16t-15 39q0 25 15 41t39 16q23 0 38.5 -15.5
t15.5 -39.5z" />
    <glyph glyph-name="fl" unicode="fl" horiz-adv-x="567" 
d="M188 0h-92v422h-68v78h68v60q0 80 17 120q34 76 146 76q48 0 81 -14v-80q-32 14 -65 14q-57 0 -76 -37q-11 -23 -11 -81v-58h124v-78h-124v-422zM491 0h-93v747h93v-747z" />
    <glyph glyph-name="f_f_i" unicode="ffi" horiz-adv-x="888" 
d="M188 0h-92v422h-68v78h68v44q0 81 17 118q35 76 146 76q53 0 87 -16v-82q-29 18 -71 18q-59 0 -76 -38q-11 -22 -11 -76v-44h107v-78h-107v-422zM666 740v-82q-30 18 -69 18q-58 0 -75 -38q-12 -22 -12 -80v-58h124v-78h-124v-422h-92v422h-64v78h64v60q0 81 18 120
q34 76 145 76q50 0 85 -16zM813 0h-92v500h92v-500zM821 661q0 -25 -15.5 -41t-39.5 -16q-23 0 -38 16t-15 39q0 25 15.5 41t39.5 16q23 0 38 -15.5t15 -39.5z" />
    <glyph glyph-name="f_f_l" unicode="ffl" horiz-adv-x="889" 
d="M188 0h-92v422h-68v78h68v44q0 81 17 118q35 76 146 76q53 0 87 -16v-82q-29 18 -71 18q-59 0 -76 -38q-11 -22 -11 -76v-44h107v-78h-107v-422zM510 0h-92v422h-65v78h65v60q0 81 18 120q34 76 145 76q48 0 81 -14v-82q-27 16 -65 16q-58 0 -75 -37q-12 -23 -12 -81v-58
h124v-78h-124v-422zM813 0h-92v747h92v-747z" />
    <glyph glyph-name="f_b" unicode="fb" horiz-adv-x="888" 
d="M188 0h-92v422h-68v78h68v60q0 80 17 120q34 76 146 76q48 0 81 -14v-82q-27 16 -65 16q-57 0 -76 -37q-11 -23 -11 -81v-58h124v-78h-124v-422zM398 26v721h92v-298q58 63 151 63q100 0 153 -66t53 -183q0 -136 -69 -205.5t-184 -69.5q-105 0 -196 38zM490 86
q41 -24 114 -24q64 0 106 48.5t42 143.5q0 92 -39.5 136t-98.5 44q-38 0 -72 -18t-52 -43v-287z" />
    <glyph glyph-name="f_f_b" unicode="ffb" horiz-adv-x="1210" 
d="M188 0h-92v422h-68v78h68v44q0 81 17 118q35 76 146 76q53 0 87 -16v-82q-29 18 -71 18q-59 0 -76 -38q-11 -22 -11 -76v-44h107v-78h-107v-422zM510 0h-92v422h-64v78h64v60q0 81 18 120q34 76 145 76q48 0 81 -14v-82q-27 16 -65 16q-58 0 -75 -37q-12 -23 -12 -81v-58
h124v-78h-124v-422zM721 26v721h92v-298q57 63 150 63q100 0 153.5 -66t53.5 -183q0 -136 -69.5 -205.5t-184.5 -69.5q-104 0 -195 38zM813 86q41 -24 113 -24q64 0 106 48.5t42 143.5q0 92 -39.5 136t-97.5 44q-38 0 -72 -18t-52 -43v-287z" />
    <glyph glyph-name="f_f_h" unicode="ffh" horiz-adv-x="1197" 
d="M188 0h-92v422h-68v78h68v44q0 81 17 118q35 76 146 76q53 0 87 -16v-82q-29 18 -71 18q-59 0 -76 -38q-11 -22 -11 -76v-44h107v-78h-107v-422zM510 0h-92v422h-65v78h65v60q0 81 18 120q34 76 145 76q48 0 81 -14v-82q-27 16 -65 16q-58 0 -75 -37q-12 -23 -12 -81v-58
h124v-78h-124v-422zM813 0h-92v747h92v-307q23 32 65 52t90 20q111 0 142 -86q17 -47 17 -151v-275h-93v273q0 86 -10 110q-19 47 -86 47q-77 0 -125 -68v-362z" />
    <glyph glyph-name="f_f_j" unicode="ffj" horiz-adv-x="888" 
d="M188 0h-92v422h-68v78h68v44q0 81 17 118q35 76 146 76q53 0 87 -16v-82q-29 18 -71 18q-59 0 -76 -38q-11 -22 -11 -76v-44h107v-78h-107v-422zM666 740v-82q-30 18 -69 18q-58 0 -75 -38q-12 -22 -12 -80v-58h124v-78h-124v-422h-92v422h-65v78h65v60q0 81 18 120
q34 76 145 76q50 0 85 -16zM651 -238l-32 74q51 23 73 48q29 35 29 107v509h92v-515q0 -97 -31 -133q-41 -49 -131 -90zM821 661q0 -25 -15.5 -41t-39.5 -16q-23 0 -38 16t-15 39q0 25 15.5 41t39.5 16q23 0 38 -15.5t15 -39.5z" />
    <glyph glyph-name="f_f_k" unicode="ffk" horiz-adv-x="1156" 
d="M188 0h-92v422h-68v78h68v44q0 81 17 118q35 76 146 76q53 0 87 -16v-82q-29 18 -71 18q-59 0 -76 -38q-11 -22 -11 -76v-44h107v-78h-107v-422zM510 0h-92v422h-65v78h65v60q0 81 18 120q34 76 145 76q48 0 81 -14v-82q-27 16 -65 16q-58 0 -75 -37q-12 -23 -12 -81v-58
h124v-78h-124v-422zM813 0h-92v747h92v-445l202 198h114l-231 -219l255 -281h-115l-225 251v-251z" />
    <glyph glyph-name="f_h" unicode="fh" horiz-adv-x="874" 
d="M188 0h-92v422h-68v78h68v60q0 80 17 120q34 76 146 76q48 0 81 -14v-82q-27 16 -65 16q-57 0 -76 -37q-11 -23 -11 -81v-58h124v-78h-124v-422zM490 0h-92v747h92v-307q23 32 65 52t90 20q111 0 142 -86q17 -47 17 -151v-275h-93v273q0 86 -10 110q-19 47 -86 47
q-77 0 -125 -68v-362z" />
    <glyph glyph-name="f_j" unicode="fj" horiz-adv-x="566" 
d="M343 740v-82q-30 18 -68 18q-57 0 -76 -38q-11 -22 -11 -80v-58h124v-78h-124v-422h-92v422h-68v78h68v60q0 80 17 120q34 76 146 76q49 0 84 -16zM328 -238l-32 74q53 23 74 48q28 33 28 107v509h93v-515q0 -95 -32 -133q-39 -49 -131 -90zM499 661q0 -25 -15.5 -41
t-40.5 -16q-22 0 -37 16t-15 39q0 25 15 41t39 16q23 0 38.5 -15.5t15.5 -39.5z" />
    <glyph glyph-name="f_k" unicode="fk" horiz-adv-x="834" 
d="M188 0h-92v422h-68v78h68v60q0 80 17 120q34 76 146 76q48 0 81 -14v-82q-27 16 -65 16q-57 0 -76 -37q-11 -23 -11 -81v-58h124v-78h-124v-422zM491 0h-92v747h92v-445l202 198h114l-231 -219l255 -281h-115l-225 251v-251z" />
    <glyph glyph-name=".notdef" horiz-adv-x="210" 
 />
    <glyph glyph-name=".null" horiz-adv-x="0" 
 />
    <glyph glyph-name="nonmarkingreturn" horiz-adv-x="333" 
 />
    <glyph glyph-name="NULL" horiz-adv-x="0" 
 />
    <glyph glyph-name="NULL" horiz-adv-x="0" 
 />
    <glyph glyph-name="CR" unicode="&#xd;" horiz-adv-x="210" 
 />
    <glyph glyph-name="space" unicode=" " horiz-adv-x="210" 
 />
    <glyph glyph-name="exclam" unicode="!" horiz-adv-x="272" 
d="M191 226h-77q-14 339 -14 480h104q0 -140 -13 -480zM217 59q0 -28 -19 -47.5t-48 -19.5q-28 0 -45.5 19t-17.5 46q0 29 18.5 47.5t47.5 18.5q27 0 45.5 -18t18.5 -46z" />
    <glyph glyph-name="quotedbl" unicode="&#x22;" horiz-adv-x="336" 
d="M121 468h-59q-9 142 -12 279h82q-1 -128 -11 -279zM274 468h-58q-11 165 -13 279h83q-3 -137 -12 -279z" />
    <glyph glyph-name="numbersign" unicode="#" horiz-adv-x="545" 
d="M159 -14h-44l27 198h-97v89h110l18 128h-106v89h118l27 190h43l-26 -190h133l27 190h43l-26 -190h94v-89h-107l-17 -128h102v-89h-115l-27 -198h-44l27 198h-133zM216 401l-17 -128h133l18 128h-134z" />
    <glyph glyph-name="dollar" unicode="$" horiz-adv-x="557" 
d="M315 -86h-58v79q-109 6 -188 65v102q77 -71 188 -80v227l-38 17q-80 36 -114 80t-34 109q0 78 48 126t138 56v78h58v-78q89 -6 150 -48v-99q-65 50 -150 60v-223l24 -10q94 -41 128 -85.5t34 -107.5q0 -77 -47.5 -127.5t-138.5 -59.5v-81zM404 180q0 31 -20 54.5
t-69 46.5v-198q89 16 89 97zM168 515q0 -37 22 -60.5t67 -43.5v197q-44 -6 -66.5 -31.5t-22.5 -61.5z" />
    <glyph glyph-name="percent" unicode="%" horiz-adv-x="813" 
d="M336 482q0 -89 -38.5 -148t-116.5 -59q-79 0 -117 58.5t-38 148.5q0 93 40 153.5t118 60.5q152 0 152 -214zM263 483q0 84 -21.5 116t-59.5 32q-82 0 -82 -150q0 -143 82 -143q81 0 81 145zM263 -12h-55l347 713h54zM787 200q0 -89 -38.5 -148t-116.5 -59
q-79 0 -117 58.5t-38 148.5q0 93 40 153.5t118 60.5q152 0 152 -214zM714 201q0 84 -21.5 116t-59.5 32q-82 0 -82 -150q0 -143 82 -143q81 0 81 145z" />
    <glyph glyph-name="ampersand" unicode="&#x26;" horiz-adv-x="682" 
d="M539 0q-19 18 -69 68q-93 -80 -206 -80q-101 0 -162.5 54t-61.5 142q0 71 38.5 116t120.5 84q-53 72 -53 146q0 68 49 114.5t130 46.5q72 0 116.5 -37.5t44.5 -102.5q0 -63 -36 -105t-109 -82q63 -78 144 -163q37 40 82 115l79 -50q-42 -71 -101 -134q21 -23 67 -70
t60 -62h-133zM293 423q57 30 78.5 57t21.5 62q0 29 -19.5 48t-52.5 19q-39 0 -59.5 -20.5t-20.5 -52.5q0 -56 52 -113zM248 322q-57 -27 -81.5 -56.5t-24.5 -77.5q0 -43 29 -77t94 -34q86 0 149 57q-96 101 -166 188z" />
    <glyph glyph-name="quotesingle" unicode="'" horiz-adv-x="182" 
d="M121 468h-59q-9 142 -12 279h82q-1 -128 -11 -279z" />
    <glyph glyph-name="parenleft" unicode="(" horiz-adv-x="316" 
d="M250 -155q-210 171 -210 451q0 298 209 458h72q-200 -173 -200 -457q0 -262 200 -452h-71z" />
    <glyph glyph-name="parenright" unicode=")" horiz-adv-x="316" 
d="M67 754q89 -69 149 -182t60 -272q0 -287 -210 -455h-71q200 181 200 455t-200 454h72z" />
    <glyph glyph-name="asterisk" unicode="*" horiz-adv-x="427" 
d="M372 619l16 -57q-111 -35 -137 -43q38 -45 91 -116l-48 -34q-53 73 -82 119q-15 -23 -45 -66.5t-36 -52.5l-47 33q38 54 89 118q-53 15 -134 43l18 55q81 -27 132 -49q-6 94 -6 146h61q0 -62 -5 -147q53 22 133 51z" />
    <glyph glyph-name="plus" unicode="+" horiz-adv-x="701" 
d="M383 34h-66v228h-217v66h217v226h66v-226h218v-66h-218v-228z" />
    <glyph glyph-name="comma" unicode="," horiz-adv-x="233" 
d="M89 -119h-77q72 118 73 263h93q0 -149 -89 -263z" />
    <glyph glyph-name="hyphen" unicode="-" horiz-adv-x="346" 
d="M301 221h-255v77h255v-77z" />
    <glyph glyph-name="period" unicode="." horiz-adv-x="217" 
d="M181 59q0 -28 -19 -47.5t-48 -19.5q-28 0 -45.5 19t-17.5 46q0 29 18.5 47.5t47.5 18.5q27 0 45.5 -18t18.5 -46z" />
    <glyph glyph-name="slash" unicode="/" horiz-adv-x="350" 
d="M46 -57h-60l312 788h60z" />
    <glyph glyph-name="zero" unicode="0" horiz-adv-x="524" 
d="M492 267q0 -122 -58.5 -200.5t-172.5 -78.5q-116 0 -172.5 79t-56.5 200q0 125 60 206.5t174 81.5q226 0 226 -288zM397 269q0 112 -35.5 155t-97.5 43q-57 0 -96 -46t-39 -154q0 -57 12.5 -96.5t34 -59t43 -27.5t46.5 -8q24 0 45 8t42 27t33 59.5t12 98.5z" />
    <glyph glyph-name="one" unicode="1" horiz-adv-x="379" 
d="M270 0h-98v424l-134 -61v94l232 103v-560z" />
    <glyph glyph-name="two" unicode="2" horiz-adv-x="496" 
d="M460 0h-444q181 172 235 232q67 76 67 135q0 100 -112 100q-88 0 -169 -64v87q83 65 189 65q95 0 142.5 -45t47.5 -121q0 -95 -73 -177q-36 -40 -127 -125q27 1 244 1v-88z" />
    <glyph glyph-name="three" unicode="3" horiz-adv-x="485" 
d="M35 -97v95q73 -50 174 -50q70 0 104 33.5t34 84.5q0 85 -97 102q-29 5 -90 5h-19v86h20q59 0 88 10q37 12 56 38t19 59q0 101 -120 101q-83 0 -156 -54v87q76 55 176 55q93 0 143 -44.5t50 -127.5q0 -53 -31.5 -97t-97.5 -61q154 -22 154 -161q0 -92 -62.5 -148
t-175.5 -56q-47 0 -94 12t-75 31z" />
    <glyph glyph-name="four" unicode="4" horiz-adv-x="538" 
d="M430 -138h-94v192h-310v63l322 432h82v-418h94v-77h-94v-192zM336 131q0 253 2 301q-21 -30 -218 -301h216z" />
    <glyph glyph-name="five" unicode="5" horiz-adv-x="493" 
d="M41 -95v96q77 -53 171 -53q71 0 112 37t41 102q0 62 -40 94.5t-110 32.5q-84 0 -151 -32l35 360h326v-88h-255l-17 -180q43 18 96 18q92 0 150.5 -50t58.5 -154q0 -107 -63.5 -167.5t-177.5 -60.5q-105 0 -176 45z" />
    <glyph glyph-name="six" unicode="6" horiz-adv-x="534" 
d="M140 333q16 41 61 68.5t104 27.5q84 0 137 -53t53 -156q0 -109 -58.5 -170.5t-155.5 -61.5q-104 0 -168 80t-64 250q0 183 75.5 273t191.5 90q91 0 141 -35v-98q-55 44 -134 44q-94 0 -137 -64.5t-46 -194.5zM146 243q3 -54 23 -98q32 -73 112 -73q53 0 87.5 37.5
t34.5 109.5q0 135 -119 135q-51 0 -89.5 -33t-48.5 -78z" />
    <glyph glyph-name="seven" unicode="7" horiz-adv-x="475" 
d="M201 -136h-101l228 590h-308v88h431z" />
    <glyph glyph-name="eight" unicode="8" horiz-adv-x="524" 
d="M160 347q-103 42 -103 153q0 81 59.5 131t146.5 50q93 0 149 -46.5t56 -132.5q0 -51 -27.5 -92.5t-79.5 -59.5q61 -16 92 -62t31 -105q0 -87 -61 -141t-165 -54q-94 0 -156.5 50.5t-62.5 142.5q0 58 32 103t89 63zM384 494q0 50 -32 78.5t-89 28.5q-52 0 -87 -28.5
t-35 -78.5q0 -47 31 -77.5t90 -30.5q58 0 90 29.5t32 78.5zM396 190q0 57 -36 85.5t-97 28.5q-62 0 -98.5 -30.5t-36.5 -82.5q0 -61 39 -91t94 -30q58 0 96.5 30.5t38.5 89.5z" />
    <glyph glyph-name="nine" unicode="9" horiz-adv-x="534" 
d="M396 203q-24 -40 -68 -64t-100 -24q-84 0 -135 52t-51 155q0 109 59.5 171t157.5 62q107 0 168 -79t61 -251q0 -185 -74.5 -275t-194.5 -90q-91 0 -144 35v98q56 -43 139 -43q94 0 137 64t45 189zM389 300q-2 61 -18 97q-34 75 -113 75q-53 0 -89 -38.5t-36 -110.5
q0 -134 119 -134q54 0 90.5 32t46.5 79z" />
    <glyph glyph-name="colon" unicode=":" horiz-adv-x="237" 
d="M201 59q0 -28 -19 -47.5t-48 -19.5q-28 0 -45.5 19t-17.5 46q0 29 18.5 47.5t47.5 18.5q27 0 45.5 -18t18.5 -46zM201 432q0 -28 -19 -47.5t-48 -19.5q-28 0 -45.5 19t-17.5 46q0 28 18.5 47t47.5 19q27 0 45.5 -18t18.5 -46z" />
    <glyph glyph-name="semicolon" unicode=";" horiz-adv-x="237" 
d="M201 432q0 -28 -19 -47.5t-48 -19.5q-28 0 -45.5 19t-17.5 46q0 28 18.5 47t47.5 19q27 0 45.5 -18t18.5 -46zM102 -119h-77q72 118 73 263h93q0 -149 -89 -263z" />
    <glyph glyph-name="less" unicode="&#x3c;" horiz-adv-x="701" 
d="M570 47l-453 217v62l453 223v-76l-379 -177l379 -173v-76z" />
    <glyph glyph-name="equal" unicode="=" horiz-adv-x="701" 
d="M100 432h501v-66h-501v66zM100 224h501v-66h-501v66z" />
    <glyph glyph-name="greater" unicode="&#x3e;" horiz-adv-x="701" 
d="M130 549l453 -218v-63l-453 -221v75l380 177l-380 173v77z" />
    <glyph glyph-name="question" unicode="?" horiz-adv-x="413" 
d="M214 226h-78q0 53 9 87t40 62q55 52 75.5 84t20.5 67q0 41 -24 71t-78 30q-81 0 -137 -50v92q60 50 161 50q81 0 130.5 -42.5t49.5 -123.5q0 -104 -118 -204q-28 -24 -38.5 -50.5t-12.5 -72.5zM241 59q0 -28 -19 -47.5t-48 -19.5q-28 0 -45.5 19t-17.5 46q0 29 18.5 47.5
t47.5 18.5q27 0 45.5 -18t18.5 -46z" />
    <glyph glyph-name="at" unicode="@" horiz-adv-x="790" 
d="M478 115q-58 -64 -142 -64q-61 0 -91 35.5t-30 98.5q0 52 17.5 100.5t50.5 87.5t86 63t118 24q58 0 108 -19l-51 -239q-10 -45 -10 -66q0 -17 10 -26.5t26 -9.5q50 0 91.5 74t41.5 169q0 122 -69.5 188t-188.5 66q-144 0 -246.5 -110t-102.5 -271q0 -136 80 -220.5
t217 -84.5q77 0 135 18.5t121 54.5v-49q-110 -68 -262 -68q-154 0 -248 96t-94 252q0 177 116.5 300.5t285.5 123.5q138 0 220.5 -77.5t82.5 -210.5q0 -122 -57.5 -210.5t-139.5 -88.5q-65 0 -75 63zM475 161l53 241q-29 6 -53 6q-91 0 -144.5 -68t-53.5 -152q0 -82 79 -82
q59 0 119 55z" />
    <glyph glyph-name="A" unicode="A" horiz-adv-x="651" 
d="M114 0h-109l273 706h95l273 -706h-106l-80 201h-268zM223 292h205q-78 205 -102 282q-17 -50 -103 -282z" />
    <glyph glyph-name="B" unicode="B" horiz-adv-x="634" 
d="M87 0v706h200q91 0 136 -15q56 -19 85.5 -60.5t29.5 -98.5q0 -113 -103 -160q153 -28 153 -172q0 -57 -26.5 -102.5t-78.5 -70.5q-54 -27 -172 -27h-224zM189 88h118q87 0 112 12q64 30 64 109q0 38 -22 67t-59 39q-32 8 -100 8h-113v-235zM189 405h102q73 0 98 17
q49 32 49 93q0 62 -46 87q-33 17 -99 17h-104v-214z" />
    <glyph glyph-name="C" unicode="C" horiz-adv-x="655" 
d="M610 48q-88 -60 -223 -60q-149 0 -246.5 98.5t-97.5 262.5t98.5 267.5t249.5 103.5q141 0 220 -57v-108q-76 73 -202 73q-117 0 -188.5 -74.5t-71.5 -202.5q0 -129 75 -200t187 -71q107 0 199 66v-98z" />
    <glyph glyph-name="D" unicode="D" horiz-adv-x="713" 
d="M87 0v706h170q155 0 227 -32q185 -80 185 -314q0 -251 -205 -329q-82 -31 -229 -31h-148zM189 95h68q123 0 179 27q128 61 128 235q0 163 -119 226q-51 28 -168 28h-88v-516z" />
    <glyph glyph-name="E" unicode="E" horiz-adv-x="543" 
d="M505 0h-418v706h401v-95h-299v-199h279v-95h-279v-222h316v-95z" />
    <glyph glyph-name="F" unicode="F" horiz-adv-x="516" 
d="M189 0h-102v706h394v-95h-292v-214h272v-95h-272v-302z" />
    <glyph glyph-name="G" unicode="G" horiz-adv-x="713" 
d="M649 48q-109 -60 -258 -60q-157 0 -252.5 100t-95.5 262q0 164 98.5 267t249.5 103q153 0 232 -58v-108q-78 74 -214 74q-118 0 -189 -76.5t-71 -200.5q0 -126 71.5 -198.5t184.5 -72.5q82 0 144 28v159h-147v95h247v-314z" />
    <glyph glyph-name="H" unicode="H" horiz-adv-x="712" 
d="M625 0h-101v317h-335v-317h-102v706h102v-294h335v294h101v-706z" />
    <glyph glyph-name="I" unicode="I" horiz-adv-x="276" 
d="M189 0h-102v706h102v-706z" />
    <glyph glyph-name="J" unicode="J" horiz-adv-x="278" 
d="M-2 -191l-35 81q74 36 99 66q27 32 27 106v644h102v-637q0 -113 -46 -165q-49 -55 -147 -95z" />
    <glyph glyph-name="K" unicode="K" horiz-adv-x="617" 
d="M189 0h-102v706h102v-312q71 87 270 312h123l-298 -332l329 -374h-130q-209 238 -294 341v-341z" />
    <glyph glyph-name="L" unicode="L" horiz-adv-x="524" 
d="M500 0h-413v706h102v-611h311v-95z" />
    <glyph glyph-name="M" unicode="M" horiz-adv-x="814" 
d="M187 0h-100v706h110q197 -314 209 -336q31 52 213 336h108v-706h-100q0 468 2 551q-28 -46 -225 -346q-191 299 -219 346q2 -82 2 -551z" />
    <glyph glyph-name="N" unicode="N" horiz-adv-x="732" 
d="M185 0h-98v706h91q332 -459 372 -519q-2 83 -2 519h97v-706h-84q-345 486 -378 538q2 -67 2 -538z" />
    <glyph glyph-name="O" unicode="O" horiz-adv-x="763" 
d="M720 356q0 -167 -94.5 -267.5t-247.5 -100.5q-148 0 -241.5 100.5t-93.5 264.5q0 163 96.5 264.5t247.5 101.5q154 0 243.5 -101.5t89.5 -261.5zM615 349q0 130 -62 204t-167 74t-171 -72.5t-66 -200.5q0 -127 64.5 -200.5t168.5 -73.5q106 0 169.5 72t63.5 197z" />
    <glyph glyph-name="P" unicode="P" horiz-adv-x="592" 
d="M189 0h-102v706h154q98 0 148 -11q162 -32 162 -200q0 -146 -118 -195q-67 -27 -185 -27h-59v-273zM189 364h62q83 0 123 15q72 27 72 111q0 95 -103 114q-36 7 -104 7h-50v-247z" />
    <glyph glyph-name="Q" unicode="Q" horiz-adv-x="763" 
d="M720 356q0 -124 -54 -213t-148 -128q95 -56 219 -92l-30 -87q-79 21 -170.5 67.5t-141.5 85.5q-3 0 -9 -0.5t-8 -0.5q-148 0 -241.5 100.5t-93.5 264.5q0 163 96.5 264.5t247.5 101.5q154 0 243.5 -101.5t89.5 -261.5zM615 349q0 130 -62 204t-167 74t-171 -72.5
t-66 -200.5q0 -127 64.5 -200.5t168.5 -73.5q106 0 169.5 72t63.5 197z" />
    <glyph glyph-name="R" unicode="R" horiz-adv-x="619" 
d="M189 0h-102v706h148q107 0 157 -11q148 -30 148 -180q0 -135 -138 -184q44 -19 80 -76t134 -255h-112q-81 162 -113.5 214.5t-59.5 69.5q-21 12 -66 12h-76v-296zM189 382h92q47 0 74 10q80 32 80 114q0 100 -107 112q-27 3 -94 3h-45v-239z" />
    <glyph glyph-name="S" unicode="S" horiz-adv-x="541" 
d="M45 56v109q45 -40 108 -63.5t117 -23.5q134 0 134 99q0 33 -25.5 60t-85.5 55l-88 41q-86 40 -121.5 84.5t-35.5 112.5q0 88 61 138.5t173 50.5q108 0 187 -50v-106q-41 32 -93.5 50t-101.5 18q-60 0 -91.5 -27t-31.5 -69q0 -39 21.5 -60.5t74.5 -46.5l87 -41
q101 -48 137 -92.5t36 -111.5q0 -89 -62 -142t-180 -53q-129 0 -220 68z" />
    <glyph glyph-name="T" unicode="T" horiz-adv-x="577" 
d="M338 0h-102v611h-209v95h522v-95h-211v-611z" />
    <glyph glyph-name="U" unicode="U" horiz-adv-x="723" 
d="M79 706h101v-409q0 -81 15 -123q16 -47 60 -70.5t105 -23.5q144 0 172 107q11 45 11 116v403h101v-406q0 -93 -23 -162q-25 -73 -93 -111.5t-170 -38.5q-204 0 -256 145q-23 65 -23 161v412z" />
    <glyph glyph-name="V" unicode="V" horiz-adv-x="649" 
d="M370 0h-91l-274 706h109q184 -484 214 -570q26 79 211 570h105z" />
    <glyph glyph-name="W" unicode="W" horiz-adv-x="977" 
d="M310 0h-89l-210 706h106q133 -460 156 -551q20 70 176 551h83q151 -458 176 -551q19 83 155 551h104l-212 -706h-88q-153 474 -177 568q-24 -90 -180 -568z" />
    <glyph glyph-name="X" unicode="X" horiz-adv-x="681" 
d="M129 0h-121l263 375l-233 331h123q31 -43 189 -268q56 90 181 268h116l-236 -336l262 -370h-124q-40 55 -213 301q-140 -206 -207 -301z" />
    <glyph glyph-name="Y" unicode="Y" horiz-adv-x="632" 
d="M364 0h-102v293l-258 413h120q133 -217 192 -319q44 80 199 319h113l-264 -413v-293z" />
    <glyph glyph-name="Z" unicode="Z" horiz-adv-x="621" 
d="M591 0h-584q270 408 406 612h-124q-124 -1 -234 -1v95h541q-379 -575 -404 -612q50 1 399 1v-95z" />
    <glyph glyph-name="bracketleft" unicode="[" horiz-adv-x="260" 
d="M248 -155h-175v903h175v-53h-98v-797h98v-53z" />
    <glyph glyph-name="backslash" unicode="\" horiz-adv-x="350" 
d="M365 -57h-60l-312 788h60z" />
    <glyph glyph-name="bracketright" unicode="]" horiz-adv-x="260" 
d="M12 752h175v-903h-175v53h98v796h-98v54z" />
    <glyph glyph-name="asciicircum" unicode="^" horiz-adv-x="711" 
d="M584 312h-74l-155 318l-154 -318h-74l193 394h70z" />
    <glyph glyph-name="underscore" unicode="_" horiz-adv-x="445" 
d="M0 -82h445v-37h-445v37z" />
    <glyph glyph-name="grave" unicode="`" horiz-adv-x="179" 
d="M201 578h-78l-144 170h108z" />
    <glyph glyph-name="a" unicode="a" horiz-adv-x="503" 
d="M432 0h-87v52q-60 -62 -146 -62q-69 0 -112 42.5t-43 104.5q0 81 62 118q68 41 236 52v15q0 50 -18 76q-23 33 -82 33q-99 0 -169 -61v83q70 60 178 60q120 0 161 -81q20 -40 20 -133v-299zM342 113v125q-124 -8 -175 -37q-34 -19 -34 -60q0 -32 22.5 -55t69.5 -23
q64 0 117 50z" />
    <glyph glyph-name="b" unicode="b" horiz-adv-x="565" 
d="M76 26v721h92v-298q58 63 151 63q100 0 153 -66t53 -183q0 -136 -69 -205.5t-184 -69.5q-105 0 -196 38zM168 86q41 -24 113 -24q64 0 106 48.5t42 143.5q0 92 -39 136t-98 44q-38 0 -72 -18t-52 -43v-287z" />
    <glyph glyph-name="c" unicode="c" horiz-adv-x="467" 
d="M436 27q-63 -39 -151 -39q-112 0 -178.5 71t-66.5 190q0 115 71 189.5t181 74.5q91 0 142 -40v-95q-59 49 -131 49q-79 0 -123 -49.5t-44 -123.5q0 -87 47 -133.5t118 -46.5q70 0 135 43v-90z" />
    <glyph glyph-name="d" unicode="d" horiz-adv-x="567" 
d="M490 0h-91v50q-54 -62 -155 -62q-96 0 -151.5 68t-55.5 183q0 122 62 197.5t174 75.5q86 0 124 -41v276h93v-747zM397 123v264q-32 50 -110 50q-68 0 -111.5 -49t-43.5 -143t40 -137.5t98 -43.5q38 0 73.5 17.5t53.5 41.5z" />
    <glyph glyph-name="e" unicode="e" horiz-adv-x="514" 
d="M472 34q-78 -46 -178 -46q-119 0 -186.5 70t-67.5 195q0 117 66 188.5t167 71.5q106 0 157 -66.5t51 -180.5v-36h-345q1 -80 49.5 -118.5t126.5 -38.5q94 0 160 51v-90zM137 301h248q0 137 -113 137q-61 0 -97 -40t-38 -97z" />
    <glyph glyph-name="f" unicode="f" horiz-adv-x="322" 
d="M188 0h-92v422h-68v78h68v60q0 78 17 118q35 78 146 78q57 0 86 -16v-81q-30 17 -75 17q-53 0 -70 -35q-12 -24 -12 -80v-61h117v-78h-117v-422z" />
    <glyph glyph-name="g" unicode="g" horiz-adv-x="501" 
d="M162 169q-59 20 -89 62.5t-30 99.5q0 80 56 130t145 50q49 0 83 -11h160v-77h-79q29 -36 29 -89q0 -99 -81 -142q-39 -20 -113 -36q-28 -6 -46 -20.5t-18 -31.5q0 -24 29 -30q17 -4 73 -8t79 -7q127 -17 127 -130q0 -77 -70.5 -127t-183.5 -50q-97 0 -155 36.5t-58 100.5
q0 83 121 124q-55 18 -55 65q0 53 76 91zM347 331q0 49 -27 77t-80 28q-48 0 -77.5 -28.5t-29.5 -75.5q0 -44 29 -71t77 -27t78 26t30 71zM394 -86q0 22 -11 35t-37 22q-46 14 -119 14q-53 0 -86 -23.5t-33 -57.5q0 -35 33.5 -55.5t98.5 -20.5q66 0 110 25t44 61z" />
    <glyph glyph-name="h" unicode="h" horiz-adv-x="552" 
d="M168 0h-92v747h92v-307q23 32 65 52t90 20q111 0 142 -86q17 -47 17 -151v-275h-93v273q0 86 -10 110q-19 47 -86 47q-77 0 -125 -68v-362z" />
    <glyph glyph-name="i" unicode="i" horiz-adv-x="244" 
d="M168 0h-92v500h92v-500zM179 659q0 -25 -16.5 -41.5t-41.5 -16.5q-24 0 -40 16t-16 40q0 25 16.5 42t41.5 17q24 0 40 -16t16 -41z" />
    <glyph glyph-name="j" unicode="j" horiz-adv-x="244" 
d="M6 -238l-33 75q49 22 72 48q31 35 31 111v504h92v-510q0 -98 -33 -138q-40 -49 -129 -90zM179 659q0 -25 -16.5 -41.5t-41.5 -16.5q-24 0 -40 16t-16 40q0 25 16.5 42t41.5 17q24 0 40 -16t16 -41z" />
    <glyph glyph-name="k" unicode="k" horiz-adv-x="512" 
d="M168 0h-92v747h92v-452q98 103 198 205h118l-226 -217l251 -283h-116q-166 185 -225 256v-256z" />
    <glyph glyph-name="l" unicode="l" horiz-adv-x="244" 
d="M168 0h-92v747h92v-747z" />
    <glyph glyph-name="m" unicode="m" horiz-adv-x="851" 
d="M168 0h-92v500h91v-61q57 73 153 73q102 0 136 -84q64 84 168 84q109 0 138 -87q16 -47 16 -149v-276h-92v273q0 74 -10 103q-19 54 -86 54q-75 0 -120 -67q3 -27 3 -87v-276h-92v273q0 79 -11 107q-21 50 -84 50q-72 0 -118 -68v-362z" />
    <glyph glyph-name="n" unicode="n" horiz-adv-x="555" 
d="M168 0h-92v500h90v-61q23 31 67.5 52t92.5 21q119 0 146 -106q10 -39 10 -131v-275h-93v273q0 81 -10 109q-18 48 -83 48q-37 0 -73.5 -19t-54.5 -49v-362z" />
    <glyph glyph-name="o" unicode="o" horiz-adv-x="555" 
d="M515 253q0 -122 -64 -193.5t-173 -71.5t-173.5 71.5t-64.5 188.5t66 191t174 74q109 0 172 -71.5t63 -188.5zM423 251q0 87 -37.5 134.5t-106.5 47.5q-65 0 -105.5 -48.5t-40.5 -135.5q0 -85 39 -133t106 -48q69 0 107 47.5t38 135.5z" />
    <glyph glyph-name="p" unicode="p" horiz-adv-x="563" 
d="M168 -237h-92v737h89v-53q24 29 64 47t84 18q101 0 155.5 -68.5t54.5 -183.5q0 -125 -62 -197.5t-172 -72.5q-78 0 -121 30v-257zM168 103q15 -17 47.5 -27.5t60.5 -10.5q75 0 113 52.5t38 137.5q0 86 -36 133.5t-104 47.5q-36 0 -70.5 -19t-48.5 -43v-271z" />
    <glyph glyph-name="q" unicode="q" horiz-adv-x="571" 
d="M489 -237h-92v285q-53 -60 -153 -60q-96 0 -151.5 68t-55.5 183q0 122 61.5 197.5t173.5 75.5q87 0 126 -47v35h91v-737zM397 123v264q-14 23 -43.5 36.5t-64.5 13.5q-69 0 -113 -49t-44 -143t40 -137.5t100 -43.5q38 0 73 17.5t52 41.5z" />
    <glyph glyph-name="r" unicode="r" horiz-adv-x="375" 
d="M168 0h-92v500h90v-73q37 86 132 86q36 0 60 -12v-87q-29 19 -68 19q-83 0 -122 -85v-348z" />
    <glyph glyph-name="s" unicode="s" horiz-adv-x="416" 
d="M39 38v98q35 -32 83.5 -50t89.5 -18q46 0 65.5 13.5t19.5 41.5q0 21 -15.5 36.5t-67.5 40.5l-57 27q-113 53 -113 146q0 62 46.5 101t125.5 39q88 0 153 -45v-93q-77 58 -159 58q-73 0 -73 -53q0 -13 3.5 -23t21.5 -25t51 -30l58 -27q63 -29 90.5 -60.5t27.5 -83.5
q0 -66 -47 -104.5t-128 -38.5q-96 0 -175 50z" />
    <glyph glyph-name="t" unicode="t" horiz-adv-x="358" 
d="M342 13q-46 -25 -114 -25q-45 0 -78.5 20t-45.5 60q-11 35 -11 117v237h-66v78h67v140h91v-140h133v-78h-133v-239q0 -47 8 -74q12 -40 68 -40q44 0 81 23v-79z" />
    <glyph glyph-name="u" unicode="u" horiz-adv-x="555" 
d="M479 0h-92v60q-58 -72 -155 -72q-113 0 -142 86q-17 49 -17 151v275h92v-273q0 -78 10 -102q11 -29 31.5 -42t59.5 -13q73 0 120 66v364h93v-500z" />
    <glyph glyph-name="v" unicode="v" horiz-adv-x="505" 
d="M288 0h-75l-209 500h103q133 -336 146 -376q17 54 149 376h99z" />
    <glyph glyph-name="w" unicode="w" horiz-adv-x="763" 
d="M247 0h-73l-161 500h103q88 -297 103 -360q23 69 128 360h71q120 -333 128 -360q9 38 103 360h101l-163 -500h-73q-123 333 -134 370q-11 -36 -133 -370z" />
    <glyph glyph-name="x" unicode="x" horiz-adv-x="513" 
d="M115 0h-107l184 257l-170 243h114q108 -162 123 -185q69 103 126 185h107l-174 -235l187 -265h-114q-35 50 -67.5 96.5t-46 66.5t-24.5 36q-9 -13 -23.5 -34t-45 -65.5t-69.5 -99.5z" />
    <glyph glyph-name="y" unicode="y" horiz-adv-x="504" 
d="M216 -237h-99l97 249l-210 488h103q136 -322 156 -378q19 55 139 378h98z" />
    <glyph glyph-name="z" unicode="z" horiz-adv-x="473" 
d="M455 0h-448q225 336 286 424q-34 -1 -250 -1v77h407q-86 -128 -154 -229t-92.5 -138t-37.5 -57q45 1 289 1v-77z" />
    <glyph glyph-name="braceleft" unicode="{" horiz-adv-x="312" 
d="M303 -157h-33q-74 0 -111 30q-40 34 -40 126v126q0 80 -23 112q-21 29 -75 34v57q63 8 80 39q18 30 18 105v131q0 77 34 116q35 38 119 38h31v-53h-26q-45 0 -65 -28q-19 -25 -19 -79v-127q0 -98 -31 -136q-18 -20 -59 -34q35 -7 54 -27q36 -38 36 -144v-128
q0 -60 22 -83q20 -24 64 -24h24v-51z" />
    <glyph glyph-name="bar" unicode="|" horiz-adv-x="209" 
d="M136 -156h-63v904h63v-904z" />
    <glyph glyph-name="braceright" unicode="}" horiz-adv-x="312" 
d="M8 757h34q72 0 110 -31q41 -35 41 -126v-126q0 -80 23 -112q20 -27 74 -34v-56q-62 -8 -80 -39q-17 -29 -17 -105v-132q0 -80 -34 -116q-33 -37 -119 -37h-32v52h26q44 0 65 28q20 25 20 79v128q0 99 31 136q18 20 58 34q-34 6 -54 26q-35 38 -35 144v129q0 58 -22 83
q-20 23 -65 23h-24v52z" />
    <glyph glyph-name="asciitilde" unicode="~" horiz-adv-x="701" 
d="M132 222l-47 34q77 116 159 116q40 0 119 -47q59 -36 97 -36q31 0 54.5 19t52.5 66l50 -31q-37 -61 -73 -91t-86 -30t-117 40q-68 40 -100 40q-55 0 -109 -80z" />
    <glyph glyph-name="exclamdown" unicode="&#xa1;" horiz-adv-x="272" 
d="M81 263h77q14 -339 14 -480h-104q0 140 13 480zM55 430q0 28 19 47.5t48 19.5q28 0 45.5 -19t17.5 -46q0 -28 -18.5 -47t-47.5 -19q-27 0 -45.5 18t-18.5 46z" />
    <glyph glyph-name="cent" unicode="&#xa2;" horiz-adv-x="496" 
d="M322 -86h-56v82q-94 11 -145 76.5t-51 172.5q0 103 51 170.5t145 81.5v86h56v-83q79 -3 127 -41v-87q-60 50 -127 50v-347q69 0 129 46v-85q-58 -39 -129 -42v-80zM163 250q0 -139 103 -168v332q-51 -16 -77 -60t-26 -104z" />
    <glyph glyph-name="sterling" unicode="&#xa3;" horiz-adv-x="645" 
d="M449 289h-165l-36 -200h321v-89h-498v89h76l36 200h-67v64h79l21 115q15 89 45 140q55 93 181 93q78 0 123 -28v-96q-49 34 -113 34q-73 0 -104 -51q-21 -35 -35 -113l-17 -94h153v-64z" />
    <glyph glyph-name="currency" unicode="&#xa4;" horiz-adv-x="561" 
d="M468 98l-67 67q-53 -38 -123 -38q-65 0 -119 37l-66 -66l-44 44l68 67q-42 55 -42 122q0 68 41 122l-67 68l46 44l66 -67q50 39 119 39q72 0 119 -40l68 68l43 -43l-67 -68q41 -51 41 -120q0 -73 -40 -123l67 -70zM416 331q0 63 -39 103.5t-97 40.5q-57 0 -97.5 -40
t-40.5 -102q0 -63 40.5 -103t97.5 -40t96.5 40t39.5 101z" />
    <glyph glyph-name="yen" unicode="&#xa5;" horiz-adv-x="646" 
d="M556 345h-151l-35 -55v-28h186v-54h-186v-208h-100v208h-178v54h178v28l-35 55h-143v55h109l-180 289h119q106 -170 184 -303q48 82 193 303h108l-185 -289h116v-55z" />
    <glyph glyph-name="brokenbar" unicode="&#xa6;" horiz-adv-x="215" 
d="M141 400h-68v306h68v-306zM141 -39h-68v306h68v-306z" />
    <glyph glyph-name="section" unicode="&#xa7;" horiz-adv-x="448" 
d="M47 -53v88q77 -66 164 -66q39 0 63.5 22.5t24.5 54.5q0 26 -13 44t-43 37q-115 71 -139 88q-66 47 -66 122q0 45 26.5 78.5t69.5 47.5q-61 55 -61 127q0 57 41 101.5t122 44.5q94 0 145 -39v-84q-61 51 -139 51q-41 0 -61.5 -20t-20.5 -50t14 -48.5t54 -43.5
q79 -50 133 -91q54 -42 54 -113q0 -45 -27 -78.5t-66 -46.5q35 -28 50.5 -55.5t15.5 -67.5q0 -66 -47 -111t-130 -45q-94 0 -164 53zM275 207q24 8 43.5 27.5t19.5 46.5q0 26 -13 45.5t-46 41.5q-12 8 -33 21t-36.5 23t-26.5 18q-22 -5 -44 -26t-22 -53q0 -27 12 -43.5
t40 -36.5q37 -25 106 -64z" />
    <glyph glyph-name="dieresis" unicode="&#xa8;" horiz-adv-x="179" 
d="M59 659q0 -23 -15 -38.5t-37 -15.5q-23 0 -37 15t-14 38t14.5 38.5t37.5 15.5t37 -15t14 -38zM223 659q0 -23 -15 -38.5t-37 -15.5q-23 0 -37 15t-14 38t14.5 38.5t37.5 15.5t37 -15t14 -38z" />
    <glyph glyph-name="copyright" unicode="&#xa9;" horiz-adv-x="828" 
d="M780 352q0 -157 -104 -261.5t-262 -104.5t-262 105t-104 261t104.5 261.5t260.5 105.5q161 0 264 -104.5t103 -262.5zM748 352q0 145 -94.5 242.5t-240.5 97.5q-144 0 -238 -97.5t-94 -242.5q0 -146 94 -242t239 -96q146 0 240 96t94 242zM563 152q-54 -38 -137 -38
q-97 0 -157 64t-60 173q0 105 62.5 171.5t157.5 66.5q87 0 132 -32v-72q-46 41 -122 41q-72 0 -115.5 -48t-43.5 -123q0 -89 46 -133.5t116 -44.5q65 0 121 40v-65z" />
    <glyph glyph-name="ordfeminine" unicode="&#xaa;" horiz-adv-x="319" 
d="M275 282h-64v31q-34 -37 -89 -37q-43 0 -68 23.5t-25 61.5q0 46 38 68q43 24 142 32v9q0 27 -10 39q-14 19 -48 19q-61 0 -105 -36v56q43 38 113 38q79 0 104 -51q12 -22 12 -79v-174zM209 351v68q-73 -7 -96 -20q-21 -11 -21 -35q0 -16 13 -27.5t39 -11.5q36 0 65 26z
" />
    <glyph glyph-name="guillemotleft" unicode="&#xab;" horiz-adv-x="434" 
d="M233 74h-86l-126 184l125 184h86l-122 -184zM409 74h-87l-126 184l125 184h87l-122 -184z" />
    <glyph glyph-name="logicalnot" unicode="&#xac;" horiz-adv-x="701" 
d="M601 34h-65v228h-447v66h512v-294z" />
    <glyph glyph-name="uni00AD" unicode="&#xad;" horiz-adv-x="346" 
d="M301 221h-255v77h255v-77z" />
    <glyph glyph-name="registered" unicode="&#xae;" horiz-adv-x="828" 
d="M780 352q0 -157 -104 -261.5t-262 -104.5t-262 105t-104 261t104.5 261.5t260.5 105.5q161 0 264 -104.5t103 -262.5zM748 352q0 145 -94.5 242.5t-240.5 97.5q-144 0 -238 -97.5t-94 -242.5q0 -146 94 -242t239 -96q146 0 240 96t94 242zM347 127h-64v453h93q72 0 98 -6
q94 -22 94 -116q0 -87 -88 -119q27 -12 50 -49t85 -163h-71q-49 100 -70 134t-40 46q-12 9 -40 9h-47v-189zM347 374h60q30 0 46 7q49 19 49 71q0 60 -65 67q-27 3 -61 3h-29v-148z" />
    <glyph glyph-name="macron" unicode="&#xaf;" horiz-adv-x="169" 
d="M212 605h-256v69h256v-69z" />
    <glyph glyph-name="degree" unicode="&#xb0;" horiz-adv-x="312" 
d="M290 577q0 -61 -39.5 -99t-95.5 -38q-57 0 -95 39t-38 94q0 61 39.5 99.5t95.5 38.5q60 0 96.5 -38t36.5 -96zM247 577q0 37 -24 65.5t-68 28.5q-40 0 -64 -28t-24 -68t25 -67t64 -27q40 0 65.5 27.5t25.5 68.5z" />
    <glyph glyph-name="plusminus" unicode="&#xb1;" horiz-adv-x="701" 
d="M383 153h-66v216h-217v66h217v214h66v-214h218v-66h-218v-216zM601 0h-501v66h501v-66z" />
    <glyph glyph-name="twosuperior" unicode="&#xb2;" 
d="M324 420h-305q116 123 165 185q42 53 42 94q0 70 -76 70q-56 0 -110 -40v62q56 43 127 43q65 0 98.5 -32t33.5 -87q0 -68 -53 -130q-33 -39 -94 -103q34 1 172 1v-63z" />
    <glyph glyph-name="threesuperior" unicode="&#xb3;" 
d="M38 438v66q48 -30 115 -30q82 0 82 67q0 46 -57 55q-30 4 -58 4h-14v58h14q41 0 56 5q44 14 44 52q0 56 -72 56q-54 0 -101 -31v60q49 34 116 34q62 0 95 -28t33 -78q0 -31 -20.5 -57t-62.5 -37q99 -13 99 -99q0 -55 -41 -88.5t-116 -33.5q-73 0 -112 25z" />
    <glyph glyph-name="acute" unicode="&#xb4;" horiz-adv-x="179" 
d="M57 578h-78l114 170h108z" />
    <glyph glyph-name="mu" unicode="&#xb5;" horiz-adv-x="578" 
d="M174 -237h-92v737h92v-273q0 -75 10 -102q21 -55 94 -55q77 0 126 68v362h92v-500h-92v61q-16 -30 -52 -50t-78 -20q-75 0 -100 54v-282z" />
    <glyph glyph-name="paragraph" unicode="&#xb6;" horiz-adv-x="511" 
d="M286 -127h-32v368q-97 0 -156.5 64t-59.5 161q0 112 67.5 176t196.5 64h139v-833h-31v802h-124v-802z" />
    <glyph glyph-name="periodcentered" unicode="&#xb7;" horiz-adv-x="217" 
d="M181 260q0 -28 -19 -47.5t-48 -19.5q-28 0 -45.5 19t-17.5 46q0 28 18.5 47t47.5 19q27 0 45.5 -18t18.5 -46z" />
    <glyph glyph-name="cedilla" unicode="&#xb8;" horiz-adv-x="169" 
d="M-12 -240v55q28 -18 71 -18q29 0 42 13.5t13 33.5t-16 32t-46 12q-23 0 -40 -6l34 125h53l-20 -70q1 0 6 0.5t7 0.5q42 0 66 -25t24 -68q0 -50 -33 -76.5t-89 -26.5q-46 0 -72 18z" />
    <glyph glyph-name="onesuperior" unicode="&#xb9;" 
d="M230 420h-76v322l-80 -33v66l156 62v-417z" />
    <glyph glyph-name="ordmasculine" unicode="&#xba;" horiz-adv-x="348" 
d="M322 433q0 -73 -40 -115.5t-109 -42.5q-68 0 -107.5 42t-39.5 112q0 69 41 113t108 44q69 0 108 -42t39 -111zM253 431q0 97 -79 97q-36 0 -58 -25.5t-22 -73.5q0 -46 21 -71t58 -25q80 0 80 98z" />
    <glyph glyph-name="guillemotright" unicode="&#xbb;" horiz-adv-x="434" 
d="M201 442h86l126 -184l-125 -184h-86l122 184zM25 442h87l126 -184l-125 -184h-87l122 184z" />
    <glyph glyph-name="onequarter" unicode="&#xbc;" horiz-adv-x="800" 
d="M251 -12h-55l347 713h54zM233 282h-76v322l-80 -33v66l156 62v-417zM693 0h-72v109h-187v45l195 253h64v-244h58v-54h-58v-109zM621 163q0 129 1 156q-29 -40 -118 -156h117z" />
    <glyph glyph-name="onehalf" unicode="&#xbd;" horiz-adv-x="800" 
d="M231 -12h-55l347 713h54zM219 282h-76v322l-80 -33v66l156 62v-417zM765 0h-305q116 123 165 185q42 53 42 94q0 70 -76 70q-56 0 -110 -40v62q56 43 127 43q65 0 98.5 -32t33.5 -87q0 -68 -53 -130q-33 -39 -94 -103q34 1 172 1v-63z" />
    <glyph glyph-name="threequarters" unicode="&#xbe;" horiz-adv-x="800" 
d="M277 -12h-55l347 713h54zM57 300v66q48 -30 115 -30q82 0 82 67q0 46 -57 55q-30 4 -58 4h-14v58h14q41 0 56 5q44 14 44 52q0 56 -72 56q-55 0 -101 -31v60q49 34 116 34q62 0 95 -28t33 -78q0 -31 -20.5 -57t-62.5 -37q99 -13 99 -99q0 -55 -41 -88.5t-116 -33.5
q-73 0 -112 25zM711 0h-72v109h-187v45l195 253h64v-244h58v-54h-58v-109zM639 163q0 129 1 156q-29 -40 -118 -156h117z" />
    <glyph glyph-name="questiondown" unicode="&#xbf;" horiz-adv-x="413" 
d="M199 263h78q0 -53 -9 -87t-40 -62q-55 -52 -75.5 -84t-20.5 -67q0 -41 24 -71t78 -30q81 0 137 50v-92q-60 -50 -161 -50q-81 0 -130.5 42.5t-49.5 123.5q0 104 118 204q28 24 38.5 50.5t12.5 72.5zM172 430q0 28 19 47.5t48 19.5q28 0 45.5 -19t17.5 -46q0 -28 -19 -47
t-47 -19q-27 0 -45.5 18t-18.5 46z" />
    <glyph glyph-name="Agrave" unicode="&#xc0;" horiz-adv-x="651" 
d="M114 0h-109l273 706h95l273 -706h-106l-80 201h-268zM223 292h205q-78 205 -102 282q-17 -50 -103 -282zM410 760h-95l-164 137h126z" />
    <glyph glyph-name="Aacute" unicode="&#xc1;" horiz-adv-x="651" 
d="M114 0h-109l273 706h95l273 -706h-106l-80 201h-268zM223 292h205q-78 205 -102 282q-17 -50 -103 -282zM330 760h-95l133 137h126z" />
    <glyph glyph-name="Acircumflex" unicode="&#xc2;" horiz-adv-x="651" 
d="M114 0h-109l273 706h95l273 -706h-106l-80 201h-268zM223 292h205q-78 205 -102 282q-17 -50 -103 -282zM244 760h-83l127 137h73l128 -137h-84l-82 67z" />
    <glyph glyph-name="Atilde" unicode="&#xc3;" horiz-adv-x="651" 
d="M112 0h-109l273 706h95l273 -706h-106l-80 201h-268zM221 292h205q-78 205 -102 282q-17 -50 -103 -282zM218 762h-58q7 61 33.5 95t62.5 34q31 0 76 -31q38 -25 55 -25q30 0 39 55h59q-5 -62 -30 -94.5t-61 -32.5q-34 0 -83 32q-34 22 -49 22t-27.5 -14.5t-16.5 -40.5z
" />
    <glyph glyph-name="Adieresis" unicode="&#xc4;" horiz-adv-x="651" 
d="M114 0h-109l273 706h95l273 -706h-106l-80 201h-268zM223 292h205q-78 205 -102 282q-17 -50 -103 -282zM290 829q0 -23 -15 -38.5t-37 -15.5q-23 0 -37 15t-14 38t14.5 38.5t37.5 15.5t37 -15t14 -38zM462 829q0 -23 -15 -38.5t-37 -15.5q-23 0 -37 15t-14 38t14.5 38.5
t37.5 15.5t37 -15t14 -38z" />
    <glyph glyph-name="Aring" unicode="&#xc5;" horiz-adv-x="651" 
d="M114 0h-109l273 706h95l273 -706h-106l-80 201h-268zM223 292h205q-78 205 -102 282q-17 -50 -103 -282zM416 839q0 -38 -26 -64t-66 -26q-38 0 -63 25.5t-25 64.5q0 41 26 66t66 25t64 -25t24 -66zM377 840q0 25 -15 40.5t-38 15.5q-22 0 -36.5 -16t-14.5 -41
q0 -23 14 -39t39 -16q23 0 37 16t14 40z" />
    <glyph glyph-name="AE" unicode="&#xc6;" horiz-adv-x="996" 
d="M123 0h-123l491 706h450v-95h-299v-199h279v-95h-279v-222h316v-95h-418v210h-273zM329 304h211v312q-49 -76 -211 -312z" />
    <glyph glyph-name="Ccedilla" unicode="&#xc7;" horiz-adv-x="655" 
d="M273 -247v57q29 -19 73 -19q30 0 43 14t13 34t-16.5 33t-46.5 13q-25 0 -41 -7l30 115q-127 18 -206 113.5t-79 242.5q0 164 98.5 267.5t249.5 103.5q141 0 220 -57v-108q-76 73 -202 73q-117 0 -188.5 -74.5t-71.5 -202.5q0 -129 75 -200t187 -71q107 0 199 66v-98
q-88 -60 -223 -60h-6l-15 -53q1 0 6 0.5t7 0.5q44 0 68 -25.5t24 -70.5q0 -52 -33.5 -79t-90.5 -27q-45 0 -74 19z" />
    <glyph glyph-name="Egrave" unicode="&#xc8;" horiz-adv-x="543" 
d="M505 0h-418v706h401v-95h-299v-199h279v-95h-279v-222h316v-95zM381 760h-95l-164 137h126z" />
    <glyph glyph-name="Eacute" unicode="&#xc9;" horiz-adv-x="543" 
d="M505 0h-418v706h401v-95h-299v-199h279v-95h-279v-222h316v-95zM306 750h-95l133 137h126z" />
    <glyph glyph-name="Ecircumflex" unicode="&#xca;" horiz-adv-x="543" 
d="M505 0h-418v706h401v-95h-299v-199h279v-95h-279v-222h316v-95zM207 760h-83l127 137h73l128 -137h-84l-82 67z" />
    <glyph glyph-name="Edieresis" unicode="&#xcb;" horiz-adv-x="543" 
d="M505 0h-418v706h401v-95h-299v-199h279v-95h-279v-222h316v-95zM257 829q0 -23 -15 -38.5t-37 -15.5q-23 0 -37 15t-14 38t14.5 38.5t37.5 15.5t37 -15t14 -38zM429 829q0 -23 -15 -38.5t-37 -15.5q-23 0 -37 15t-14 38t14.5 38.5t37.5 15.5t37 -15t14 -38z" />
    <glyph glyph-name="Igrave" unicode="&#xcc;" horiz-adv-x="276" 
d="M189 0h-102v706h102v-706zM223 760h-95l-164 137h126z" />
    <glyph glyph-name="Iacute" unicode="&#xcd;" horiz-adv-x="276" 
d="M189 0h-102v706h102v-706zM144 750h-95l133 137h126z" />
    <glyph glyph-name="Icircumflex" unicode="&#xce;" horiz-adv-x="276" 
d="M189 0h-102v706h102v-706zM56 760h-83l127 137h73l128 -137h-84l-82 67z" />
    <glyph glyph-name="Idieresis" unicode="&#xcf;" horiz-adv-x="276" 
d="M189 0h-102v706h102v-706zM103 829q0 -23 -15 -38.5t-37 -15.5q-23 0 -37 15t-14 38t14.5 38.5t37.5 15.5t37 -15t14 -38zM275 829q0 -23 -15 -38.5t-37 -15.5q-23 0 -37 15t-14 38t14.5 38.5t37.5 15.5t37 -15t14 -38z" />
    <glyph glyph-name="Eth" unicode="&#xd0;" horiz-adv-x="713" 
d="M87 0v333h-76v64h76v309h170q155 0 227 -32q185 -80 185 -314q0 -251 -205 -329q-82 -31 -229 -31h-148zM189 95h68q123 0 179 27q128 61 128 235q0 163 -119 226q-51 28 -168 28h-88v-214h180v-64h-180v-238z" />
    <glyph glyph-name="Ntilde" unicode="&#xd1;" horiz-adv-x="732" 
d="M185 0h-98v706h91q332 -459 372 -519q-2 83 -2 519h97v-706h-84q-345 486 -378 538q2 -67 2 -538zM261 762h-58q7 61 33.5 95t62.5 34q31 0 76 -31q38 -25 55 -25q30 0 39 55h59q-5 -62 -30 -94.5t-61 -32.5q-34 0 -83 32q-34 22 -49 22t-27.5 -14.5t-16.5 -40.5z" />
    <glyph glyph-name="Ograve" unicode="&#xd2;" horiz-adv-x="763" 
d="M720 356q0 -167 -94.5 -267.5t-247.5 -100.5q-148 0 -241.5 100.5t-93.5 264.5q0 163 96.5 264.5t247.5 101.5q154 0 243.5 -101.5t89.5 -261.5zM615 349q0 130 -62 204t-167 74t-171 -72.5t-66 -200.5q0 -127 64.5 -200.5t168.5 -73.5q106 0 169.5 72t63.5 197zM484 760
h-95l-164 137h126z" />
    <glyph glyph-name="Oacute" unicode="&#xd3;" horiz-adv-x="763" 
d="M720 356q0 -167 -94.5 -267.5t-247.5 -100.5q-148 0 -241.5 100.5t-93.5 264.5q0 163 96.5 264.5t247.5 101.5q154 0 243.5 -101.5t89.5 -261.5zM615 349q0 130 -62 204t-167 74t-171 -72.5t-66 -200.5q0 -127 64.5 -200.5t168.5 -73.5q106 0 169.5 72t63.5 197zM371 754
h-95l133 137h126z" />
    <glyph glyph-name="Ocircumflex" unicode="&#xd4;" horiz-adv-x="763" 
d="M720 356q0 -167 -94.5 -267.5t-247.5 -100.5q-148 0 -241.5 100.5t-93.5 264.5q0 163 96.5 264.5t247.5 101.5q154 0 243.5 -101.5t89.5 -261.5zM615 349q0 130 -62 204t-167 74t-171 -72.5t-66 -200.5q0 -127 64.5 -200.5t168.5 -73.5q106 0 169.5 72t63.5 197zM307 760
h-83l127 137h73l128 -137h-84l-82 67z" />
    <glyph glyph-name="Otilde" unicode="&#xd5;" horiz-adv-x="763" 
d="M720 356q0 -167 -94.5 -267.5t-247.5 -100.5q-148 0 -241.5 100.5t-93.5 264.5q0 163 96.5 264.5t247.5 101.5q154 0 243.5 -101.5t89.5 -261.5zM615 349q0 130 -62 204t-167 74t-171 -72.5t-66 -200.5q0 -127 64.5 -200.5t168.5 -73.5q106 0 169.5 72t63.5 197zM282 762
h-58q7 61 33.5 95t62.5 34q31 0 76 -31q38 -25 55 -25q30 0 39 55h59q-5 -62 -30 -94.5t-61 -32.5q-34 0 -83 32q-34 22 -49 22t-27.5 -14.5t-16.5 -40.5z" />
    <glyph glyph-name="Odieresis" unicode="&#xd6;" horiz-adv-x="763" 
d="M720 356q0 -167 -94.5 -267.5t-247.5 -100.5q-148 0 -241.5 100.5t-93.5 264.5q0 163 96.5 264.5t247.5 101.5q154 0 243.5 -101.5t89.5 -261.5zM615 349q0 130 -62 204t-167 74t-171 -72.5t-66 -200.5q0 -127 64.5 -200.5t168.5 -73.5q106 0 169.5 72t63.5 197zM352 829
q0 -23 -15 -38.5t-37 -15.5q-23 0 -37 15t-14 38t14.5 38.5t37.5 15.5t37 -15t14 -38zM524 829q0 -23 -15 -38.5t-37 -15.5q-23 0 -37 15t-14 38t14.5 38.5t37.5 15.5t37 -15t14 -38z" />
    <glyph glyph-name="multiply" unicode="&#xd7;" horiz-adv-x="701" 
d="M180 80l-45 47l170 172l-170 171l46 48l169 -172l171 171l45 -47l-171 -171l170 -171l-45 -47l-170 171z" />
    <glyph glyph-name="Oslash" unicode="&#xd8;" horiz-adv-x="763" 
d="M136 -48l-50 32l63 91q-106 101 -106 278q0 163 96.5 264.5t247.5 101.5q100 0 177 -47l58 83l49 -32l-60 -86q109 -101 109 -281q0 -167 -95 -267.5t-247 -100.5q-102 0 -182 50zM615 349q0 128 -62 204l-301 -434q54 -39 130 -39q107 0 170 71.5t63 197.5zM149 354
q0 -120 59 -195l301 433q-56 35 -123 35q-105 0 -171 -72.5t-66 -200.5z" />
    <glyph glyph-name="Ugrave" unicode="&#xd9;" horiz-adv-x="723" 
d="M79 706h101v-409q0 -81 15 -123q16 -47 60 -70.5t105 -23.5q144 0 172 107q11 45 11 116v403h101v-406q0 -93 -23 -162q-25 -73 -93 -111.5t-170 -38.5q-204 0 -256 145q-23 65 -23 161v412zM462 760h-95l-164 137h126z" />
    <glyph glyph-name="Uacute" unicode="&#xda;" horiz-adv-x="723" 
d="M79 706h101v-409q0 -81 15 -123q16 -47 60 -70.5t105 -23.5q144 0 172 107q11 45 11 116v403h101v-406q0 -93 -23 -162q-25 -73 -93 -111.5t-170 -38.5q-204 0 -256 145q-23 65 -23 161v412zM369 750h-95l133 137h126z" />
    <glyph glyph-name="Ucircumflex" unicode="&#xdb;" horiz-adv-x="723" 
d="M79 706h101v-409q0 -81 15 -123q16 -47 60 -70.5t105 -23.5q144 0 172 107q11 45 11 116v403h101v-406q0 -93 -23 -162q-25 -73 -93 -111.5t-170 -38.5q-204 0 -256 145q-23 65 -23 161v412zM284 760h-83l127 137h73l128 -137h-84l-82 67z" />
    <glyph glyph-name="Udieresis" unicode="&#xdc;" horiz-adv-x="723" 
d="M79 706h101v-409q0 -81 15 -123q16 -47 60 -70.5t105 -23.5q144 0 172 107q11 45 11 116v403h101v-406q0 -93 -23 -162q-25 -73 -93 -111.5t-170 -38.5q-204 0 -256 145q-23 65 -23 161v412zM331 829q0 -23 -15 -38.5t-37 -15.5q-23 0 -37 15t-14 38t14.5 38.5t37.5 15.5
t37 -15t14 -38zM503 829q0 -23 -15 -38.5t-37 -15.5q-23 0 -37 15t-14 38t14.5 38.5t37.5 15.5t37 -15t14 -38z" />
    <glyph glyph-name="Yacute" unicode="&#xdd;" horiz-adv-x="632" 
d="M364 0h-102v293l-258 413h120q133 -217 192 -319q44 80 199 319h113l-264 -413v-293zM326 759h-95l133 137h126z" />
    <glyph glyph-name="Thorn" unicode="&#xde;" horiz-adv-x="592" 
d="M189 0h-102v706h102v-128h52q99 0 149 -11q161 -32 161 -201q0 -145 -118 -194q-67 -27 -185 -27h-59v-145zM189 236h62q79 0 123 15q72 26 72 108q0 99 -100 116q-52 8 -107 8h-50v-247z" />
    <glyph glyph-name="germandbls" unicode="&#xdf;" horiz-adv-x="566" 
d="M168 0h-92v487q0 121 31 177q24 44 71.5 68t106.5 24q94 0 144 -55.5t50 -134.5q0 -70 -25 -112t-87 -70q72 -8 117.5 -56t45.5 -136q0 -92 -50 -148t-138 -56q-77 0 -119 24v86q19 -13 51.5 -21.5t55.5 -8.5q108 0 108 131q0 64 -41.5 99.5t-124.5 35.5h-16v84h15
q60 0 88 38.5t28 97.5q0 54 -26.5 88t-78.5 34q-65 0 -93 -48q-21 -36 -21 -138v-490z" />
    <glyph glyph-name="agrave" unicode="&#xe0;" horiz-adv-x="503" 
d="M432 0h-87v52q-60 -62 -146 -62q-69 0 -112 42.5t-43 104.5q0 81 62 118q68 41 236 52v15q0 50 -18 76q-23 33 -82 33q-99 0 -169 -61v83q70 60 178 60q120 0 161 -81q20 -40 20 -133v-299zM342 113v125q-124 -8 -175 -37q-34 -19 -34 -60q0 -32 22.5 -55t69.5 -23
q64 0 117 50zM318 578h-78l-144 170h108z" />
    <glyph glyph-name="aacute" unicode="&#xe1;" horiz-adv-x="503" 
d="M432 0h-87v52q-60 -62 -146 -62q-69 0 -112 42.5t-43 104.5q0 81 62 118q68 41 236 52v15q0 50 -18 76q-23 33 -82 33q-99 0 -169 -61v83q70 60 178 60q120 0 161 -81q20 -40 20 -133v-299zM342 113v125q-124 -8 -175 -37q-34 -19 -34 -60q0 -32 22.5 -55t69.5 -23
q64 0 117 50zM255 578h-78l114 170h108z" />
    <glyph glyph-name="acircumflex" unicode="&#xe2;" horiz-adv-x="503" 
d="M432 0h-87v52q-60 -62 -146 -62q-69 0 -112 42.5t-43 104.5q0 81 62 118q68 41 236 52v15q0 50 -18 76q-23 33 -82 33q-99 0 -169 -61v83q70 60 178 60q120 0 161 -81q20 -40 20 -133v-299zM342 113v125q-124 -8 -175 -37q-34 -19 -34 -60q0 -32 22.5 -55t69.5 -23
q64 0 117 50zM176 575h-76l122 166h59l122 -166h-77l-76 90z" />
    <glyph glyph-name="atilde" unicode="&#xe3;" horiz-adv-x="503" 
d="M432 0h-87v52q-60 -62 -146 -62q-69 0 -112 42.5t-43 104.5q0 81 62 118q68 41 236 52v15q0 50 -18 76q-23 33 -82 33q-99 0 -169 -61v83q70 60 178 60q120 0 161 -81q20 -40 20 -133v-299zM342 113v125q-124 -8 -175 -37q-34 -19 -34 -60q0 -32 22.5 -55t69.5 -23
q64 0 117 50zM149 595h-58q5 61 31.5 95.5t61.5 34.5q26 0 72 -31q35 -25 52 -25q31 0 38 56h55q-3 -62 -28 -95.5t-59 -33.5q-32 0 -77 31q-35 24 -50 24q-28 0 -38 -56z" />
    <glyph glyph-name="adieresis" unicode="&#xe4;" horiz-adv-x="503" 
d="M432 0h-87v52q-60 -62 -146 -62q-69 0 -112 42.5t-43 104.5q0 81 62 118q68 41 236 52v15q0 50 -18 76q-23 33 -82 33q-99 0 -169 -61v83q70 60 178 60q120 0 161 -81q20 -40 20 -133v-299zM342 113v125q-124 -8 -175 -37q-34 -19 -34 -60q0 -32 22.5 -55t69.5 -23
q64 0 117 50zM222 659q0 -23 -15 -38.5t-37 -15.5q-23 0 -37 15t-14 38t14.5 38.5t37.5 15.5t37 -15t14 -38zM386 659q0 -23 -15 -38.5t-37 -15.5q-23 0 -37 15t-14 38t14.5 38.5t37.5 15.5t37 -15t14 -38z" />
    <glyph glyph-name="aring" unicode="&#xe5;" horiz-adv-x="503" 
d="M432 0h-87v52q-60 -62 -146 -62q-69 0 -112 42.5t-43 104.5q0 81 62 118q68 41 236 52v15q0 50 -18 76q-23 33 -82 33q-99 0 -169 -61v83q70 60 178 60q120 0 161 -81q20 -40 20 -133v-299zM342 113v125q-124 -8 -175 -37q-34 -19 -34 -60q0 -32 22.5 -55t69.5 -23
q64 0 117 50zM346 670q0 -40 -27.5 -67.5t-68.5 -27.5q-40 0 -66.5 27t-26.5 68q0 43 27 69.5t69 26.5q41 0 67 -26.5t26 -69.5zM306 671q0 27 -15.5 43.5t-40.5 16.5q-23 0 -38.5 -17.5t-15.5 -43.5q0 -25 15 -42.5t42 -17.5q23 0 38 18t15 43z" />
    <glyph glyph-name="ae" unicode="&#xe6;" horiz-adv-x="815" 
d="M776 36q-89 -48 -181 -48q-128 0 -188 77q-85 -76 -195 -76q-80 0 -124 43.5t-44 105.5q0 82 66 119q71 41 240 47v15q0 53 -21 81q-24 31 -86 31q-91 0 -170 -61v82q70 61 176 61q119 0 155 -81q66 81 172 81q105 0 155.5 -65.5t50.5 -178.5v-36h-344q0 -46 20 -86
q38 -78 155 -78q88 0 163 56v-89zM372 121q-19 43 -23 113q-134 -2 -182 -30q-34 -20 -34 -62q0 -32 23 -55.5t73 -23.5q76 0 143 58zM438 304h250q-1 30 -5 49.5t-15 41t-35 32.5t-60 11q-58 0 -96 -36.5t-39 -97.5z" />
    <glyph glyph-name="ccedilla" unicode="&#xe7;" horiz-adv-x="467" 
d="M170 -240v55q28 -18 71 -18q29 0 42 13.5t13 33.5t-16 32t-46 12q-23 0 -40 -6l30 112q-86 18 -135 85.5t-49 169.5q0 115 71 189.5t181 74.5q91 0 142 -40v-94q-61 49 -131 49q-77 0 -122 -50t-45 -124q0 -87 47 -133.5t121 -46.5q67 0 132 43v-90q-63 -39 -151 -39h-10
l-14 -51q1 0 6 0.5t7 0.5q42 0 66 -25t24 -68q0 -50 -33 -76.5t-89 -26.5q-46 0 -72 18z" />
    <glyph glyph-name="egrave" unicode="&#xe8;" horiz-adv-x="514" 
d="M472 34q-78 -46 -178 -46q-119 0 -186.5 70t-67.5 195q0 117 66 188.5t167 71.5q106 0 157 -66.5t51 -180.5v-36h-345q1 -80 49.5 -118.5t126.5 -38.5q94 0 160 51v-90zM137 301h248q0 137 -113 137q-61 0 -97 -40t-38 -97zM345 578h-78l-144 170h108z" />
    <glyph glyph-name="eacute" unicode="&#xe9;" horiz-adv-x="514" 
d="M472 34q-78 -46 -178 -46q-119 0 -186.5 70t-67.5 195q0 117 66 188.5t167 71.5q106 0 157 -66.5t51 -180.5v-36h-345q1 -80 49.5 -118.5t126.5 -38.5q94 0 160 51v-90zM137 301h248q0 137 -113 137q-61 0 -97 -40t-38 -97zM273 578h-78l114 170h108z" />
    <glyph glyph-name="ecircumflex" unicode="&#xea;" horiz-adv-x="514" 
d="M472 34q-78 -46 -178 -46q-119 0 -186.5 70t-67.5 195q0 117 66 188.5t167 71.5q106 0 157 -66.5t51 -180.5v-36h-345q1 -80 49.5 -118.5t126.5 -38.5q94 0 160 51v-90zM137 301h248q0 137 -113 137q-61 0 -97 -40t-38 -97zM196 575h-76l122 166h59l122 -166h-77l-76 90z
" />
    <glyph glyph-name="edieresis" unicode="&#xeb;" horiz-adv-x="514" 
d="M472 34q-78 -46 -178 -46q-119 0 -186.5 70t-67.5 195q0 117 66 188.5t167 71.5q106 0 157 -66.5t51 -180.5v-36h-345q1 -80 49.5 -118.5t126.5 -38.5q94 0 160 51v-90zM137 301h248q0 137 -113 137q-61 0 -97 -40t-38 -97zM241 659q0 -23 -15 -38.5t-37 -15.5
q-23 0 -37 15t-14 38t14.5 38.5t37.5 15.5t37 -15t14 -38zM405 659q0 -23 -15 -38.5t-37 -15.5q-23 0 -37 15t-14 38t14.5 38.5t37.5 15.5t37 -15t14 -38z" />
    <glyph glyph-name="igrave" unicode="&#xec;" horiz-adv-x="244" 
d="M198 578h-78l-144 170h108zM168 0h-92v500h92v-500z" />
    <glyph glyph-name="iacute" unicode="&#xed;" horiz-adv-x="244" 
d="M129 578h-78l114 170h108zM168 0h-92v500h92v-500z" />
    <glyph glyph-name="icircumflex" unicode="&#xee;" horiz-adv-x="244" 
d="M168 0h-92v500h92v-500zM46 575h-76l122 166h59l122 -166h-77l-76 90z" />
    <glyph glyph-name="idieresis" unicode="&#xef;" horiz-adv-x="244" 
d="M91 659q0 -23 -15 -38.5t-37 -15.5q-23 0 -37 15t-14 38t14.5 38.5t37.5 15.5t37 -15t14 -38zM255 659q0 -23 -15 -38.5t-37 -15.5q-23 0 -37 15t-14 38t14.5 38.5t37.5 15.5t37 -15t14 -38zM168 0h-92v500h92v-500z" />
    <glyph glyph-name="eth" unicode="&#xf0;" horiz-adv-x="566" 
d="M476 681l-78 -51q117 -145 117 -366q0 -132 -66 -204t-172 -72q-103 0 -170 69.5t-67 190.5q0 117 63.5 183t158.5 66q101 0 144 -65q-18 88 -71 156l-87 -56l-26 44l78 51q-54 51 -119 74l28 58q84 -23 154 -90l86 56zM423 250q0 87 -38.5 132.5t-106.5 45.5
q-64 0 -104.5 -47t-40.5 -130q0 -86 39.5 -133.5t105.5 -47.5q67 0 106 47.5t39 132.5z" />
    <glyph glyph-name="ntilde" unicode="&#xf1;" horiz-adv-x="555" 
d="M168 0h-92v500h90v-61q23 31 67.5 52t92.5 21q119 0 146 -106q10 -39 10 -131v-275h-93v273q0 81 -10 109q-18 48 -83 48q-37 0 -73.5 -19t-54.5 -49v-362zM177 595h-58q5 61 31.5 95.5t61.5 34.5q26 0 72 -31q35 -25 52 -25q31 0 38 56h55q-3 -62 -28 -95.5t-59 -33.5
q-32 0 -77 31q-35 24 -50 24q-28 0 -38 -56z" />
    <glyph glyph-name="ograve" unicode="&#xf2;" horiz-adv-x="555" 
d="M515 253q0 -122 -64 -193.5t-173 -71.5t-173.5 71.5t-64.5 188.5t66 191t174 74q109 0 172 -71.5t63 -188.5zM423 251q0 87 -37.5 134.5t-106.5 47.5q-65 0 -105.5 -48.5t-40.5 -135.5q0 -85 39 -133t106 -48q69 0 107 47.5t38 135.5zM353 578h-78l-144 170h108z" />
    <glyph glyph-name="oacute" unicode="&#xf3;" horiz-adv-x="555" 
d="M515 253q0 -122 -64 -193.5t-173 -71.5t-173.5 71.5t-64.5 188.5t66 191t174 74q109 0 172 -71.5t63 -188.5zM423 251q0 87 -37.5 134.5t-106.5 47.5q-65 0 -105.5 -48.5t-40.5 -135.5q0 -85 39 -133t106 -48q69 0 107 47.5t38 135.5zM270 578h-78l114 170h108z" />
    <glyph glyph-name="ocircumflex" unicode="&#xf4;" horiz-adv-x="555" 
d="M515 253q0 -122 -64 -193.5t-173 -71.5t-173.5 71.5t-64.5 188.5t66 191t174 74q109 0 172 -71.5t63 -188.5zM423 251q0 87 -37.5 134.5t-106.5 47.5q-65 0 -105.5 -48.5t-40.5 -135.5q0 -85 39 -133t106 -48q69 0 107 47.5t38 135.5zM202 575h-76l122 166h59l122 -166
h-77l-76 90z" />
    <glyph glyph-name="otilde" unicode="&#xf5;" horiz-adv-x="555" 
d="M515 253q0 -122 -64 -193.5t-173 -71.5t-173.5 71.5t-64.5 188.5t66 191t174 74q109 0 172 -71.5t63 -188.5zM423 251q0 87 -37.5 134.5t-106.5 47.5q-65 0 -105.5 -48.5t-40.5 -135.5q0 -85 39 -133t106 -48q69 0 107 47.5t38 135.5zM180 595h-58q5 61 31.5 95.5
t61.5 34.5q26 0 72 -31q35 -25 52 -25q31 0 38 56h55q-3 -62 -28 -95.5t-59 -33.5q-32 0 -77 31q-35 24 -50 24q-28 0 -38 -56z" />
    <glyph glyph-name="odieresis" unicode="&#xf6;" horiz-adv-x="555" 
d="M515 253q0 -122 -64 -193.5t-173 -71.5t-173.5 71.5t-64.5 188.5t66 191t174 74q109 0 172 -71.5t63 -188.5zM423 251q0 87 -37.5 134.5t-106.5 47.5q-65 0 -105.5 -48.5t-40.5 -135.5q0 -85 39 -133t106 -48q69 0 107 47.5t38 135.5zM246 659q0 -23 -15 -38.5t-37 -15.5
q-23 0 -37 15t-14 38t14.5 38.5t37.5 15.5t37 -15t14 -38zM410 659q0 -23 -15 -38.5t-37 -15.5q-23 0 -37 15t-14 38t14.5 38.5t37.5 15.5t37 -15t14 -38z" />
    <glyph glyph-name="divide" unicode="&#xf7;" horiz-adv-x="701" 
d="M601 262h-501v66h501v-66zM398 456q0 -22 -14 -37t-36 -15q-21 0 -34 15t-13 36q0 22 14 37t35 15t34.5 -14.5t13.5 -36.5zM398 133q0 -22 -14.5 -37.5t-35.5 -15.5t-34 15t-13 36q0 22 14 37t35 15t34.5 -14t13.5 -36z" />
    <glyph glyph-name="oslash" unicode="&#xf8;" horiz-adv-x="555" 
d="M105 -51l-46 32l50 73q-69 72 -69 194q0 116 66 190t174 74q70 0 124 -32l50 72l46 -32l-52 -75q67 -72 67 -192q0 -122 -64 -193.5t-173 -71.5q-71 0 -125 31zM133 249q0 -73 29 -119l194 280q-32 20 -77 20q-66 0 -106 -47.5t-40 -133.5zM423 251q0 73 -28 118
l-193 -279q32 -20 76 -20q69 0 107 46.5t38 134.5z" />
    <glyph glyph-name="ugrave" unicode="&#xf9;" horiz-adv-x="555" 
d="M479 0h-92v60q-58 -72 -155 -72q-113 0 -142 86q-17 49 -17 151v275h92v-273q0 -78 10 -102q11 -29 31.5 -42t59.5 -13q73 0 120 66v364h93v-500zM357 578h-78l-144 170h108z" />
    <glyph glyph-name="uacute" unicode="&#xfa;" horiz-adv-x="555" 
d="M479 0h-92v60q-58 -72 -155 -72q-113 0 -142 86q-17 49 -17 151v275h92v-273q0 -78 10 -102q11 -29 31.5 -42t59.5 -13q73 0 120 66v364h93v-500zM284 578h-78l114 170h108z" />
    <glyph glyph-name="ucircumflex" unicode="&#xfb;" horiz-adv-x="555" 
d="M479 0h-92v60q-58 -72 -155 -72q-113 0 -142 86q-17 49 -17 151v275h92v-273q0 -78 10 -102q11 -29 31.5 -42t59.5 -13q73 0 120 66v364h93v-500zM205 575h-76l122 166h59l122 -166h-77l-76 90z" />
    <glyph glyph-name="udieresis" unicode="&#xfc;" horiz-adv-x="555" 
d="M479 0h-92v60q-58 -72 -155 -72q-113 0 -142 86q-17 49 -17 151v275h92v-273q0 -78 10 -102q11 -29 31.5 -42t59.5 -13q73 0 120 66v364h93v-500zM254 659q0 -23 -15 -38.5t-37 -15.5q-23 0 -37 15t-14 38t14.5 38.5t37.5 15.5t37 -15t14 -38zM418 659q0 -23 -15 -38.5
t-37 -15.5q-23 0 -37 15t-14 38t14.5 38.5t37.5 15.5t37 -15t14 -38z" />
    <glyph glyph-name="yacute" unicode="&#xfd;" horiz-adv-x="504" 
d="M216 -237h-99l97 249l-210 488h103q136 -322 156 -378q19 55 139 378h98zM270 578h-78l114 170h108z" />
    <glyph glyph-name="thorn" unicode="&#xfe;" horiz-adv-x="563" 
d="M168 -237h-92v984h92v-299q23 27 62.5 45.5t82.5 18.5q101 0 155.5 -68.5t54.5 -183.5q0 -125 -62 -197.5t-172 -72.5q-78 0 -121 30v-257zM168 103q16 -17 48 -27.5t60 -10.5q75 0 113 52.5t38 137.5q0 86 -36 133.5t-104 47.5q-35 0 -70 -19t-49 -43v-271z" />
    <glyph glyph-name="ydieresis" unicode="&#xff;" horiz-adv-x="504" 
d="M216 -237h-99l97 249l-210 488h103q136 -322 156 -378q19 55 139 378h98zM222 659q0 -23 -15 -38.5t-37 -15.5q-23 0 -37 15t-14 38t14.5 38.5t37.5 15.5t37 -15t14 -38zM386 659q0 -23 -15 -38.5t-37 -15.5q-23 0 -37 15t-14 38t14.5 38.5t37.5 15.5t37 -15t14 -38z" />
    <glyph glyph-name="Amacron" unicode="&#x100;" horiz-adv-x="651" 
d="M112 0h-109l273 706h95l273 -706h-106l-80 201h-268zM221 292h205q-78 205 -102 282q-17 -50 -103 -282zM457 789h-267v70h267v-70z" />
    <glyph glyph-name="amacron" unicode="&#x101;" horiz-adv-x="503" 
d="M432 0h-87v52q-60 -62 -146 -62q-69 0 -112 42.5t-43 104.5q0 81 62 118q68 41 236 52v15q0 50 -18 76q-23 33 -82 33q-99 0 -169 -61v83q70 60 178 60q120 0 161 -81q20 -40 20 -133v-299zM342 113v125q-124 -8 -175 -37q-34 -19 -34 -60q0 -32 22.5 -55t69.5 -23
q64 0 117 50zM381 605h-256v69h256v-69z" />
    <glyph glyph-name="Abreve" unicode="&#x102;" horiz-adv-x="651" 
d="M112 0h-109l273 706h95l273 -706h-106l-80 201h-268zM221 292h205q-78 205 -102 282q-17 -50 -103 -282zM182 904h60q6 -82 81 -82q81 0 86 82h60q-2 -65 -39 -105t-108 -40q-68 0 -103.5 39t-36.5 106z" />
    <glyph glyph-name="abreve" unicode="&#x103;" horiz-adv-x="503" 
d="M432 0h-87v52q-60 -62 -146 -62q-69 0 -112 42.5t-43 104.5q0 81 62 118q68 41 236 52v15q0 50 -18 76q-23 33 -82 33q-99 0 -169 -61v83q70 60 178 60q120 0 161 -81q20 -40 20 -133v-299zM342 113v125q-124 -8 -175 -37q-34 -19 -34 -60q0 -32 22.5 -55t69.5 -23
q64 0 117 50zM114 717h58q3 -45 24.5 -66t52.5 -21q76 0 82 87h57q-2 -66 -37.5 -109t-102.5 -43q-64 0 -98.5 42t-35.5 110z" />
    <glyph glyph-name="Aogonek" unicode="&#x104;" horiz-adv-x="651" 
d="M114 0h-109l273 706h95l273 -706h-45q-103 -72 -103 -139q0 -29 17 -47.5t47 -18.5q33 0 64 18v-53q-35 -23 -76 -23q-120 0 -120 114q0 44 28.5 84t79.5 68l-78 198h-268zM223 292h205q-78 205 -102 282q-17 -50 -103 -282z" />
    <glyph glyph-name="aogonek" unicode="&#x105;" horiz-adv-x="503" 
d="M432 0h-23q-97 -68 -97 -131q0 -30 16 -47t47 -17t62 17v-51q-31 -22 -74 -22q-118 0 -118 110q0 41 26.5 78.5t73.5 64.5v51q-61 -63 -146 -63q-69 0 -112 42.5t-43 104.5q0 81 62 118q68 41 236 52v13q0 50 -18 76q-24 35 -82 35q-99 0 -169 -61v83q70 60 178 60
q120 0 161 -81q20 -40 20 -133v-299zM342 112v126q-124 -8 -175 -37q-34 -19 -34 -60q0 -32 22.5 -55t69.5 -23q65 0 117 49z" />
    <glyph glyph-name="Cacute" unicode="&#x106;" horiz-adv-x="655" 
d="M610 48q-88 -60 -223 -60q-149 0 -246.5 98.5t-97.5 262.5t98.5 267.5t249.5 103.5q141 0 220 -57v-108q-76 73 -202 73q-117 0 -188.5 -74.5t-71.5 -202.5q0 -129 75 -200t187 -71q107 0 199 66v-98zM375 757h-95l133 137h126z" />
    <glyph glyph-name="cacute" unicode="&#x107;" horiz-adv-x="467" 
d="M436 27q-63 -39 -151 -39q-112 0 -178.5 71t-66.5 190q0 115 71 189.5t181 74.5q91 0 142 -40v-92q-59 49 -131 49q-77 0 -122 -51t-45 -125q0 -87 47 -132.5t121 -45.5q67 0 132 43v-92zM274 578h-78l114 170h108z" />
    <glyph glyph-name="Ccircumflex" unicode="&#x108;" horiz-adv-x="655" 
d="M610 48q-88 -60 -223 -60q-149 0 -246.5 98.5t-97.5 262.5t98.5 267.5t249.5 103.5q141 0 220 -57v-108q-76 73 -202 73q-117 0 -188.5 -74.5t-71.5 -202.5q0 -129 75 -200t187 -71q107 0 199 66v-98zM306 760h-83l127 137h73l128 -137h-84l-82 67z" />
    <glyph glyph-name="ccircumflex" unicode="&#x109;" horiz-adv-x="467" 
d="M436 27q-63 -39 -151 -39q-112 0 -178.5 71t-66.5 190q0 115 71 189.5t181 74.5q91 0 142 -40v-95q-59 49 -131 49q-79 0 -123 -49.5t-44 -123.5q0 -87 47 -133.5t118 -46.5q70 0 135 43v-90zM205 575h-76l122 166h59l122 -166h-77l-76 90z" />
    <glyph glyph-name="Cdotaccent" unicode="&#x10a;" horiz-adv-x="655" 
d="M610 48q-88 -60 -223 -60q-149 0 -246.5 98.5t-97.5 262.5t98.5 267.5t249.5 103.5q141 0 220 -57v-108q-76 73 -202 73q-117 0 -188.5 -74.5t-71.5 -202.5q0 -129 75 -200t187 -71q107 0 199 66v-98zM415 829q0 -23 -15 -38.5t-37 -15.5q-23 0 -37 15t-14 38t14.5 38.5
t37.5 15.5t37 -15t14 -38z" />
    <glyph glyph-name="cdotaccent" unicode="&#x10b;" horiz-adv-x="467" 
d="M436 27q-63 -39 -151 -39q-112 0 -178.5 71t-66.5 190q0 115 71 189.5t181 74.5q91 0 142 -40v-95q-59 49 -131 49q-79 0 -123 -49.5t-44 -123.5q0 -87 47 -133.5t118 -46.5q70 0 135 43v-90zM337 659q0 -23 -15 -38.5t-37 -15.5q-23 0 -37 15t-14 38t14.5 38.5
t37.5 15.5t37 -15t14 -38z" />
    <glyph glyph-name="Ccaron" unicode="&#x10c;" horiz-adv-x="655" 
d="M610 48q-88 -60 -223 -60q-149 0 -246.5 98.5t-97.5 262.5t98.5 267.5t249.5 103.5q141 0 220 -57v-108q-76 73 -202 73q-117 0 -188.5 -74.5t-71.5 -202.5q0 -129 75 -200t187 -71q107 0 199 66v-98zM443 897h83l-127 -137h-73l-128 137h84l82 -67z" />
    <glyph glyph-name="ccaron" unicode="&#x10d;" horiz-adv-x="467" 
d="M436 27q-63 -39 -151 -39q-112 0 -178.5 71t-66.5 190q0 115 71 189.5t181 74.5q91 0 142 -40v-95q-59 49 -131 49q-79 0 -123 -49.5t-44 -123.5q0 -87 47 -133.5t118 -46.5q70 0 135 43v-90zM346 745h76l-122 -166h-59l-122 166h77l76 -90z" />
    <glyph glyph-name="Dcaron" unicode="&#x10e;" horiz-adv-x="713" 
d="M87 0v706h170q155 0 227 -32q185 -80 185 -314q0 -251 -205 -329q-82 -31 -229 -31h-148zM189 95h68q123 0 179 27q128 61 128 235q0 163 -119 226q-51 28 -168 28h-88v-516zM389 897h83l-127 -137h-73l-128 137h84l82 -67z" />
    <glyph glyph-name="dcaron" unicode="&#x10f;" horiz-adv-x="567" 
d="M490 0h-91v50q-54 -62 -155 -62q-96 0 -151.5 68t-55.5 183q0 122 62 197.5t174 75.5q86 0 124 -41v276h93v-747zM397 123v264q-32 50 -110 50q-68 0 -111.5 -49t-43.5 -143t40 -137.5t98 -43.5q38 0 73.5 17.5t53.5 41.5zM602 519h-67q68 99 68 229h80q0 -140 -81 -229z
" />
    <glyph glyph-name="Dcroat" unicode="&#x110;" horiz-adv-x="713" 
d="M87 0v333h-76v64h76v309h170q155 0 227 -32q185 -80 185 -314q0 -251 -205 -329q-82 -31 -229 -31h-148zM189 95h68q123 0 179 27q128 61 128 235q0 163 -119 226q-51 28 -168 28h-88v-214h180v-64h-180v-238z" />
    <glyph glyph-name="dcroat" unicode="&#x111;" horiz-adv-x="567" 
d="M490 0h-91v50q-54 -62 -155 -62q-96 0 -151.5 68t-55.5 183q0 122 62 197.5t174 75.5q86 0 124 -41v104h-129v62h129v110h93v-110h68v-62h-68v-575zM397 123v264q-32 50 -110 50q-68 0 -111.5 -49t-43.5 -143t40 -137.5t98 -43.5q38 0 73.5 17.5t53.5 41.5z" />
    <glyph glyph-name="Emacron" unicode="&#x112;" horiz-adv-x="543" 
d="M505 0h-418v706h401v-95h-299v-199h279v-95h-279v-222h316v-95zM426 789h-267v70h267v-70z" />
    <glyph glyph-name="emacron" unicode="&#x113;" horiz-adv-x="514" 
d="M472 34q-78 -46 -178 -46q-119 0 -186.5 70t-67.5 195q0 117 66 188.5t167 71.5q106 0 157 -66.5t51 -180.5v-36h-345q1 -80 49.5 -118.5t126.5 -38.5q94 0 160 51v-90zM137 301h248q0 137 -113 137q-61 0 -97 -40t-38 -97zM397 605h-256v69h256v-69z" />
    <glyph glyph-name="Ebreve" unicode="&#x114;" horiz-adv-x="543" 
d="M505 0h-418v706h401v-95h-299v-199h279v-95h-279v-222h316v-95zM151 904h60q6 -82 81 -82q81 0 86 82h60q-2 -65 -39 -105t-108 -40q-68 0 -103.5 39t-36.5 106z" />
    <glyph glyph-name="ebreve" unicode="&#x115;" horiz-adv-x="514" 
d="M472 34q-78 -46 -178 -46q-119 0 -186.5 70t-67.5 195q0 117 66 188.5t167 71.5q106 0 157 -66.5t51 -180.5v-36h-345q1 -80 49.5 -118.5t126.5 -38.5q94 0 160 51v-90zM137 301h248q0 137 -113 137q-61 0 -97 -40t-38 -97zM130 717h58q3 -45 24.5 -66t52.5 -21
q76 0 82 87h57q-2 -66 -37.5 -109t-102.5 -43q-64 0 -98.5 42t-35.5 110z" />
    <glyph glyph-name="Edotaccent" unicode="&#x116;" horiz-adv-x="543" 
d="M505 0h-418v706h401v-95h-299v-199h279v-95h-279v-222h316v-95zM348 829q0 -23 -15 -38.5t-37 -15.5q-23 0 -37 15t-14 38t14.5 38.5t37.5 15.5t37 -15t14 -38z" />
    <glyph glyph-name="edotaccent" unicode="&#x117;" horiz-adv-x="514" 
d="M472 34q-78 -46 -178 -46q-119 0 -186.5 70t-67.5 195q0 117 66 188.5t167 71.5q106 0 157 -66.5t51 -180.5v-36h-345q1 -80 49.5 -118.5t126.5 -38.5q94 0 160 51v-90zM137 301h248q0 137 -113 137q-61 0 -97 -40t-38 -97zM319 659q0 -23 -15 -38.5t-37 -15.5
q-23 0 -37 15t-14 38t14.5 38.5t37.5 15.5t37 -15t14 -38z" />
    <glyph glyph-name="Eogonek" unicode="&#x118;" horiz-adv-x="543" 
d="M505 0h-28q-103 -72 -103 -139q0 -29 17 -47.5t47 -18.5q33 0 64 18v-53q-35 -23 -76 -23q-120 0 -120 114q0 89 103 149h-322v706h401v-95h-299v-199h279v-95h-279v-222h316v-95z" />
    <glyph glyph-name="eogonek" unicode="&#x119;" horiz-adv-x="514" 
d="M472 34q-40 -23 -80 -34q-96 -68 -96 -131q0 -30 16 -47t47 -17t62 17v-51q-31 -22 -74 -22q-118 0 -118 110q0 74 77 129h-12q-119 0 -186.5 70t-67.5 195q0 117 66 188.5t167 71.5q106 0 157 -66.5t51 -180.5v-36h-345q1 -80 49.5 -118.5t126.5 -38.5q94 0 160 51v-90z
M137 301h248q0 137 -113 137q-61 0 -97 -40t-38 -97z" />
    <glyph glyph-name="Ecaron" unicode="&#x11a;" horiz-adv-x="543" 
d="M505 0h-418v706h401v-95h-299v-199h279v-95h-279v-222h316v-95zM367 897h83l-127 -137h-73l-128 137h84l82 -67z" />
    <glyph glyph-name="ecaron" unicode="&#x11b;" horiz-adv-x="514" 
d="M472 34q-78 -46 -178 -46q-119 0 -186.5 70t-67.5 195q0 117 66 188.5t167 71.5q106 0 157 -66.5t51 -180.5v-36h-345q1 -80 49.5 -118.5t126.5 -38.5q94 0 160 51v-90zM137 301h248q0 137 -113 137q-61 0 -97 -40t-38 -97zM342 745h76l-122 -166h-59l-122 166h77l76 -90
z" />
    <glyph glyph-name="Gcircumflex" unicode="&#x11c;" horiz-adv-x="713" 
d="M649 48q-109 -60 -258 -60q-157 0 -252.5 100t-95.5 262q0 164 98.5 267t249.5 103q153 0 232 -58v-108q-78 74 -214 74q-118 0 -189 -76.5t-71 -200.5q0 -126 71.5 -198.5t184.5 -72.5q82 0 144 28v159h-147v95h247v-314zM302 760h-83l127 137h73l128 -137h-84l-82 67z
" />
    <glyph glyph-name="gcircumflex" unicode="&#x11d;" horiz-adv-x="501" 
d="M162 169q-59 20 -89 62.5t-30 99.5q0 80 56 130t145 50q49 0 83 -11h160v-77h-79q29 -36 29 -89q0 -99 -81 -142q-39 -20 -113 -36q-28 -6 -46 -20.5t-18 -31.5q0 -24 29 -30q17 -4 73 -8t79 -7q127 -17 127 -130q0 -77 -70.5 -127t-183.5 -50q-97 0 -155 36.5t-58 100.5
q0 83 121 124q-55 18 -55 65q0 53 76 91zM347 331q0 49 -27 77t-80 28q-48 0 -77.5 -28.5t-29.5 -75.5q0 -44 29 -71t77 -27t78 26t30 71zM394 -86q0 22 -11 35t-37 22q-46 14 -119 14q-53 0 -86 -23.5t-33 -57.5q0 -35 33.5 -55.5t98.5 -20.5q66 0 110 25t44 61zM169 575
h-76l122 166h59l122 -166h-77l-76 90z" />
    <glyph glyph-name="Gbreve" unicode="&#x11e;" horiz-adv-x="713" 
d="M649 48q-109 -60 -258 -60q-157 0 -252.5 100t-95.5 262q0 164 98.5 267t249.5 103q153 0 232 -58v-108q-78 74 -214 74q-118 0 -189 -76.5t-71 -200.5q0 -126 71.5 -198.5t184.5 -72.5q82 0 144 28v159h-147v95h247v-314zM225 904h60q6 -82 81 -82q81 0 86 82h60
q-2 -65 -39 -105t-108 -40q-68 0 -103.5 39t-36.5 106z" />
    <glyph glyph-name="gbreve" unicode="&#x11f;" horiz-adv-x="501" 
d="M162 169q-59 20 -89 62.5t-30 99.5q0 80 56 130t145 50q49 0 83 -11h160v-77h-79q29 -36 29 -89q0 -99 -81 -142q-39 -20 -113 -36q-28 -6 -46 -20.5t-18 -31.5q0 -24 29 -30q17 -4 73 -8t79 -7q127 -17 127 -130q0 -77 -70.5 -127t-183.5 -50q-97 0 -155 36.5t-58 100.5
q0 83 121 124q-55 18 -55 65q0 53 76 91zM347 331q0 49 -27 77t-80 28q-48 0 -77.5 -28.5t-29.5 -75.5q0 -44 29 -71t77 -27t78 26t30 71zM394 -86q0 22 -11 35t-37 22q-46 14 -119 14q-53 0 -86 -23.5t-33 -57.5q0 -35 33.5 -55.5t98.5 -20.5q66 0 110 25t44 61zM110 717
h58q3 -45 24.5 -66t52.5 -21q76 0 82 87h57q-2 -66 -37.5 -109t-102.5 -43q-64 0 -98.5 42t-35.5 110z" />
    <glyph glyph-name="Gdotaccent" unicode="&#x120;" horiz-adv-x="713" 
d="M649 48q-109 -60 -258 -60q-157 0 -252.5 100t-95.5 262q0 164 98.5 267t249.5 103q153 0 232 -58v-108q-78 74 -214 74q-118 0 -189 -76.5t-71 -200.5q0 -126 71.5 -198.5t184.5 -72.5q82 0 144 28v159h-147v95h247v-314zM427 829q0 -23 -15 -38.5t-37 -15.5
q-23 0 -37 15t-14 38t14.5 38.5t37.5 15.5t37 -15t14 -38z" />
    <glyph glyph-name="gdotaccent" unicode="&#x121;" horiz-adv-x="501" 
d="M162 169q-59 20 -89 62.5t-30 99.5q0 80 56 130t145 50q49 0 83 -11h160v-77h-79q29 -36 29 -89q0 -99 -81 -142q-39 -20 -113 -36q-28 -6 -46 -20.5t-18 -31.5q0 -24 29 -30q17 -4 73 -8t79 -7q127 -17 127 -130q0 -77 -70.5 -127t-183.5 -50q-97 0 -155 36.5t-58 100.5
q0 83 121 124q-55 18 -55 65q0 53 76 91zM347 331q0 49 -27 77t-80 28q-48 0 -77.5 -28.5t-29.5 -75.5q0 -44 29 -71t77 -27t78 26t30 71zM394 -86q0 22 -11 35t-37 22q-46 14 -119 14q-53 0 -86 -23.5t-33 -57.5q0 -35 33.5 -55.5t98.5 -20.5q66 0 110 25t44 61zM298 659
q0 -23 -15 -38.5t-37 -15.5q-23 0 -37 15t-14 38t14.5 38.5t37.5 15.5t37 -15t14 -38z" />
    <glyph glyph-name="Gcommaaccent" unicode="&#x122;" horiz-adv-x="713" 
d="M649 48q-109 -60 -258 -60q-157 0 -252.5 100t-95.5 262q0 164 98.5 267t249.5 103q153 0 232 -58v-108q-78 74 -214 74q-118 0 -189 -76.5t-71 -200.5q0 -126 71.5 -198.5t184.5 -72.5q82 0 144 28v159h-147v95h247v-314zM348 -294h-67q68 99 68 229h80q0 -140 -81 -229
z" />
    <glyph glyph-name="gcommaaccent" unicode="&#x123;" horiz-adv-x="501" 
d="M293 810h66q-67 -97 -67 -229h-81q0 139 82 229zM162 169q-59 20 -89 62.5t-30 99.5q0 80 56 130t145 50q49 0 83 -11h160v-77h-79q29 -36 29 -89q0 -99 -81 -142q-39 -20 -113 -36q-28 -6 -46 -20.5t-18 -31.5q0 -24 29 -30q17 -4 73 -8t79 -7q127 -17 127 -130
q0 -77 -70.5 -127t-183.5 -50q-97 0 -155 36.5t-58 100.5q0 83 121 124q-55 18 -55 65q0 53 76 91zM347 331q0 49 -27 77t-80 28q-48 0 -77.5 -28.5t-29.5 -75.5q0 -44 29 -71t77 -27t78 26t30 71zM394 -86q0 22 -11 35t-37 22q-46 14 -119 14q-53 0 -86 -23.5t-33 -57.5
q0 -35 33.5 -55.5t98.5 -20.5q66 0 110 25t44 61z" />
    <glyph glyph-name="Hcircumflex" unicode="&#x124;" horiz-adv-x="712" 
d="M625 0h-101v317h-335v-317h-102v706h102v-294h335v294h101v-706zM271 760h-83l127 137h73l128 -137h-84l-82 67z" />
    <glyph glyph-name="hcircumflex" unicode="&#x125;" horiz-adv-x="552" 
d="M168 0h-92v747h92v-307q23 32 65 52t90 20q111 0 142 -86q17 -47 17 -151v-275h-93v273q0 86 -10 110q-19 47 -86 47q-77 0 -125 -68v-362zM60 774h-83l127 137h73l128 -137h-84l-82 67z" />
    <glyph glyph-name="Hbar" unicode="&#x126;" horiz-adv-x="712" 
d="M625 0h-101v314h-335v-314h-102v501h-75v64h75v141h102v-141h335v141h101v-141h76v-64h-76v-501zM189 403h335v98h-335v-98z" />
    <glyph glyph-name="hbar" unicode="&#x127;" horiz-adv-x="552" 
d="M168 0h-92v575h-64v62h64v110h92v-110h133v-62h-133v-135q23 32 65 52t90 20q111 0 142 -86q17 -47 17 -151v-275h-93v273q0 86 -10 110q-19 47 -86 47q-77 0 -125 -68v-362z" />
    <glyph glyph-name="Itilde" unicode="&#x128;" horiz-adv-x="276" 
d="M189 0h-102v706h102v-706zM33 762h-58q7 61 33.5 95t62.5 34q31 0 76 -31q38 -25 55 -25q30 0 39 55h59q-5 -62 -30 -94.5t-61 -32.5q-34 0 -83 32q-34 22 -49 22t-27.5 -14.5t-16.5 -40.5z" />
    <glyph glyph-name="itilde" unicode="&#x129;" horiz-adv-x="244" 
d="M23 595h-58q5 61 31.5 95.5t61.5 34.5q26 0 72 -31q35 -25 52 -25q31 0 38 56h55q-3 -62 -28 -95.5t-59 -33.5q-32 0 -77 31q-35 24 -50 24q-28 0 -38 -56zM168 0h-92v500h92v-500z" />
    <glyph glyph-name="Imacron" unicode="&#x12a;" horiz-adv-x="276" 
d="M189 0h-102v706h102v-706zM272 789h-267v70h267v-70z" />
    <glyph glyph-name="imacron" unicode="&#x12b;" horiz-adv-x="244" 
d="M249 605h-256v69h256v-69zM168 0h-92v500h92v-500z" />
    <glyph glyph-name="Ibreve" unicode="&#x12c;" horiz-adv-x="276" 
d="M189 0h-102v706h102v-706zM-4 904h60q6 -82 81 -82q81 0 86 82h60q-2 -65 -39 -105t-108 -40q-68 0 -103.5 39t-36.5 106z" />
    <glyph glyph-name="ibreve" unicode="&#x12d;" horiz-adv-x="244" 
d="M168 0h-92v500h92v-500zM-15 717h58q3 -45 24.5 -66t52.5 -21q76 0 82 87h57q-2 -66 -37.5 -109t-102.5 -43q-64 0 -98.5 42t-35.5 110z" />
    <glyph glyph-name="Iogonek" unicode="&#x12e;" horiz-adv-x="276" 
d="M189 0h-17q-103 -72 -103 -139q0 -29 17 -47.5t47 -18.5q33 0 64 18v-53q-35 -23 -76 -23q-120 0 -120 114q0 89 103 149h-17v706h102v-706z" />
    <glyph glyph-name="iogonek" unicode="&#x12f;" horiz-adv-x="244" 
d="M168 0h-16q-95 -67 -95 -131q0 -30 16 -47t47 -17t62 17v-51q-31 -22 -74 -22q-118 0 -118 110q0 83 95 141h-9v500h92v-500zM179 659q0 -25 -16.5 -41.5t-41.5 -16.5q-24 0 -40 16t-16 40q0 25 16.5 42t41.5 17q24 0 40 -16t16 -41z" />
    <glyph glyph-name="Idotaccent" unicode="&#x130;" horiz-adv-x="276" 
d="M189 0h-102v706h102v-706zM191 829q0 -23 -15 -38.5t-37 -15.5q-23 0 -37 15t-14 38t14.5 38.5t37.5 15.5t37 -15t14 -38z" />
    <glyph glyph-name="dotlessi" unicode="&#x131;" horiz-adv-x="244" 
d="M168 0h-92v500h92v-500z" />
    <glyph glyph-name="IJ" unicode="&#x132;" horiz-adv-x="554" 
d="M189 0h-102v706h102v-706zM273 -191l-35 81q74 36 99 66q27 32 27 106v644h102v-637q0 -113 -46 -165q-49 -55 -147 -95z" />
    <glyph glyph-name="ij" unicode="&#x133;" horiz-adv-x="488" 
d="M168 0h-92v500h92v-500zM179 659q0 -25 -16.5 -41.5t-41.5 -16.5q-24 0 -40 16t-16 40q0 25 16.5 42t41.5 17q24 0 40 -16t16 -41zM250 -238l-33 75q49 22 72 48q31 35 31 111v504h92v-510q0 -98 -33 -138q-40 -49 -129 -90zM423 659q0 -25 -16.5 -41.5t-41.5 -16.5
q-24 0 -40 16t-16 40q0 25 16.5 42t41.5 17q24 0 40 -16t16 -41z" />
    <glyph glyph-name="Jcircumflex" unicode="&#x134;" horiz-adv-x="278" 
d="M-2 -191l-35 81q74 36 99 66q27 32 27 106v644h102v-637q0 -113 -46 -165q-49 -55 -147 -95zM58 760h-83l127 137h73l128 -137h-84l-82 67z" />
    <glyph glyph-name="jcircumflex" unicode="&#x135;" horiz-adv-x="244" 
d="M6 -238l-32 74q51 23 73 48q29 33 29 107v509h92v-515q0 -97 -31 -133q-39 -49 -131 -90zM48 575h-76l122 166h59l122 -166h-77l-76 90z" />
    <glyph glyph-name="Kcommaaccent" unicode="&#x136;" horiz-adv-x="617" 
d="M189 0h-102v706h102v-312q71 87 270 312h123l-298 -332l329 -374h-130q-209 238 -294 341v-341zM282 -294h-67q68 99 68 229h80q0 -140 -81 -229z" />
    <glyph glyph-name="kcommaaccent" unicode="&#x137;" horiz-adv-x="512" 
d="M168 0h-92v747h92v-452q98 103 198 205h118l-226 -217l251 -283h-116q-166 185 -225 256v-256zM226 -294h-67q68 99 68 229h80q0 -140 -81 -229z" />
    <glyph glyph-name="kgreenlandic" unicode="&#x138;" horiz-adv-x="512" 
d="M168 0h-92v500h92v-207l202 207h114l-231 -226l256 -274h-116l-225 242v-242z" />
    <glyph glyph-name="Lacute" unicode="&#x139;" horiz-adv-x="524" 
d="M500 0h-413v706h102v-611h311v-95zM151 760h-95l133 137h126z" />
    <glyph glyph-name="lacute" unicode="&#x13a;" horiz-adv-x="244" 
d="M168 0h-92v747h92v-747zM134 780h-95l133 137h126z" />
    <glyph glyph-name="Lcommaaccent" unicode="&#x13b;" horiz-adv-x="524" 
d="M500 0h-413v706h102v-611h311v-95zM250 -294h-67q68 99 68 229h80q0 -140 -81 -229z" />
    <glyph glyph-name="lcommaaccent" unicode="&#x13c;" horiz-adv-x="244" 
d="M168 0h-92v747h92v-747zM84 -294h-67q68 99 68 229h80q0 -140 -81 -229z" />
    <glyph glyph-name="Lcaron" unicode="&#x13d;" horiz-adv-x="524" 
d="M500 0h-413v706h102v-611h311v-95zM332 479h-67q68 99 68 229h80q0 -140 -81 -229z" />
    <glyph glyph-name="lcaron" unicode="&#x13e;" horiz-adv-x="244" 
d="M168 0h-92v747h92v-747zM275 519h-67q68 99 68 229h80q0 -140 -81 -229z" />
    <glyph glyph-name="Ldot" unicode="&#x13f;" horiz-adv-x="524" 
d="M461 340q0 -28 -19 -47.5t-48 -19.5q-28 0 -45.5 19t-17.5 46q0 28 18.5 47t47.5 19q27 0 45.5 -18t18.5 -46zM500 0h-413v706h102v-611h311v-95z" />
    <glyph glyph-name="ldot" unicode="&#x140;" horiz-adv-x="337" 
d="M351 325q0 -27 -17.5 -45.5t-44.5 -18.5q-26 0 -42.5 18t-16.5 44q0 27 18 45t44 18q25 0 42 -17.5t17 -43.5zM168 0h-92v747h92v-747z" />
    <glyph glyph-name="Lslash" unicode="&#x141;" horiz-adv-x="524" 
d="M500 0h-413v271l-79 -52v75l79 52v360h102v-292l136 90v-75l-136 -90v-244h311v-95z" />
    <glyph glyph-name="lslash" unicode="&#x142;" horiz-adv-x="244" 
d="M168 0h-92v283l-72 -46v70l72 46v394h92v-334l73 47v-70l-73 -47v-343z" />
    <glyph glyph-name="Nacute" unicode="&#x143;" horiz-adv-x="732" 
d="M185 0h-98v706h91q332 -459 372 -519q-2 83 -2 519h97v-706h-84q-345 486 -378 538q2 -67 2 -538zM369 760h-95l133 137h126z" />
    <glyph glyph-name="nacute" unicode="&#x144;" horiz-adv-x="555" 
d="M168 0h-92v500h90v-61q23 31 67.5 52t92.5 21q119 0 146 -106q10 -39 10 -131v-275h-93v273q0 81 -10 109q-18 48 -83 48q-37 0 -73.5 -19t-54.5 -49v-362zM290 578h-78l114 170h108z" />
    <glyph glyph-name="Ncommaaccent" unicode="&#x145;" horiz-adv-x="732" 
d="M185 0h-98v706h91q332 -459 372 -519q-2 83 -2 519h97v-706h-84q-345 486 -378 538q2 -67 2 -538zM332 -294h-67q68 99 68 229h80q0 -140 -81 -229z" />
    <glyph glyph-name="ncommaaccent" unicode="&#x146;" horiz-adv-x="555" 
d="M168 0h-92v500h90v-61q23 31 67.5 52t92.5 21q119 0 146 -106q10 -39 10 -131v-275h-93v273q0 81 -10 109q-18 48 -83 48q-37 0 -73.5 -19t-54.5 -49v-362zM251 -294h-67q68 99 68 229h80q0 -140 -81 -229z" />
    <glyph glyph-name="Ncaron" unicode="&#x147;" horiz-adv-x="732" 
d="M185 0h-98v706h91q332 -459 372 -519q-2 83 -2 519h97v-706h-84q-345 486 -378 538q2 -67 2 -538zM440 897h83l-127 -137h-73l-128 137h84l82 -67z" />
    <glyph glyph-name="ncaron" unicode="&#x148;" horiz-adv-x="555" 
d="M168 0h-92v500h90v-61q23 31 67.5 52t92.5 21q119 0 146 -106q10 -39 10 -131v-275h-93v273q0 81 -10 109q-18 48 -83 48q-37 0 -73.5 -19t-54.5 -49v-362zM352 745h76l-122 -166h-59l-122 166h77l76 -90z" />
    <glyph glyph-name="napostrophe" unicode="&#x149;" horiz-adv-x="555" 
d="M168 0h-92v500h90v-61q23 31 67.5 52t92.5 21q119 0 146 -106q10 -39 10 -131v-275h-93v273q0 81 -10 109q-18 48 -83 48q-37 0 -73.5 -19t-54.5 -49v-362zM92 563h-67q68 99 68 229h80q0 -140 -81 -229z" />
    <glyph glyph-name="Eng" unicode="&#x14a;" horiz-adv-x="732" 
d="M183 0h-98v706h91q329 -460 371 -525q-1 30 -1 525h97v-712q0 -91 -44 -140q-47 -53 -147 -95l-34 83q74 35 98 64q24 30 24 67v47q-246 336 -359 522q2 -67 2 -542z" />
    <glyph glyph-name="eng" unicode="&#x14b;" horiz-adv-x="555" 
d="M168 0h-92v500h91v-61q25 32 68 52.5t92 20.5q120 0 147 -106q10 -39 10 -131v-290q0 -94 -32 -133q-37 -48 -130 -90l-32 74q51 23 73 48q28 32 28 107v282q0 80 -10 107q-20 50 -88 50q-81 0 -125 -68v-362z" />
    <glyph glyph-name="Omacron" unicode="&#x14c;" horiz-adv-x="763" 
d="M720 356q0 -167 -94.5 -267.5t-247.5 -100.5q-148 0 -241.5 100.5t-93.5 264.5q0 163 96.5 264.5t247.5 101.5q154 0 243.5 -101.5t89.5 -261.5zM615 349q0 130 -62 204t-167 74t-171 -72.5t-66 -200.5q0 -127 64.5 -200.5t168.5 -73.5q106 0 169.5 72t63.5 197zM518 789
h-267v70h267v-70z" />
    <glyph glyph-name="omacron" unicode="&#x14d;" horiz-adv-x="555" 
d="M515 253q0 -122 -64 -193.5t-173 -71.5t-173.5 71.5t-64.5 188.5t66 191t174 74q109 0 172 -71.5t63 -188.5zM423 251q0 87 -37.5 134.5t-106.5 47.5q-65 0 -105.5 -48.5t-40.5 -135.5q0 -85 39 -133t106 -48q69 0 107 47.5t38 135.5zM408 605h-256v69h256v-69z" />
    <glyph glyph-name="Obreve" unicode="&#x14e;" horiz-adv-x="763" 
d="M720 356q0 -167 -94.5 -267.5t-247.5 -100.5q-148 0 -241.5 100.5t-93.5 264.5q0 163 96.5 264.5t247.5 101.5q154 0 243.5 -101.5t89.5 -261.5zM615 349q0 130 -62 204t-167 74t-171 -72.5t-66 -200.5q0 -127 64.5 -200.5t168.5 -73.5q106 0 169.5 72t63.5 197zM241 904
h60q6 -82 81 -82q81 0 86 82h60q-2 -65 -39 -105t-108 -40q-68 0 -103.5 39t-36.5 106z" />
    <glyph glyph-name="obreve" unicode="&#x14f;" horiz-adv-x="555" 
d="M515 253q0 -122 -64 -193.5t-173 -71.5t-173.5 71.5t-64.5 188.5t66 191t174 74q109 0 172 -71.5t63 -188.5zM423 251q0 87 -37.5 134.5t-106.5 47.5q-65 0 -105.5 -48.5t-40.5 -135.5q0 -85 39 -133t106 -48q69 0 107 47.5t38 135.5zM141 717h58q3 -45 24.5 -66
t52.5 -21q76 0 82 87h57q-2 -66 -37.5 -109t-102.5 -43q-64 0 -98.5 42t-35.5 110z" />
    <glyph glyph-name="Ohungarumlaut" unicode="&#x150;" horiz-adv-x="763" 
d="M720 356q0 -167 -94.5 -267.5t-247.5 -100.5q-148 0 -241.5 100.5t-93.5 264.5q0 163 96.5 264.5t247.5 101.5q154 0 243.5 -101.5t89.5 -261.5zM615 349q0 130 -62 204t-167 74t-171 -72.5t-66 -200.5q0 -127 64.5 -200.5t168.5 -73.5q106 0 169.5 72t63.5 197zM319 760
h-88l130 137h113zM490 760h-87l129 137h113z" />
    <glyph glyph-name="ohungarumlaut" unicode="&#x151;" horiz-adv-x="555" 
d="M515 253q0 -122 -64 -193.5t-173 -71.5t-173.5 71.5t-64.5 188.5t66 191t174 74q109 0 172 -71.5t63 -188.5zM423 251q0 87 -37.5 134.5t-106.5 47.5q-65 0 -105.5 -48.5t-40.5 -135.5q0 -85 39 -133t106 -48q69 0 107 47.5t38 135.5zM222 579h-75l114 169h97zM375 579
h-75l114 169h96z" />
    <glyph glyph-name="OE" unicode="&#x152;" horiz-adv-x="982" 
d="M944 0h-417q-74 -8 -147 -8q-154 0 -245.5 92.5t-91.5 266.5q0 94 28 165.5t77 114t111 63.5t134 21q71 0 134 -9h400v-95h-298v-199h278v-95h-278v-222h315v-95zM527 93v519q-56 12 -123 12q-116 0 -185.5 -68t-69.5 -202q0 -137 71 -204.5t179 -67.5q66 0 128 11z" />
    <glyph glyph-name="oe" unicode="&#x153;" horiz-adv-x="892" 
d="M467 91q-57 -103 -189 -103q-109 0 -173.5 71.5t-64.5 188.5t66 191t174 74q130 0 187 -100q66 100 183 100q106 0 157.5 -65.5t51.5 -178.5v-36h-345q1 -85 48.5 -124.5t127.5 -39.5q87 0 163 56v-88q-83 -49 -182 -49q-145 0 -204 103zM422 251q0 87 -37 134.5
t-106 47.5q-65 0 -105.5 -48.5t-40.5 -135.5q0 -85 39 -133t106 -48q69 0 106.5 47t37.5 136zM514 304h250q-2 62 -25 98t-89 36q-57 0 -94.5 -35.5t-41.5 -98.5z" />
    <glyph glyph-name="Racute" unicode="&#x154;" horiz-adv-x="619" 
d="M189 0h-102v706h148q107 0 157 -11q148 -30 148 -180q0 -135 -138 -184q44 -19 80 -76t134 -255h-112q-81 162 -113.5 214.5t-59.5 69.5q-21 12 -66 12h-76v-296zM189 382h92q47 0 74 10q80 32 80 114q0 100 -107 112q-27 3 -94 3h-45v-239zM309 760h-95l133 137h126z
" />
    <glyph glyph-name="racute" unicode="&#x155;" horiz-adv-x="375" 
d="M168 0h-92v500h90v-73q37 86 132 86q36 0 60 -12v-87q-29 19 -68 19q-83 0 -122 -85v-348zM222 578h-78l114 170h108z" />
    <glyph glyph-name="Rcommaaccent" unicode="&#x156;" horiz-adv-x="619" 
d="M189 0h-102v706h148q107 0 157 -11q148 -30 148 -180q0 -135 -138 -184q44 -19 80 -76t134 -255h-112q-81 162 -113.5 214.5t-59.5 69.5q-21 12 -66 12h-76v-296zM189 382h92q47 0 74 10q80 32 80 114q0 100 -107 112q-27 3 -94 3h-45v-239zM286 -294h-67q68 99 68 229
h80q0 -140 -81 -229z" />
    <glyph glyph-name="rcommaaccent" unicode="&#x157;" horiz-adv-x="375" 
d="M168 0h-92v500h90v-73q37 86 132 86q36 0 60 -12v-87q-29 19 -68 19q-83 0 -122 -85v-348zM87 -294h-67q68 99 68 229h80q0 -140 -81 -229z" />
    <glyph glyph-name="Rcaron" unicode="&#x158;" horiz-adv-x="619" 
d="M189 0h-102v706h148q107 0 157 -11q148 -30 148 -180q0 -135 -138 -184q44 -19 80 -76t134 -255h-112q-81 162 -113.5 214.5t-59.5 69.5q-21 12 -66 12h-76v-296zM189 382h92q47 0 74 10q80 32 80 114q0 100 -107 112q-27 3 -94 3h-45v-239zM361 897h83l-127 -137h-73
l-128 137h84l82 -67z" />
    <glyph glyph-name="rcaron" unicode="&#x159;" horiz-adv-x="375" 
d="M168 0h-92v500h90v-73q37 86 132 86q36 0 60 -12v-87q-29 19 -68 19q-83 0 -122 -85v-348zM279 745h76l-122 -166h-59l-122 166h77l76 -90z" />
    <glyph glyph-name="Sacute" unicode="&#x15a;" horiz-adv-x="541" 
d="M45 56v109q45 -40 108 -63.5t117 -23.5q134 0 134 99q0 33 -25.5 60t-85.5 55l-88 41q-86 40 -121.5 84.5t-35.5 112.5q0 88 61 138.5t173 50.5q108 0 187 -50v-106q-41 32 -93.5 50t-101.5 18q-60 0 -91.5 -27t-31.5 -69q0 -39 21.5 -60.5t74.5 -46.5l87 -41
q101 -48 137 -92.5t36 -111.5q0 -89 -62 -142t-180 -53q-129 0 -220 68zM279 760h-95l133 137h126z" />
    <glyph glyph-name="sacute" unicode="&#x15b;" horiz-adv-x="416" 
d="M39 38v98q35 -32 83.5 -50t89.5 -18q46 0 65.5 13.5t19.5 41.5q0 21 -15.5 36.5t-67.5 40.5l-57 27q-113 53 -113 146q0 62 46.5 101t125.5 39q88 0 153 -45v-93q-77 58 -159 58q-73 0 -73 -53q0 -13 3.5 -23t21.5 -25t51 -30l58 -27q63 -29 90.5 -60.5t27.5 -83.5
q0 -66 -47 -104.5t-128 -38.5q-96 0 -175 50zM226 578h-78l114 170h108z" />
    <glyph glyph-name="Scircumflex" unicode="&#x15c;" horiz-adv-x="541" 
d="M45 56v109q45 -40 108 -63.5t117 -23.5q134 0 134 99q0 33 -25.5 60t-85.5 55l-88 41q-86 40 -121.5 84.5t-35.5 112.5q0 88 61 138.5t173 50.5q108 0 187 -50v-106q-41 32 -93.5 50t-101.5 18q-60 0 -91.5 -27t-31.5 -69q0 -39 21.5 -60.5t74.5 -46.5l87 -41
q101 -48 137 -92.5t36 -111.5q0 -89 -62 -142t-180 -53q-129 0 -220 68zM199 760h-83l127 137h73l128 -137h-84l-82 67z" />
    <glyph glyph-name="scircumflex" unicode="&#x15d;" horiz-adv-x="416" 
d="M39 38v98q35 -32 83.5 -50t89.5 -18q46 0 65.5 13.5t19.5 41.5q0 21 -15.5 36.5t-67.5 40.5l-57 27q-113 53 -113 146q0 62 46.5 101t125.5 39q88 0 153 -45v-93q-77 58 -159 58q-73 0 -73 -53q0 -13 3.5 -23t21.5 -25t51 -30l58 -27q63 -29 90.5 -60.5t27.5 -83.5
q0 -66 -47 -104.5t-128 -38.5q-96 0 -175 50zM148 575h-76l122 166h59l122 -166h-77l-76 90z" />
    <glyph glyph-name="Scedilla" unicode="&#x15e;" horiz-adv-x="541" 
d="M180 -247v57q28 -19 73 -19q30 0 43 14t13 34t-16.5 33t-46.5 13q-25 0 -41 -7l29 112q-114 9 -189 66v109q45 -40 108 -63.5t117 -23.5q134 0 134 99q0 33 -25.5 60t-85.5 55l-88 41q-86 40 -121.5 84.5t-35.5 112.5q0 88 61 138.5t173 50.5q108 0 187 -50v-106
q-41 32 -93.5 50t-101.5 18q-60 0 -91.5 -27t-31.5 -69q0 -39 21.5 -60.5t74.5 -46.5l87 -41q101 -48 137 -92.5t36 -111.5q0 -84 -56 -136.5t-163 -57.5l-15 -54q1 0 6 0.5t7 0.5q44 0 68 -25.5t24 -70.5q0 -52 -33.5 -79t-90.5 -27q-45 0 -74 19z" />
    <glyph glyph-name="scedilla" unicode="&#x15f;" horiz-adv-x="416" 
d="M121 -240v55q28 -18 71 -18q29 0 42 13.5t13 33.5t-16 32t-46 12q-23 0 -40 -6l29 109q-76 9 -135 47v98q35 -32 83.5 -50t89.5 -18q46 0 65.5 13.5t19.5 41.5q0 21 -15.5 36.5t-67.5 40.5l-57 27q-113 53 -113 146q0 62 46.5 101t125.5 39q88 0 153 -45v-93
q-77 58 -159 58q-73 0 -73 -53q0 -13 3.5 -23t21.5 -25t51 -30l58 -27q63 -29 90.5 -60.5t27.5 -83.5q0 -64 -43.5 -101.5t-119.5 -40.5l-14 -52q1 0 6 0.5t7 0.5q42 0 66 -25t24 -68q0 -50 -33 -76.5t-89 -26.5q-46 0 -72 18z" />
    <glyph glyph-name="Scaron" unicode="&#x160;" horiz-adv-x="541" 
d="M45 56v109q45 -40 108 -63.5t117 -23.5q134 0 134 99q0 33 -25.5 60t-85.5 55l-88 41q-86 40 -121.5 84.5t-35.5 112.5q0 88 61 138.5t173 50.5q108 0 187 -50v-106q-41 32 -93.5 50t-101.5 18q-60 0 -91.5 -27t-31.5 -69q0 -39 21.5 -60.5t74.5 -46.5l87 -41
q101 -48 137 -92.5t36 -111.5q0 -89 -62 -142t-180 -53q-129 0 -220 68zM355 897h83l-127 -137h-73l-128 137h84l82 -67z" />
    <glyph glyph-name="scaron" unicode="&#x161;" horiz-adv-x="416" 
d="M39 38v98q35 -32 83.5 -50t89.5 -18q46 0 65.5 13.5t19.5 41.5q0 21 -15.5 36.5t-67.5 40.5l-57 27q-113 53 -113 146q0 62 46.5 101t125.5 39q88 0 153 -45v-93q-77 58 -159 58q-73 0 -73 -53q0 -13 3.5 -23t21.5 -25t51 -30l58 -27q63 -29 90.5 -60.5t27.5 -83.5
q0 -66 -47 -104.5t-128 -38.5q-96 0 -175 50zM291 745h76l-122 -166h-59l-122 166h77l76 -90z" />
    <glyph glyph-name="uni0162" unicode="&#x162;" horiz-adv-x="577" 
d="M203 -247v57q28 -19 73 -19q30 0 43 14t13 34t-16.5 33t-46.5 13q-25 0 -41 -7l32 122h-24v611h-209v95h522v-95h-211v-611h-23l-19 -65q1 0 6 0.5t7 0.5q44 0 68 -25.5t24 -70.5q0 -52 -33.5 -79t-90.5 -27q-45 0 -74 19z" />
    <glyph glyph-name="uni0163" unicode="&#x163;" horiz-adv-x="358" 
d="M107 -240v55q28 -18 71 -18q29 0 42 13.5t13 33.5t-16 32t-46 12q-23 0 -40 -6l32 118q-45 21 -59 68q-11 35 -11 117v237h-66v78h67v140h91v-140h133v-78h-133v-239q0 -47 8 -74q12 -40 68 -40q44 0 81 23v-79q-46 -25 -114 -25q-11 0 -16 1l-14 -52q1 0 6 0.5t7 0.5
q42 0 66 -25t24 -68q0 -50 -33 -76.5t-89 -26.5q-46 0 -72 18z" />
    <glyph glyph-name="Tcaron" unicode="&#x164;" horiz-adv-x="577" 
d="M332 0h-102v611h-209v95h522v-95h-211v-611zM362 897h83l-127 -137h-73l-128 137h84l82 -67z" />
    <glyph glyph-name="tcaron" unicode="&#x165;" horiz-adv-x="358" 
d="M342 13q-46 -25 -114 -25q-45 0 -78.5 20t-45.5 60q-11 35 -11 117v237h-66v78h67v140h91v-140h133v-78h-133v-239q0 -47 8 -74q12 -40 68 -40q44 0 81 23v-79zM318 576h-67q68 99 68 229h80q0 -140 -81 -229z" />
    <glyph glyph-name="Tbar" unicode="&#x166;" horiz-adv-x="577" 
d="M338 0h-102v342h-133v64h133v205h-209v95h522v-95h-211v-205h138v-64h-138v-342z" />
    <glyph glyph-name="tbar" unicode="&#x167;" horiz-adv-x="358" 
d="M342 13q-46 -25 -114 -25q-45 0 -78.5 20t-45.5 60q-11 35 -11 117v69h-61v61h61v107h-66v78h67v140h91v-140h133v-78h-133v-107h126v-61h-126v-71q0 -47 8 -74q12 -40 68 -40q44 0 81 23v-79z" />
    <glyph glyph-name="Utilde" unicode="&#x168;" horiz-adv-x="723" 
d="M79 706h101v-409q0 -81 15 -123q16 -47 60 -70.5t105 -23.5q144 0 172 107q11 45 11 116v403h101v-406q0 -93 -23 -162q-25 -73 -93 -111.5t-170 -38.5q-204 0 -256 145q-23 65 -23 161v412zM255 762h-58q7 61 33.5 95t62.5 34q31 0 76 -31q38 -25 55 -25q30 0 39 55h59
q-5 -62 -30 -94.5t-61 -32.5q-34 0 -83 32q-34 22 -49 22t-27.5 -14.5t-16.5 -40.5z" />
    <glyph glyph-name="utilde" unicode="&#x169;" horiz-adv-x="555" 
d="M479 0h-92v60q-58 -72 -155 -72q-113 0 -142 86q-17 49 -17 151v275h92v-273q0 -78 10 -102q11 -29 31.5 -42t59.5 -13q73 0 120 66v364h93v-500zM185 595h-58q5 61 31.5 95.5t61.5 34.5q26 0 72 -31q35 -25 52 -25q31 0 38 56h55q-3 -62 -28 -95.5t-59 -33.5
q-32 0 -77 31q-35 24 -50 24q-28 0 -38 -56z" />
    <glyph glyph-name="Umacron" unicode="&#x16a;" horiz-adv-x="723" 
d="M79 706h101v-409q0 -81 15 -123q16 -47 60 -70.5t105 -23.5q144 0 172 107q11 45 11 116v403h101v-406q0 -93 -23 -162q-25 -73 -93 -111.5t-170 -38.5q-204 0 -256 145q-23 65 -23 161v412zM495 789h-267v70h267v-70z" />
    <glyph glyph-name="umacron" unicode="&#x16b;" horiz-adv-x="555" 
d="M479 0h-92v60q-58 -72 -155 -72q-113 0 -142 86q-17 49 -17 151v275h92v-273q0 -78 10 -102q11 -29 31.5 -42t59.5 -13q73 0 120 66v364h93v-500zM407 605h-256v69h256v-69z" />
    <glyph glyph-name="Ubreve" unicode="&#x16c;" horiz-adv-x="723" 
d="M79 706h101v-409q0 -81 15 -123q16 -47 60 -70.5t105 -23.5q144 0 172 107q11 45 11 116v403h101v-406q0 -93 -23 -162q-25 -73 -93 -111.5t-170 -38.5q-204 0 -256 145q-23 65 -23 161v412zM217 904h60q6 -82 81 -82q81 0 86 82h60q-2 -65 -39 -105t-108 -40
q-68 0 -103.5 39t-36.5 106z" />
    <glyph glyph-name="ubreve" unicode="&#x16d;" horiz-adv-x="555" 
d="M479 0h-92v60q-58 -72 -155 -72q-113 0 -142 86q-17 49 -17 151v275h92v-273q0 -78 10 -102q11 -29 31.5 -42t59.5 -13q73 0 120 66v364h93v-500zM145 717h58q3 -45 24.5 -66t52.5 -21q76 0 82 87h57q-2 -66 -37.5 -109t-102.5 -43q-64 0 -98.5 42t-35.5 110z" />
    <glyph glyph-name="Uring" unicode="&#x16e;" horiz-adv-x="723" 
d="M79 706h101v-409q0 -81 15 -123q16 -47 60 -70.5t105 -23.5q144 0 172 107q11 45 11 116v403h101v-406q0 -93 -23 -162q-25 -73 -93 -111.5t-170 -38.5q-204 0 -256 145q-23 65 -23 161v412zM448 839q0 -38 -26 -64t-66 -26q-38 0 -63 25.5t-25 64.5q0 41 26 66t66 25
t64 -25t24 -66zM409 840q0 25 -15 40.5t-38 15.5q-22 0 -36.5 -16t-14.5 -41q0 -23 14 -39t39 -16q23 0 37 16t14 40z" />
    <glyph glyph-name="uring" unicode="&#x16f;" horiz-adv-x="555" 
d="M479 0h-92v60q-58 -72 -155 -72q-113 0 -142 86q-17 49 -17 151v275h92v-273q0 -78 10 -102q11 -29 31.5 -42t59.5 -13q73 0 120 66v364h93v-500zM377 670q0 -40 -27.5 -67.5t-68.5 -27.5q-40 0 -66.5 27t-26.5 68q0 43 27 69.5t69 26.5q41 0 67 -26.5t26 -69.5zM337 671
q0 27 -15.5 43.5t-40.5 16.5q-23 0 -38.5 -17.5t-15.5 -43.5q0 -25 15 -42.5t42 -17.5q23 0 38 18t15 43z" />
    <glyph glyph-name="Uhungarumlaut" unicode="&#x170;" horiz-adv-x="723" 
d="M79 706h101v-409q0 -81 15 -123q16 -47 60 -70.5t105 -23.5q144 0 172 107q11 45 11 116v403h101v-406q0 -93 -23 -162q-25 -73 -93 -111.5t-170 -38.5q-204 0 -256 145q-23 65 -23 161v412zM285 760h-88l130 137h113zM456 760h-87l129 137h113z" />
    <glyph glyph-name="uhungarumlaut" unicode="&#x171;" horiz-adv-x="555" 
d="M479 0h-92v60q-58 -72 -155 -72q-113 0 -142 86q-17 49 -17 151v275h92v-273q0 -78 10 -102q11 -29 31.5 -42t59.5 -13q73 0 120 66v364h93v-500zM219 579h-75l114 169h97zM372 579h-75l114 169h96z" />
    <glyph glyph-name="Uogonek" unicode="&#x172;" horiz-adv-x="723" 
d="M79 706h101v-409q0 -81 15 -123q16 -47 60 -70.5t105 -23.5q144 0 172 107q11 45 11 116v403h101v-406q0 -93 -23 -162q-46 -134 -226 -148q-88 -66 -88 -129q0 -29 17 -47.5t47 -18.5q33 0 64 18v-53q-35 -23 -76 -23q-120 0 -120 114q0 81 86 138q-178 13 -223 144
q-23 65 -23 161v412z" />
    <glyph glyph-name="uogonek" unicode="&#x173;" horiz-adv-x="555" 
d="M479 0h-29q-95 -66 -95 -131q0 -30 16 -47t47 -17t62 17v-51q-31 -22 -74 -22q-118 0 -118 110q0 87 99 143v58q-58 -72 -155 -72q-113 0 -142 86q-17 49 -17 151v275h92v-273q0 -78 10 -102q11 -29 31.5 -42t59.5 -13q73 0 120 66v364h93v-500z" />
    <glyph glyph-name="Wcircumflex" unicode="&#x174;" horiz-adv-x="977" 
d="M310 0h-89l-210 706h106q133 -460 156 -551q20 70 176 551h83q151 -458 176 -551q19 83 155 551h104l-212 -706h-88q-153 474 -177 568q-24 -90 -180 -568zM410 760h-83l127 137h73l128 -137h-84l-82 67z" />
    <glyph glyph-name="wcircumflex" unicode="&#x175;" horiz-adv-x="763" 
d="M247 0h-73l-161 500h103q88 -297 103 -360q23 69 128 360h71q120 -333 128 -360q9 38 103 360h101l-163 -500h-73q-123 333 -134 370q-11 -36 -133 -370zM305 575h-76l122 166h59l122 -166h-77l-76 90z" />
    <glyph glyph-name="Ycircumflex" unicode="&#x176;" horiz-adv-x="632" 
d="M364 0h-102v293l-258 413h120q133 -217 192 -319q44 80 199 319h113l-264 -413v-293zM233 760h-83l127 137h73l128 -137h-84l-82 67z" />
    <glyph glyph-name="ycircumflex" unicode="&#x177;" horiz-adv-x="504" 
d="M216 -237h-99l97 249l-210 488h103q136 -322 156 -378q19 55 139 378h98zM185 575h-76l122 166h59l122 -166h-77l-76 90z" />
    <glyph glyph-name="Ydieresis" unicode="&#x178;" horiz-adv-x="632" 
d="M364 0h-102v293l-258 413h120q133 -217 192 -319q44 80 199 319h113l-264 -413v-293zM281 829q0 -23 -15 -38.5t-37 -15.5q-23 0 -37 15t-14 38t14.5 38.5t37.5 15.5t37 -15t14 -38zM453 829q0 -23 -15 -38.5t-37 -15.5q-23 0 -37 15t-14 38t14.5 38.5t37.5 15.5t37 -15
t14 -38z" />
    <glyph glyph-name="Zacute" unicode="&#x179;" horiz-adv-x="621" 
d="M591 0h-584q270 408 406 612h-124q-124 -1 -234 -1v95h541q-379 -575 -404 -612q50 1 399 1v-95zM334 760h-95l133 137h126z" />
    <glyph glyph-name="zacute" unicode="&#x17a;" horiz-adv-x="473" 
d="M455 0h-448q225 336 286 424q-34 -1 -250 -1v77h407q-86 -128 -154 -229t-92.5 -138t-37.5 -57q45 1 289 1v-77zM265 578h-78l114 170h108z" />
    <glyph glyph-name="Zdotaccent" unicode="&#x17b;" horiz-adv-x="621" 
d="M591 0h-584q270 408 406 612h-124q-124 -1 -234 -1v95h541q-379 -575 -404 -612q50 1 399 1v-95zM366 829q0 -23 -15 -38.5t-37 -15.5q-23 0 -37 15t-14 38t14.5 38.5t37.5 15.5t37 -15t14 -38z" />
    <glyph glyph-name="zdotaccent" unicode="&#x17c;" horiz-adv-x="473" 
d="M455 0h-448q225 336 286 424q-34 -1 -250 -1v77h407q-86 -128 -154 -229t-92.5 -138t-37.5 -57q45 1 289 1v-77zM302 659q0 -23 -15 -38.5t-37 -15.5q-23 0 -37 15t-14 38t14.5 38.5t37.5 15.5t37 -15t14 -38z" />
    <glyph glyph-name="Zcaron" unicode="&#x17d;" horiz-adv-x="621" 
d="M591 0h-584q270 408 406 612h-124q-124 -1 -234 -1v95h541q-379 -575 -404 -612q50 1 399 1v-95zM399 897h83l-127 -137h-73l-128 137h84l82 -67z" />
    <glyph glyph-name="zcaron" unicode="&#x17e;" horiz-adv-x="473" 
d="M455 0h-448q225 336 286 424q-34 -1 -250 -1v77h407q-86 -128 -154 -229t-92.5 -138t-37.5 -57q45 1 289 1v-77zM313 745h76l-122 -166h-59l-122 166h77l76 -90z" />
    <glyph glyph-name="longs" unicode="&#x17f;" horiz-adv-x="271" 
d="M168 0h-92v563q0 80 17 120q34 76 146 76q49 0 83 -16v-82q-30 18 -67 18q-57 0 -76 -38q-11 -22 -11 -80v-561z" />
    <glyph glyph-name="florin" unicode="&#x192;" horiz-adv-x="487" 
d="M17 -115v88q30 -23 72 -23q49 0 63 36q8 19 12 70l24 303h-93v64h96l8 90q7 82 33 124q19 29 53.5 46.5t76.5 17.5q65 0 97 -25v-88q-30 25 -78 25q-44 0 -65 -27q-19 -24 -23 -83l-6 -80h113v-64h-119l-22 -305q-6 -71 -18 -103q-14 -46 -54 -66.5t-88 -20.5
q-50 0 -82 21z" />
    <glyph glyph-name="Aringacute" unicode="&#x1fa;" horiz-adv-x="651" 
d="M410 765q0 -44 -33 -70l269 -695h-106l-80 201h-268l-78 -201h-109l267 694q-33 24 -33 71q0 39 24 63t62 24t61.5 -24t23.5 -63zM223 292h205q-78 205 -102 282q-17 -50 -103 -282zM353 880h-76l100 119h106zM375 766q0 25 -14 40t-38 15q-23 0 -37 -15.5t-14 -40.5
q0 -24 14 -40t39 -16q23 0 36.5 16t13.5 41z" />
    <glyph glyph-name="aringacute" unicode="&#x1fb;" horiz-adv-x="503" 
d="M432 0h-87v52q-60 -62 -146 -62q-69 0 -112 42.5t-43 104.5q0 81 62 118q68 41 236 52v15q0 50 -18 76q-23 33 -82 33q-99 0 -169 -61v83q70 60 178 60q120 0 161 -81q20 -40 20 -133v-299zM342 113v125q-124 -8 -175 -37q-34 -19 -34 -60q0 -32 22.5 -55t69.5 -23
q64 0 117 50zM275 801h-77l107 155h105zM352 670q0 -40 -27.5 -67.5t-68.5 -27.5q-40 0 -66.5 27t-26.5 68q0 43 27 69.5t69 26.5q41 0 67 -26.5t26 -69.5zM312 671q0 27 -15.5 43.5t-40.5 16.5q-23 0 -38.5 -17.5t-15.5 -43.5q0 -25 15 -42.5t42 -17.5q23 0 38 18t15 43z
" />
    <glyph glyph-name="AEacute" unicode="&#x1fc;" horiz-adv-x="996" 
d="M123 0h-123l491 706h450v-95h-299v-199h279v-95h-279v-222h316v-95h-418v210h-273zM329 304h211v312q-49 -76 -211 -312zM669 757h-95l133 137h126z" />
    <glyph glyph-name="aeacute" unicode="&#x1fd;" horiz-adv-x="815" 
d="M776 36q-89 -48 -181 -48q-128 0 -188 77q-85 -76 -195 -76q-80 0 -124 43.5t-44 105.5q0 82 66 119q71 41 240 47v15q0 53 -21 81q-24 31 -86 31q-91 0 -170 -61v82q70 61 176 61q119 0 155 -81q66 81 172 81q105 0 155.5 -65.5t50.5 -178.5v-36h-344q0 -46 20 -86
q38 -78 155 -78q88 0 163 56v-89zM372 121q-19 43 -23 113q-134 -2 -182 -30q-34 -20 -34 -62q0 -32 23 -55.5t73 -23.5q76 0 143 58zM438 304h250q-1 30 -5 49.5t-15 41t-35 32.5t-60 11q-58 0 -96 -36.5t-39 -97.5zM437 578h-78l114 170h108z" />
    <glyph glyph-name="Oslashacute" unicode="&#x1fe;" horiz-adv-x="763" 
d="M136 -48l-50 32l63 91q-106 101 -106 278q0 163 96.5 264.5t247.5 101.5q100 0 177 -47l58 83l49 -32l-60 -86q109 -101 109 -281q0 -167 -95 -267.5t-247 -100.5q-102 0 -182 50zM615 349q0 128 -62 204l-301 -434q54 -39 130 -39q107 0 170 71.5t63 197.5zM149 354
q0 -120 59 -195l301 433q-56 35 -123 35q-105 0 -171 -72.5t-66 -200.5zM383 760h-95l133 137h126z" />
    <glyph glyph-name="oslashacute" unicode="&#x1ff;" horiz-adv-x="555" 
d="M105 -51l-46 32l50 73q-69 72 -69 194q0 116 66 190t174 74q70 0 124 -32l50 72l46 -32l-52 -75q67 -72 67 -192q0 -122 -64 -193.5t-173 -71.5q-71 0 -125 31zM133 249q0 -73 29 -119l194 280q-32 20 -77 20q-66 0 -106 -47.5t-40 -133.5zM423 251q0 73 -28 118
l-193 -279q32 -20 76 -20q69 0 107 46.5t38 134.5zM291 578h-78l114 170h108z" />
    <glyph glyph-name="uni0218" unicode="&#x218;" horiz-adv-x="541" 
d="M45 56v109q45 -40 108 -63.5t117 -23.5q134 0 134 99q0 33 -25.5 60t-85.5 55l-88 41q-86 40 -121.5 84.5t-35.5 112.5q0 88 61 138.5t173 50.5q108 0 187 -50v-106q-41 32 -93.5 50t-101.5 18q-60 0 -91.5 -27t-31.5 -69q0 -39 21.5 -60.5t74.5 -46.5l87 -41
q101 -48 137 -92.5t36 -111.5q0 -89 -62 -142t-180 -53q-129 0 -220 68zM226 -294h-67q68 99 68 229h80q0 -140 -81 -229z" />
    <glyph glyph-name="uni0219" unicode="&#x219;" horiz-adv-x="416" 
d="M39 38v98q35 -32 83.5 -50t89.5 -18q46 0 65.5 13.5t19.5 41.5q0 21 -15.5 36.5t-67.5 40.5l-57 27q-113 53 -113 146q0 62 46.5 101t125.5 39q88 0 153 -45v-93q-77 58 -159 58q-73 0 -73 -53q0 -13 3.5 -23t21.5 -25t51 -30l58 -27q63 -29 90.5 -60.5t27.5 -83.5
q0 -66 -47 -104.5t-128 -38.5q-96 0 -175 50zM174 -294h-67q68 99 68 229h80q0 -140 -81 -229z" />
    <glyph glyph-name="uni021A" unicode="&#x21a;" horiz-adv-x="577" 
d="M332 0h-102v611h-209v95h522v-95h-211v-611zM244 -294h-67q68 99 68 229h80q0 -140 -81 -229z" />
    <glyph glyph-name="uni021B" unicode="&#x21b;" horiz-adv-x="358" 
d="M342 13q-46 -25 -114 -25q-45 0 -78.5 20t-45.5 60q-11 35 -11 117v237h-66v78h67v140h91v-140h133v-78h-133v-239q0 -47 8 -74q12 -40 68 -40q44 0 81 23v-79zM160 -294h-67q68 99 68 229h80q0 -140 -81 -229z" />
    <glyph glyph-name="circumflex" unicode="&#x2c6;" horiz-adv-x="169" 
d="M9 575h-76l122 166h59l122 -166h-77l-76 90z" />
    <glyph glyph-name="caron" unicode="&#x2c7;" horiz-adv-x="169" 
d="M160 745h76l-122 -166h-59l-122 166h77l76 -90z" />
    <glyph glyph-name="breve" unicode="&#x2d8;" horiz-adv-x="169" 
d="M-52 717h58q3 -45 24.5 -66t52.5 -21q76 0 82 87h57q-2 -66 -37.5 -109t-102.5 -43q-64 0 -98.5 42t-35.5 110z" />
    <glyph glyph-name="dotaccent" unicode="&#x2d9;" horiz-adv-x="169" 
d="M136 659q0 -23 -15 -38.5t-37 -15.5q-23 0 -37 15t-14 38t14.5 38.5t37.5 15.5t37 -15t14 -38z" />
    <glyph glyph-name="ring" unicode="&#x2da;" horiz-adv-x="169" 
d="M179 670q0 -40 -27.5 -67.5t-68.5 -27.5q-40 0 -66.5 27t-26.5 68q0 43 27 69.5t69 26.5q41 0 67 -26.5t26 -69.5zM139 671q0 27 -15.5 43.5t-40.5 16.5q-23 0 -38.5 -17.5t-15.5 -43.5q0 -25 15 -42.5t42 -17.5q23 0 38 18t15 43z" />
    <glyph glyph-name="ogonek" unicode="&#x2db;" horiz-adv-x="169" 
d="M172 16q-120 -76 -120 -147q0 -30 16 -47t47 -17t62 17v-51q-31 -22 -74 -22q-118 0 -118 110q0 47 34 89t93 69z" />
    <glyph glyph-name="tilde" unicode="&#x2dc;" horiz-adv-x="179" 
d="M-8 595h-58q5 61 31.5 95.5t61.5 34.5q26 0 72 -31q35 -25 52 -25q31 0 38 56h55q-3 -62 -28 -95.5t-59 -33.5q-32 0 -77 31q-35 24 -50 24q-28 0 -38 -56z" />
    <glyph glyph-name="hungarumlaut" unicode="&#x2dd;" horiz-adv-x="169" 
d="M-22 579h-75l114 169h97zM131 579h-75l114 169h96z" />
    <glyph glyph-name="uni0394" unicode="&#x394;" horiz-adv-x="721" 
d="M711 0h-702l299 707h108zM361 603q-35 -93 -216 -511h430q-174 409 -214 511z" />
    <glyph glyph-name="uni03A9" unicode="&#x3a9;" horiz-adv-x="720" 
d="M320 0h-264v89h196q-91 37 -140.5 116t-49.5 187q0 148 85 238t217 90t212 -89t80 -233q0 -107 -49 -186.5t-140 -122.5h196v-89h-263v122q75 30 119.5 100t44.5 158q0 112 -57 180t-145 68q-90 0 -148.5 -67t-58.5 -184q0 -87 44 -157.5t121 -98.5v-121z" />
    <glyph glyph-name="uni03BC" unicode="&#x3bc;" horiz-adv-x="578" 
d="M174 -237h-92v737h92v-273q0 -75 10 -102q21 -55 94 -55q77 0 126 68v362h92v-500h-92v61q-16 -30 -52 -50t-78 -20q-75 0 -100 54v-282z" />
    <glyph glyph-name="pi" unicode="&#x3c0;" horiz-adv-x="600" 
d="M561 424h-65v-239q0 -115 22 -185h-94q-18 68 -18 183v241h-201v-424h-90v424h-62v76h508v-76z" />
    <glyph glyph-name="Wgrave" unicode="&#x1e80;" horiz-adv-x="977" 
d="M310 0h-89l-210 706h106q133 -460 156 -551q20 70 176 551h83q151 -458 176 -551q19 83 155 551h104l-212 -706h-88q-153 474 -177 568q-24 -90 -180 -568zM573 760h-95l-164 137h126z" />
    <glyph glyph-name="wgrave" unicode="&#x1e81;" horiz-adv-x="763" 
d="M247 0h-73l-161 500h103q88 -297 103 -360q23 69 128 360h71q120 -333 128 -360q9 38 103 360h101l-163 -500h-73q-123 333 -134 370q-11 -36 -133 -370zM452 578h-78l-144 170h108z" />
    <glyph glyph-name="Wacute" unicode="&#x1e82;" horiz-adv-x="977" 
d="M310 0h-89l-210 706h106q133 -460 156 -551q20 70 176 551h83q151 -458 176 -551q19 83 155 551h104l-212 -706h-88q-153 474 -177 568q-24 -90 -180 -568zM502 760h-95l133 137h126z" />
    <glyph glyph-name="wacute" unicode="&#x1e83;" horiz-adv-x="763" 
d="M247 0h-73l-161 500h103q88 -297 103 -360q23 69 128 360h71q120 -333 128 -360q9 38 103 360h101l-163 -500h-73q-123 333 -134 370q-11 -36 -133 -370zM396 578h-78l114 170h108z" />
    <glyph glyph-name="Wdieresis" unicode="&#x1e84;" horiz-adv-x="977" 
d="M310 0h-89l-210 706h106q133 -460 156 -551q20 70 176 551h83q151 -458 176 -551q19 83 155 551h104l-212 -706h-88q-153 474 -177 568q-24 -90 -180 -568zM455 829q0 -23 -15 -38.5t-37 -15.5q-23 0 -37 15t-14 38t14.5 38.5t37.5 15.5t37 -15t14 -38zM627 829
q0 -23 -15 -38.5t-37 -15.5q-23 0 -37 15t-14 38t14.5 38.5t37.5 15.5t37 -15t14 -38z" />
    <glyph glyph-name="wdieresis" unicode="&#x1e85;" horiz-adv-x="763" 
d="M247 0h-73l-161 500h103q88 -297 103 -360q23 69 128 360h71q120 -333 128 -360q9 38 103 360h101l-163 -500h-73q-123 333 -134 370q-11 -36 -133 -370zM351 659q0 -23 -15 -38.5t-37 -15.5q-23 0 -37 15t-14 38t14.5 38.5t37.5 15.5t37 -15t14 -38zM515 659
q0 -23 -15 -38.5t-37 -15.5q-23 0 -37 15t-14 38t14.5 38.5t37.5 15.5t37 -15t14 -38z" />
    <glyph glyph-name="Ygrave" unicode="&#x1ef2;" horiz-adv-x="632" 
d="M364 0h-102v293l-258 413h120q133 -217 192 -319q44 80 199 319h113l-264 -413v-293zM392 760h-95l-164 137h126z" />
    <glyph glyph-name="ygrave" unicode="&#x1ef3;" horiz-adv-x="504" 
d="M216 -237h-99l97 249l-210 488h103q136 -322 156 -378q19 55 139 378h98zM322 578h-78l-144 170h108z" />
    <glyph glyph-name="endash" unicode="&#x2013;" horiz-adv-x="543" 
d="M497 223h-451v72h451v-72z" />
    <glyph glyph-name="emdash" unicode="&#x2014;" horiz-adv-x="860" 
d="M814 223h-768v72h768v-72z" />
    <glyph glyph-name="quoteleft" unicode="&#x2018;" horiz-adv-x="164" 
d="M89 747h68q-55 -101 -55 -237h-82q0 147 69 237z" />
    <glyph glyph-name="quoteright" unicode="&#x2019;" horiz-adv-x="164" 
d="M74 510h-68q55 101 55 237h82q0 -147 -69 -237z" />
    <glyph glyph-name="quotesinglbase" unicode="&#x201a;" horiz-adv-x="164" 
d="M74 -107h-68q55 101 55 237h82q0 -147 -69 -237z" />
    <glyph glyph-name="quotedblleft" unicode="&#x201c;" horiz-adv-x="321" 
d="M246 747h68q-55 -101 -55 -237h-82q0 147 69 237zM89 747h68q-55 -101 -55 -237h-82q0 147 69 237z" />
    <glyph glyph-name="quotedblright" unicode="&#x201d;" horiz-adv-x="321" 
d="M74 510h-68q55 101 55 237h82q0 -147 -69 -237zM231 510h-68q55 101 55 237h82q0 -147 -69 -237z" />
    <glyph glyph-name="quotedblbase" unicode="&#x201e;" horiz-adv-x="321" 
d="M74 -107h-68q55 101 55 237h82q0 -147 -69 -237zM231 -107h-68q55 101 55 237h82q0 -147 -69 -237z" />
    <glyph glyph-name="dagger" unicode="&#x2020;" horiz-adv-x="488" 
d="M280 -84h-72v520h-179v73h179v214h72v-214h179v-73h-179v-520z" />
    <glyph glyph-name="daggerdbl" unicode="&#x2021;" horiz-adv-x="488" 
d="M280 -84h-72v227h-179v72h179v228h-179v73h179v207h72v-207h179v-73h-179v-228h179v-72h-179v-227z" />
    <glyph glyph-name="bullet" unicode="&#x2022;" horiz-adv-x="339" 
d="M294 260q0 -55 -36 -92t-90 -37q-52 0 -87.5 36t-35.5 91q0 60 37 95.5t89 35.5q51 0 87 -34.5t36 -94.5z" />
    <glyph glyph-name="ellipsis" unicode="&#x2026;" horiz-adv-x="873" 
d="M223 59q0 -28 -19 -47.5t-48 -19.5q-28 0 -45.5 19t-17.5 46q0 29 18.5 47.5t47.5 18.5q27 0 45.5 -18t18.5 -46zM502 59q0 -28 -19 -47.5t-48 -19.5q-28 0 -45.5 19t-17.5 46q0 29 19 47.5t47 18.5q27 0 45.5 -18t18.5 -46zM780 59q0 -28 -19 -47.5t-48 -19.5
q-28 0 -45.5 19t-17.5 46q0 29 19 47.5t47 18.5q27 0 45.5 -18t18.5 -46z" />
    <glyph glyph-name="perthousand" unicode="&#x2030;" horiz-adv-x="1185" 
d="M336 482q0 -89 -38.5 -148t-116.5 -59q-79 0 -117 58.5t-38 148.5q0 93 40 153.5t118 60.5q152 0 152 -214zM263 483q0 84 -21.5 116t-59.5 32q-82 0 -82 -150q0 -143 82 -143q81 0 81 145zM263 -12h-55l347 713h54zM787 200q0 -89 -38.5 -148t-116.5 -59
q-79 0 -117 58.5t-38 148.5q0 93 40 153.5t118 60.5q152 0 152 -214zM714 201q0 84 -21.5 116t-59.5 32q-82 0 -82 -150q0 -143 82 -143q81 0 81 145zM1159 200q0 -89 -38.5 -148t-116.5 -59q-79 0 -117 58.5t-38 148.5q0 93 40 153.5t118 60.5q152 0 152 -214zM1086 201
q0 84 -21.5 116t-59.5 32q-82 0 -82 -150q0 -143 82 -143q81 0 81 145z" />
    <glyph glyph-name="guilsinglleft" unicode="&#x2039;" horiz-adv-x="257" 
d="M233 74h-86l-126 184l125 184h86l-122 -184z" />
    <glyph glyph-name="guilsinglright" unicode="&#x203a;" horiz-adv-x="257" 
d="M25 442h87l126 -184l-125 -184h-87l122 184z" />
    <glyph glyph-name="fraction" unicode="&#x2044;" horiz-adv-x="89" 
d="M-101 -12h-55l347 713h54z" />
    <glyph glyph-name="zero.superior" unicode="&#x2070;" 
d="M336 620q0 -89 -38.5 -148t-116.5 -59q-79 0 -117 58.5t-38 148.5q0 93 40 153.5t118 60.5q152 0 152 -214zM263 621q0 84 -21.5 116t-59.5 32q-82 0 -82 -150q0 -143 82 -143q81 0 81 145z" />
    <glyph glyph-name="four.superior" unicode="&#x2074;" 
d="M281 420h-72v109h-187v45l195 253h64v-244h58v-54h-58v-109zM209 583q0 129 1 156q-29 -40 -118 -156h117z" />
    <glyph glyph-name="five.superior" unicode="&#x2075;" 
d="M42 438v66q50 -29 111 -29q42 0 66.5 20.5t24.5 55.5q0 33 -24 50.5t-65 17.5q-59 0 -99 -18l22 226h216v-63h-163l-11 -100q23 10 62 10q58 0 95.5 -31.5t37.5 -90.5q0 -66 -42 -102.5t-116 -36.5q-70 0 -115 25z" />
    <glyph glyph-name="six.superior" unicode="&#x2076;" 
d="M103 626q12 25 39.5 41.5t63.5 16.5q55 0 90 -33.5t35 -96.5q0 -66 -39 -103.5t-104 -37.5q-71 0 -114 49.5t-43 150.5q0 110 51 165.5t130 55.5q60 0 94 -22v-68q-36 25 -88 25q-59 0 -86 -35.5t-29 -107.5zM107 572q2 -34 13 -58q20 -41 67 -41q32 0 53 21t21 61
q0 72 -73 72q-30 0 -51.5 -15.5t-29.5 -39.5z" />
    <glyph glyph-name="seven.superior" unicode="&#x2077;" 
d="M164 420h-74l147 344h-207v63h303z" />
    <glyph glyph-name="eight.superior" unicode="&#x2078;" 
d="M105 631q-64 25 -64 91q0 51 40.5 81.5t98.5 30.5q61 0 99 -28.5t38 -81.5q0 -30 -17 -55.5t-51 -36.5q78 -20 78 -97q0 -54 -41.5 -88t-109.5 -34q-63 0 -105 30t-42 87q0 35 20 62t56 39zM253 717q0 28 -19.5 43.5t-54.5 15.5q-31 0 -52.5 -16t-21.5 -43t19 -44t55 -17
q35 0 54.5 16t19.5 45zM260 540q0 63 -82 63q-37 0 -59 -17.5t-22 -46.5q0 -34 23 -50t57 -16q35 0 59 17t24 50z" />
    <glyph glyph-name="nine.superior" unicode="&#x2079;" 
d="M254 618q-12 -23 -41 -38.5t-65 -15.5q-55 0 -89 32.5t-34 95.5q0 66 40 104t106 38q70 0 112 -49.5t42 -150.5q0 -111 -51 -166t-130 -55q-64 0 -96 21v69q36 -26 91 -26q60 0 86.5 34t28.5 107zM249 675q0 33 -12 57q-18 41 -66 41q-32 0 -54 -21t-22 -60q0 -72 73 -72
q30 0 53 15.5t28 39.5z" />
    <glyph glyph-name="parenleft.superior" unicode="&#x207d;" horiz-adv-x="217" 
d="M165 326q-133 98 -133 266q0 178 132 270h47q-125 -102 -125 -269q0 -154 125 -267h-46z" />
    <glyph glyph-name="parenright.superior" unicode="&#x207e;" horiz-adv-x="217" 
d="M6 862h46q57 -39 95 -106.5t38 -161.5q0 -171 -133 -268h-46q125 108 125 268q0 161 -125 268z" />
    <glyph glyph-name="n.superior" unicode="&#x207f;" horiz-adv-x="352" 
d="M114 282h-68v297h67v-35q37 42 94 42q77 0 94 -64q6 -20 6 -78v-162h-69v160q0 45 -5 58q-10 28 -49 28q-45 0 -70 -37v-209z" />
    <glyph glyph-name="zero.inferior" unicode="&#x2080;" 
d="M336 74q0 -89 -38.5 -148t-116.5 -59q-79 0 -117 58.5t-38 148.5q0 93 40 153.5t118 60.5q152 0 152 -214zM263 75q0 84 -21.5 116t-59.5 32q-82 0 -82 -150q0 -143 82 -143q81 0 81 145z" />
    <glyph glyph-name="one.inferior" unicode="&#x2081;" 
d="M230 -126h-76v322l-80 -33v66l156 62v-417z" />
    <glyph glyph-name="two.inferior" unicode="&#x2082;" 
d="M324 -126h-305q116 123 165 185q42 52 42 94q0 70 -76 70q-56 0 -110 -40v62q56 43 127 43q65 0 98.5 -32t33.5 -87q0 -68 -53 -130q-33 -39 -94 -103q34 1 172 1v-63z" />
    <glyph glyph-name="three.inferior" unicode="&#x2083;" 
d="M38 -108v66q48 -30 115 -30q82 0 82 67q0 46 -57 55q-30 4 -58 4h-14v58h14q41 0 56 5q44 14 44 52q0 56 -72 56q-54 0 -101 -31v60q49 34 116 34q62 0 95 -28t33 -78q0 -31 -20.5 -57t-62.5 -37q99 -13 99 -99q0 -55 -41 -88.5t-116 -33.5q-73 0 -112 25z" />
    <glyph glyph-name="four.inferior" unicode="&#x2084;" 
d="M281 -126h-72v109h-187v45l195 253h64v-244h58v-54h-58v-109zM209 37q0 129 1 156q-29 -40 -118 -156h117z" />
    <glyph glyph-name="five.inferior" unicode="&#x2085;" 
d="M42 -108v66q50 -29 111 -29q42 0 66.5 20.5t24.5 55.5q0 33 -24 50.5t-65 17.5q-59 0 -99 -18l22 226h216v-63h-163l-11 -100q23 10 62 10q58 0 95.5 -31.5t37.5 -90.5q0 -66 -42 -102.5t-116 -36.5q-70 0 -115 25z" />
    <glyph glyph-name="six.inferior" unicode="&#x2086;" 
d="M103 80q12 25 39.5 41.5t63.5 16.5q55 0 90 -33.5t35 -96.5q0 -66 -39 -103.5t-104 -37.5q-71 0 -114 49.5t-43 150.5q0 110 51 165.5t130 55.5q60 0 94 -22v-68q-36 25 -88 25q-59 0 -86 -35.5t-29 -107.5zM107 26q2 -34 13 -58q20 -41 67 -41q32 0 53 21t21 61
q0 72 -73 72q-30 0 -51.5 -15.5t-29.5 -39.5z" />
    <glyph glyph-name="seven.inferior" unicode="&#x2087;" 
d="M164 -126h-74l147 344h-207v63h303z" />
    <glyph glyph-name="eight.inferior" unicode="&#x2088;" 
d="M105 85q-64 25 -64 91q0 51 40.5 81.5t98.5 30.5q61 0 99 -28.5t38 -81.5q0 -30 -17 -55.5t-51 -36.5q78 -20 78 -97q0 -54 -41.5 -88t-109.5 -34q-63 0 -105 30t-42 87q0 35 20 62t56 39zM253 171q0 28 -19.5 43.5t-54.5 15.5q-31 0 -52.5 -16t-21.5 -43t19 -44t55 -17
q35 0 54.5 16t19.5 45zM260 -6q0 63 -82 63q-37 0 -59 -17.5t-22 -46.5q0 -34 23 -50t57 -16q35 0 59 17t24 50z" />
    <glyph glyph-name="nine.inferior" unicode="&#x2089;" 
d="M254 72q-12 -23 -41 -38.5t-65 -15.5q-55 0 -89 32.5t-34 95.5q0 66 40 104t106 38q70 0 112 -49.5t42 -150.5q0 -111 -51 -166t-130 -55q-64 0 -96 21v69q36 -26 91 -26q60 0 86.5 34t28.5 107zM249 129q0 33 -12 57q-18 41 -66 41q-32 0 -54 -21t-22 -60q0 -72 73 -72
q30 0 53 15.5t28 39.5z" />
    <glyph glyph-name="parenleft.inferior" unicode="&#x208d;" horiz-adv-x="217" 
d="M165 -220q-133 98 -133 266q0 178 132 270h47q-125 -102 -125 -269q0 -154 125 -267h-46z" />
    <glyph glyph-name="parenright.inferior" unicode="&#x208e;" horiz-adv-x="217" 
d="M6 316h46q57 -39 95 -106.5t38 -161.5q0 -171 -133 -268h-46q125 108 125 268q0 161 -125 268z" />
    <glyph glyph-name="Euro" unicode="&#x20ac;" horiz-adv-x="676" 
d="M481 252h-228q18 -87 69 -131.5t126 -44.5q99 0 174 54v-92q-72 -49 -187 -49q-113 0 -186.5 69.5t-93.5 193.5h-75v54h69q-1 12 -1 39q0 15 2 45h-70v54h76q22 124 97 196.5t188 72.5q121 0 183 -48v-101q-63 60 -174 60q-79 0 -129.5 -47t-67.5 -133h228v-54h-236
q-1 -14 -1 -43q0 -28 1 -41h236v-54z" />
    <glyph glyph-name="afii61289" unicode="&#x2113;" horiz-adv-x="465" 
d="M421 33q-60 -45 -140 -45q-142 0 -173 180q-26 -20 -72 -50v83q38 26 58 43q-8 94 -8 139q0 318 185 318q64 0 99.5 -39.5t35.5 -102.5q0 -98 -57 -176.5t-161 -164.5q12 -150 108 -150q62 0 125 48v-83zM176 303q150 137 150 252q0 36 -16 54.5t-43 18.5q-96 0 -96 -211
q0 -59 5 -114z" />
    <glyph glyph-name="trademark" unicode="&#x2122;" horiz-adv-x="872" 
d="M235 328h-62v320h-112v58h286v-58h-112v-320zM473 328h-60v378h64q105 -155 115 -171q38 58 116 171h62v-378h-60q0 120 0.5 200t0.5 82q-81 -119 -121 -176q-95 140 -118 176q1 -44 1 -282z" />
    <glyph glyph-name="Omega" unicode="&#x2126;" horiz-adv-x="720" 
d="M320 0h-264v89h196q-91 37 -140.5 116t-49.5 187q0 148 85 238t217 90t212 -89t80 -233q0 -107 -49 -186.5t-140 -122.5h196v-89h-263v122q75 30 119.5 100t44.5 158q0 112 -57 180t-145 68q-90 0 -148.5 -67t-58.5 -184q0 -87 44 -157.5t121 -98.5v-121z" />
    <glyph glyph-name="estimated" unicode="&#x212e;" horiz-adv-x="872" 
d="M833 336h-640q-6 0 -6 -5v-195q0 -10 10 -22q95 -103 242 -103q75 0 141.5 30.5t112.5 84.5h59q-56 -64 -138 -101t-176 -37q-164 0 -280 104.5t-116 252.5t116 252t280 104t279.5 -104t115.5 -252v-9zM689 361v195q0 13 -11 24q-97 97 -239 97q-145 0 -241 -101
q-11 -11 -11 -24v-191q0 -5 6 -5h491q5 0 5 5z" />
    <glyph glyph-name="onethird" unicode="&#x2153;" horiz-adv-x="800" 
d="M228 -12h-55l347 713h54zM230 282h-76v322l-80 -33v66l156 62v-417zM471 18v66q48 -30 115 -30q82 0 82 67q0 46 -57 55q-30 4 -58 4h-14v58h14q41 0 56 5q44 14 44 52q0 56 -72 56q-55 0 -101 -31v60q49 34 116 34q62 0 95 -28t33 -78q0 -31 -20.5 -57t-62.5 -37
q99 -13 99 -99q0 -55 -41 -88.5t-116 -33.5q-73 0 -112 25z" />
    <glyph glyph-name="twothirds" unicode="&#x2154;" horiz-adv-x="800" 
d="M293 -12h-55l347 713h54zM342 282h-305q116 123 165 185q42 53 42 94q0 70 -76 70q-56 0 -110 -40v62q56 43 127 43q65 0 98.5 -32t33.5 -87q0 -68 -53 -130q-33 -39 -94 -103q34 1 172 1v-63zM518 18v66q48 -30 115 -30q82 0 82 67q0 46 -57 55q-30 4 -58 4h-14v58h14
q41 0 56 5q44 14 44 52q0 56 -72 56q-54 0 -101 -31v60q49 34 116 34q62 0 95 -28t33 -78q0 -31 -20.5 -57t-62.5 -37q99 -13 99 -99q0 -55 -41 -88.5t-116 -33.5q-73 0 -112 25z" />
    <glyph glyph-name="oneeighth" unicode="&#x215b;" horiz-adv-x="800" 
d="M228 -12h-55l347 713h54zM217 282h-76v322l-80 -33v66l156 62v-417zM540 211q-64 25 -64 91q0 51 40.5 81.5t98.5 30.5q61 0 99 -28.5t38 -81.5q0 -30 -17 -55.5t-51 -36.5q78 -20 78 -97q0 -54 -41.5 -88t-109.5 -34q-63 0 -105 30t-42 87q0 35 20 62t56 39zM688 297
q0 28 -19.5 43.5t-54.5 15.5q-31 0 -52.5 -16t-21.5 -43t19 -44t55 -17q35 0 54.5 16t19.5 45zM695 120q0 63 -82 63q-37 0 -59 -17.5t-22 -46.5q0 -34 23 -50t57 -16q35 0 59 17t24 50z" />
    <glyph glyph-name="threeeighths" unicode="&#x215c;" horiz-adv-x="800" 
d="M263 -12h-55l347 713h54zM58 300v66q48 -30 115 -30q82 0 82 67q0 46 -57 55q-30 4 -58 4h-14v58h14q41 0 56 5q44 14 44 52q0 56 -72 56q-55 0 -101 -31v60q49 34 116 34q62 0 95 -28t33 -78q0 -31 -20.5 -57t-62.5 -37q99 -13 99 -99q0 -55 -41 -88.5t-116 -33.5
q-73 0 -112 25zM554 211q-64 25 -64 91q0 51 40.5 81.5t98.5 30.5q61 0 99 -28.5t38 -81.5q0 -30 -17 -55.5t-51 -36.5q78 -20 78 -97q0 -54 -41.5 -88t-109.5 -34q-63 0 -105 30t-42 87q0 35 20 62t56 39zM702 297q0 28 -19.5 43.5t-54.5 15.5q-31 0 -52.5 -16t-21.5 -43
t19 -44t55 -17q35 0 54.5 16t19.5 45zM709 120q0 63 -82 63q-37 0 -59 -17.5t-22 -46.5q0 -34 23 -50t57 -16q35 0 59 17t24 50z" />
    <glyph glyph-name="fiveeighths" unicode="&#x215d;" horiz-adv-x="800" 
d="M254 -12h-55l347 713h54zM49 300v66q50 -29 111 -29q42 0 66.5 20.5t24.5 55.5q0 33 -24 50.5t-65 17.5q-58 0 -99 -18l22 226h216v-63h-163l-11 -100q23 10 62 10q58 0 95.5 -31.5t37.5 -90.5q0 -66 -42 -102.5t-116 -36.5q-70 0 -115 25zM544 211q-64 25 -64 91
q0 51 40.5 81.5t98.5 30.5q61 0 99 -28.5t38 -81.5q0 -30 -17 -55.5t-51 -36.5q78 -20 78 -97q0 -54 -41.5 -88t-109.5 -34q-63 0 -105 30t-42 87q0 35 20 62t56 39zM692 297q0 28 -19.5 43.5t-54.5 15.5q-31 0 -52.5 -16t-21.5 -43t19 -44t55 -17q35 0 54.5 16t19.5 45z
M699 120q0 63 -82 63q-37 0 -59 -17.5t-22 -46.5q0 -34 23 -50t57 -16q35 0 59 17t24 50z" />
    <glyph glyph-name="seveneighths" unicode="&#x215e;" horiz-adv-x="800" 
d="M227 -12h-55l347 713h54zM186 282h-74l147 344h-207v63h303zM525 211q-64 25 -64 91q0 51 40.5 81.5t98.5 30.5q61 0 99 -28.5t38 -81.5q0 -30 -17 -55.5t-51 -36.5q78 -20 78 -97q0 -54 -41.5 -88t-109.5 -34q-63 0 -105 30t-42 87q0 35 20 62t56 39zM673 297
q0 28 -19.5 43.5t-54.5 15.5q-31 0 -52.5 -16t-21.5 -43t19 -44t55 -17q35 0 54.5 16t19.5 45zM680 120q0 63 -82 63q-37 0 -59 -17.5t-22 -46.5q0 -34 23 -50t57 -16q35 0 59 17t24 50z" />
    <glyph glyph-name="arrowleft" unicode="&#x2190;" horiz-adv-x="783" 
d="M749 397v-88q-485 0 -569 1q38 -32 256 -252l-56 -58l-353 353l353 352l56 -59q-240 -236 -256 -250q89 1 569 1z" />
    <glyph glyph-name="arrowup" unicode="&#x2191;" horiz-adv-x="783" 
d="M436 0h-88q0 485 1 569q-32 -38 -252 -256l-58 56l353 353l352 -353l-59 -56q-227 231 -250 256q1 -89 1 -569z" />
    <glyph glyph-name="arrowright" unicode="&#x2192;" horiz-adv-x="783" 
d="M34 309v88q480 0 569 -1q-16 14 -256 250l56 59l353 -352l-353 -353l-56 58q218 220 256 252q-84 -1 -569 -1z" />
    <glyph glyph-name="arrowdown" unicode="&#x2193;" horiz-adv-x="783" 
d="M348 706h88q0 -480 -1 -569q6 7 250 256l59 -56l-352 -353l-353 353l58 56q220 -218 252 -256q-1 84 -1 569z" />
    <glyph glyph-name="uni2196" unicode="&#x2196;" horiz-adv-x="783" 
d="M679 120l-62 -62q-365 367 -398 401q0 -7 0.5 -43.5t0.5 -118v-196.5h-82v499h499v-79q-332 0 -362 1q123 -119 404 -402z" />
    <glyph glyph-name="uni2197" unicode="&#x2197;" horiz-adv-x="783" 
d="M166 58l-62 62q281 283 404 402q-30 -1 -362 -1v79h499v-499h-82q0 115 0.5 196.5t0.5 118v43.5q-33 -34 -398 -401z" />
    <glyph glyph-name="uni2198" unicode="&#x2198;" horiz-adv-x="783" 
d="M104 586l62 62q380 -382 399 -401q-2 64 -2 358h82v-499h-499v79q333 0 363 -1q-107 102 -405 402z" />
    <glyph glyph-name="uni2199" unicode="&#x2199;" horiz-adv-x="783" 
d="M617 654l62 -62q-338 -340 -404 -402q30 1 362 1v-79h-499v499h82v-196.5t-0.5 -117.5t-0.5 -43q39 41 398 400z" />
    <glyph glyph-name="partialdiff" unicode="&#x2202;" horiz-adv-x="561" 
d="M410 311q-44 54 -129 54q-58 0 -97.5 -40.5t-39.5 -113.5q0 -72 36 -109t90 -37q44 0 79.5 27.5t48.5 82.5q12 51 12 136zM129 600l-19 67q66 33 160 33q119 0 173 -95.5t54 -303.5q0 -144 -56.5 -228.5t-173.5 -84.5q-92 0 -149.5 58t-57.5 160q0 111 59.5 169.5
t154.5 58.5q79 0 130 -45q-8 240 -148 240q-75 0 -127 -29z" />
    <glyph glyph-name="Delta" unicode="&#x2206;" horiz-adv-x="721" 
d="M711 0h-702l299 707h108zM361 603q-35 -93 -216 -511h430q-174 409 -214 511z" />
    <glyph glyph-name="product" unicode="&#x220f;" horiz-adv-x="702" 
d="M618 -99h-99v710h-336v-710h-99v805h534v-805z" />
    <glyph glyph-name="summation" unicode="&#x2211;" horiz-adv-x="583" 
d="M559 -100h-541l277 422l-259 384h507v-95h-326l197 -289l-219 -327h364v-95z" />
    <glyph glyph-name="minus" unicode="&#x2212;" horiz-adv-x="701" 
d="M601 262h-501v66h501v-66z" />
    <glyph glyph-name="uni2215" unicode="&#x2215;" horiz-adv-x="89" 
d="M-101 -12h-55l347 713h54z" />
    <glyph glyph-name="uni2219" unicode="&#x2219;" horiz-adv-x="217" 
d="M181 260q0 -28 -19 -47.5t-48 -19.5q-28 0 -45.5 19t-17.5 46q0 28 18.5 47t47.5 19q27 0 45.5 -18t18.5 -46z" />
    <glyph glyph-name="radical" unicode="&#x221a;" horiz-adv-x="645" 
d="M373 -178h-57l-161 284l-65 -35l-22 46l127 71l147 -269l176 787h61z" />
    <glyph glyph-name="infinity" unicode="&#x221e;" horiz-adv-x="730" 
d="M366 337q83 105 171 105q62 0 100.5 -41.5t38.5 -107.5q0 -67 -39 -109.5t-104 -42.5q-46 0 -83 24.5t-83 78.5q-48 -55 -86 -79t-86 -24q-63 0 -102.5 39.5t-39.5 106.5q0 69 41 112t106 43q46 0 83 -24t83 -81zM329 290q-32 38 -46 53t-36.5 28t-47.5 13q-38 0 -63 -26
t-25 -67q0 -40 24 -65.5t62 -25.5q37 0 66 21.5t66 68.5zM403 291q39 -50 68.5 -70.5t61.5 -20.5q36 0 60.5 25t24.5 64q0 43 -23 69t-62 26q-59 0 -130 -93z" />
    <glyph glyph-name="integral" unicode="&#x222b;" horiz-adv-x="336" 
d="M145 -26q0 37 -2 85l-18 436q-3 78 -3 83q0 63 31.5 96.5t93.5 33.5q41 0 62 -8v-67q-32 10 -53 10q-60 0 -60 -76q0 -25 2 -69l17 -436q0 -1 2 -39.5t2 -56.5q0 -67 -32 -96.5t-94 -29.5q-27 0 -56 9v69q27 -11 52 -11q28 0 42 14t14 53z" />
    <glyph glyph-name="approxequal" unicode="&#x2248;" horiz-adv-x="701" 
d="M132 322l-47 34q77 116 159 116q40 0 119 -47q59 -36 97 -36q31 0 54.5 19t52.5 66l50 -31q-37 -62 -73 -92t-86 -30q-49 0 -117 41q-68 40 -100 40q-55 0 -109 -80zM132 120l-47 34q77 116 159 116q40 0 119 -47q59 -36 97 -36q31 0 54.5 19t52.5 66l50 -31
q-37 -62 -73 -92t-86 -30q-49 0 -117 41q-68 40 -100 40q-55 0 -109 -80z" />
    <glyph glyph-name="notequal" unicode="&#x2260;" horiz-adv-x="701" 
d="M236 3h-57l77 155h-156v66h187l71 142h-258v66h289l70 141h57l-70 -141h155v-66h-186l-71 -142h257v-66h-288z" />
    <glyph glyph-name="lessequal" unicode="&#x2264;" horiz-adv-x="701" 
d="M570 135l-453 205v63l453 210v-75l-379 -166l379 -160v-77zM570 0h-453v66h453v-66z" />
    <glyph glyph-name="greaterequal" unicode="&#x2265;" horiz-adv-x="701" 
d="M130 613l453 -205v-63l-453 -210v75l380 166l-380 160v77zM584 0h-453v66h453v-66z" />
    <glyph glyph-name="lozenge" unicode="&#x25ca;" horiz-adv-x="711" 
d="M323 706h68l179 -351l-179 -355h-68l-184 354zM214 354l145 -278l138 279l-140 277z" />
    <glyph glyph-name="commaaccent" unicode="&#xf6c3;" horiz-adv-x="168" 
d="M81 -294h-67q68 99 68 229h80q0 -140 -81 -229z" />
    <glyph glyph-name="Dotlessi" horiz-adv-x="276" 
d="M189 0h-102v706h102v-706z" />
    <glyph glyph-name="Euro.denominator" horiz-adv-x="436" 
d="M313 146h-137q23 -91 117 -91q60 0 107 30v-62q-43 -29 -118 -29q-71 0 -118.5 40t-60.5 112h-47v35h42v23q0 16 1 24h-43v36h48q14 72 62.5 114t119.5 42q76 0 114 -26v-70q-40 33 -107 33q-92 0 -116 -93h136v-36h-142q-1 -8 -1 -24t1 -23h142v-35z" />
    <glyph glyph-name="Euro.inferior" horiz-adv-x="436" 
d="M313 20h-137q24 -91 117 -91q60 0 107 30v-62q-43 -29 -118 -29q-71 0 -118.5 40t-60.5 112h-47v35h42v23q0 16 1 24h-43v36h48q14 72 62.5 114t119.5 42q76 0 114 -26v-70q-40 33 -107 33q-92 0 -116 -93h136v-36h-142q-1 -8 -1 -24t1 -23h142v-35z" />
    <glyph glyph-name="Euro.numerator" horiz-adv-x="436" 
d="M313 428h-137q23 -91 117 -91q60 0 107 30v-62q-43 -29 -118 -29q-71 0 -118.5 40t-60.5 112h-47v35h42v23q0 16 1 24h-43v36h48q14 72 62.5 114t119.5 42q76 0 114 -26v-70q-40 33 -107 33q-92 0 -116 -93h136v-36h-142q-1 -8 -1 -24t1 -23h142v-35z" />
    <glyph glyph-name="Euro.oldstyle" horiz-adv-x="661" 
d="M466 212h-210q37 -139 179 -139q92 0 163 47v-90q-69 -41 -175 -41q-105 0 -173.5 58.5t-89.5 164.5h-71v51h64q-1 12 -1 37q0 14 2 42h-65v53h72q23 105 93 166t174 61q112 0 172 -40v-97q-59 50 -164 50q-70 0 -116 -36.5t-63 -103.5h209v-53h-218q-2 -26 -2 -40
q0 -27 1 -39h219v-51z" />
    <glyph glyph-name="Euro.superior" horiz-adv-x="436" 
d="M313 566h-137q23 -91 117 -91q60 0 107 30v-62q-43 -29 -118 -29q-71 0 -118.5 40t-60.5 112h-47v35h42v23q0 16 1 24h-43v36h48q14 72 62.5 114t119.5 42q76 0 114 -26v-70q-40 33 -107 33q-92 0 -116 -93h136v-36h-142q-1 -8 -1 -24t1 -23h142v-35z" />
    <glyph glyph-name="Kgreenlandic" horiz-adv-x="690" 
d="M680 747h69q-75 -114 -76 -267h-83q0 162 90 267zM189 0h-102v706h102v-312q71 87 270 312h123l-298 -332l329 -374h-130q-209 238 -294 341v-341z" />
    <glyph glyph-name="S_S" horiz-adv-x="1082" 
d="M45 56v109q45 -40 108 -63.5t117 -23.5q134 0 134 99q0 33 -25.5 60t-85.5 55l-88 41q-86 40 -121.5 84.5t-35.5 112.5q0 88 61 138.5t173 50.5q108 0 187 -50v-106q-41 32 -93.5 50t-101.5 18q-60 0 -91.5 -27t-31.5 -69q0 -39 21.5 -60.5t74.5 -46.5l87 -41
q101 -48 137 -92.5t36 -111.5q0 -89 -62 -142t-180 -53q-129 0 -220 68zM586 56v109q45 -40 108 -63.5t117 -23.5q134 0 134 99q0 33 -25.5 60t-85.5 55l-88 41q-86 40 -121.5 84.5t-35.5 112.5q0 88 61 138.5t173 50.5q108 0 187 -50v-106q-41 32 -93.5 50t-101.5 18
q-60 0 -91.5 -27t-31.5 -69q0 -39 21.5 -60.5t74.5 -46.5l87 -41q101 -48 137 -92.5t36 -111.5q0 -89 -62 -142t-180 -53q-129 0 -220 68z" />
    <glyph glyph-name="a.superior" horiz-adv-x="319" 
d="M275 282h-64v31q-34 -37 -89 -37q-43 0 -68 23.5t-25 61.5q0 46 38 68q43 24 142 32v9q0 27 -10 39q-14 19 -48 19q-61 0 -105 -36v56q43 38 113 38q79 0 104 -51q12 -22 12 -79v-174zM209 351v68q-73 -7 -96 -20q-21 -11 -21 -35q0 -16 13 -27.5t39 -11.5q36 0 65 26z
" />
    <glyph glyph-name="acute.cap" horiz-adv-x="179" 
d="M55 760h-95l133 137h126z" />
    <glyph glyph-name="b.superior" horiz-adv-x="355" 
d="M46 297v426h66v-173q38 36 92 36q62 0 93.5 -39t31.5 -109q0 -82 -43.5 -122.5t-115.5 -40.5q-65 0 -124 22zM114 339q24 -12 64 -12q36 0 58 26t22 79q0 50 -20.5 74.5t-53.5 24.5q-44 0 -70 -32v-160z" />
    <glyph glyph-name="braceleft.cap" horiz-adv-x="312" 
d="M303 -75h-33q-74 0 -111 30q-40 34 -40 126v86q0 80 -23 112q-21 29 -75 34v57q63 8 80 39q18 30 18 105v91q0 77 34 116q35 38 119 38h31v-53h-26q-45 0 -65 -28q-19 -25 -19 -79v-87q0 -98 -31 -136q-18 -20 -59 -34q35 -7 54 -27q36 -38 36 -144v-88q0 -60 22 -83
q20 -24 64 -24h24v-51z" />
    <glyph glyph-name="braceright.cap" horiz-adv-x="312" 
d="M8 759h34q72 0 110 -31q41 -35 41 -126v-86q0 -82 23 -112q18 -27 74 -34v-56q-60 -8 -80 -39q-17 -31 -17 -105v-92q0 -80 -34 -116q-33 -37 -119 -37h-32v52l24 -2q44 0 65 28q20 25 20 79v88q0 99 31 136q16 18 58 34q-35 7 -54 26q-35 38 -35 144v89q0 58 -22 83
q-20 23 -65 23l-22 2v52z" />
    <glyph glyph-name="bracketleft.cap" horiz-adv-x="260" 
d="M248 -65h-175v823h175v-53h-98v-717h98v-53z" />
    <glyph glyph-name="bracketright.cap" horiz-adv-x="260" 
d="M12 754h175v-823h-175v53h98v716h-98v54z" />
    <glyph glyph-name="breve.cap" horiz-adv-x="179" 
d="M-52 904h60q6 -82 81 -82q81 0 86 82h60q-2 -65 -39 -105t-108 -40q-68 0 -103.5 39t-36.5 106z" />
    <glyph glyph-name="bullet.cap" horiz-adv-x="339" 
d="M294 330q0 -55 -36 -92t-90 -37q-52 0 -87.5 36t-35.5 91q0 60 37 95.5t89 35.5q51 0 87 -34.5t36 -94.5z" />
    <glyph glyph-name="caron.alt" horiz-adv-x="171" 
d="M81 544h-67q68 99 68 229h80q0 -140 -81 -229z" />
    <glyph glyph-name="caron.cap" horiz-adv-x="179" 
d="M171 897h83l-127 -137h-73l-128 137h84l82 -67z" />
    <glyph glyph-name="cedilla.cap" horiz-adv-x="179" 
d="M-10 -247v57q29 -19 73 -19q30 0 43 14t13 34t-16.5 33t-46.5 13q-25 0 -41 -7l34 129h55l-21 -72q1 0 6 0.5t7 0.5q44 0 68 -25.5t24 -70.5q0 -52 -33.5 -79t-90.5 -27q-45 0 -74 19z" />
    <glyph glyph-name="cent.denominator" horiz-adv-x="326" 
d="M212 -51h-38v49q-59 7 -92 45.5t-33 101.5q0 59 34 99t91 48v52h38v-49q46 -2 79 -21v-66q-35 27 -79 29v-183q42 0 81 26v-59q-34 -22 -81 -25v-47zM119 147q0 -70 55 -88v173q-55 -17 -55 -85z" />
    <glyph glyph-name="cent.inferior" horiz-adv-x="326" 
d="M212 -177h-38v49q-59 7 -92 46t-33 101q0 59 34 99t91 48v52h38v-49q46 -2 79 -21v-66q-35 27 -79 29v-183q42 0 81 26v-59q-34 -22 -81 -25v-47zM119 21q0 -69 55 -87v172q-55 -17 -55 -85z" />
    <glyph glyph-name="cent.numerator" horiz-adv-x="326" 
d="M212 231h-38v48q-59 8 -92 46.5t-33 101.5q0 59 34 99t91 48v52h38v-49q46 -2 79 -21v-66q-35 27 -79 29v-183q42 0 81 26v-59q-37 -24 -81 -25v-47zM119 429q0 -70 55 -88v173q-55 -17 -55 -85z" />
    <glyph glyph-name="cent.oldstyle" horiz-adv-x="490" 
d="M325 -86h-55v80q-94 8 -145.5 70t-51.5 163q0 97 51.5 160t145.5 74v87h55v-86q65 -3 114 -32v-90q-51 41 -114 44v-312q63 3 116 42v-83q-51 -32 -116 -37v-80zM168 231q0 -132 102 -154v302q-102 -24 -102 -148z" />
    <glyph glyph-name="cent.superior" horiz-adv-x="326" 
d="M212 369h-38v48q-59 8 -92 46.5t-33 101.5q0 59 34 99t91 48v52h38v-49q46 -2 79 -21v-66q-35 27 -79 29v-183q42 0 81 26v-59q-37 -24 -81 -25v-47zM119 567q0 -70 55 -88v173q-55 -17 -55 -85z" />
    <glyph glyph-name="circumflex.cap" horiz-adv-x="179" 
d="M9 760h-83l127 137h73l128 -137h-84l-82 67z" />
    <glyph glyph-name="comma.denominator" horiz-adv-x="155" 
d="M59 -91h-56q52 79 52 179h68q0 -108 -64 -179z" />
    <glyph glyph-name="comma.inferior" horiz-adv-x="155" 
d="M59 -217h-56q52 79 52 179h68q0 -108 -64 -179z" />
    <glyph glyph-name="comma.numerator" horiz-adv-x="155" 
d="M55 191h-53q52 82 52 184h66q0 -110 -65 -184z" />
    <glyph glyph-name="comma.superior" horiz-adv-x="155" 
d="M59 329h-56q52 79 52 179h68q0 -108 -64 -179z" />
    <glyph glyph-name="d.superior" horiz-adv-x="357" 
d="M308 282h-66v28q-33 -35 -92 -35t-92.5 40.5t-33.5 108.5q0 73 37.5 117t106.5 44q51 0 73 -23v161h67v-441zM240 360v146q-18 26 -61 26q-38 0 -61.5 -26.5t-23.5 -78.5q0 -51 21.5 -75t54.5 -24q44 0 70 32z" />
    <glyph glyph-name="dieresis.cap" horiz-adv-x="179" 
d="M55 829q0 -23 -15 -38.5t-37 -15.5q-23 0 -37 15t-14 38t14.5 38.5t37.5 15.5t37 -15t14 -38zM227 829q0 -23 -15 -38.5t-37 -15.5q-23 0 -37 15t-14 38t14.5 38.5t37.5 15.5t37 -15t14 -38z" />
    <glyph glyph-name="dollar.denominator" horiz-adv-x="363" 
d="M207 -51h-39v47q-71 3 -120 39v71q49 -43 120 -48v119l-22 9q-52 20 -74 46.5t-22 67.5q0 46 30 75t88 35v46h39v-46q61 -3 99 -28v-69q-39 29 -99 36v-115l18 -7q61 -24 83 -50.5t22 -65.5q0 -47 -31 -78t-92 -36v-48zM256 110q0 17 -11 28.5t-38 22.5v-103q49 8 49 52z
M123 301q0 -19 11 -30.5t34 -21.5v99q-45 -9 -45 -47z" />
    <glyph glyph-name="dollar.inferior" horiz-adv-x="363" 
d="M207 -177h-39v47q-71 3 -120 39v71q46 -41 120 -48v119l-22 9q-52 20 -74 46.5t-22 67.5q0 46 30 75t88 35v46h39v-46q61 -3 99 -28v-69q-39 29 -99 36v-115l18 -7q61 -24 83 -50.5t22 -65.5q0 -46 -31 -77t-92 -37v-48zM256 -16q0 17 -11 28.5t-38 22.5v-102q49 8 49 51
zM123 175q0 -19 11 -30.5t34 -21.5v99q-45 -9 -45 -47z" />
    <glyph glyph-name="dollar.numerator" horiz-adv-x="363" 
d="M207 231h-39v46q-72 4 -120 40v71q49 -43 120 -48v119l-22 9q-52 20 -74 46.5t-22 67.5q0 46 30 75t88 35v46h39v-46q61 -3 99 -28v-69q-39 29 -99 36v-115l18 -7q61 -24 83 -50.5t22 -65.5q0 -46 -31 -77.5t-92 -37.5v-47zM256 392q0 17 -11 28.5t-38 22.5v-103
q49 8 49 52zM123 583q0 -19 11 -30.5t34 -21.5v99q-45 -9 -45 -47z" />
    <glyph glyph-name="dollar.oldstyle" horiz-adv-x="527" 
d="M291 -86h-56v79q-105 6 -174 55v99q68 -61 174 -70v192l-33 14q-75 32 -107 73t-32 99q0 69 44.5 112t127.5 50v84h56v-83q86 -5 143 -43v-94q-61 45 -143 53v-188l23 -10q89 -37 121 -77.5t32 -96.5q0 -70 -45 -115t-131 -53v-80zM375 157q0 28 -18.5 48t-65.5 41v-168
q84 11 84 79zM155 457q0 -34 18.5 -52t61.5 -36v165q-40 -6 -60 -27t-20 -50z" />
    <glyph glyph-name="dollar.superior" horiz-adv-x="363" 
d="M207 369h-39v46q-72 4 -120 40v71q49 -43 120 -48v119l-22 9q-52 20 -74 46.5t-22 67.5q0 46 30 75t88 35v46h39v-46q61 -3 99 -28v-69q-39 29 -99 36v-115l18 -7q61 -24 83 -50.5t22 -65.5q0 -46 -31 -77.5t-92 -37.5v-47zM256 530q0 17 -11 28.5t-38 22.5v-103
q49 8 49 52zM123 721q0 -19 11 -30.5t34 -21.5v99q-45 -9 -45 -47z" />
    <glyph glyph-name="dotaccent.cap" horiz-adv-x="179" 
d="M142 829q0 -23 -15 -38.5t-37 -15.5q-23 0 -37 15t-14 38t14.5 38.5t37.5 15.5t37 -15t14 -38z" />
    <glyph glyph-name="e.superior" horiz-adv-x="321" 
d="M297 305q-53 -30 -114 -30q-74 0 -115.5 41t-41.5 115q0 71 39 113t105 42t98 -39t32 -106v-22h-204q1 -44 28.5 -66t72.5 -22q56 0 100 30v-56zM97 464h141q-4 71 -68 71q-32 0 -52 -19.5t-21 -51.5z" />
    <glyph glyph-name="egrave.superior" horiz-adv-x="326" 
d="M297 305q-53 -30 -114 -30q-74 0 -115.5 41t-41.5 115q0 71 39 113t105 42t98 -39t32 -106v-22h-204q1 -44 28.5 -66t72.5 -22q56 0 100 30v-56zM97 464h141q-4 69 -68 69q-31 0 -51.5 -18.5t-21.5 -50.5zM221 623h-58l-90 100h77z" />
    <glyph glyph-name="eight.denominator" 
d="M105 211q-64 25 -64 91q0 51 40.5 81.5t98.5 30.5q61 0 99 -28.5t38 -81.5q0 -30 -17 -55.5t-51 -36.5q78 -20 78 -97q0 -54 -41.5 -88t-109.5 -34q-63 0 -105 30t-42 87q0 35 20 62t56 39zM253 297q0 28 -19.5 43.5t-54.5 15.5q-31 0 -52.5 -16t-21.5 -43t19 -44t55 -17
q35 0 54.5 16t19.5 45zM260 120q0 63 -82 63q-37 0 -59 -17.5t-22 -46.5q0 -34 23 -50t57 -16q35 0 59 17t24 50z" />
    <glyph glyph-name="eight.numerator" 
d="M105 493q-64 25 -64 91q0 51 40.5 81.5t98.5 30.5q61 0 99 -28.5t38 -81.5q0 -30 -17 -55.5t-51 -36.5q78 -20 78 -97q0 -54 -41.5 -88t-109.5 -34q-63 0 -105 30t-42 87q0 35 20 62t56 39zM253 579q0 28 -19.5 43.5t-54.5 15.5q-31 0 -52.5 -16t-21.5 -43t19 -44t55 -17
q35 0 54.5 16t19.5 45zM260 402q0 63 -82 63q-37 0 -59 -17.5t-22 -46.5q0 -34 23 -50t57 -16q35 0 59 17t24 50z" />
    <glyph glyph-name="eight.oldstyle" horiz-adv-x="524" 
d="M160 347q-103 42 -103 153q0 81 59.5 131t146.5 50q93 0 149 -46.5t56 -132.5q0 -51 -27.5 -92.5t-79.5 -59.5q61 -16 92 -62t31 -105q0 -87 -61 -141t-165 -54q-94 0 -156.5 50.5t-62.5 142.5q0 58 32 103t89 63zM384 494q0 50 -32 78.5t-89 28.5q-52 0 -87 -28.5
t-35 -78.5q0 -47 31 -77.5t90 -30.5q58 0 90 29.5t32 78.5zM396 190q0 57 -36 85.5t-97 28.5q-62 0 -98.5 -30.5t-36.5 -82.5q0 -61 39 -91t94 -30q58 0 96.5 30.5t38.5 89.5z" />
    <glyph glyph-name="eight.taboldstyle" horiz-adv-x="524" 
d="M160 347q-103 42 -103 153q0 81 59.5 131t146.5 50q93 0 149 -46.5t56 -132.5q0 -51 -27.5 -92.5t-79.5 -59.5q61 -16 92 -62t31 -105q0 -87 -61 -141t-165 -54q-94 0 -156.5 50.5t-62.5 142.5q0 58 32 103t89 63zM384 494q0 50 -32 78.5t-89 28.5q-52 0 -87 -28.5
t-35 -78.5q0 -47 31 -77.5t90 -30.5q58 0 90 29.5t32 78.5zM396 190q0 57 -36 85.5t-97 28.5q-62 0 -98.5 -30.5t-36.5 -82.5q0 -61 39 -91t94 -30q58 0 96.5 30.5t38.5 89.5z" />
    <glyph glyph-name="emdash.cap" horiz-adv-x="860" 
d="M814 293h-768v72h768v-72z" />
    <glyph glyph-name="endash.cap" horiz-adv-x="543" 
d="M497 293h-451v72h451v-72z" />
    <glyph glyph-name="estimated.alt" horiz-adv-x="840" 
d="M767 56q-133 -68 -291 -68q-191 0 -299 94.5t-108 268.5q0 159 102 254.5t267 95.5q170 0 254 -91t84 -242v-43h-609q11 -254 324 -254q69 0 144.5 20t131.5 55v-90zM168 403h513q-1 39 -12.5 74t-36.5 70t-75 56t-120 21q-118 0 -189.5 -62.5t-79.5 -158.5z" />
    <glyph glyph-name="exclamdown.cap" horiz-adv-x="272" 
d="M81 480h77q14 -339 14 -480h-104q0 140 13 480zM55 647q0 28 19 47.5t48 19.5q28 0 45.5 -19t17.5 -46q0 -29 -18.5 -47.5t-47.5 -18.5q-27 0 -45.5 18t-18.5 46z" />
    <glyph glyph-name="five.denominator" 
d="M42 18v66q50 -29 111 -29q42 0 66.5 20.5t24.5 55.5q0 33 -24 50.5t-65 17.5q-59 0 -99 -18l22 226h216v-63h-163l-11 -100q23 10 62 10q58 0 95.5 -31.5t37.5 -90.5q0 -66 -42 -102.5t-116 -36.5q-70 0 -115 25z" />
    <glyph glyph-name="five.numerator" 
d="M42 300v66q50 -29 111 -29q42 0 66.5 20.5t24.5 55.5q0 33 -24 50.5t-65 17.5q-59 0 -99 -18l22 226h216v-63h-163l-11 -100q23 10 62 10q58 0 95.5 -31.5t37.5 -90.5q0 -66 -42 -102.5t-116 -36.5q-70 0 -115 25z" />
    <glyph glyph-name="five.oldstyle" horiz-adv-x="493" 
d="M41 -95v96q77 -53 171 -53q71 0 112 37t41 102q0 62 -40 94.5t-110 32.5q-84 0 -151 -32l35 360h326v-88h-255l-17 -180q43 18 96 18q92 0 150.5 -50t58.5 -154q0 -107 -63.5 -167.5t-177.5 -60.5q-105 0 -176 45z" />
    <glyph glyph-name="five.taboldstyle" horiz-adv-x="524" 
d="M65 -95v96q77 -53 171 -53q71 0 112 37t41 102q0 62 -40 94.5t-110 32.5q-84 0 -151 -32l35 360h326v-88h-255l-17 -180q43 18 96 18q92 0 150.5 -50t58.5 -154q0 -107 -63.5 -167.5t-177.5 -60.5q-105 0 -176 45z" />
    <glyph glyph-name="florin.denominator" horiz-adv-x="316" 
d="M13 -68v61q20 -13 46 -13q32 0 40 23q5 12 7 41l14 160h-58v48h60l5 47q5 50 21 73q30 42 90 42q43 0 64 -16v-61q-20 15 -50 15q-28 0 -41 -16q-10 -14 -13 -45l-3 -39h71v-48h-75l-13 -164q-2 -37 -12 -64q-20 -56 -99 -56q-33 0 -54 12z" />
    <glyph glyph-name="florin.inferior" horiz-adv-x="316" 
d="M13 -194v61q20 -13 46 -13q32 0 40 23q5 12 7 41l14 160h-58v48h60l5 47q5 50 21 73q30 42 90 42q43 0 64 -16v-61q-20 15 -50 15q-28 0 -41 -16q-10 -14 -13 -45l-3 -39h71v-48h-75l-13 -164q-2 -37 -12 -64q-20 -56 -99 -56q-33 0 -54 12z" />
    <glyph glyph-name="florin.numerator" horiz-adv-x="316" 
d="M13 214v61q20 -13 46 -13q32 0 40 23q5 12 7 41l14 160h-58v48h60l5 47q5 50 21 73q30 42 90 42q43 0 64 -16v-61q-20 15 -50 15q-28 0 -41 -16q-10 -14 -13 -45l-3 -39h71v-48h-75l-13 -164q-2 -37 -12 -64q-20 -56 -99 -56q-33 0 -54 12z" />
    <glyph glyph-name="florin.oldstyle" horiz-adv-x="479" 
d="M23 -99v86q29 -21 70 -21q46 0 60 33q8 20 12 65l19 251h-88v66h92l6 64q7 77 33 115q44 61 124 61q63 0 93 -20v-85q-30 23 -75 23q-43 0 -62 -25q-15 -18 -20 -77l-5 -56h107v-66h-112l-19 -256q-4 -51 -19 -96q-15 -42 -53 -61.5t-83 -19.5q-48 0 -80 19z" />
    <glyph glyph-name="florin.superior" horiz-adv-x="316" 
d="M13 352v61q20 -13 46 -13q32 0 40 23q5 12 7 41l14 160h-58v48h60l5 47q5 50 21 73q30 42 90 42q43 0 64 -16v-61q-20 15 -50 15q-28 0 -41 -16q-10 -14 -13 -45l-3 -39h71v-48h-75l-13 -164q-2 -37 -12 -64q-20 -56 -99 -56q-33 0 -54 12z" />
    <glyph glyph-name="four.denominator" 
d="M281 0h-72v109h-187v45l195 253h64v-244h58v-54h-58v-109zM209 163q0 129 1 156q-29 -40 -118 -156h117z" />
    <glyph glyph-name="four.numerator" 
d="M281 282h-72v109h-187v45l195 253h64v-244h58v-54h-58v-109zM209 445q0 129 1 156q-29 -40 -118 -156h117z" />
    <glyph glyph-name="four.oldstyle" horiz-adv-x="538" 
d="M430 -138h-94v192h-310v63l322 432h82v-418h94v-77h-94v-192zM336 131q0 253 2 301q-21 -30 -218 -301h216z" />
    <glyph glyph-name="four.taboldstyle" horiz-adv-x="524" 
d="M418 -138h-94v192h-298v63l310 432h82v-418h94v-77h-94v-192zM324 131q0 244 2 292q-42 -64 -206 -292h204z" />
    <glyph glyph-name="fourfifths" horiz-adv-x="800" 
d="M281 -12h-55l347 713h54zM285 282h-72v109h-187v45l195 253h64v-244h58v-54h-58v-109zM213 445q0 129 1 156q-29 -40 -118 -156h117zM505 18v66q50 -29 111 -29q42 0 66.5 20.5t24.5 55.5q0 33 -24 50.5t-65 17.5q-58 0 -99 -18l22 226h216v-63h-163l-11 -100
q23 10 62 10q58 0 95.5 -31.5t37.5 -90.5q0 -66 -42 -102.5t-116 -36.5q-70 0 -115 25z" />
    <glyph glyph-name="grave.cap" horiz-adv-x="179" 
d="M219 760h-95l-164 137h126z" />
    <glyph glyph-name="guillemotleft.cap" horiz-adv-x="434" 
d="M233 144h-86l-126 184l125 184h86l-122 -184zM409 144h-87l-126 184l125 184h87l-122 -184z" />
    <glyph glyph-name="guillemotright.cap" horiz-adv-x="434" 
d="M201 512h86l126 -184l-125 -184h-86l122 184zM25 512h87l126 -184l-125 -184h-87l122 184z" />
    <glyph glyph-name="guilsinglleft.cap" horiz-adv-x="257" 
d="M233 144h-86l-126 184l125 184h86l-122 -184z" />
    <glyph glyph-name="guilsinglright.cap" horiz-adv-x="259" 
d="M25 512h87l126 -184l-125 -184h-87l122 184z" />
    <glyph glyph-name="h.superior" horiz-adv-x="352" 
d="M114 282h-68v441h67v-179q37 42 96 42q67 0 87 -49q11 -28 11 -93v-162h-69v160q0 45 -5 58q-12 28 -50 28q-40 0 -69 -37v-209z" />
    <glyph glyph-name="hungarumlaut.cap" horiz-adv-x="179" 
d="M-29 760h-88l130 137h113zM142 760h-87l129 137h113z" />
    <glyph glyph-name="hyphen.cap" horiz-adv-x="346" 
d="M301 291h-255v77h255v-77z" />
    <glyph glyph-name="hyphen.denominator" horiz-adv-x="224" 
d="M193 164h-161v57h161v-57z" />
    <glyph glyph-name="hyphen.inferior" horiz-adv-x="224" 
d="M193 38h-161v57h161v-57z" />
    <glyph glyph-name="hyphen.numerator" horiz-adv-x="224" 
d="M193 446h-161v57h161v-57z" />
    <glyph glyph-name="hyphen.superior" horiz-adv-x="224" 
d="M193 584h-161v57h161v-57z" />
    <glyph glyph-name="i.superior" horiz-adv-x="161" 
d="M115 282h-69v297h69v-297zM119 672q0 -16 -11.5 -27t-27.5 -11t-26.5 11t-10.5 26q0 17 10.5 28t27.5 11t27.5 -11t10.5 -27z" />
    <glyph glyph-name="idotaccent" horiz-adv-x="244" 
d="M168 0h-92v500h92v-500zM179 659q0 -25 -16.5 -41.5t-41.5 -16.5q-24 0 -40 16t-16 40q0 25 16.5 42t41.5 17q24 0 40 -16t16 -41z" />
    <glyph glyph-name="l.superior" horiz-adv-x="161" 
d="M115 282h-69v441h69v-441z" />
    <glyph glyph-name="m.superior" horiz-adv-x="534" 
d="M114 282h-68v297h67v-35q37 42 93 42q62 0 84 -50q41 50 103 50q65 0 85 -50q11 -25 11 -92v-162h-68v160q0 42 -5 55q-11 31 -48 31q-41 0 -68 -37q2 -15 2 -47v-162h-68v160q0 43 -5 56q-11 30 -49 30q-39 0 -66 -37v-209z" />
    <glyph glyph-name="macron.cap" horiz-adv-x="179" 
d="M223 789h-267v70h267v-70z" />
    <glyph glyph-name="nine.denominator" 
d="M254 198q-12 -23 -41 -38.5t-65 -15.5q-55 0 -89 32.5t-34 95.5q0 66 40 104t106 38q70 0 112 -49.5t42 -150.5q0 -111 -51 -166t-130 -55q-64 0 -96 21v69q36 -26 91 -26q60 0 86.5 34t28.5 107zM249 255q0 33 -12 57q-18 41 -66 41q-32 0 -54 -21t-22 -60q0 -72 73 -72
q30 0 53 15.5t28 39.5z" />
    <glyph glyph-name="nine.numerator" 
d="M254 480q-12 -23 -41 -38.5t-65 -15.5q-55 0 -89 32.5t-34 95.5q0 66 40 104t106 38q70 0 112 -49.5t42 -150.5q0 -111 -51 -166t-130 -55q-64 0 -96 21v69q36 -26 91 -26q60 0 86.5 34t28.5 107zM249 537q0 33 -12 57q-18 41 -66 41q-32 0 -54 -21t-22 -60q0 -72 73 -72
q30 0 53 15.5t28 39.5z" />
    <glyph glyph-name="nine.oldstyle" horiz-adv-x="534" 
d="M396 203q-24 -40 -68 -64t-100 -24q-84 0 -135 52t-51 155q0 109 59.5 171t157.5 62q107 0 168 -79t61 -251q0 -185 -74.5 -275t-194.5 -90q-91 0 -144 35v98q56 -43 139 -43q94 0 137 64t45 189zM389 300q-2 61 -18 97q-34 75 -113 75q-53 0 -89 -38.5t-36 -110.5
q0 -134 119 -134q54 0 90.5 32t46.5 79z" />
    <glyph glyph-name="nine.taboldstyle" horiz-adv-x="524" 
d="M389 203q-24 -40 -68 -64t-100 -24q-84 0 -135 52t-51 155q0 109 59.5 171t157.5 62q107 0 168 -79t61 -251q0 -185 -74.5 -275t-194.5 -90q-91 0 -144 35v98q56 -43 139 -43q94 0 137 64t45 189zM382 300q-2 61 -18 97q-34 75 -113 75q-53 0 -89 -38.5t-36 -110.5
q0 -134 119 -134q54 0 90.5 32t46.5 79z" />
    <glyph glyph-name="numbersign.oldstyle" horiz-adv-x="528" 
d="M154 -25h-43l24 174h-93v82h104l14 100h-96v82h107l22 158h42l-22 -158h130l22 158h42l-22 -158h101v-82h-112l-14 -100h104v-82h-115l-24 -174h-42l24 174h-130zM202 331l-14 -100h130l14 100h-130z" />
    <glyph glyph-name="o.superior" horiz-adv-x="348" 
d="M322 433q0 -73 -40 -115.5t-109 -42.5q-68 0 -107.5 42t-39.5 112q0 69 41 113t108 44q69 0 108 -42t39 -111zM253 431q0 97 -79 97q-36 0 -58 -25.5t-22 -73.5q0 -46 21 -71t58 -25q80 0 80 98z" />
    <glyph glyph-name="ogonek.cap" horiz-adv-x="179" 
d="M178 13q-123 -79 -123 -152q0 -29 17 -47.5t47 -18.5q33 0 64 18v-53q-35 -23 -76 -23q-120 0 -120 114q0 48 35 91.5t95 71.5z" />
    <glyph glyph-name="one.denominator" 
d="M230 0h-76v322l-80 -33v66l156 62v-417z" />
    <glyph glyph-name="one.numerator" 
d="M230 282h-76v322l-80 -33v66l156 62v-417z" />
    <glyph glyph-name="one.oldstyle" horiz-adv-x="379" 
d="M270 0h-98v424l-134 -61v94l232 103v-560z" />
    <glyph glyph-name="one.taboldstyle" horiz-adv-x="524" 
d="M330 0h-98v421l-144 -65v96l242 108v-560z" />
    <glyph glyph-name="onefifth" horiz-adv-x="800" 
d="M229 -12h-55l347 713h54zM233 282h-76v322l-80 -33v66l156 62v-417zM469 18v66q50 -29 111 -29q42 0 66.5 20.5t24.5 55.5q0 33 -24 50.5t-65 17.5q-58 0 -99 -18l22 226h216v-63h-163l-11 -100q23 10 62 10q58 0 95.5 -31.5t37.5 -90.5q0 -66 -42 -102.5t-116 -36.5
q-70 0 -115 25z" />
    <glyph glyph-name="parenleft.cap" horiz-adv-x="316" 
d="M250 -73q-43 35 -74.5 68t-65.5 83t-52 116t-18 144q0 147 56.5 246t152.5 172h72q-101 -88 -150.5 -184.5t-49.5 -232.5q0 -127 51 -223t149 -189h-71z" />
    <glyph glyph-name="parenleft.denominator" horiz-adv-x="217" 
d="M165 -94q-133 98 -133 266q0 178 132 270h47q-125 -102 -125 -269q0 -154 125 -267h-46z" />
    <glyph glyph-name="parenleft.numerator" horiz-adv-x="217" 
d="M165 188q-133 98 -133 266q0 178 132 270h47q-125 -102 -125 -269q0 -154 125 -267h-46z" />
    <glyph glyph-name="parenright.cap" horiz-adv-x="316" 
d="M-4 756h71q43 -35 74 -68t65 -83t52 -116t18 -144q0 -147 -56.5 -246t-152.5 -172h-71q101 88 150.5 184.5t49.5 232.5q0 127 -51 223t-149 189z" />
    <glyph glyph-name="parenright.denominator" horiz-adv-x="217" 
d="M6 442h46q57 -39 95 -106.5t38 -161.5q0 -171 -133 -268h-46q125 108 125 268q0 161 -125 268z" />
    <glyph glyph-name="parenright.numerator" horiz-adv-x="217" 
d="M6 724h46q57 -39 95 -106.5t38 -161.5q0 -171 -133 -268h-46q125 108 125 268q0 161 -125 268z" />
    <glyph glyph-name="percent.oldstyle" horiz-adv-x="800" 
d="M329 416q0 -86 -38.5 -141.5t-113.5 -55.5q-76 0 -115 56t-39 141q0 89 41.5 146.5t115.5 57.5q149 0 149 -204zM257 417q0 137 -78 137q-34 0 -58.5 -32.5t-24.5 -106.5t25 -103.5t58 -29.5q78 0 78 135zM271 -16h-52l314 646h51zM777 190q0 -86 -38.5 -141.5
t-113.5 -55.5q-76 0 -115 56t-39 141q0 89 41.5 146.5t115.5 57.5q149 0 149 -204zM705 191q0 137 -78 137q-34 0 -58.5 -32.5t-24.5 -106.5t25 -103.5t58 -29.5q78 0 78 135z" />
    <glyph glyph-name="period.denominator" horiz-adv-x="145" 
d="M124 41q0 -21 -12.5 -34t-33.5 -13q-20 0 -32 12.5t-12 32.5q0 21 13.5 34t32.5 13q18 0 31 -13t13 -32z" />
    <glyph glyph-name="period.inferior" horiz-adv-x="145" 
d="M124 -85q0 -21 -12.5 -34t-33.5 -13q-20 0 -32 12.5t-12 32.5q0 21 13.5 34t32.5 13q18 0 31 -13t13 -32z" />
    <glyph glyph-name="period.numerator" horiz-adv-x="145" 
d="M122 323q0 -20 -12 -33t-32 -13q-19 0 -30.5 12.5t-11.5 31.5q0 21 12.5 33.5t31.5 12.5q18 0 30 -12.5t12 -31.5z" />
    <glyph glyph-name="period.superior" horiz-adv-x="145" 
d="M124 461q0 -21 -12.5 -34t-33.5 -13q-20 0 -32 12.5t-12 32.5q0 21 13.5 34t32.5 13q18 0 31 -13t13 -32z" />
    <glyph glyph-name="periodcentered.cap" horiz-adv-x="217" 
d="M174 331q0 -28 -19 -47.5t-48 -19.5q-28 0 -45.5 19t-17.5 46q0 29 19 47.5t47 18.5q27 0 45.5 -18t18.5 -46z" />
    <glyph glyph-name="perthousand.oldstyle" horiz-adv-x="1156" 
d="M329 416q0 -86 -38.5 -141.5t-113.5 -55.5q-76 0 -115 56t-39 141q0 89 41.5 146.5t115.5 57.5q149 0 149 -204zM257 417q0 137 -78 137q-34 0 -58.5 -32.5t-24.5 -106.5t25 -103.5t58 -29.5q78 0 78 135zM271 -16h-52l314 646h51zM777 190q0 -86 -38.5 -141.5
t-113.5 -55.5q-76 0 -115 56t-39 141q0 89 41.5 146.5t115.5 57.5q149 0 149 -204zM705 191q0 137 -78 137q-34 0 -58.5 -32.5t-24.5 -106.5t25 -103.5t58 -29.5q78 0 78 135zM1133 190q0 -86 -38.5 -141.5t-113.5 -55.5q-76 0 -115 56t-39 141q0 89 41.5 146.5t115.5 57.5
q149 0 149 -204zM1061 191q0 137 -78 137q-34 0 -58.5 -32.5t-24.5 -106.5t25 -103.5t58 -29.5q78 0 78 135z" />
    <glyph glyph-name="questiondown.cap" horiz-adv-x="413" 
d="M199 480h78q0 -53 -9 -87t-40 -62q-55 -52 -75.5 -84t-20.5 -67q0 -41 24 -71t78 -30q81 0 137 50v-92q-60 -50 -161 -50q-81 0 -130.5 42.5t-49.5 123.5q0 104 118 204q28 24 38.5 50.5t12.5 72.5zM172 647q0 28 19 47.5t48 19.5q28 0 45.5 -19t17.5 -46
q0 -29 -19 -47.5t-47 -18.5q-27 0 -45.5 18t-18.5 46z" />
    <glyph glyph-name="r.superior" horiz-adv-x="247" 
d="M114 282h-68v297h68v-44q28 52 85 52q21 0 37 -8v-68q-21 12 -45 12q-48 0 -77 -49v-192z" />
    <glyph glyph-name="ring.cap" horiz-adv-x="179" 
d="M180 839q0 -38 -26 -64t-66 -26q-38 0 -63 25.5t-25 64.5q0 41 26 66t66 25t64 -25t24 -66zM141 840q0 25 -15 40.5t-38 15.5q-22 0 -36.5 -16t-14.5 -41q0 -23 14 -39t39 -16q23 0 37 16t14 40z" />
    <glyph glyph-name="s.superior" horiz-adv-x="276" 
d="M27 303v63q46 -37 112 -37q49 0 49 30q0 8 -2.5 13t-14 12t-33.5 16l-36 13q-73 26 -73 90q0 38 30 60.5t83 22.5q54 0 99 -27v-59q-48 33 -99 33q-46 0 -46 -29q0 -11 9.5 -20t39.5 -20l34 -13q41 -15 59 -34t18 -53q0 -41 -31.5 -65t-84.5 -24q-64 0 -113 28z" />
    <glyph glyph-name="seven.denominator" 
d="M164 0h-74l147 344h-207v63h303z" />
    <glyph glyph-name="seven.numerator" 
d="M164 282h-74l147 344h-207v63h303z" />
    <glyph glyph-name="seven.oldstyle" horiz-adv-x="475" 
d="M201 -136h-101l228 590h-308v88h431z" />
    <glyph glyph-name="seven.taboldstyle" horiz-adv-x="524" 
d="M229 -136h-99l232 590h-321v88h444z" />
    <glyph glyph-name="six.denominator" 
d="M103 206q12 25 39.5 41.5t63.5 16.5q55 0 90 -33.5t35 -96.5q0 -66 -39 -103.5t-104 -37.5q-71 0 -114 49.5t-43 150.5q0 110 51 165.5t130 55.5q60 0 94 -22v-68q-36 25 -88 25q-59 0 -86 -35.5t-29 -107.5zM107 152q2 -34 13 -58q20 -41 67 -41q32 0 53 21t21 61
q0 72 -73 72q-30 0 -51.5 -15.5t-29.5 -39.5z" />
    <glyph glyph-name="six.numerator" 
d="M103 488q12 25 39.5 41.5t63.5 16.5q55 0 90 -33.5t35 -96.5q0 -66 -39 -103.5t-104 -37.5q-71 0 -114 49.5t-43 150.5q0 110 51 165.5t130 55.5q60 0 94 -22v-68q-36 25 -88 25q-59 0 -86 -35.5t-29 -107.5zM107 434q2 -34 13 -58q20 -41 67 -41q32 0 53 21t21 61
q0 72 -73 72q-30 0 -51.5 -15.5t-29.5 -39.5z" />
    <glyph glyph-name="six.oldstyle" horiz-adv-x="534" 
d="M140 333q16 41 61 68.5t104 27.5q84 0 137 -53t53 -156q0 -109 -58.5 -170.5t-155.5 -61.5q-104 0 -168 80t-64 250q0 183 75.5 273t191.5 90q91 0 141 -35v-98q-55 44 -134 44q-94 0 -137 -64.5t-46 -194.5zM146 243q3 -54 23 -98q32 -73 112 -73q53 0 87.5 37.5
t34.5 109.5q0 135 -119 135q-51 0 -89.5 -33t-48.5 -78z" />
    <glyph glyph-name="six.taboldstyle" horiz-adv-x="524" 
d="M134 333q16 41 61 68.5t104 27.5q84 0 137 -53t53 -156q0 -109 -58.5 -170.5t-155.5 -61.5q-104 0 -168 80t-64 250q0 183 75.5 273t191.5 90q91 0 141 -35v-98q-55 44 -134 44q-94 0 -137 -64.5t-46 -194.5zM140 243q3 -54 23 -98q32 -73 112 -73q53 0 87.5 37.5
t34.5 109.5q0 135 -119 135q-51 0 -89.5 -33t-48.5 -78z" />
    <glyph glyph-name="sterling.denominator" horiz-adv-x="411" 
d="M289 168h-98l-20 -105h195v-63h-318v63h47l20 105h-41v50h51l11 55q9 51 28 83q37 58 120 58q56 0 85 -19l-8 -64q-29 19 -71 19q-40 0 -60 -31q-12 -18 -21 -61l-8 -40h88v-50z" />
    <glyph glyph-name="sterling.inferior" horiz-adv-x="411" 
d="M289 42h-98l-20 -105h195v-63h-318v63h47l20 105h-41v50h51l11 55q9 51 28 83q37 58 120 58q56 0 85 -19l-8 -64q-29 19 -71 19q-40 0 -60 -31q-12 -18 -21 -61l-8 -40h88v-50z" />
    <glyph glyph-name="sterling.numerator" horiz-adv-x="411" 
d="M289 450h-98l-20 -105h195v-63h-318v63h47l20 105h-41v50h51l11 55q9 51 28 83q37 58 120 58q56 0 85 -19l-8 -64q-29 19 -71 19q-40 0 -60 -31q-12 -18 -21 -61l-8 -40h88v-50z" />
    <glyph glyph-name="sterling.oldstyle" horiz-adv-x="591" 
d="M430 254h-160l-32 -166h307v-88h-478v88h73l32 166h-62v68h76l18 92q15 82 44 126q51 82 171 82q75 0 121 -27v-88q-52 33 -111 33q-70 0 -98 -43q-18 -29 -33 -101l-15 -74h147v-68z" />
    <glyph glyph-name="sterling.superior" horiz-adv-x="411" 
d="M289 588h-98l-20 -105h195v-63h-318v63h47l20 105h-41v50h51l11 55q9 51 28 83q37 58 120 58q56 0 85 -19l-8 -64q-29 19 -71 19q-40 0 -60 -31q-12 -18 -21 -61l-8 -40h88v-50z" />
    <glyph glyph-name="t.superior" horiz-adv-x="232" 
d="M221 290q-31 -15 -75 -15q-66 0 -82 50q-7 23 -7 74v124h-40v56h41v83h67v-83h82v-56h-82v-127q0 -25 5 -42q7 -22 41 -22q24 0 50 13v-55z" />
    <glyph glyph-name="three.denominator" 
d="M38 18v66q48 -30 115 -30q82 0 82 67q0 46 -57 55q-30 4 -58 4h-14v58h14q41 0 56 5q44 14 44 52q0 56 -72 56q-54 0 -101 -31v60q49 34 116 34q62 0 95 -28t33 -78q0 -31 -20.5 -57t-62.5 -37q99 -13 99 -99q0 -55 -41 -88.5t-116 -33.5q-73 0 -112 25z" />
    <glyph glyph-name="three.numerator" 
d="M38 300v66q48 -30 115 -30q82 0 82 67q0 46 -57 55q-30 4 -58 4h-14v58h14q41 0 56 5q44 14 44 52q0 56 -72 56q-54 0 -101 -31v60q49 34 116 34q62 0 95 -28t33 -78q0 -31 -20.5 -57t-62.5 -37q99 -13 99 -99q0 -55 -41 -88.5t-116 -33.5q-73 0 -112 25z" />
    <glyph glyph-name="three.oldstyle" horiz-adv-x="485" 
d="M35 -97v95q73 -50 174 -50q70 0 104 33.5t34 84.5q0 85 -97 102q-29 5 -90 5h-19v86h20q59 0 88 10q37 12 56 38t19 59q0 101 -120 101q-83 0 -156 -54v87q76 55 176 55q93 0 143 -44.5t50 -127.5q0 -53 -31.5 -97t-97.5 -61q154 -22 154 -161q0 -92 -62.5 -148
t-175.5 -56q-47 0 -94 12t-75 31z" />
    <glyph glyph-name="three.taboldstyle" horiz-adv-x="524" 
d="M60 -97v95q73 -50 174 -50q70 0 104 33.5t34 84.5q0 85 -97 102q-29 5 -90 5h-19v86h20q59 0 88 10q37 12 56 38t19 59q0 101 -120 101q-83 0 -156 -54v87q76 55 176 55q93 0 143 -44.5t50 -127.5q0 -53 -31.5 -97t-97.5 -61q154 -22 154 -161q0 -92 -62.5 -148
t-175.5 -56q-47 0 -94 12t-75 31z" />
    <glyph glyph-name="threefifths" horiz-adv-x="800" 
d="M268 -12h-55l347 713h54zM61 300v66q48 -30 115 -30q82 0 82 67q0 46 -57 55q-30 4 -58 4h-14v58h14q41 0 56 5q44 14 44 52q0 56 -72 56q-55 0 -101 -31v60q49 34 116 34q62 0 95 -28t33 -78q0 -31 -20.5 -57t-62.5 -37q99 -13 99 -99q0 -55 -41 -88.5t-116 -33.5
q-73 0 -112 25zM495 18v66q50 -29 111 -29q42 0 66.5 20.5t24.5 55.5q0 33 -24 50.5t-65 17.5q-58 0 -99 -18l22 226h216v-63h-163l-11 -100q23 10 62 10q58 0 95.5 -31.5t37.5 -90.5q0 -66 -42 -102.5t-116 -36.5q-70 0 -115 25z" />
    <glyph glyph-name="tilde.cap" horiz-adv-x="179" 
d="M-14 762h-58q7 61 33.5 95t62.5 34q31 0 76 -31q38 -25 55 -25q30 0 39 55h59q-5 -62 -30 -94.5t-61 -32.5q-34 0 -83 32q-34 22 -49 22t-27.5 -14.5t-16.5 -40.5z" />
    <glyph glyph-name="two.denominator" 
d="M324 0h-305q116 123 165 185q42 53 42 94q0 70 -76 70q-56 0 -110 -40v62q56 43 127 43q65 0 98.5 -32t33.5 -87q0 -68 -53 -130q-33 -39 -94 -103q34 1 172 1v-63z" />
    <glyph glyph-name="two.numerator" 
d="M324 282h-305q116 123 165 185q42 53 42 94q0 70 -76 70q-56 0 -110 -40v62q56 43 127 43q65 0 98.5 -32t33.5 -87q0 -68 -53 -130q-33 -39 -94 -103q34 1 172 1v-63z" />
    <glyph glyph-name="two.oldstyle" horiz-adv-x="496" 
d="M460 0h-444q181 172 235 232q67 76 67 135q0 100 -112 100q-88 0 -169 -64v87q83 65 189 65q95 0 142.5 -45t47.5 -121q0 -95 -73 -177q-36 -40 -127 -125q27 1 244 1v-88z" />
    <glyph glyph-name="two.taboldstyle" horiz-adv-x="524" 
d="M481 0h-444q181 172 235 232q67 76 67 135q0 100 -112 100q-88 0 -169 -64v87q83 65 189 65q95 0 142.5 -45t47.5 -121q0 -95 -73 -177q-36 -40 -127 -125q27 1 244 1v-88z" />
    <glyph glyph-name="twofifths" horiz-adv-x="800" 
d="M285 -12h-55l347 713h54zM335 282h-305q116 123 165 185q42 53 42 94q0 70 -76 70q-56 0 -110 -40v62q56 43 127 43q65 0 98.5 -32t33.5 -87q0 -68 -53 -130q-33 -39 -94 -103q34 1 172 1v-63zM507 18v66q50 -29 111 -29q42 0 66.5 20.5t24.5 55.5q0 33 -24 50.5
t-65 17.5q-58 0 -99 -18l22 226h216v-63h-163l-11 -100q23 10 62 10q58 0 95.5 -31.5t37.5 -90.5q0 -66 -42 -102.5t-116 -36.5q-70 0 -115 25z" />
    <glyph glyph-name="yen.denominator" horiz-adv-x="424" 
d="M367 201h-94l-21 -32v-14h115v-36h-115v-119h-76v119h-111v36h111v14l-21 32h-90v37h65l-111 169h91q50 -76 106 -169q66 103 112 169h84l-114 -169h69v-37z" />
    <glyph glyph-name="yen.inferior" horiz-adv-x="424" 
d="M367 75h-94l-21 -32v-14h115v-36h-115v-119h-76v119h-111v36h111v14l-21 32h-90v37h65l-111 169h91q50 -76 106 -169q66 103 112 169h84l-114 -169h69v-37z" />
    <glyph glyph-name="yen.numerator" horiz-adv-x="424" 
d="M367 483h-94l-21 -32v-14h115v-36h-115v-119h-76v119h-111v36h111v14l-21 32h-90v37h65l-111 169h91q50 -76 106 -169q66 103 112 169h84l-114 -169h69v-37z" />
    <glyph glyph-name="yen.oldstyle" horiz-adv-x="614" 
d="M530 311h-143l-35 -52v-27h178v-51h-178v-181h-96v181h-172v51h172v27l-34 52h-138v53h103l-164 252h114q125 -192 171 -268q59 95 175 268h108l-169 -252h108v-53z" />
    <glyph glyph-name="yen.superior" horiz-adv-x="424" 
d="M367 621h-94l-21 -32v-14h115v-36h-115v-119h-76v119h-111v36h111v14l-21 32h-90v37h65l-111 169h91q50 -76 106 -169q66 103 112 169h84l-114 -169h69v-37z" />
    <glyph glyph-name="zero.denominator" 
d="M336 200q0 -89 -38.5 -148t-116.5 -59q-79 0 -117 58.5t-38 148.5q0 93 40 153.5t118 60.5q152 0 152 -214zM263 201q0 84 -21.5 116t-59.5 32q-82 0 -82 -150q0 -143 82 -143q81 0 81 145z" />
    <glyph glyph-name="zero.numerator" 
d="M336 482q0 -89 -38.5 -148t-116.5 -59q-79 0 -117 58.5t-38 148.5q0 93 40 153.5t118 60.5q152 0 152 -214zM263 483q0 84 -21.5 116t-59.5 32q-82 0 -82 -150q0 -143 82 -143q81 0 81 145z" />
    <glyph glyph-name="zero.oldstyle" horiz-adv-x="524" 
d="M492 267q0 -122 -58.5 -200.5t-172.5 -78.5q-116 0 -172.5 79t-56.5 200q0 125 60 206.5t174 81.5q226 0 226 -288zM397 269q0 112 -35.5 155t-97.5 43q-57 0 -96 -46t-39 -154q0 -57 12.5 -96.5t34 -59t43 -27.5t46.5 -8q24 0 45 8t42 27t33 59.5t12 98.5z" />
    <glyph glyph-name="zero.taboldstyle" horiz-adv-x="524" 
d="M492 267q0 -122 -58.5 -200.5t-172.5 -78.5q-116 0 -172.5 79t-56.5 200q0 125 60 206.5t174 81.5q226 0 226 -288zM397 269q0 112 -35.5 155t-97.5 43q-57 0 -96 -46t-39 -154q0 -57 12.5 -96.5t34 -59t43 -27.5t46.5 -8q24 0 45 8t42 27t33 59.5t12 98.5z" />
    <glyph glyph-name="acute.sc" horiz-adv-x="179" 
d="M57 588h-78l114 170h108z" />
    <glyph glyph-name="breve.sc" horiz-adv-x="169" 
d="M-52 727h58q3 -45 24.5 -66t52.5 -21q76 0 82 87h57q-2 -66 -37.5 -109t-102.5 -43q-64 0 -98.5 42t-35.5 110z" />
    <glyph glyph-name="caron.sc" horiz-adv-x="169" 
d="M160 755h76l-122 -166h-59l-122 166h77l76 -90z" />
    <glyph glyph-name="cedilla.sc" horiz-adv-x="169" 
d="M-12 -240v55q28 -18 71 -18q29 0 42 13.5t13 33.5t-16 32t-46 12q-23 0 -40 -6l34 125h53l-20 -70q1 0 6 0.5t7 0.5q42 0 66 -25t24 -68q0 -50 -33 -76.5t-89 -26.5q-46 0 -72 18z" />
    <glyph glyph-name="circumflex.sc" horiz-adv-x="169" 
d="M9 585h-76l122 166h59l122 -166h-77l-76 90z" />
    <glyph glyph-name="commaaccent.sc" horiz-adv-x="168" 
d="M81 -294h-67q68 99 68 229h80q0 -140 -81 -229z" />
    <glyph glyph-name="dieresis.sc" horiz-adv-x="179" 
d="M59 669q0 -23 -15 -38.5t-37 -15.5q-23 0 -37 15t-14 38t14.5 38.5t37.5 15.5t37 -15t14 -38zM223 669q0 -23 -15 -38.5t-37 -15.5q-23 0 -37 15t-14 38t14.5 38.5t37.5 15.5t37 -15t14 -38z" />
    <glyph glyph-name="dotaccent.sc" horiz-adv-x="169" 
d="M136 669q0 -23 -15 -38.5t-37 -15.5q-23 0 -37 15t-14 38t14.5 38.5t37.5 15.5t37 -15t14 -38z" />
    <glyph glyph-name="grave.sc" horiz-adv-x="179" 
d="M201 588h-78l-144 170h108z" />
    <glyph glyph-name="hungarumlaut.sc" horiz-adv-x="169" 
d="M-22 589h-75l114 169h97zM131 589h-75l114 169h96z" />
    <glyph glyph-name="macron.sc" horiz-adv-x="169" 
d="M212 615h-256v69h256v-69z" />
    <glyph glyph-name="ogonek.sc" horiz-adv-x="169" 
d="M172 16q-120 -76 -120 -147q0 -30 16 -47t47 -17t62 17v-51q-31 -22 -74 -22q-118 0 -118 110q0 47 34 89t93 69z" />
    <glyph glyph-name="ring.sc" horiz-adv-x="169" 
d="M179 680q0 -40 -27.5 -67.5t-68.5 -27.5q-40 0 -66.5 27t-26.5 68q0 43 27 69.5t69 26.5q41 0 67 -26.5t26 -69.5zM139 681q0 27 -15.5 43.5t-40.5 16.5q-23 0 -38.5 -17.5t-15.5 -43.5q0 -25 15 -42.5t42 -17.5q23 0 38 18t15 43z" />
    <glyph glyph-name="tilde.sc" horiz-adv-x="179" 
d="M-8 605h-58q5 61 31.5 95.5t61.5 34.5q26 0 72 -31q35 -25 52 -25q31 0 38 56h55q-3 -62 -28 -95.5t-59 -33.5q-32 0 -77 31q-35 24 -50 24q-28 0 -38 -56z" />
    <glyph glyph-name="a.sc" horiz-adv-x="523" 
d="M105 0h-101l210 533h94l211 -533h-99l-56 141h-204zM190 226h144q-55 147 -72 198q-17 -48 -72 -198z" />
    <glyph glyph-name="b.sc" horiz-adv-x="512" 
d="M77 0v530h169q53 0 99 -13q90 -27 90 -116q0 -85 -81 -122q117 -17 117 -128q0 -95 -81 -131q-42 -20 -135 -20h-178zM170 85h84q52 0 76 8q45 17 45 64q0 24 -14.5 41t-41.5 22q-24 5 -70 5h-79v-140zM170 307h72q48 0 72 12q33 18 33 58q0 47 -32 60q-26 10 -71 10h-74
v-140z" />
    <glyph glyph-name="c.sc" horiz-adv-x="518" 
d="M481 35q-71 -47 -175 -47q-116 0 -190.5 75.5t-74.5 199.5t76 201.5t194 77.5q112 0 170 -44v-95q-56 53 -157 53q-85 0 -136 -52t-51 -141q0 -90 53 -140t138 -50q81 0 153 49v-87z" />
    <glyph glyph-name="d.sc" horiz-adv-x="579" 
d="M77 0v530h141q126 0 184 -23q137 -56 137 -236q0 -192 -155 -248q-65 -23 -183 -23h-124zM171 86h53q88 0 125 17q95 44 95 165q0 116 -86 158q-35 18 -122 18h-65v-358z" />
    <glyph glyph-name="e.sc" horiz-adv-x="445" 
d="M416 0h-339v530h326v-87h-232v-126h215v-87h-215v-143h245v-87z" />
    <glyph glyph-name="f.sc" horiz-adv-x="426" 
d="M171 0h-94v530h317v-87h-223v-146h207v-87h-207v-210z" />
    <glyph glyph-name="g.sc" horiz-adv-x="569" 
d="M516 34q-90 -46 -207 -46q-121 0 -194.5 76.5t-73.5 198.5q0 125 75.5 202t195.5 77q112 0 183 -44v-96q-73 54 -172 54q-89 0 -137.5 -52t-48.5 -143q0 -88 50.5 -139.5t131.5 -51.5q61 0 105 20v106h-103v86h195v-248z" />
    <glyph glyph-name="h.sc" horiz-adv-x="589" 
d="M512 0h-94v230h-247v-230h-94v530h94v-213h247v213h94v-530z" />
    <glyph glyph-name="i.sc" horiz-adv-x="248" 
d="M171 0h-94v530h94v-530z" />
    <glyph glyph-name="j.sc" horiz-adv-x="248" 
d="M13 -145l-34 73q64 31 79 51q19 24 19 74v477h94v-475q0 -87 -39 -126q-40 -40 -119 -74z" />
    <glyph glyph-name="k.sc" horiz-adv-x="505" 
d="M171 0h-94v530h94v-231q21 28 195 231h114l-223 -250l247 -280h-123q-50 59 -89 105t-60 71t-34 40.5t-19 23t-8 9.5v-249z" />
    <glyph glyph-name="l.sc" horiz-adv-x="435" 
d="M407 0h-330v530h94v-443h236v-87z" />
    <glyph glyph-name="m.sc" horiz-adv-x="670" 
d="M169 0h-92v530h101q150 -237 154 -246q4 8 164 246h97v-530h-92q0 339 2 401q-146 -214 -174 -254q-155 243 -162 254q2 -62 2 -401z" />
    <glyph glyph-name="n.sc" horiz-adv-x="605" 
d="M170 0h-93v530h88q244 -329 272 -372q-2 124 -2 372h93v-530h-83q-242 334 -276 386q1 -50 1 -386z" />
    <glyph glyph-name="o.sc" horiz-adv-x="613" 
d="M572 268q0 -126 -73.5 -203t-192.5 -77q-118 0 -191.5 76.5t-73.5 199.5q0 122 76.5 200t193.5 78q120 0 190.5 -76.5t70.5 -197.5zM478 263q0 91 -46 143t-122 52t-124.5 -51t-48.5 -142q0 -89 47.5 -140.5t122.5 -51.5q77 0 124 50t47 140z" />
    <glyph glyph-name="p.sc" horiz-adv-x="491" 
d="M171 0h-94v530h134q78 0 116 -8q126 -25 126 -156q0 -116 -90 -151q-53 -22 -148 -22h-44v-193zM171 276h46q53 0 94 12q49 15 49 73q0 67 -70 77q-29 6 -82 6h-37v-168z" />
    <glyph glyph-name="q.sc" horiz-adv-x="613" 
d="M572 268q0 -88 -38 -154t-105 -99q67 -36 151 -60l-31 -79q-58 13 -127.5 47.5t-111.5 64.5h-4q-118 0 -191.5 76.5t-73.5 199.5q0 122 76.5 200t193.5 78q120 0 190.5 -76.5t70.5 -197.5zM478 263q0 91 -46 143t-122 52t-124.5 -51t-48.5 -142q0 -89 47.5 -140.5
t122.5 -51.5q77 0 124 50t47 140z" />
    <glyph glyph-name="r.sc" horiz-adv-x="508" 
d="M171 0h-94v530h129q88 0 125 -8q117 -23 117 -137q0 -109 -109 -144q10 -4 18 -9.5t17.5 -16t16.5 -20t20 -31.5t23 -39.5t31 -55.5t39 -69h-104q-68 119 -86 147t-37 41q-20 13 -52 13h-54v-201zM171 283h64q38 0 61 8q30 10 44.5 28t14.5 50q0 65 -79 74q-29 4 -72 4
h-33v-164z" />
    <glyph glyph-name="s.sc" horiz-adv-x="444" 
d="M43 37v96q77 -62 179 -62q95 0 95 67q0 25 -18.5 43t-67.5 37l-69 26q-119 45 -119 151q0 68 49.5 107.5t135.5 39.5q87 0 153 -41v-95q-76 52 -162 52q-80 0 -80 -61q0 -26 17.5 -41.5t61.5 -33.5l66 -25q72 -28 99.5 -63.5t27.5 -91.5q0 -71 -52 -112.5t-140 -41.5
q-102 0 -176 49z" />
    <glyph glyph-name="t.sc" horiz-adv-x="459" 
d="M275 0h-94v443h-157v87h411v-87h-160v-443z" />
    <glyph glyph-name="u.sc" horiz-adv-x="590" 
d="M71 530h95v-304q0 -59 11 -88q22 -65 117 -65q104 0 125 74q9 31 9 83v300h91v-305q0 -76 -19 -123q-22 -53 -76.5 -83t-133.5 -30q-154 0 -199 109q-20 49 -20 122v310z" />
    <glyph glyph-name="v.sc" horiz-adv-x="519" 
d="M307 -3h-95l-208 533h103q119 -304 155 -416q36 114 155 416h99z" />
    <glyph glyph-name="w.sc" horiz-adv-x="771" 
d="M258 -3h-89l-161 533h101q93 -309 114 -400q21 76 128 400h70q115 -338 129 -400q20 93 113 400h100l-162 -533h-88q-114 342 -129 392q-11 -45 -126 -392z" />
    <glyph glyph-name="x.sc" horiz-adv-x="542" 
d="M117 0h-109l202 276l-183 254h112q109 -151 135 -189q61 88 133 189h108l-185 -248l204 -282h-111q-100 136 -153 213q-84 -121 -153 -213z" />
    <glyph glyph-name="y.sc" horiz-adv-x="508" 
d="M296 0h-93v218l-199 312h107q100 -155 141 -228q30 52 150 228h102l-208 -312v-218z" />
    <glyph glyph-name="z.sc" horiz-adv-x="497" 
d="M471 0h-466q254 376 305 448q-28 -1 -267 -1v83h430q-85 -124 -309 -447q38 1 307 1v-84z" />
    <glyph glyph-name="eth.sc" horiz-adv-x="579" 
d="M77 0v243h-63v62h63v225h141q126 0 184 -23q137 -56 137 -236q0 -192 -155 -248q-65 -23 -183 -23h-124zM171 86h53q88 0 125 17q95 44 95 165q0 116 -86 158q-35 18 -122 18h-65v-139h132v-62h-132v-157z" />
    <glyph glyph-name="lslash.sc" horiz-adv-x="435" 
d="M407 0h-330v175l-66 -45v75l66 45v280h94v-216l106 73v-75l-106 -73v-152h236v-87z" />
    <glyph glyph-name="scaron.sc" horiz-adv-x="444" 
d="M43 37v96q77 -62 179 -62q95 0 95 67q0 25 -18.5 43t-67.5 37l-69 26q-119 45 -119 151q0 68 49.5 107.5t135.5 39.5q87 0 153 -41v-95q-76 52 -162 52q-80 0 -80 -61q0 -26 17.5 -41.5t61.5 -33.5l66 -25q72 -28 99.5 -63.5t27.5 -91.5q0 -71 -52 -112.5t-140 -41.5
q-102 0 -176 49zM297 755h76l-122 -166h-59l-122 166h77l76 -90z" />
    <glyph glyph-name="yacute.sc" horiz-adv-x="508" 
d="M296 0h-93v218l-199 312h107q100 -155 141 -228q30 52 150 228h102l-208 -312v-218zM266 588h-78l114 170h108z" />
    <glyph glyph-name="thorn.sc" horiz-adv-x="490" 
d="M170 0h-94v530h94v-91h40q77 0 117 -8q125 -27 125 -157q0 -111 -91 -151q-47 -21 -145 -21h-46v-102zM170 185h45q62 0 94 11q50 19 50 75q0 65 -76 78q-19 4 -76 4h-37v-168z" />
    <glyph glyph-name="zcaron.sc" horiz-adv-x="497" 
d="M471 0h-466q254 376 305 448q-28 -1 -267 -1v83h430q-85 -124 -309 -447q38 1 307 1v-84zM322 755h76l-122 -166h-59l-122 166h77l76 -90z" />
    <glyph glyph-name="ampersand.sc" horiz-adv-x="599" 
d="M465 0q-10 9 -26.5 24.5t-25.5 24.5q-74 -59 -184 -59q-84 0 -135 42.5t-51 113.5q0 59 30.5 94.5t98.5 65.5q-38 52 -38 108q0 55 38 91.5t108 36.5q62 0 102.5 -29t40.5 -83q0 -52 -29.5 -86.5t-90.5 -63.5q54 -59 113 -116q29 26 73 94l72 -45q-48 -73 -85 -109
q53 -56 105 -104h-116zM253 337q44 24 63.5 40.5t19.5 38.5q0 49 -56 49q-60 0 -60 -57q0 -31 33 -71zM221 247q-46 -20 -65 -42.5t-19 -58.5q0 -25 25 -50t75 -25q67 0 115 37q-64 61 -131 139z" />
    <glyph glyph-name="ae.sc" horiz-adv-x="799" 
d="M111 0h-111l382 530h375v-87h-232v-126h215v-87h-215v-143h244v-87h-338v146h-215zM269 231h162v225q-63 -90 -162 -225z" />
    <glyph glyph-name="oe.sc" horiz-adv-x="775" 
d="M745 0h-332q-58 -7 -110 -7q-120 0 -191 70t-71 201q0 137 76.5 205.5t195.5 68.5q52 0 98 -8h321v-87h-232v-126h215v-87h-215v-143h245v-87zM406 84v365q-39 9 -84 9q-84 0 -134.5 -48.5t-50.5 -143.5q0 -99 50.5 -144t130.5 -45q37 0 88 7z" />
    <glyph glyph-name="ydieresis.sc" horiz-adv-x="508" 
d="M296 0h-93v218l-199 312h107q100 -155 141 -228q30 52 150 228h102l-208 -312v-218zM222 669q0 -23 -15 -38.5t-37 -15.5q-23 0 -37 15t-14 38t14.5 38.5t37.5 15.5t37 -15t14 -38zM386 669q0 -23 -15 -38.5t-37 -15.5q-23 0 -37 15t-14 38t14.5 38.5t37.5 15.5t37 -15
t14 -38z" />
    <glyph glyph-name="f_i.sc" horiz-adv-x="674" 
d="M171 0h-94v530h317v-87h-223v-146h207v-87h-207v-210zM597 0h-94v530h94v-530z" />
    <glyph glyph-name="f_l.sc" horiz-adv-x="861" 
d="M171 0h-94v530h317v-87h-223v-146h207v-87h-207v-210zM833 0h-330v530h94v-443h236v-87z" />
    <glyph glyph-name="germandbls.sc" horiz-adv-x="888" 
d="M43 37v96q77 -62 179 -62q95 0 95 67q0 25 -18.5 43t-67.5 37l-69 26q-119 45 -119 151q0 68 49.5 107.5t135.5 39.5q87 0 153 -41v-95q-76 52 -162 52q-80 0 -80 -61q0 -26 17.5 -41.5t61.5 -33.5l66 -25q72 -28 99.5 -63.5t27.5 -91.5q0 -71 -52 -112.5t-140 -41.5
q-102 0 -176 49zM487 37v96q77 -62 179 -62q95 0 95 67q0 25 -18.5 43t-67.5 37l-69 26q-119 45 -119 151q0 68 49.5 107.5t135.5 39.5q87 0 153 -41v-95q-76 52 -162 52q-80 0 -80 -61q0 -26 17.5 -41.5t61.5 -33.5l66 -25q72 -28 99.5 -63.5t27.5 -91.5q0 -71 -52 -112.5
t-140 -41.5q-102 0 -176 49z" />
    <glyph glyph-name="oslash.sc" horiz-adv-x="613" 
d="M125 -45l-46 32l46 66q-84 78 -84 211q0 122 76.5 200t193.5 78q75 0 133 -32l52 75l45 -32l-52 -75q83 -77 83 -210q0 -126 -73.5 -203t-192.5 -77q-75 0 -135 33zM478 263q0 85 -43 138l-213 -307q36 -21 85 -21q77 0 124 50t47 140zM137 265q0 -82 42 -134l214 306
q-36 21 -83 21q-76 0 -124.5 -51t-48.5 -142z" />
    <glyph glyph-name="kgreenlandic.sc" horiz-adv-x="564" 
d="M560 567h75q-77 -102 -77 -234h-82q0 142 84 234zM171 0h-94v530h94v-231q21 28 195 231h114l-223 -250l247 -280h-123q-50 59 -89 105t-60 71t-34 40.5t-19 23t-8 9.5v-249z" />
    <glyph glyph-name="amacron.sc" horiz-adv-x="523" 
d="M105 0h-101l210 533h94l211 -533h-99l-56 141h-204zM190 226h144q-55 147 -72 198q-17 -48 -72 -198zM390 615h-256v69h256v-69z" />
    <glyph glyph-name="abreve.sc" horiz-adv-x="523" 
d="M105 0h-101l210 533h94l211 -533h-99l-56 141h-204zM190 226h144q-55 147 -72 198q-17 -48 -72 -198zM127 727h58q3 -45 24.5 -66t52.5 -21q76 0 82 87h57q-2 -66 -37.5 -109t-102.5 -43q-64 0 -98.5 42t-35.5 110z" />
    <glyph glyph-name="aogonek.sc" horiz-adv-x="523" 
d="M105 0h-101l210 533h94l211 -533h-26q-94 -66 -94 -131q0 -30 16 -47t47 -17t62 17v-51q-31 -22 -74 -22q-118 0 -118 110q0 86 98 141h-10l-56 141h-204zM190 226h144q-55 147 -72 198q-17 -48 -72 -198z" />
    <glyph glyph-name="cacute.sc" horiz-adv-x="518" 
d="M481 35q-71 -47 -175 -47q-116 0 -190.5 75.5t-74.5 199.5t76 201.5t194 77.5q112 0 170 -44v-95q-56 53 -157 53q-85 0 -136 -52t-51 -141q0 -90 53 -140t138 -50q81 0 153 49v-87zM307 588h-78l114 170h108z" />
    <glyph glyph-name="ccircumflex.sc" horiz-adv-x="518" 
d="M481 35q-71 -47 -175 -47q-116 0 -190.5 75.5t-74.5 199.5t76 201.5t194 77.5q112 0 170 -44v-95q-56 53 -157 53q-85 0 -136 -52t-51 -141q0 -90 53 -140t138 -50q81 0 153 49v-87zM228 585h-76l122 166h59l122 -166h-77l-76 90z" />
    <glyph glyph-name="cdotaccent.sc" horiz-adv-x="518" 
d="M481 35q-71 -47 -175 -47q-116 0 -190.5 75.5t-74.5 199.5t76 201.5t194 77.5q112 0 170 -44v-95q-56 53 -157 53q-85 0 -136 -52t-51 -141q0 -90 53 -140t138 -50q81 0 153 49v-87zM364 669q0 -23 -15 -38.5t-37 -15.5q-23 0 -37 15t-14 38t14.5 38.5t37.5 15.5t37 -15
t14 -38z" />
    <glyph glyph-name="ccaron.sc" horiz-adv-x="518" 
d="M481 35q-71 -47 -175 -47q-116 0 -190.5 75.5t-74.5 199.5t76 201.5t194 77.5q112 0 170 -44v-95q-56 53 -157 53q-85 0 -136 -52t-51 -141q0 -90 53 -140t138 -50q81 0 153 49v-87zM382 755h76l-122 -166h-59l-122 166h77l76 -90z" />
    <glyph glyph-name="dcaron.sc" horiz-adv-x="579" 
d="M77 0v530h141q126 0 184 -23q137 -56 137 -236q0 -192 -155 -248q-65 -23 -183 -23h-124zM171 86h53q88 0 125 17q95 44 95 165q0 116 -86 158q-35 18 -122 18h-65v-358zM332 755h76l-122 -166h-59l-122 166h77l76 -90z" />
    <glyph glyph-name="dcroat.sc" horiz-adv-x="579" 
d="M77 0v243h-63v62h63v225h141q126 0 184 -23q137 -56 137 -236q0 -192 -155 -248q-65 -23 -183 -23h-124zM171 86h53q88 0 125 17q95 44 95 165q0 116 -86 158q-35 18 -122 18h-65v-139h132v-62h-132v-157z" />
    <glyph glyph-name="emacron.sc" horiz-adv-x="445" 
d="M416 0h-339v530h326v-87h-232v-126h215v-87h-215v-143h245v-87zM368 615h-256v69h256v-69z" />
    <glyph glyph-name="ebreve.sc" horiz-adv-x="445" 
d="M416 0h-339v530h326v-87h-232v-126h215v-87h-215v-143h245v-87zM105 727h58q3 -45 24.5 -66t52.5 -21q76 0 82 87h57q-2 -66 -37.5 -109t-102.5 -43q-64 0 -98.5 42t-35.5 110z" />
    <glyph glyph-name="edotaccent.sc" horiz-adv-x="445" 
d="M416 0h-339v530h326v-87h-232v-126h215v-87h-215v-143h245v-87zM296 669q0 -23 -15 -38.5t-37 -15.5q-23 0 -37 15t-14 38t14.5 38.5t37.5 15.5t37 -15t14 -38z" />
    <glyph glyph-name="eogonek.sc" horiz-adv-x="445" 
d="M416 0h-33q-95 -67 -95 -131q0 -30 16 -47t47 -17t62 17v-51q-31 -22 -74 -22q-118 0 -118 110q0 83 95 141h-239v530h326v-87h-232v-126h215v-87h-215v-143h245v-87z" />
    <glyph glyph-name="ecaron.sc" horiz-adv-x="445" 
d="M416 0h-339v530h326v-87h-232v-126h215v-87h-215v-143h245v-87zM310 755h76l-122 -166h-59l-122 166h77l76 -90z" />
    <glyph glyph-name="gcircumflex.sc" horiz-adv-x="569" 
d="M516 34q-90 -46 -207 -46q-121 0 -194.5 76.5t-73.5 198.5q0 125 75.5 202t195.5 77q112 0 183 -44v-96q-73 54 -172 54q-89 0 -137.5 -52t-48.5 -143q0 -88 50.5 -139.5t131.5 -51.5q61 0 105 20v106h-103v86h195v-248zM228 585h-76l122 166h59l122 -166h-77l-76 90z
" />
    <glyph glyph-name="gbreve.sc" horiz-adv-x="569" 
d="M516 34q-90 -46 -207 -46q-121 0 -194.5 76.5t-73.5 198.5q0 125 75.5 202t195.5 77q112 0 183 -44v-96q-73 54 -172 54q-89 0 -137.5 -52t-48.5 -143q0 -88 50.5 -139.5t131.5 -51.5q61 0 105 20v106h-103v86h195v-248zM173 727h58q3 -45 24.5 -66t52.5 -21q76 0 82 87
h57q-2 -66 -37.5 -109t-102.5 -43q-64 0 -98.5 42t-35.5 110z" />
    <glyph glyph-name="gdotaccent.sc" horiz-adv-x="569" 
d="M516 34q-90 -46 -207 -46q-121 0 -194.5 76.5t-73.5 198.5q0 125 75.5 202t195.5 77q112 0 183 -44v-96q-73 54 -172 54q-89 0 -137.5 -52t-48.5 -143q0 -88 50.5 -139.5t131.5 -51.5q61 0 105 20v106h-103v86h195v-248zM365 669q0 -23 -15 -38.5t-37 -15.5q-23 0 -37 15
t-14 38t14.5 38.5t37.5 15.5t37 -15t14 -38z" />
    <glyph glyph-name="gcommaaccent.sc" horiz-adv-x="569" 
d="M516 34q-90 -46 -207 -46q-121 0 -194.5 76.5t-73.5 198.5q0 125 75.5 202t195.5 77q112 0 183 -44v-96q-73 54 -172 54q-89 0 -137.5 -52t-48.5 -143q0 -88 50.5 -139.5t131.5 -51.5q61 0 105 20v106h-103v86h195v-248zM269 -294h-67q68 99 68 229h80q0 -140 -81 -229z
" />
    <glyph glyph-name="hbar.sc" horiz-adv-x="587" 
d="M512 0h-94v230h-247v-230h-94v364h-63v62h63v104h94v-104h247v104h94v-104h62v-62h-62v-364zM171 317h247v47h-247v-47z" />
    <glyph glyph-name="hcircumflex.sc" horiz-adv-x="587" 
d="M512 0h-94v230h-247v-230h-94v530h94v-213h247v213h94v-530zM219 585h-76l122 166h59l122 -166h-77l-76 90z" />
    <glyph glyph-name="itilde.sc" horiz-adv-x="246" 
d="M171 0h-94v530h94v-530zM25 605h-58q5 61 31.5 95.5t61.5 34.5q26 0 72 -31q35 -25 52 -25q31 0 38 56h55q-3 -62 -28 -95.5t-59 -33.5q-32 0 -77 31q-35 24 -50 24q-28 0 -38 -56z" />
    <glyph glyph-name="imacron.sc" horiz-adv-x="246" 
d="M171 0h-94v530h94v-530zM251 615h-256v69h256v-69z" />
    <glyph glyph-name="ibreve.sc" horiz-adv-x="246" 
d="M171 0h-94v530h94v-530zM-14 727h58q3 -45 24.5 -66t52.5 -21q76 0 82 87h57q-2 -66 -37.5 -109t-102.5 -43q-64 0 -98.5 42t-35.5 110z" />
    <glyph glyph-name="iogonek.sc" horiz-adv-x="246" 
d="M171 0h-15q-95 -67 -95 -131q0 -30 16 -47t47 -17t62 17v-51q-31 -22 -74 -22q-118 0 -118 110q0 83 95 141h-12v530h94v-530z" />
    <glyph glyph-name="idotaccent.sc" horiz-adv-x="246" 
d="M171 0h-94v530h94v-530zM174 669q0 -23 -15 -38.5t-37 -15.5q-23 0 -37 15t-14 38t14.5 38.5t37.5 15.5t37 -15t14 -38z" />
    <glyph glyph-name="ij.sc" horiz-adv-x="474" 
d="M171 0h-94v530h94v-530zM250 -145l-34 73q64 31 79 51q19 24 19 74v477h94v-475q0 -87 -39 -126q-40 -40 -119 -74z" />
    <glyph glyph-name="jcircumflex.sc" horiz-adv-x="246" 
d="M13 -145l-34 73q64 31 79 51q19 24 19 74v477h94v-475q0 -87 -39 -126q-40 -40 -119 -74zM49 585h-76l122 166h59l122 -166h-77l-76 90z" />
    <glyph glyph-name="kcommaaccent.sc" horiz-adv-x="505" 
d="M171 0h-94v530h94v-231q21 28 195 231h114l-223 -250l247 -280h-123q-50 59 -89 105t-60 71t-34 40.5t-19 23t-8 9.5v-249zM225 -294h-67q68 99 68 229h80q0 -140 -81 -229z" />
    <glyph glyph-name="lacute.sc" horiz-adv-x="435" 
d="M407 0h-330v530h94v-443h236v-87zM147 588h-78l114 170h108z" />
    <glyph glyph-name="lcommaaccent.sc" horiz-adv-x="435" 
d="M407 0h-330v530h94v-443h236v-87zM197 -294h-67q68 99 68 229h80q0 -140 -81 -229z" />
    <glyph glyph-name="lcaron.sc" horiz-adv-x="435" 
d="M407 0h-330v530h94v-443h236v-87zM298 357h-67q68 99 68 229h80q0 -140 -81 -229z" />
    <glyph glyph-name="ldot.sc" horiz-adv-x="435" 
d="M398 277q0 -28 -19 -47.5t-48 -19.5q-28 0 -45.5 19t-17.5 46q0 29 19 47.5t47 18.5q27 0 45.5 -18t18.5 -46zM407 0h-330v530h94v-443h236v-87z" />
    <glyph glyph-name="nacute.sc" horiz-adv-x="603" 
d="M170 0h-93v530h88q244 -329 272 -372q-2 124 -2 372h93v-530h-83q-242 334 -276 386q1 -50 1 -386zM319 588h-78l114 170h108z" />
    <glyph glyph-name="ncommaaccent.sc" horiz-adv-x="603" 
d="M170 0h-93v530h88q244 -329 272 -372q-2 124 -2 372h93v-530h-83q-242 334 -276 386q1 -50 1 -386zM265 -294h-67q68 99 68 229h80q0 -140 -81 -229z" />
    <glyph glyph-name="ncaron.sc" horiz-adv-x="603" 
d="M170 0h-93v530h88q244 -329 272 -372q-2 124 -2 372h93v-530h-83q-242 334 -276 386q1 -50 1 -386zM377 755h76l-122 -166h-59l-122 166h77l76 -90z" />
    <glyph glyph-name="eng.sc" horiz-adv-x="603" 
d="M169 0h-93v530h89q217 -293 272 -375q-3 95 -3 375h93v-537q0 -100 -35 -142q-43 -51 -124 -89l-36 76q57 28 74 47q28 31 28 88v44q-262 363 -266 369q1 -47 1 -386z" />
    <glyph glyph-name="omacron.sc" horiz-adv-x="613" 
d="M572 268q0 -126 -73.5 -203t-192.5 -77q-118 0 -191.5 76.5t-73.5 199.5q0 122 76.5 200t193.5 78q120 0 190.5 -76.5t70.5 -197.5zM478 263q0 91 -46 143t-122 52t-124.5 -51t-48.5 -142q0 -89 47.5 -140.5t122.5 -51.5q77 0 124 50t47 140zM437 615h-256v69h256v-69z
" />
    <glyph glyph-name="obreve.sc" horiz-adv-x="613" 
d="M572 268q0 -126 -73.5 -203t-192.5 -77q-118 0 -191.5 76.5t-73.5 199.5q0 122 76.5 200t193.5 78q120 0 190.5 -76.5t70.5 -197.5zM478 263q0 91 -46 143t-122 52t-124.5 -51t-48.5 -142q0 -89 47.5 -140.5t122.5 -51.5q77 0 124 50t47 140zM173 737h58q3 -45 24.5 -66
t52.5 -21q76 0 82 87h57q-2 -66 -37.5 -109t-102.5 -43q-64 0 -98.5 42t-35.5 110z" />
    <glyph glyph-name="ohungarumlaut.sc" horiz-adv-x="613" 
d="M572 268q0 -126 -73.5 -203t-192.5 -77q-118 0 -191.5 76.5t-73.5 199.5q0 122 76.5 200t193.5 78q120 0 190.5 -76.5t70.5 -197.5zM478 263q0 91 -46 143t-122 52t-124.5 -51t-48.5 -142q0 -89 47.5 -140.5t122.5 -51.5q77 0 124 50t47 140zM248 589h-75l114 169h97z
M401 589h-75l114 169h96z" />
    <glyph glyph-name="racute.sc" horiz-adv-x="505" 
d="M171 0h-94v530h129q88 0 125 -8q117 -23 117 -137q0 -109 -109 -144q10 -4 18 -9.5t17.5 -16t16.5 -20t20 -31.5t23 -39.5t31 -55.5t39 -69h-104q-68 119 -86 147t-37 41q-20 13 -52 13h-54v-201zM171 283h64q38 0 61 8q30 10 44.5 28t14.5 50q0 65 -79 74q-29 4 -72 4
h-33v-164zM259 588h-78l114 170h108z" />
    <glyph glyph-name="rcommaaccent.sc" horiz-adv-x="505" 
d="M171 0h-94v530h129q88 0 125 -8q117 -23 117 -137q0 -109 -109 -144q10 -4 18 -9.5t17.5 -16t16.5 -20t20 -31.5t23 -39.5t31 -55.5t39 -69h-104q-68 119 -86 147t-37 41q-20 13 -52 13h-54v-201zM171 283h64q38 0 61 8q30 10 44.5 28t14.5 50q0 65 -79 74q-29 4 -72 4
h-33v-164zM220 -294h-67q68 99 68 229h80q0 -140 -81 -229z" />
    <glyph glyph-name="rcaron.sc" horiz-adv-x="505" 
d="M171 0h-94v530h129q88 0 125 -8q117 -23 117 -137q0 -109 -109 -144q10 -4 18 -9.5t17.5 -16t16.5 -20t20 -31.5t23 -39.5t31 -55.5t39 -69h-104q-68 119 -86 147t-37 41q-20 13 -52 13h-54v-201zM171 283h64q38 0 61 8q30 10 44.5 28t14.5 50q0 65 -79 74q-29 4 -72 4
h-33v-164zM309 755h76l-122 -166h-59l-122 166h77l76 -90z" />
    <glyph glyph-name="sacute.sc" horiz-adv-x="444" 
d="M43 37v96q77 -62 179 -62q95 0 95 67q0 25 -18.5 43t-67.5 37l-69 26q-119 45 -119 151q0 68 49.5 107.5t135.5 39.5q87 0 153 -41v-95q-76 52 -162 52q-80 0 -80 -61q0 -26 17.5 -41.5t61.5 -33.5l66 -25q72 -28 99.5 -63.5t27.5 -91.5q0 -71 -52 -112.5t-140 -41.5
q-102 0 -176 49zM239 588h-78l114 170h108z" />
    <glyph glyph-name="scircumflex.sc" horiz-adv-x="444" 
d="M43 37v96q77 -62 179 -62q95 0 95 67q0 25 -18.5 43t-67.5 37l-69 26q-119 45 -119 151q0 68 49.5 107.5t135.5 39.5q87 0 153 -41v-95q-76 52 -162 52q-80 0 -80 -61q0 -26 17.5 -41.5t61.5 -33.5l66 -25q72 -28 99.5 -63.5t27.5 -91.5q0 -71 -52 -112.5t-140 -41.5
q-102 0 -176 49zM149 585h-76l122 166h59l122 -166h-77l-76 90z" />
    <glyph glyph-name="scedilla.sc" horiz-adv-x="444" 
d="M127 -240v55q28 -18 71 -18q29 0 42 13.5t13 33.5t-16 32t-46 12q-23 0 -40 -6l29 108q-79 9 -137 47v96q77 -62 179 -62q95 0 95 67q0 25 -18.5 43t-67.5 37l-69 26q-119 45 -119 151q0 68 49.5 107.5t135.5 39.5q87 0 153 -41v-95q-76 52 -162 52q-80 0 -80 -61
q0 -26 17.5 -41.5t61.5 -33.5l66 -25q72 -28 99.5 -63.5t27.5 -91.5q0 -68 -48 -109t-131 -44l-14 -52q1 0 6 0.5t7 0.5q42 0 66 -25t24 -68q0 -50 -33 -76.5t-89 -26.5q-46 0 -72 18z" />
    <glyph glyph-name="uni0163.sc" horiz-adv-x="459" 
d="M143 -240v55q28 -18 71 -18q29 0 42 13.5t13 33.5t-16 32t-46 12q-23 0 -40 -6l32 118h-18v443h-157v87h411v-87h-160v-443h-23l-18 -63q1 0 6 0.5t7 0.5q42 0 66 -25t24 -68q0 -50 -33 -76.5t-89 -26.5q-46 0 -72 18z" />
    <glyph glyph-name="tcaron.sc" horiz-adv-x="459" 
d="M275 0h-94v443h-157v87h411v-87h-160v-443zM303 755h76l-122 -166h-59l-122 166h77l76 -90z" />
    <glyph glyph-name="tbar.sc" horiz-adv-x="459" 
d="M275 0h-94v237h-110v62h110v144h-157v87h411v-87h-160v-144h113v-62h-113v-237z" />
    <glyph glyph-name="utilde.sc" horiz-adv-x="590" 
d="M71 530h95v-304q0 -59 11 -88q22 -65 117 -65q104 0 125 74q9 31 9 83v300h91v-305q0 -76 -19 -123q-22 -53 -76.5 -83t-133.5 -30q-154 0 -199 109q-20 49 -20 122v310zM201 605h-58q5 61 31.5 95.5t61.5 34.5q26 0 72 -31q35 -25 52 -25q31 0 38 56h55
q-3 -62 -28 -95.5t-59 -33.5q-32 0 -77 31q-35 24 -50 24q-28 0 -38 -56z" />
    <glyph glyph-name="umacron.sc" horiz-adv-x="590" 
d="M71 530h95v-304q0 -59 11 -88q22 -65 117 -65q104 0 125 74q9 31 9 83v300h91v-305q0 -76 -19 -123q-22 -53 -76.5 -83t-133.5 -30q-154 0 -199 109q-20 49 -20 122v310zM425 615h-256v69h256v-69z" />
    <glyph glyph-name="ubreve.sc" horiz-adv-x="590" 
d="M71 530h95v-304q0 -59 11 -88q22 -65 117 -65q104 0 125 74q9 31 9 83v300h91v-305q0 -76 -19 -123q-22 -53 -76.5 -83t-133.5 -30q-154 0 -199 109q-20 49 -20 122v310zM159 727h58q3 -45 24.5 -66t52.5 -21q76 0 82 87h57q-2 -66 -37.5 -109t-102.5 -43q-64 0 -98.5 42
t-35.5 110z" />
    <glyph glyph-name="uring.sc" horiz-adv-x="590" 
d="M71 530h95v-304q0 -59 11 -88q22 -65 117 -65q104 0 125 74q9 31 9 83v300h91v-305q0 -76 -19 -123q-22 -53 -76.5 -83t-133.5 -30q-154 0 -199 109q-20 49 -20 122v310zM391 680q0 -40 -27.5 -67.5t-68.5 -27.5q-40 0 -66.5 27t-26.5 68q0 43 27 69.5t69 26.5
q41 0 67 -26.5t26 -69.5zM351 681q0 27 -15.5 43.5t-40.5 16.5q-23 0 -38.5 -17.5t-15.5 -43.5q0 -25 15 -42.5t42 -17.5q23 0 38 18t15 43z" />
    <glyph glyph-name="uhungarumlaut.sc" horiz-adv-x="590" 
d="M71 530h95v-304q0 -59 11 -88q22 -65 117 -65q104 0 125 74q9 31 9 83v300h91v-305q0 -76 -19 -123q-22 -53 -76.5 -83t-133.5 -30q-154 0 -199 109q-20 49 -20 122v310zM236 589h-75l114 169h97zM389 589h-75l114 169h96z" />
    <glyph glyph-name="uogonek.sc" horiz-adv-x="590" 
d="M71 530h95v-304q0 -59 11 -88q22 -65 117 -65q104 0 125 74q9 31 9 83v300h91v-305q0 -76 -19 -123q-39 -92 -161 -109q-85 -63 -85 -124q0 -30 16 -47t47 -17t62 17v-51q-31 -22 -74 -22q-118 0 -118 110q0 76 79 131q-135 8 -175 108q-20 49 -20 122v310z" />
    <glyph glyph-name="wacute.sc" horiz-adv-x="771" 
d="M258 -3h-89l-161 533h101q93 -309 114 -400q21 76 128 400h70q115 -338 129 -400q20 93 113 400h100l-162 -533h-88q-114 342 -129 392q-11 -45 -126 -392zM391 588h-78l114 170h108z" />
    <glyph glyph-name="wcircumflex.sc" horiz-adv-x="771" 
d="M258 -3h-89l-161 533h101q93 -309 114 -400q21 76 128 400h70q115 -338 129 -400q20 93 113 400h100l-162 -533h-88q-114 342 -129 392q-11 -45 -126 -392zM310 585h-76l122 166h59l122 -166h-77l-76 90z" />
    <glyph glyph-name="wdieresis.sc" horiz-adv-x="771" 
d="M258 -3h-89l-161 533h101q93 -309 114 -400q21 76 128 400h70q115 -338 129 -400q20 93 113 400h100l-162 -533h-88q-114 342 -129 392q-11 -45 -126 -392zM356 669q0 -23 -15 -38.5t-37 -15.5q-23 0 -37 15t-14 38t14.5 38.5t37.5 15.5t37 -15t14 -38zM520 669
q0 -23 -15 -38.5t-37 -15.5q-23 0 -37 15t-14 38t14.5 38.5t37.5 15.5t37 -15t14 -38z" />
    <glyph glyph-name="wgrave.sc" horiz-adv-x="771" 
d="M258 -3h-89l-161 533h101q93 -309 114 -400q21 76 128 400h70q115 -338 129 -400q20 93 113 400h100l-162 -533h-88q-114 342 -129 392q-11 -45 -126 -392zM451 588h-78l-144 170h108z" />
    <glyph glyph-name="ycircumflex.sc" horiz-adv-x="508" 
d="M296 0h-93v218l-199 312h107q100 -155 141 -228q30 52 150 228h102l-208 -312v-218zM177 585h-76l122 166h59l122 -166h-77l-76 90z" />
    <glyph glyph-name="ygrave.sc" horiz-adv-x="508" 
d="M296 0h-93v218l-199 312h107q100 -155 141 -228q30 52 150 228h102l-208 -312v-218zM317 588h-78l-144 170h108z" />
    <glyph glyph-name="zacute.sc" horiz-adv-x="497" 
d="M471 0h-466q254 376 305 448q-28 -1 -267 -1v83h430q-85 -124 -309 -447q38 1 307 1v-84zM269 588h-78l114 170h108z" />
    <glyph glyph-name="zdotaccent.sc" horiz-adv-x="497" 
d="M471 0h-466q254 376 305 448q-28 -1 -267 -1v83h430q-85 -124 -309 -447q38 1 307 1v-84zM305 669q0 -23 -15 -38.5t-37 -15.5q-23 0 -37 15t-14 38t14.5 38.5t37.5 15.5t37 -15t14 -38z" />
    <glyph glyph-name="aringacute.sc" horiz-adv-x="523" 
d="M355 660q0 -40 -27 -67t-69 -27q-40 0 -66 26.5t-26 67.5q0 43 26.5 69t68.5 26t67.5 -26t25.5 -69zM319 661q0 28 -16.5 45.5t-43.5 17.5q-25 0 -41.5 -18t-16.5 -46q0 -27 16 -45t45 -18q26 0 41.5 18.5t15.5 45.5zM271 791h-63l106 152h92zM105 0h-101l210 533h94
l211 -533h-99l-56 141h-204zM190 226h144q-55 147 -72 198q-17 -48 -72 -198z" />
    <glyph glyph-name="aeacute.sc" horiz-adv-x="799" 
d="M111 0h-111l382 530h375v-87h-232v-126h215v-87h-215v-143h244v-87h-338v146h-215zM269 231h162v225q-63 -90 -162 -225zM545 588h-78l114 170h108z" />
    <glyph glyph-name="oslashacute.sc" horiz-adv-x="613" 
d="M125 -45l-46 32l46 66q-84 78 -84 211q0 122 76.5 200t193.5 78q75 0 133 -32l52 75l45 -32l-52 -75q83 -77 83 -210q0 -126 -73.5 -203t-192.5 -77q-75 0 -135 33zM478 263q0 85 -43 138l-213 -307q36 -21 85 -21q77 0 124 50t47 140zM137 265q0 -82 42 -134l214 306
q-36 21 -83 21q-76 0 -124.5 -51t-48.5 -142zM325 588h-78l114 170h108z" />
    <glyph glyph-name="uni0219.sc" horiz-adv-x="444" 
d="M43 37v96q77 -62 179 -62q95 0 95 67q0 25 -18.5 43t-67.5 37l-69 26q-119 45 -119 151q0 68 49.5 107.5t135.5 39.5q87 0 153 -41v-95q-76 52 -162 52q-80 0 -80 -61q0 -26 17.5 -41.5t61.5 -33.5l66 -25q72 -28 99.5 -63.5t27.5 -91.5q0 -71 -52 -112.5t-140 -41.5
q-102 0 -176 49zM183 -294h-67q68 99 68 229h80q0 -140 -81 -229z" />
    <glyph glyph-name="uni021B.sc" horiz-adv-x="459" 
d="M275 0h-94v443h-157v87h411v-87h-160v-443zM190 -294h-67q68 99 68 229h80q0 -140 -81 -229z" />
    <glyph glyph-name="aacute.sc" horiz-adv-x="523" 
d="M105 0h-101l210 533h94l211 -533h-99l-56 141h-204zM190 226h144q-55 147 -72 198q-17 -48 -72 -198zM276 588h-78l114 170h108z" />
    <glyph glyph-name="agrave.sc" horiz-adv-x="523" 
d="M105 0h-101l210 533h94l211 -533h-99l-56 141h-204zM190 226h144q-55 147 -72 198q-17 -48 -72 -198zM321 588h-78l-144 170h108z" />
    <glyph glyph-name="acircumflex.sc" horiz-adv-x="523" 
d="M105 0h-101l210 533h94l211 -533h-99l-56 141h-204zM190 226h144q-55 147 -72 198q-17 -48 -72 -198zM187 585h-76l122 166h59l122 -166h-77l-76 90z" />
    <glyph glyph-name="adieresis.sc" horiz-adv-x="523" 
d="M105 0h-101l210 533h94l211 -533h-99l-56 141h-204zM190 226h144q-55 147 -72 198q-17 -48 -72 -198zM231 669q0 -23 -15 -38.5t-37 -15.5q-23 0 -37 15t-14 38t14.5 38.5t37.5 15.5t37 -15t14 -38zM395 669q0 -23 -15 -38.5t-37 -15.5q-23 0 -37 15t-14 38t14.5 38.5
t37.5 15.5t37 -15t14 -38z" />
    <glyph glyph-name="atilde.sc" horiz-adv-x="523" 
d="M105 0h-101l210 533h94l211 -533h-99l-56 141h-204zM190 226h144q-55 147 -72 198q-17 -48 -72 -198zM165 605h-58q5 61 31.5 95.5t61.5 34.5q26 0 72 -31q35 -25 52 -25q31 0 38 56h55q-3 -62 -28 -95.5t-59 -33.5q-32 0 -77 31q-35 24 -50 24q-28 0 -38 -56z" />
    <glyph glyph-name="aring.sc" horiz-adv-x="523" 
d="M105 0h-101l210 533h94l211 -533h-99l-56 141h-204zM190 226h144q-55 147 -72 198q-17 -48 -72 -198zM356 680q0 -40 -27.5 -67.5t-68.5 -27.5q-40 0 -66.5 27t-26.5 68q0 43 27 69.5t69 26.5q41 0 67 -26.5t26 -69.5zM316 681q0 27 -15.5 43.5t-40.5 16.5
q-23 0 -38.5 -17.5t-15.5 -43.5q0 -25 15 -42.5t42 -17.5q23 0 38 18t15 43z" />
    <glyph glyph-name="ccedilla.sc" horiz-adv-x="518" 
d="M190 -240v55q28 -18 71 -18q29 0 42 13.5t13 33.5t-16 32t-46 12q-23 0 -40 -6l30 112q-92 19 -147.5 90.5t-55.5 178.5q0 124 76 201.5t194 77.5q112 0 170 -44v-95q-56 53 -157 53q-85 0 -136 -52t-51 -141q0 -90 53 -140t138 -50q81 0 153 49v-87q-71 -47 -175 -47
h-11l-14 -51q1 0 6 0.5t7 0.5q42 0 66 -25t24 -68q0 -50 -33 -76.5t-89 -26.5q-46 0 -72 18z" />
    <glyph glyph-name="eacute.sc" horiz-adv-x="445" 
d="M416 0h-339v530h326v-87h-232v-126h215v-87h-215v-143h245v-87zM257 588h-78l114 170h108z" />
    <glyph glyph-name="egrave.sc" horiz-adv-x="445" 
d="M416 0h-339v530h326v-87h-232v-126h215v-87h-215v-143h245v-87zM303 588h-78l-144 170h108z" />
    <glyph glyph-name="ecircumflex.sc" horiz-adv-x="445" 
d="M416 0h-339v530h326v-87h-232v-126h215v-87h-215v-143h245v-87zM159 585h-76l122 166h59l122 -166h-77l-76 90z" />
    <glyph glyph-name="edieresis.sc" horiz-adv-x="445" 
d="M416 0h-339v530h326v-87h-232v-126h215v-87h-215v-143h245v-87zM211 669q0 -23 -15 -38.5t-37 -15.5q-23 0 -37 15t-14 38t14.5 38.5t37.5 15.5t37 -15t14 -38zM375 669q0 -23 -15 -38.5t-37 -15.5q-23 0 -37 15t-14 38t14.5 38.5t37.5 15.5t37 -15t14 -38z" />
    <glyph glyph-name="iacute.sc" horiz-adv-x="246" 
d="M171 0h-94v530h94v-530zM138 588h-78l114 170h108z" />
    <glyph glyph-name="igrave.sc" horiz-adv-x="246" 
d="M171 0h-94v530h94v-530zM191 588h-78l-144 170h108z" />
    <glyph glyph-name="icircumflex.sc" horiz-adv-x="246" 
d="M171 0h-94v530h94v-530zM47 585h-76l122 166h59l122 -166h-77l-76 90z" />
    <glyph glyph-name="idieresis.sc" horiz-adv-x="246" 
d="M171 0h-94v530h94v-530zM92 669q0 -23 -15 -38.5t-37 -15.5q-23 0 -37 15t-14 38t14.5 38.5t37.5 15.5t37 -15t14 -38zM256 669q0 -23 -15 -38.5t-37 -15.5q-23 0 -37 15t-14 38t14.5 38.5t37.5 15.5t37 -15t14 -38z" />
    <glyph glyph-name="ntilde.sc" horiz-adv-x="603" 
d="M170 0h-93v530h88q244 -329 272 -372q-2 124 -2 372h93v-530h-83q-242 334 -276 386q1 -50 1 -386zM203 605h-58q5 61 31.5 95.5t61.5 34.5q26 0 72 -31q35 -25 52 -25q31 0 38 56h55q-3 -62 -28 -95.5t-59 -33.5q-32 0 -77 31q-35 24 -50 24q-28 0 -38 -56z" />
    <glyph glyph-name="oacute.sc" horiz-adv-x="613" 
d="M572 268q0 -126 -73.5 -203t-192.5 -77q-118 0 -191.5 76.5t-73.5 199.5q0 122 76.5 200t193.5 78q120 0 190.5 -76.5t70.5 -197.5zM478 263q0 91 -46 143t-122 52t-124.5 -51t-48.5 -142q0 -89 47.5 -140.5t122.5 -51.5q77 0 124 50t47 140zM306 588h-78l114 170h108z
" />
    <glyph glyph-name="ograve.sc" horiz-adv-x="613" 
d="M572 268q0 -126 -73.5 -203t-192.5 -77q-118 0 -191.5 76.5t-73.5 199.5q0 122 76.5 200t193.5 78q120 0 190.5 -76.5t70.5 -197.5zM478 263q0 91 -46 143t-122 52t-124.5 -51t-48.5 -142q0 -89 47.5 -140.5t122.5 -51.5q77 0 124 50t47 140zM382 588h-78l-144 170h108z
" />
    <glyph glyph-name="ocircumflex.sc" horiz-adv-x="613" 
d="M572 268q0 -126 -73.5 -203t-192.5 -77q-118 0 -191.5 76.5t-73.5 199.5q0 122 76.5 200t193.5 78q120 0 190.5 -76.5t70.5 -197.5zM478 263q0 91 -46 143t-122 52t-124.5 -51t-48.5 -142q0 -89 47.5 -140.5t122.5 -51.5q77 0 124 50t47 140zM233 585h-76l122 166h59
l122 -166h-77l-76 90z" />
    <glyph glyph-name="odieresis.sc" horiz-adv-x="613" 
d="M572 268q0 -126 -73.5 -203t-192.5 -77q-118 0 -191.5 76.5t-73.5 199.5q0 122 76.5 200t193.5 78q120 0 190.5 -76.5t70.5 -197.5zM478 263q0 91 -46 143t-122 52t-124.5 -51t-48.5 -142q0 -89 47.5 -140.5t122.5 -51.5q77 0 124 50t47 140zM281 669q0 -23 -15 -38.5
t-37 -15.5q-23 0 -37 15t-14 38t14.5 38.5t37.5 15.5t37 -15t14 -38zM445 669q0 -23 -15 -38.5t-37 -15.5q-23 0 -37 15t-14 38t14.5 38.5t37.5 15.5t37 -15t14 -38z" />
    <glyph glyph-name="otilde.sc" horiz-adv-x="613" 
d="M572 268q0 -126 -73.5 -203t-192.5 -77q-118 0 -191.5 76.5t-73.5 199.5q0 122 76.5 200t193.5 78q120 0 190.5 -76.5t70.5 -197.5zM478 263q0 91 -46 143t-122 52t-124.5 -51t-48.5 -142q0 -89 47.5 -140.5t122.5 -51.5q77 0 124 50t47 140zM213 605h-58q5 61 31.5 95.5
t61.5 34.5q26 0 72 -31q35 -25 52 -25q31 0 38 56h55q-3 -62 -28 -95.5t-59 -33.5q-32 0 -77 31q-35 24 -50 24q-28 0 -38 -56z" />
    <glyph glyph-name="uacute.sc" horiz-adv-x="590" 
d="M71 530h95v-304q0 -59 11 -88q22 -65 117 -65q104 0 125 74q9 31 9 83v300h91v-305q0 -76 -19 -123q-22 -53 -76.5 -83t-133.5 -30q-154 0 -199 109q-20 49 -20 122v310zM300 588h-78l114 170h108z" />
    <glyph glyph-name="ugrave.sc" horiz-adv-x="590" 
d="M71 530h95v-304q0 -59 11 -88q22 -65 117 -65q104 0 125 74q9 31 9 83v300h91v-305q0 -76 -19 -123q-22 -53 -76.5 -83t-133.5 -30q-154 0 -199 109q-20 49 -20 122v310zM365 588h-78l-144 170h108z" />
    <glyph glyph-name="ucircumflex.sc" horiz-adv-x="590" 
d="M71 530h95v-304q0 -59 11 -88q22 -65 117 -65q104 0 125 74q9 31 9 83v300h91v-305q0 -76 -19 -123q-22 -53 -76.5 -83t-133.5 -30q-154 0 -199 109q-20 49 -20 122v310zM221 585h-76l122 166h59l122 -166h-77l-76 90z" />
    <glyph glyph-name="udieresis.sc" horiz-adv-x="590" 
d="M71 530h95v-304q0 -59 11 -88q22 -65 117 -65q104 0 125 74q9 31 9 83v300h91v-305q0 -76 -19 -123q-22 -53 -76.5 -83t-133.5 -30q-154 0 -199 109q-20 49 -20 122v310zM263 669q0 -23 -15 -38.5t-37 -15.5q-23 0 -37 15t-14 38t14.5 38.5t37.5 15.5t37 -15t14 -38z
M427 669q0 -23 -15 -38.5t-37 -15.5q-23 0 -37 15t-14 38t14.5 38.5t37.5 15.5t37 -15t14 -38z" />
    <glyph glyph-name="exclam.sc" horiz-adv-x="231" 
d="M161 217h-68q-11 261 -11 376h91q0 -90 -12 -376zM192 59q0 -28 -19 -47.5t-48 -19.5q-28 0 -45.5 19t-17.5 46q0 29 19 47.5t47 18.5q27 0 45.5 -18t18.5 -46z" />
    <glyph glyph-name="question.sc" horiz-adv-x="352" 
d="M182 218h-73q0 40 7.5 65.5t32.5 48.5q43 39 61 66.5t18 55.5q0 31 -19 52t-62 21q-67 0 -113 -40v75q56 40 140 40q68 0 108.5 -32t40.5 -95q0 -42 -22.5 -79.5t-75.5 -79.5q-40 -31 -43 -98zM211 59q0 -28 -19 -47.5t-48 -19.5q-28 0 -45.5 19t-17.5 46q0 29 18.5 47.5
t47.5 18.5q27 0 45.5 -18t18.5 -46z" />
    <glyph glyph-name="exclamdown.sc" horiz-adv-x="231" 
d="M70 318h68q11 -261 11 -376h-91q0 90 12 376zM39 476q0 28 19 47.5t48 19.5q28 0 45.5 -19t17.5 -46q0 -28 -18.5 -47t-47.5 -19q-27 0 -45.5 18t-18.5 46z" />
    <glyph glyph-name="questiondown.sc" horiz-adv-x="352" 
d="M170 316h73q0 -40 -7.5 -65.5t-32.5 -48.5q-43 -39 -61 -66.5t-18 -55.5q0 -31 19 -52t62 -21q67 0 113 40v-75q-56 -40 -140 -40q-68 0 -108.5 32t-40.5 95q0 42 22.5 79.5t75.5 79.5q40 31 43 98zM141 475q0 28 19 47.5t48 19.5q28 0 45.5 -19t17.5 -46
q0 -29 -18.5 -47.5t-47.5 -18.5q-27 0 -45.5 18t-18.5 46z" />
    <glyph glyph-name="dotlessi.sc" horiz-adv-x="244" 
d="M168 0h-92v500h92v-500z" />
    <glyph glyph-name="zero.fitted" horiz-adv-x="546" 
d="M513 339q0 -97 -23.5 -173.5t-79 -127t-137.5 -50.5t-138 50.5t-79 127t-23 173.5q0 157 62.5 259.5t181.5 102.5q236 0 236 -362zM417 341q0 151 -38 210.5t-104 59.5q-61 0 -102 -63.5t-41 -210.5q0 -78 13 -132.5t36 -80.5t46 -36.5t49 -10.5q141 0 141 264z" />
    <glyph glyph-name="one.fitted" horiz-adv-x="405" 
d="M270 0h-100v569l-132 -62v98l232 102v-707z" />
    <glyph glyph-name="two.fitted" horiz-adv-x="522" 
d="M485 0h-471q209 240 262 313q72 99 72 173q0 125 -130 125q-88 0 -174 -72v92q89 70 196 70q100 0 152 -52.5t52 -144.5q0 -109 -82 -218q-62 -83 -167 -198q16 1 290 1v-89z" />
    <glyph glyph-name="three.fitted" horiz-adv-x="524" 
d="M44 31v94q73 -49 178 -49q75 0 108.5 35t33.5 92q0 40 -25 68.5t-75 36.5q-29 5 -92 5h-20v86h21q65 0 91 10q76 28 76 97q0 48 -29 77t-93 29q-87 0 -160 -53v86q75 56 179 56q95 0 146 -47t51 -131q0 -121 -127 -159q153 -26 153 -168q0 -94 -63.5 -151t-179.5 -57
q-48 0 -96 12t-77 31z" />
    <glyph glyph-name="four.fitted" horiz-adv-x="563" 
d="M444 0h-95v193h-311v64l323 432h83v-419h94v-77h-94v-193zM349 270q0 247 2 295q-55 -81 -214 -295h212z" />
    <glyph glyph-name="five.fitted" horiz-adv-x="525" 
d="M52 29v100q81 -52 174 -52q71 0 112 38.5t41 103.5q0 63 -40 94.5t-110 31.5q-88 0 -153 -31l35 375h330v-89h-257l-19 -190q39 17 99 17q94 0 152.5 -51t58.5 -155q0 -109 -64.5 -171t-179.5 -62q-110 0 -179 41z" />
    <glyph glyph-name="six.fitted" horiz-adv-x="557" 
d="M148 344q51 98 174 98q87 0 141.5 -54.5t54.5 -160.5q0 -112 -60.5 -175.5t-161.5 -63.5q-109 0 -175.5 82.5t-66.5 257.5q0 188 79 280.5t201 92.5q94 0 145 -36v-100q-56 45 -138 45q-190 0 -193 -266zM155 254q2 -57 24 -105q33 -75 116 -75q56 0 93 39t37 113
q0 71 -34.5 104t-92.5 33q-55 0 -94 -31t-49 -78z" />
    <glyph glyph-name="seven.fitted" horiz-adv-x="503" 
d="M207 0h-99l244 600h-335v89h463z" />
    <glyph glyph-name="eight.fitted" horiz-adv-x="546" 
d="M169 357q-107 44 -107 157q0 84 61.5 135.5t151.5 51.5q95 0 153.5 -48.5t58.5 -136.5q0 -51 -28.5 -94t-82.5 -62q63 -16 95 -63.5t32 -107.5q0 -90 -63 -145.5t-171 -55.5q-97 0 -161.5 51.5t-64.5 146.5q0 60 33 106t93 65zM401 510q0 52 -34 81.5t-93 29.5
q-53 0 -89.5 -30.5t-36.5 -81.5q0 -49 32.5 -82t93.5 -33q60 0 93.5 31t33.5 85zM413 196q0 61 -37.5 91t-100.5 30q-65 0 -103 -34t-38 -88q0 -61 41 -93t97 -32q60 0 100.5 32.5t40.5 93.5z" />
    <glyph glyph-name="nine.fitted" horiz-adv-x="557" 
d="M409 343q-20 -39 -69 -67.5t-106 -28.5q-87 0 -141 54.5t-54 160.5q0 112 62 175.5t164 63.5q109 0 173.5 -82.5t64.5 -257.5q0 -193 -77 -283t-203 -90q-98 0 -149 36v100q55 -45 142 -45q101 0 146 64t47 200zM402 435q-2 61 -22 104q-34 76 -116 76q-56 0 -94 -39
t-38 -113q0 -71 34 -105.5t92 -34.5q54 0 94 32.5t50 79.5z" />
    <glyph glyph-name="A.sc" horiz-adv-x="546" 
d="M513 339q0 -97 -23.5 -173.5t-79 -127t-137.5 -50.5t-138 50.5t-79 127t-23 173.5q0 157 62.5 259.5t181.5 102.5q236 0 236 -362zM417 341q0 151 -38 210.5t-104 59.5q-62 0 -102.5 -62t-40.5 -212q0 -78 13 -132.5t36 -80.5t46 -36.5t49 -10.5q141 0 141 264z" />
    <glyph glyph-name="B.sc" horiz-adv-x="546" 
d="M347 0h-100v569l-139 -66v98l239 106v-707z" />
    <glyph glyph-name="C.sc" horiz-adv-x="546" 
d="M501 0h-471q209 240 262 313q72 99 72 173q0 125 -130 125q-88 0 -174 -72v92q89 70 196 70q100 0 152 -52.5t52 -144.5q0 -109 -82 -218q-62 -83 -167 -198q16 1 290 1v-89z" />
    <glyph glyph-name="D.sc" horiz-adv-x="546" 
d="M55 31v94q73 -49 178 -49q75 0 108.5 35t33.5 92q0 40 -25 68.5t-75 36.5q-29 5 -92 5h-20v86h21q65 0 91 10q76 28 76 97q0 48 -29.5 77t-92.5 29q-87 0 -160 -53v86q75 56 179 56q95 0 146 -47t51 -131q0 -121 -127 -159q153 -26 153 -168q0 -94 -63.5 -151t-179.5 -57
q-48 0 -96 12t-77 31z" />
    <glyph glyph-name="E.sc" horiz-adv-x="546" 
d="M428 0h-95v193h-300v64l312 432h83v-419h94v-77h-94v-193zM333 270q0 242 2 289q-112 -164 -203 -289h201z" />
    <glyph glyph-name="F.sc" horiz-adv-x="546" 
d="M62 29v100q81 -52 174 -52q71 0 112 38.5t41 103.5q0 63 -40 94.5t-110 31.5q-88 0 -153 -31l35 375h330v-89h-257l-19 -190q39 17 99 17q94 0 152.5 -51t58.5 -155q0 -109 -64.5 -171t-179.5 -62q-110 0 -179 41z" />
    <glyph glyph-name="G.sc" horiz-adv-x="546" 
d="M141 344q51 98 174 98q87 0 141.5 -54.5t54.5 -160.5q0 -112 -60.5 -175.5t-161.5 -63.5q-109 0 -175.5 82.5t-66.5 257.5q0 188 79 280.5t201 92.5q94 0 145 -36v-100q-56 45 -138 45q-190 0 -193 -266zM148 254q2 -57 24 -105q33 -75 116 -75q56 0 93 39t37 113
q0 71 -34.5 104t-92.5 33q-55 0 -94 -31t-49 -78z" />
    <glyph glyph-name="H.sc" horiz-adv-x="546" 
d="M236 0h-99l247 600h-341v89h469z" />
    <glyph glyph-name="I.sc" horiz-adv-x="546" 
d="M169 357q-107 44 -107 157q0 84 61.5 135.5t151.5 51.5q95 0 153.5 -48.5t58.5 -136.5q0 -51 -28.5 -94t-82.5 -62q63 -16 95 -63.5t32 -107.5q0 -90 -63 -145.5t-171 -55.5q-97 0 -161.5 51.5t-64.5 146.5q0 60 33 106t93 65zM401 510q0 52 -34 81.5t-93 29.5
q-53 0 -89.5 -30.5t-36.5 -81.5q0 -49 32.5 -82t93.5 -33q60 0 93.5 31t33.5 85zM413 196q0 61 -37.5 91t-100.5 30q-65 0 -103 -34t-38 -88q0 -61 41 -93t97 -32q60 0 100.5 32.5t40.5 93.5z" />
    <glyph glyph-name="J.sc" horiz-adv-x="546" 
d="M406 343q-20 -39 -69 -67.5t-106 -28.5q-87 0 -141 54.5t-54 160.5q0 112 62 175.5t164 63.5q109 0 173.5 -82.5t64.5 -257.5q0 -192 -77 -282.5t-203 -90.5q-98 0 -149 36v100q55 -45 142 -45q101 0 146 64t47 200zM399 435q-2 61 -22 104q-34 76 -116 76q-56 0 -94 -39
t-38 -113q0 -71 34 -105.5t92 -34.5q54 0 94 32.5t50 79.5z" />
    </font>
</defs>
</svg>
