<?xml version="1.0" standalone="no"?>
<!DOCTYPE svg PUBLIC "-//W3C//DTD SVG 1.1//EN" "http://www.w3.org/Graphics/SVG/1.1/DTD/svg11.dtd" >
<svg xmlns="http://www.w3.org/2000/svg" xmlns:xlink="http://www.w3.org/1999/xlink" version="1.1">
<metadata>
Created by FontForge 20170731 at Mon Mar 13 23:51:46 2017
 By Aleksey,,,
Copyright (c) 2016 The Economist. All rights reserved.
</metadata>
<defs>
<font id="EconSansOS-Bold" horiz-adv-x="375" >
  <font-face 
    font-family="Econ Sans OS"
    font-weight="700"
    font-stretch="normal"
    units-per-em="1000"
    panose-1="2 0 8 3 3 0 0 2 0 4"
    ascent="750"
    descent="-250"
    x-height="506"
    cap-height="706"
    bbox="-161 -309 1271 999"
    underline-thickness="50"
    underline-position="-200"
    unicode-range="U+000D-FB04"
  />
<missing-glyph horiz-adv-x="209" 
 />
    <glyph glyph-name="f_f" unicode="ff" horiz-adv-x="694" 
d="M231 0h-147v389h-65v117h65v28q0 81 21 123q42 82 170 82q56 0 99 -16v-125q-29 16 -69 16q-49 0 -64 -30q-10 -19 -10 -56v-22h95v-117h-95v-389zM578 0h-148v389h-59v117h59v41q0 81 23 127q40 82 169 82q51 0 97 -16v-127q-29 17 -67 17q-46 0 -63 -29
q-11 -18 -11 -64v-31h105v-117h-105v-389z" />
    <glyph glyph-name="fi" unicode="fi" horiz-adv-x="622" 
d="M369 740v-123q-32 13 -64 13q-47 0 -64 -29q-10 -17 -10 -62v-33h109v-117h-109v-389h-147v389h-65v117h65v41q0 82 21 127q40 82 170 82q48 0 94 -16zM559 0h-148v506h148v-506zM562 663q0 -33 -22.5 -56t-56.5 -23q-32 0 -53 22t-21 55q0 35 21.5 57t55.5 22
q33 0 54.5 -21.5t21.5 -55.5z" />
    <glyph glyph-name="fl" unicode="fl" horiz-adv-x="623" 
d="M231 0h-147v389h-65v117h65v41q0 82 21 127q40 82 170 82q44 0 88 -13v-125q-26 12 -58 12q-47 0 -63 -28q-11 -20 -11 -65v-31h109v-117h-109v-389zM559 0h-149v747h149v-747z" />
    <glyph glyph-name="f_f_i" unicode="ffi" horiz-adv-x="969" 
d="M231 0h-147v389h-65v117h65v28q0 81 21 123q42 82 170 82q56 0 99 -16v-125q-29 16 -69 16q-49 0 -64 -30q-10 -19 -10 -56v-22h95v-117h-95v-389zM716 740v-125q-30 15 -64 15q-46 0 -63 -29q-11 -18 -11 -64v-31h109v-117h-109v-389h-148v389h-58v117h58v41
q0 81 23 127q40 82 169 82q49 0 94 -16zM906 0h-148v506h148v-506zM909 663q0 -33 -22.5 -56t-56.5 -23q-32 0 -53 22t-21 55q0 34 22 56.5t56 22.5q32 0 53.5 -21.5t21.5 -55.5z" />
    <glyph glyph-name="f_f_l" unicode="ffl" horiz-adv-x="970" 
d="M231 0h-147v389h-65v117h65v28q0 81 21 123q42 82 170 82q56 0 99 -16v-125q-29 16 -69 16q-49 0 -64 -30q-10 -19 -10 -56v-22h95v-117h-95v-389zM578 0h-148v389h-59v117h59v41q0 81 23 127q40 82 169 82q44 0 88 -13v-126q-24 13 -58 13q-47 0 -63 -28
q-11 -20 -11 -65v-31h109v-117h-109v-389zM906 0h-148v747h148v-747z" />
    <glyph glyph-name="f_b" unicode="fb" horiz-adv-x="938" 
d="M231 0h-147v389h-65v117h65v41q0 82 21 127q40 82 170 82q44 0 88 -13v-126q-24 13 -58 13q-47 0 -63 -28q-11 -20 -11 -65v-31h109v-117h-109v-389zM410 24v723h148v-281q54 52 138 52q102 0 155.5 -66t53.5 -183q0 -77 -23 -133.5t-64 -87.5t-89.5 -45.5t-105.5 -14.5
q-109 0 -213 36zM558 117q32 -16 82 -16q49 0 80 39t31 116q0 71 -29 107t-74 36q-57 0 -90 -42v-240z" />
    <glyph glyph-name="f_f_b" unicode="ffb" horiz-adv-x="1285" 
d="M231 0h-147v389h-65v117h65v28q0 81 21 123q42 82 170 82q56 0 99 -16v-125q-29 16 -69 16q-49 0 -64 -30q-10 -19 -10 -56v-22h95v-117h-95v-389zM578 0h-148v389h-58v117h58v41q0 81 23 127q40 82 169 82q44 0 88 -13v-126q-24 13 -58 13q-47 0 -63 -28
q-11 -20 -11 -65v-31h109v-117h-109v-389zM758 24v723h148v-281q52 52 137 52q102 0 155.5 -66t53.5 -183q0 -77 -23 -133.5t-64 -87.5t-89.5 -45.5t-105.5 -14.5q-109 0 -212 36zM906 117q30 -16 81 -16q49 0 80 39t31 116q0 71 -28.5 107t-73.5 36q-58 0 -90 -42v-240z
" />
    <glyph glyph-name="f_f_h" unicode="ffh" horiz-adv-x="1288" 
d="M231 0h-147v389h-65v117h65v28q0 81 21 123q42 82 170 82q56 0 99 -16v-125q-29 16 -69 16q-49 0 -64 -30q-10 -19 -10 -56v-22h95v-117h-95v-389zM578 0h-148v389h-59v117h59v41q0 81 23 127q40 82 169 82q44 0 88 -13v-126q-24 13 -58 13q-47 0 -63 -28
q-11 -20 -11 -65v-31h109v-117h-109v-389zM906 0h-148v747h148v-293q59 67 153 67q105 0 141 -79q27 -60 27 -167v-275h-148v269q0 64 -8 84q-16 41 -70 41q-57 0 -95 -54v-340z" />
    <glyph glyph-name="f_f_j" unicode="ffj" horiz-adv-x="969" 
d="M231 0h-147v389h-65v117h65v28q0 81 21 123q42 82 170 82q56 0 99 -16v-125q-29 16 -69 16q-49 0 -64 -30q-10 -19 -10 -56v-22h95v-117h-95v-389zM716 740v-126q-29 16 -64 16q-46 0 -63 -29q-11 -18 -11 -64v-31h109v-117h-109v-389h-148v389h-59v117h59v41
q0 81 23 127q40 82 169 82q49 0 94 -16zM700 -238l-50 114q55 25 79 50q29 32 29 101v479h148v-491q0 -99 -34 -140q-51 -61 -172 -113zM909 663q0 -33 -22.5 -56t-56.5 -23q-32 0 -53 22t-21 55q0 34 22 56.5t56 22.5q32 0 53.5 -21.5t21.5 -55.5z" />
    <glyph glyph-name="f_f_k" unicode="ffk" horiz-adv-x="1273" 
d="M231 0h-147v389h-65v117h65v28q0 81 21 123q42 82 170 82q56 0 99 -16v-125q-29 16 -69 16q-49 0 -64 -30q-10 -19 -10 -56v-22h95v-117h-95v-389zM578 0h-148v389h-59v117h59v41q0 81 23 127q40 82 169 82q44 0 88 -13v-126q-24 13 -58 13q-47 0 -63 -28
q-11 -20 -11 -65v-31h109v-117h-109v-389zM906 0h-148v747h148v-428l165 187h177l-210 -221l233 -285h-182l-183 237v-237z" />
    <glyph glyph-name="f_h" unicode="fh" horiz-adv-x="940" 
d="M231 0h-147v389h-65v117h65v41q0 82 21 127q40 82 170 82q44 0 88 -13v-126q-24 13 -58 13q-47 0 -63 -28q-11 -20 -11 -65v-31h109v-117h-109v-389zM559 0h-148v747h148v-293q59 67 153 67q105 0 141 -79q27 -57 27 -167v-275h-148v269q0 61 -9 84q-15 41 -69 41
q-57 0 -95 -54v-340z" />
    <glyph glyph-name="f_j" unicode="fj" horiz-adv-x="622" 
d="M369 740v-126q-29 16 -64 16q-46 0 -63 -29q-11 -18 -11 -64v-31h109v-117h-109v-389h-147v389h-65v117h65v41q0 82 21 127q40 82 170 82q48 0 94 -16zM353 -238l-51 114q57 25 80 50q28 31 28 101v479h149v-491q0 -99 -34 -140q-51 -61 -172 -113zM562 663
q0 -33 -22.5 -56t-56.5 -23q-32 0 -53 22t-21 55q0 35 21.5 57t55.5 22q33 0 54.5 -21.5t21.5 -55.5z" />
    <glyph glyph-name="f_k" unicode="fk" horiz-adv-x="926" 
d="M231 0h-147v389h-65v117h65v41q0 82 21 127q40 82 170 82q44 0 88 -13v-126q-24 13 -58 13q-47 0 -63 -28q-11 -20 -11 -65v-31h109v-117h-109v-389zM559 0h-148v747h148v-428l165 187h177l-210 -221l234 -285h-183l-183 237v-237z" />
    <glyph glyph-name=".notdef" horiz-adv-x="209" 
 />
    <glyph glyph-name=".null" horiz-adv-x="0" 
 />
    <glyph glyph-name="nonmarkingreturn" horiz-adv-x="333" 
 />
    <glyph glyph-name="NULL" horiz-adv-x="0" 
 />
    <glyph glyph-name="NULL" horiz-adv-x="0" 
 />
    <glyph glyph-name="CR" unicode="&#xd;" horiz-adv-x="209" 
 />
    <glyph glyph-name="space" unicode=" " horiz-adv-x="209" 
 />
    <glyph glyph-name="exclam" unicode="!" horiz-adv-x="295" 
d="M224 245h-122q-20 311 -20 461h162q0 -149 -20 -461zM249 82q0 -38 -26 -64.5t-65 -26.5q-37 0 -61 26t-24 63q0 39 25.5 65t63.5 26t62.5 -25t24.5 -64z" />
    <glyph glyph-name="quotedbl" unicode="&#x22;" horiz-adv-x="361" 
d="M133 468h-73q-13 154 -17 279h107q-4 -124 -17 -279zM301 468h-73q-13 154 -17 279h107q-4 -124 -17 -279z" />
    <glyph glyph-name="numbersign" unicode="#" horiz-adv-x="560" 
d="M176 -14h-58l24 185h-99v113h114l14 106h-108v113h123l23 177h58l-23 -177h120l23 177h57l-23 -177h96v-113h-111l-14 -106h106v-113h-120l-24 -185h-58l24 185h-120zM229 390l-14 -106h120l14 106h-120z" />
    <glyph glyph-name="dollar" unicode="$" horiz-adv-x="589" 
d="M337 -86h-75v79q-120 7 -201 67v152q81 -71 201 -84v158l-35 14q-88 33 -126 79t-38 120q0 81 50.5 132.5t148.5 61.5v80h75v-78q104 -9 163 -49v-147q-70 53 -163 64v-152l26 -10q101 -39 137.5 -85.5t36.5 -117.5q0 -79 -50 -135t-150 -68v-81zM388 192q0 41 -51 65
v-126q51 12 51 61zM213 500q0 -22 11 -34.5t38 -24.5v119q-49 -12 -49 -60z" />
    <glyph glyph-name="percent" unicode="%" horiz-adv-x="839" 
d="M351 482q0 -89 -40.5 -148t-122.5 -59q-84 0 -124.5 58.5t-40.5 148.5q0 93 42.5 153.5t124.5 60.5q161 0 161 -214zM250 483q0 73 -16 98.5t-45 25.5q-61 0 -61 -126q0 -120 61 -120t61 122zM281 -12h-66l347 713h65zM815 200q0 -89 -40.5 -148t-122.5 -59
q-84 0 -124.5 58.5t-40.5 148.5q0 93 42.5 153.5t124.5 60.5q161 0 161 -214zM714 201q0 73 -16 98.5t-45 25.5q-61 0 -61 -126q0 -120 61 -120t61 122z" />
    <glyph glyph-name="ampersand" unicode="&#x26;" horiz-adv-x="724" 
d="M529 0q-28 26 -52 50q-85 -63 -199 -63q-107 0 -176 54.5t-69 151.5q0 70 38.5 118t115.5 83q-45 62 -45 129q0 74 53.5 121t148.5 47q86 0 139.5 -37.5t53.5 -113.5q0 -109 -135 -183q38 -48 98 -112q31 34 66 102l123 -72q-43 -77 -96 -134q24 -27 75.5 -81.5
t56.5 -59.5h-196zM331 445q38 21 54.5 41t16.5 45q0 24 -14 37t-39 13q-28 0 -43 -14.5t-15 -40.5q0 -36 40 -81zM260 297q-37 -18 -53 -40t-16 -55q0 -34 24.5 -59.5t72.5 -25.5q61 0 102 34q-70 71 -130 146z" />
    <glyph glyph-name="quotesingle" unicode="'" horiz-adv-x="193" 
d="M133 468h-73q-13 154 -17 279h107q-4 -124 -17 -279z" />
    <glyph glyph-name="parenleft" unicode="(" horiz-adv-x="347" 
d="M254 -152q-90 70 -153 181.5t-63 269.5q0 160 61 275.5t154 182.5h95q-197 -175 -197 -457q0 -258 197 -452h-94z" />
    <glyph glyph-name="parenright" unicode=")" horiz-adv-x="347" 
d="M94 757q92 -66 153.5 -181t61.5 -275q0 -83 -19 -156t-51.5 -128.5t-68 -96t-77.5 -72.5h-94q197 189 197 453q0 278 -197 456h95z" />
    <glyph glyph-name="asterisk" unicode="*" horiz-adv-x="450" 
d="M386 628l23 -80q-57 -18 -128 -37q43 -49 85 -107l-68 -47q-42 58 -74 110l-74 -110l-67 46q32 46 83 109q-44 11 -125 38l25 77q60 -18 123 -46q-6 88 -6 134h85q0 -61 -6 -135q54 23 124 48z" />
    <glyph glyph-name="plus" unicode="+" horiz-adv-x="701" 
d="M399 34h-97v213h-202v96h202v211h97v-211h202v-96h-202v-213z" />
    <glyph glyph-name="comma" unicode="," horiz-adv-x="263" 
d="M118 -119h-106q64 119 66 299h133q0 -85 -24 -165t-69 -134z" />
    <glyph glyph-name="hyphen" unicode="-" horiz-adv-x="347" 
d="M303 203h-258v111h258v-111z" />
    <glyph glyph-name="period" unicode="." horiz-adv-x="253" 
d="M220 82q0 -38 -26 -64.5t-65 -26.5q-37 0 -61.5 26t-24.5 63q0 39 26 65t64 26q37 0 62 -25t25 -64z" />
    <glyph glyph-name="slash" unicode="/" horiz-adv-x="374" 
d="M65 -57h-74l314 788h74z" />
    <glyph glyph-name="zero" unicode="0" horiz-adv-x="553" 
d="M525 270q0 -122 -62.5 -202t-186.5 -80q-85 0 -142.5 40t-81.5 101.5t-24 139.5q0 125 64.5 207t188.5 82q244 0 244 -288zM376 271q0 88 -25 120t-71 32q-41 0 -69.5 -34t-28.5 -120q0 -146 99 -146q95 0 95 148z" />
    <glyph glyph-name="one" unicode="1" horiz-adv-x="415" 
d="M323 0h-160v369l-118 -48v143l278 101v-565z" />
    <glyph glyph-name="two" unicode="2" horiz-adv-x="526" 
d="M495 0h-489q188 176 240 234q54 62 54 110q0 79 -92 79q-86 0 -174 -59v131q91 63 211 63q104 0 157 -47t53 -124q0 -92 -66 -166q-45 -49 -95 -92q34 2 201 2v-131z" />
    <glyph glyph-name="three" unicode="3" horiz-adv-x="506" 
d="M31 -97v140q78 -51 189 -51q53 0 78.5 22.5t25.5 59.5q0 61 -67 73q-28 7 -95 7h-22v120h22q61 0 86 8q53 17 53 70q0 72 -97 72q-87 0 -160 -51v127q34 25 87.5 41.5t105.5 16.5q105 0 157.5 -47t52.5 -130q0 -54 -31.5 -96.5t-97.5 -59.5q156 -24 156 -160
q0 -95 -68 -150t-192 -55q-115 0 -183 43z" />
    <glyph glyph-name="four" unicode="4" horiz-adv-x="566" 
d="M465 -136h-148v169h-296v96l314 420h130v-401h89v-115h-89v-169zM317 148q0 188 2 232q-28 -41 -165 -232h163z" />
    <glyph glyph-name="five" unicode="5" horiz-adv-x="520" 
d="M41 -95v140q78 -51 176 -51q61 0 92.5 26.5t31.5 73.5q0 46 -31.5 69.5t-87.5 23.5q-91 0 -164 -31l36 390h356v-135h-252l-13 -132q38 16 96 16q91 0 149 -50.5t58 -149.5q0 -114 -68.5 -174.5t-192.5 -60.5q-115 0 -186 45z" />
    <glyph glyph-name="six" unicode="6" horiz-adv-x="563" 
d="M189 359q17 32 57 52t87 20q87 0 139 -53.5t52 -155.5q0 -108 -63 -171t-167 -63q-115 0 -182 83.5t-67 244.5q0 181 81.5 273t205.5 92q100 0 150 -34v-144q-56 41 -137 41q-80 0 -116 -45.5t-40 -139.5zM195 251q2 -44 15 -78q22 -58 82 -58q40 0 64.5 28t24.5 83
q0 99 -87 99q-35 0 -62.5 -21.5t-36.5 -52.5z" />
    <glyph glyph-name="seven" unicode="7" horiz-adv-x="501" 
d="M239 -133h-149l207 544h-283v135h469z" />
    <glyph glyph-name="eight" unicode="8" horiz-adv-x="553" 
d="M145 346q-93 41 -93 148q0 87 67.5 137t158.5 50q100 0 163 -47t63 -138q0 -48 -24 -88.5t-73 -59.5q58 -18 85.5 -60.5t27.5 -97.5q0 -92 -67.5 -147t-178.5 -55q-103 0 -172 49t-69 146q0 58 29 101t83 62zM374 477q0 40 -25 62.5t-70 22.5q-41 0 -69 -22.5t-28 -61.5
q0 -37 25 -61t70 -24q46 0 71.5 22.5t25.5 61.5zM383 203q0 43 -28.5 66t-76.5 23q-49 0 -77.5 -24.5t-28.5 -65.5q0 -46 30 -69t75 -23q47 0 76.5 24t29.5 69z" />
    <glyph glyph-name="nine" unicode="9" horiz-adv-x="563" 
d="M374 181q-21 -31 -60 -49.5t-85 -18.5q-86 0 -137.5 53t-51.5 156q0 109 63 172.5t169 63.5q116 0 181.5 -83.5t65.5 -245.5q0 -183 -81 -276t-207 -93q-101 0 -155 34v145q56 -41 144 -41q79 0 115 45.5t39 137.5zM368 293q-2 54 -12 79q-23 59 -83 59q-40 0 -65.5 -29
t-25.5 -83q0 -101 88 -101q36 0 62 21t36 54z" />
    <glyph glyph-name="colon" unicode=":" horiz-adv-x="273" 
d="M240 82q0 -38 -26 -64.5t-65 -26.5q-37 0 -61.5 26t-24.5 63q0 39 26 65t64 26q37 0 62 -25t25 -64zM240 416q0 -38 -26 -64.5t-65 -26.5q-37 0 -61.5 25.5t-24.5 62.5q0 39 25.5 65t64.5 26q37 0 62 -24.5t25 -63.5z" />
    <glyph glyph-name="semicolon" unicode=";" horiz-adv-x="273" 
d="M240 416q0 -38 -26 -64.5t-65 -26.5q-37 0 -61.5 25.5t-24.5 62.5q0 39 25.5 65t64.5 26q37 0 62 -24.5t25 -63.5zM135 -119h-106q64 119 66 299h133q0 -85 -24 -165t-69 -134z" />
    <glyph glyph-name="less" unicode="&#x3c;" horiz-adv-x="701" 
d="M573 29l-456 218v96l456 223v-110l-351 -160l351 -156v-111z" />
    <glyph glyph-name="equal" unicode="=" horiz-adv-x="701" 
d="M100 450h501v-96h-501v96zM100 236h501v-96h-501v96z" />
    <glyph glyph-name="greater" unicode="&#x3e;" horiz-adv-x="701" 
d="M127 566l456 -219v-96l-456 -222v109l352 161l-352 156v111z" />
    <glyph glyph-name="question" unicode="?" horiz-adv-x="449" 
d="M258 245h-123q0 43 8.5 72.5t34.5 55.5q45 46 62 73.5t17 54.5q0 33 -20 54.5t-62 21.5q-75 0 -130 -46v139q65 49 170 49q92 0 148 -42.5t56 -129.5q0 -52 -25.5 -98t-86.5 -100q-44 -37 -49 -104zM284 82q0 -39 -26 -65t-65 -26q-37 0 -61 26t-24 63q0 39 25.5 65
t63.5 26t62.5 -25t24.5 -64z" />
    <glyph glyph-name="at" unicode="@" horiz-adv-x="792" 
d="M463 111q-54 -60 -136 -60q-57 0 -87.5 36t-30.5 100q0 110 73 193t196 83q68 0 123 -22l-49 -236q-8 -32 -8 -58q0 -29 30 -29q41 0 79 66.5t38 157.5q0 120 -65.5 180.5t-181.5 60.5q-140 0 -235.5 -104.5t-95.5 -259.5q0 -130 77.5 -212t212.5 -82q80 0 139.5 20.5
t122.5 57.5v-65q-119 -71 -271 -71q-159 0 -255 97t-96 254q0 179 117 300t287 121q143 0 225 -77.5t82 -213.5q0 -120 -60 -208t-146 -88q-70 0 -85 59zM457 173l47 214q-21 4 -43 4q-73 0 -116.5 -61.5t-43.5 -138.5q0 -29 15 -45.5t43 -16.5q49 0 98 44z" />
    <glyph glyph-name="A" unicode="A" horiz-adv-x="701" 
d="M179 0h-174l267 706h156l269 -706h-169l-61 158h-229zM278 291h148q-59 162 -74 213q-6 -21 -74 -213z" />
    <glyph glyph-name="B" unicode="B" horiz-adv-x="677" 
d="M72 0v706h237q80 0 124 -10q71 -14 113.5 -56t42.5 -108q0 -59 -24.5 -98.5t-80.5 -63.5q155 -26 155 -168q0 -61 -32 -108t-89 -70q-57 -24 -185 -24h-261zM234 140h90q74 0 95 7q52 17 52 74q0 27 -16 45t-46 24q-26 5 -85 5h-90v-155zM234 424h73q59 0 81 10
q37 17 37 64q0 48 -39 61q-26 9 -77 9h-75v-144z" />
    <glyph glyph-name="C" unicode="C" horiz-adv-x="669" 
d="M619 42q-89 -54 -227 -54q-154 0 -255 98.5t-101 264.5t103 267t257 101q147 0 222 -52v-150q-72 61 -191 61q-100 0 -161 -58.5t-61 -165.5q0 -110 64.5 -167.5t164.5 -57.5q93 0 185 56v-143z" />
    <glyph glyph-name="D" unicode="D" horiz-adv-x="726" 
d="M72 0v706h182q167 0 242 -30q194 -79 194 -315q0 -251 -212 -329q-87 -32 -240 -32h-166zM235 144h46q104 0 147 23q94 49 94 190q0 130 -93 182q-40 23 -139 23h-55v-418z" />
    <glyph glyph-name="E" unicode="E" horiz-adv-x="570" 
d="M538 0h-466v706h447v-145h-285v-128h263v-141h-263v-146h304v-146z" />
    <glyph glyph-name="F" unicode="F" horiz-adv-x="542" 
d="M234 0h-162v706h443v-145h-281v-142h259v-141h-259v-278z" />
    <glyph glyph-name="G" unicode="G" horiz-adv-x="724" 
d="M667 50q-45 -26 -118 -44t-154 -18q-159 0 -259 100t-100 264q0 166 103 266.5t258 100.5q159 0 239 -55v-151q-78 65 -207 65q-99 0 -161.5 -59t-62.5 -166q0 -108 61 -165.5t154 -57.5q53 0 91 17v96h-117v147h273v-340z" />
    <glyph glyph-name="H" unicode="H" horiz-adv-x="723" 
d="M650 0h-162v289h-253v-289h-163v706h163v-269h253v269h162v-706z" />
    <glyph glyph-name="I" unicode="I" horiz-adv-x="308" 
d="M235 0h-163v706h163v-706z" />
    <glyph glyph-name="J" unicode="J" horiz-adv-x="312" 
d="M5 -203l-51 125q75 33 98 62q24 31 24 97v625h163v-620q0 -118 -48 -174q-58 -68 -186 -115z" />
    <glyph glyph-name="K" unicode="K" horiz-adv-x="670" 
d="M235 0h-163v706h163v-293q2 2 84.5 119t133.5 174h189l-261 -328l286 -378h-199q-48 53 -100 126.5t-89 131t-44 66.5v-324z" />
    <glyph glyph-name="L" unicode="L" horiz-adv-x="552" 
d="M535 0h-463v706h162v-558h301v-148z" />
    <glyph glyph-name="M" unicode="M" horiz-adv-x="838" 
d="M232 0h-160v706h175q136 -216 172 -279q42 73 173 279h173v-706h-160q0 375 4 480q-40 -64 -191 -293q-79 122 -132 205t-56 88q2 -79 2 -480z" />
    <glyph glyph-name="N" unicode="N" horiz-adv-x="746" 
d="M228 0h-156v706h151q263 -371 300 -428q-4 105 -4 428h155v-706h-139q-276 406 -309 459q2 -57 2 -459z" />
    <glyph glyph-name="O" unicode="O" horiz-adv-x="767" 
d="M731 361q0 -171 -97.5 -272t-255.5 -101q-153 0 -247.5 100t-94.5 265q0 164 98 265t255 101q156 0 249 -99.5t93 -258.5zM563 351q0 111 -47.5 168.5t-127.5 57.5q-82 0 -132.5 -57t-50.5 -166t49.5 -167t130.5 -58q82 0 130 57t48 165z" />
    <glyph glyph-name="P" unicode="P" horiz-adv-x="635" 
d="M235 0h-163v706h209q99 0 153 -14q166 -39 166 -217q0 -76 -33.5 -131t-95.5 -82q-72 -30 -187 -30h-49v-232zM235 365h45q63 0 98 14q54 22 54 87q0 72 -72 92q-29 8 -88 8h-37v-201z" />
    <glyph glyph-name="Q" unicode="Q" horiz-adv-x="767" 
d="M731 361q0 -115 -45.5 -200t-126.5 -130q71 -43 190 -78l-51 -117q-79 21 -173 68.5t-141 83.5h-6q-153 0 -247.5 100t-94.5 265q0 164 98 265t255 101q156 0 249 -99.5t93 -258.5zM563 351q0 111 -47.5 168.5t-127.5 57.5q-82 0 -132.5 -57t-50.5 -166t49.5 -167
t130.5 -58q82 0 130 57t48 165z" />
    <glyph glyph-name="R" unicode="R" horiz-adv-x="664" 
d="M234 0h-162v706h200q109 0 165 -14q75 -19 111.5 -64t36.5 -122q0 -126 -125 -184q43 -20 78 -78.5t123 -243.5h-180q-63 137 -91 187.5t-52 68.5q-18 13 -57 13h-47v-269zM234 400h65q41 0 68 9q51 18 51 80q0 66 -70 79q-28 5 -76 5h-38v-173z" />
    <glyph glyph-name="S" unicode="S" horiz-adv-x="579" 
d="M39 58v161q49 -42 120 -66t130 -24q98 0 98 66q0 24 -17.5 39.5t-60.5 32.5l-92 35q-94 35 -135 84t-41 128q0 93 68 149t198 56q56 0 113 -14.5t93 -38.5v-157q-42 31 -103 50t-114 19q-91 0 -91 -61q0 -26 15 -40t53 -28l92 -35q108 -41 147.5 -90t39.5 -124
q0 -93 -67.5 -152.5t-203.5 -59.5q-70 0 -136 20t-106 50z" />
    <glyph glyph-name="T" unicode="T" horiz-adv-x="599" 
d="M379 0h-163v559h-194v147h554v-147h-197v-559z" />
    <glyph glyph-name="U" unicode="U" horiz-adv-x="737" 
d="M66 706h162v-403q0 -68 13 -103q27 -71 128 -71q103 0 129 76q12 35 12 102v399h162v-404q0 -110 -34 -178q-30 -65 -100.5 -100.5t-172.5 -35.5q-199 0 -265 129q-34 66 -34 179v410z" />
    <glyph glyph-name="V" unicode="V" horiz-adv-x="697" 
d="M426 0h-154l-267 706h175q159 -448 174 -498q28 90 172 498h167z" />
    <glyph glyph-name="W" unicode="W" horiz-adv-x="1021" 
d="M359 0h-149l-200 706h175q104 -397 118 -475q19 77 147 475h130q112 -346 147 -474q31 146 121 474h165l-204 -706h-148q-136 447 -148 491q-39 -139 -154 -491z" />
    <glyph glyph-name="X" unicode="X" horiz-adv-x="739" 
d="M191 0h-184l250 377l-223 329h196q56 -82 154 -231q41 73 147 231h177l-227 -337l252 -369h-197q-53 78 -89.5 132t-58.5 87l-28 42q-96 -150 -169 -261z" />
    <glyph glyph-name="Y" unicode="Y" horiz-adv-x="687" 
d="M424 0h-163v288l-257 418h191q96 -162 151 -264q42 77 165 264h173l-260 -418v-288z" />
    <glyph glyph-name="Z" unicode="Z" horiz-adv-x="665" 
d="M637 0h-632q305 483 351 560h-39t-106.5 -0.5t-158.5 -0.5v147h588q-310 -500 -349 -560q47 1 346 1v-147z" />
    <glyph glyph-name="bracketleft" unicode="[" horiz-adv-x="284" 
d="M275 -157h-206v906h206v-74h-98v-757h98v-75z" />
    <glyph glyph-name="backslash" unicode="\" horiz-adv-x="374" 
d="M382 -57h-73l-314 788h73z" />
    <glyph glyph-name="bracketright" unicode="]" horiz-adv-x="284" 
d="M8 756h207v-906h-207v74h99v757h-99v75z" />
    <glyph glyph-name="asciicircum" unicode="^" horiz-adv-x="721" 
d="M608 312h-112l-137 284l-135 -284h-111l195 394h105z" />
    <glyph glyph-name="underscore" unicode="_" horiz-adv-x="445" 
d="M0 -77h445v-42h-445v42z" />
    <glyph glyph-name="grave" unicode="`" horiz-adv-x="180" 
d="M218 577h-104l-151 172h142z" />
    <glyph glyph-name="a" unicode="a" horiz-adv-x="524" 
d="M465 0h-140v47q-53 -57 -135 -57q-69 0 -111.5 42.5t-42.5 106.5q0 79 64 116q68 40 221 50v10q0 32 -13 52q-18 25 -64 25q-96 0 -175 -58v121q36 30 89.5 47t103.5 17q140 0 184 -93q19 -41 19 -138v-288zM321 123v95q-87 -6 -121 -28q-24 -15 -24 -43q0 -52 63 -52
q44 0 82 28z" />
    <glyph glyph-name="b" unicode="b" horiz-adv-x="591" 
d="M64 24v723h147v-281q54 52 138 52q102 0 155.5 -66.5t53.5 -182.5q0 -77 -23 -133.5t-64 -87.5t-89.5 -45.5t-105.5 -14.5q-109 0 -212 36zM211 117q32 -16 82 -16q49 0 79.5 39t30.5 116q0 71 -28.5 107t-73.5 36q-57 0 -90 -42v-240z" />
    <glyph glyph-name="c" unicode="c" horiz-adv-x="477" 
d="M445 27q-61 -39 -154 -39q-117 0 -187.5 72t-70.5 193q0 117 75.5 191.5t192.5 74.5q90 0 143 -40v-136q-58 48 -123 48q-63 0 -98 -37.5t-35 -95.5q0 -64 37 -100t97 -36q58 0 123 40v-135z" />
    <glyph glyph-name="d" unicode="d" horiz-adv-x="598" 
d="M533 0h-145v45q-51 -57 -144 -57q-96 0 -154 70t-58 184q0 123 65 199.5t176 76.5q78 0 112 -34v263h148v-747zM385 148v216q-24 39 -85 39q-50 0 -82 -40t-32 -114t29 -109.5t74 -35.5q59 0 96 44z" />
    <glyph glyph-name="e" unicode="e" horiz-adv-x="539" 
d="M503 38q-94 -50 -198 -50q-126 0 -199 71t-73 194q0 120 69.5 193t181.5 73q111 0 167 -66.5t56 -183.5v-50h-320q4 -51 42.5 -78t105.5 -27q87 0 168 55v-131zM188 309h181q-2 97 -84 97q-40 0 -68 -26.5t-29 -70.5z" />
    <glyph glyph-name="f" unicode="f" horiz-adv-x="347" 
d="M231 0h-147v389h-65v117h65v41q0 81 21 126q41 83 170 83q54 0 97 -16v-126q-32 16 -70 16q-44 0 -59 -28q-12 -20 -12 -64v-32h105v-117h-105v-389z" />
    <glyph glyph-name="g" unicode="g" horiz-adv-x="539" 
d="M153 165q-59 20 -88.5 62.5t-29.5 99.5q0 87 60.5 139t164.5 52q52 0 93 -12h175v-117h-70q17 -27 17 -59q0 -95 -78 -139q-42 -25 -125 -41q-50 -8 -50 -36q0 -18 28 -24q19 -3 74 -8.5t83 -10.5q117 -21 117 -131q0 -84 -77.5 -136t-204.5 -52q-106 0 -167.5 36
t-61.5 100q0 45 30.5 73.5t93.5 46.5q-62 17 -62 67q0 56 78 90zM335 327q0 83 -80 83q-36 0 -58 -22.5t-22 -60.5t21.5 -59t57.5 -21q37 0 59 20t22 60zM371 -82q0 31 -42 44q-27 9 -79 9q-41 0 -67 -15t-26 -44q0 -24 27.5 -39.5t72.5 -15.5q52 0 83 16.5t31 44.5z" />
    <glyph glyph-name="h" unicode="h" horiz-adv-x="587" 
d="M211 0h-147v747h147v-293q58 66 150 66q104 0 140 -78q27 -57 27 -167v-275h-149v269q0 65 -8 86q-14 39 -66 39q-56 0 -94 -54v-340z" />
    <glyph glyph-name="i" unicode="i" horiz-adv-x="275" 
d="M212 0h-148v506h148v-506zM216 662q0 -34 -23 -56.5t-57 -22.5q-33 0 -54.5 22t-21.5 55q0 34 22.5 57t56.5 23q33 0 55 -22t22 -56z" />
    <glyph glyph-name="j" unicode="j" horiz-adv-x="275" 
d="M6 -238l-51 115q55 22 78 49q31 32 31 103v477h148v-489q0 -98 -35 -142q-52 -62 -171 -113zM216 662q0 -34 -23 -56.5t-58 -22.5q-32 0 -54 22.5t-22 54.5q0 34 22.5 57t57.5 23q33 0 55 -22t22 -56z" />
    <glyph glyph-name="k" unicode="k" horiz-adv-x="579" 
d="M211 0h-147v747h147v-431q10 10 69 82.5t94 107.5h179l-207 -220l231 -286h-183q-41 45 -112 142l-71 97v-239z" />
    <glyph glyph-name="l" unicode="l" horiz-adv-x="275" 
d="M211 0h-147v747h147v-747z" />
    <glyph glyph-name="m" unicode="m" horiz-adv-x="888" 
d="M211 0h-147v506h146v-53q58 65 149 65q99 0 138 -81q66 81 169 81q104 0 139 -78q23 -51 23 -164v-276h-148v269q0 52 -6 77q-13 47 -65 47q-57 0 -91 -52q2 -22 2 -65v-276h-148v268q0 57 -8 82q-15 43 -63 43q-54 0 -90 -53v-340z" />
    <glyph glyph-name="n" unicode="n" horiz-adv-x="588" 
d="M211 0h-147v506h144v-54q25 30 68 48t89 18q121 0 152 -110q11 -43 11 -133v-275h-149v269q0 62 -8 86q-12 38 -64 38q-28 0 -55 -14.5t-41 -38.5v-340z" />
    <glyph glyph-name="o" unicode="o" horiz-adv-x="577" 
d="M543 258q0 -124 -69 -197t-186 -73q-118 0 -186.5 71.5t-68.5 190.5q0 118 71.5 193.5t187.5 75.5q114 0 182.5 -71.5t68.5 -189.5zM395 254q0 139 -104 139q-49 0 -79 -36t-30 -106q0 -67 29 -102t78 -35q106 0 106 140z" />
    <glyph glyph-name="p" unicode="p" horiz-adv-x="587" 
d="M211 -237h-147v743h142v-44q51 56 135 56q100 0 156.5 -69t56.5 -184q0 -124 -64.5 -199t-174.5 -75q-64 0 -104 24v-252zM211 139q11 -15 33.5 -24t43.5 -9q54 0 82.5 42t28.5 111q0 67 -26.5 105t-75.5 38q-26 0 -50.5 -13.5t-35.5 -32.5v-217z" />
    <glyph glyph-name="q" unicode="q" horiz-adv-x="598" 
d="M532 -237h-148v278q-47 -53 -140 -53q-96 0 -154 70t-58 184q0 123 64.5 199.5t174.5 76.5q79 0 115 -44v32h146v-743zM385 148v216q-25 39 -82 39q-53 0 -85 -39.5t-32 -114.5t29.5 -110t76.5 -35q58 0 93 44z" />
    <glyph glyph-name="r" unicode="r" horiz-adv-x="410" 
d="M211 0h-147v506h144v-67q39 81 130 81q33 0 61 -12v-129q-32 21 -76 21q-77 0 -112 -74v-326z" />
    <glyph glyph-name="s" unicode="s" horiz-adv-x="454" 
d="M38 38v139q39 -33 89.5 -50t96.5 -17q33 0 46.5 7.5t13.5 25.5q0 13 -12 22t-53 25l-57 22q-123 48 -123 157q0 69 52 109.5t143 40.5q99 0 171 -46v-131q-85 58 -167 58q-51 0 -51 -33q0 -13 11 -22t51 -25l58 -22q64 -24 94.5 -60t30.5 -93q0 -72 -55.5 -114.5
t-147.5 -42.5q-105 0 -191 50z" />
    <glyph glyph-name="t" unicode="t" horiz-adv-x="392" 
d="M378 15q-55 -27 -135 -27q-52 0 -92 23t-56 69q-14 40 -14 139v170h-62v117h63v146h147v-146h133v-117h-133v-176q0 -45 9 -68q13 -32 59 -32q41 0 81 21v-119z" />
    <glyph glyph-name="u" unicode="u" horiz-adv-x="588" 
d="M525 0h-148v53q-59 -65 -150 -65q-107 0 -141 76q-25 53 -25 167v275h147v-268q0 -57 7 -77q15 -48 70 -48q53 0 91 52v341h149v-506z" />
    <glyph glyph-name="v" unicode="v" horiz-adv-x="560" 
d="M342 0h-126l-212 506h165q96 -257 114 -321q21 76 115 321h158z" />
    <glyph glyph-name="w" unicode="w" horiz-adv-x="817" 
d="M297 0h-123l-161 506h165q63 -252 74 -309q20 69 102 309h112q89 -260 103 -309q11 68 73 309h162l-161 -506h-124q-96 266 -113 326q-18 -66 -109 -326z" />
    <glyph glyph-name="x" unicode="x" horiz-adv-x="576" 
d="M174 0h-166l181 259l-168 247h175q72 -108 96 -148q41 65 99 148h166l-174 -235l185 -271h-176q-70 103 -107 161q-10 -15 -21 -31t-36.5 -53t-53.5 -77z" />
    <glyph glyph-name="y" unicode="y" horiz-adv-x="560" 
d="M275 -237h-158l97 253l-210 490h165q99 -248 119 -312q17 54 110 312h157z" />
    <glyph glyph-name="z" unicode="z" horiz-adv-x="513" 
d="M495 0h-491q235 374 245 390q-45 -1 -209 -1v117h453q-143 -225 -247 -390q27 1 249 1v-117z" />
    <glyph glyph-name="braceleft" unicode="{" horiz-adv-x="338" 
d="M332 -156h-42q-81 0 -119 26q-30 18 -42.5 52.5t-12.5 93.5v114q0 64 -18 92q-18 32 -82 39v81q65 8 83 37q17 26 17 92v122q0 90 44 131q40 36 129 36h43v-73h-30q-43 0 -63 -25t-20 -79v-118q0 -94 -37 -131q-17 -17 -62 -32q38 -7 59 -28q40 -38 40 -138v-118
q0 -60 25 -83q19 -20 59 -20h29v-71z" />
    <glyph glyph-name="bar" unicode="|" horiz-adv-x="221" 
d="M152 -158h-83v908h83v-908z" />
    <glyph glyph-name="braceright" unicode="}" horiz-adv-x="338" 
d="M6 760h43q78 0 118 -26q30 -18 42.5 -52.5t12.5 -93.5v-114q0 -64 18 -92q20 -33 82 -39v-80q-65 -8 -83 -38q-17 -25 -17 -92v-122q0 -90 -44 -131q-40 -36 -128 -36h-44v73h30q43 0 63 25q20 23 20 79v118q0 94 37 131q17 17 62 32q-38 7 -59 27q-40 38 -40 139v118
q0 60 -24 84q-19 19 -60 19h-29v71z" />
    <glyph glyph-name="asciitilde" unicode="~" horiz-adv-x="701" 
d="M144 205l-68 50q82 130 169 130q44 0 116 -43q56 -35 92 -35q29 0 51 18t51 64l71 -46q-39 -67 -79 -101t-95 -34q-53 0 -116 39q-61 36 -90 36q-50 0 -102 -78z" />
    <glyph glyph-name="exclamdown" unicode="&#xa1;" horiz-adv-x="295" 
d="M71 253h122q20 -311 20 -461h-162q0 149 20 461zM45 416q0 38 26 64.5t65 26.5q37 0 61.5 -26t24.5 -63q0 -39 -26 -65t-64 -26q-37 0 -62 25t-25 64z" />
    <glyph glyph-name="cent" unicode="&#xa2;" horiz-adv-x="513" 
d="M348 -86h-73v81q-100 11 -156 77.5t-56 172.5q0 102 56.5 169.5t155.5 81.5v86h73v-83q70 -5 115 -38v-128q-58 45 -115 48v-262q59 1 117 42v-128q-52 -32 -117 -38v-81zM212 250q0 -88 63 -118v235q-63 -32 -63 -117z" />
    <glyph glyph-name="sterling" unicode="&#xa3;" horiz-adv-x="686" 
d="M486 284h-146l-27 -147h299v-137h-536v137h76l27 147h-68v93h85l14 75q16 93 46 145q62 104 206 104q88 0 137 -30v-139q-48 30 -110 30q-70 0 -96 -46q-17 -31 -28 -95l-8 -44h129v-93z" />
    <glyph glyph-name="currency" unicode="&#xa4;" horiz-adv-x="593" 
d="M482 84l-70 69q-52 -33 -121 -33q-62 0 -115 32l-69 -68l-59 58l71 70q-40 53 -40 119q0 65 38 120l-68 70l61 59l69 -70q47 35 115 35t117 -36l71 71l58 -58l-70 -70q38 -50 38 -117q0 -73 -37 -121l70 -72zM414 331q0 58 -34.5 94t-85.5 36q-50 0 -85.5 -35.5
t-35.5 -92.5q0 -59 36 -93.5t85 -34.5t84.5 35.5t35.5 90.5z" />
    <glyph glyph-name="yen" unicode="&#xa5;" horiz-adv-x="704" 
d="M606 331h-146l-30 -48v-19h176v-71h-176v-193h-160v193h-170v71h170v19l-30 48h-140v73h96l-174 285h188q45 -76 146 -254q34 63 158 254h168l-177 -285h101v-73z" />
    <glyph glyph-name="brokenbar" unicode="&#xa6;" horiz-adv-x="241" 
d="M172 400h-103v306h103v-306zM172 -39h-103v306h103v-306z" />
    <glyph glyph-name="section" unicode="&#xa7;" horiz-adv-x="475" 
d="M43 -53v128q89 -70 177 -70q29 0 46 15t17 36q0 20 -11 34.5t-41 31.5q-79 44 -128 76q-70 46 -70 122q0 43 24 75.5t70 47.5q-61 55 -61 132q0 64 46 112.5t135 48.5q109 0 166 -43v-122q-70 58 -153 58q-29 0 -44.5 -14t-15.5 -35q0 -22 11 -36t45 -34q83 -50 128 -80
q60 -42 60 -118q0 -44 -25.5 -78t-65.5 -47q38 -27 53 -55.5t15 -68.5q0 -77 -52.5 -123t-145.5 -46q-103 0 -180 53zM283 234q17 5 30 19.5t13 32.5q0 34 -39 58l-89 54q-16 -4 -30 -19t-14 -36q0 -19 9.5 -31.5t31.5 -26.5q36 -23 88 -51z" />
    <glyph glyph-name="dieresis" unicode="&#xa8;" horiz-adv-x="180" 
d="M65 660q0 -28 -18.5 -46.5t-46.5 -18.5q-27 0 -44.5 18.5t-17.5 45.5q0 29 18 47.5t46 18.5t45.5 -18t17.5 -47zM242 660q0 -28 -18.5 -46.5t-46.5 -18.5q-27 0 -44.5 18.5t-17.5 45.5q0 29 18 47.5t46 18.5t45.5 -18t17.5 -47z" />
    <glyph glyph-name="copyright" unicode="&#xa9;" horiz-adv-x="828" 
d="M781 352q0 -156 -104.5 -261t-262.5 -105t-262.5 105t-104.5 261t105 261.5t261 105.5q161 0 264.5 -104.5t103.5 -262.5zM744 352q0 143 -93.5 239t-237.5 96q-142 0 -235 -96.5t-93 -238.5q0 -143 93 -238t236 -95q144 0 237 94.5t93 238.5zM567 149q-56 -35 -141 -35
q-98 0 -160.5 64.5t-62.5 174.5q0 107 65 171.5t161 64.5q92 0 136 -31v-98q-43 36 -117 36q-62 0 -99.5 -37.5t-37.5 -102.5q0 -74 40.5 -111t102.5 -37q56 0 113 35v-94z" />
    <glyph glyph-name="ordfeminine" unicode="&#xaa;" horiz-adv-x="328" 
d="M290 282h-90l-1 28q-30 -34 -82 -34q-43 0 -68 24t-25 62q0 44 39 67q46 25 134 31v7q0 19 -8 28q-11 14 -38 14q-61 0 -107 -34v75q45 39 120 39q88 0 114 -56q12 -23 12 -82v-169zM197 355v56q-49 -3 -68 -15q-15 -8 -15 -27q0 -30 38 -30q24 0 45 16z" />
    <glyph glyph-name="guillemotleft" unicode="&#xab;" horiz-adv-x="456" 
d="M248 74h-102l-124 184l123 184h103l-120 -184zM436 74h-104l-124 184l123 184h104l-120 -184z" />
    <glyph glyph-name="logicalnot" unicode="&#xac;" horiz-adv-x="701" 
d="M601 34h-96v213h-411v96h507v-309z" />
    <glyph glyph-name="uni00AD" unicode="&#xad;" horiz-adv-x="347" 
d="M303 203h-258v111h258v-111z" />
    <glyph glyph-name="registered" unicode="&#xae;" horiz-adv-x="828" 
d="M781 352q0 -156 -104.5 -261t-262.5 -105t-262.5 105t-104.5 261t105 261.5t261 105.5q161 0 264.5 -104.5t103.5 -262.5zM744 352q0 143 -93.5 239t-237.5 96q-142 0 -235 -96.5t-93 -238.5q0 -143 93 -238t236 -95q144 0 237 94.5t93 238.5zM365 128h-96v452h119
q73 0 98 -8q91 -25 91 -119q0 -81 -77 -119q25 -13 47 -51t75 -155h-107q-63 143 -87 165q-10 9 -34 9h-29v-174zM365 381h39q22 0 39 7q35 15 35 55q0 46 -45 53q-19 4 -47 4h-21v-119z" />
    <glyph glyph-name="macron" unicode="&#xaf;" horiz-adv-x="162" 
d="M218 605h-276v91h276v-91z" />
    <glyph glyph-name="degree" unicode="&#xb0;" horiz-adv-x="312" 
d="M290 576q0 -59 -39.5 -98t-95.5 -39q-57 0 -95.5 38.5t-38.5 95.5q0 61 39 99.5t97 38.5q60 0 96.5 -37.5t36.5 -97.5zM239 577q0 36 -22.5 61.5t-61.5 25.5q-38 0 -60 -25.5t-22 -63.5q0 -37 22.5 -63t60.5 -26q37 0 60 26t23 65z" />
    <glyph glyph-name="plusminus" unicode="&#xb1;" horiz-adv-x="701" 
d="M399 171h-97v199h-202v96h202v199h97v-199h202v-96h-202v-199zM601 0h-501v95h501v-95z" />
    <glyph glyph-name="twosuperior" unicode="&#xb2;" 
d="M338 420h-325q125 134 165 186q35 43 35 81q0 58 -65 58q-58 0 -111 -39v84q60 44 137 44q69 0 105 -34t36 -91q0 -66 -52 -126q-25 -29 -74 -78q30 1 149 1v-86z" />
    <glyph glyph-name="threesuperior" unicode="&#xb3;" 
d="M38 438v89q50 -30 123 -30q63 0 63 47q0 33 -40 40q-25 5 -61 5h-15v75h15q40 0 55 5q31 9 31 39q0 40 -58 40q-57 0 -103 -30v81q52 35 124 35q68 0 102.5 -29t34.5 -79q0 -32 -20.5 -57.5t-62.5 -35.5q99 -14 99 -97q0 -57 -43.5 -90t-123.5 -33q-76 0 -120 25z" />
    <glyph glyph-name="acute" unicode="&#xb4;" horiz-adv-x="180" 
d="M66 577h-103l112 172h143z" />
    <glyph glyph-name="mu" unicode="&#xb5;" horiz-adv-x="610" 
d="M218 -237h-148v743h148v-268q0 -57 6 -77q15 -48 72 -48q55 0 94 53v340h148v-506h-147v54q-13 -27 -39.5 -44t-59.5 -17q-55 0 -74 43v-273z" />
    <glyph glyph-name="paragraph" unicode="&#xb6;" horiz-adv-x="518" 
d="M293 -127h-38v362q-97 0 -157.5 65t-60.5 163q0 113 71 178t201 65h142v-833h-37v796h-121v-796z" />
    <glyph glyph-name="periodcentered" unicode="&#xb7;" horiz-adv-x="253" 
d="M220 260q0 -38 -26 -64.5t-65 -26.5q-37 0 -61.5 26t-24.5 63q0 39 26 64.5t64 25.5q37 0 62 -24.5t25 -63.5z" />
    <glyph glyph-name="cedilla" unicode="&#xb8;" horiz-adv-x="162" 
d="M-21 -249v66q30 -15 72 -15q48 0 48 40q0 39 -55 39q-24 0 -42 -6l36 133h62l-19 -69h9q45 0 69.5 -25.5t24.5 -70.5q0 -54 -35.5 -81.5t-96.5 -27.5q-44 0 -73 17z" />
    <glyph glyph-name="onesuperior" unicode="&#xb9;" 
d="M252 420h-108v292l-72 -27v89l180 63v-417z" />
    <glyph glyph-name="ordmasculine" unicode="&#xba;" horiz-adv-x="359" 
d="M336 435q0 -74 -42.5 -117t-115.5 -43q-72 0 -114 42t-42 113q0 70 44 114.5t115 44.5q72 0 113.5 -42t41.5 -112zM240 432q0 77 -60 77q-28 0 -44.5 -20t-16.5 -59q0 -75 60 -75q61 0 61 77z" />
    <glyph glyph-name="guillemotright" unicode="&#xbb;" horiz-adv-x="456" 
d="M207 442h103l124 -184l-123 -184h-103l120 184zM20 442h104l123 -184l-122 -184h-104l119 184z" />
    <glyph glyph-name="onequarter" unicode="&#xbc;" horiz-adv-x="832" 
d="M264 -12h-65l347 713h64zM261 282h-108v292l-72 -27v89l180 63v-417zM714 0h-102v98h-180v61l192 248h90v-236h55v-73h-55v-98zM612 171q0 98 1 123q-41 -58 -90 -123h89z" />
    <glyph glyph-name="onehalf" unicode="&#xbd;" horiz-adv-x="832" 
d="M245 -12h-65l347 713h64zM248 282h-108v292l-72 -27v89l180 63v-417zM784 0h-325q125 134 165 186q35 43 35 81q0 58 -65 58q-58 0 -111 -39v84q60 44 137 44q69 0 105 -34t36 -91q0 -66 -52 -126q-25 -29 -74 -78q30 1 149 1v-86z" />
    <glyph glyph-name="threequarters" unicode="&#xbe;" horiz-adv-x="832" 
d="M294 -12h-65l347 713h64zM60 300v89q50 -30 123 -30q63 0 63 47q0 33 -40 40q-25 5 -61 5h-15v75h15q40 0 55 5q31 9 31 39q0 40 -58 40q-57 0 -103 -30v81q52 35 124 35q68 0 102.5 -29t34.5 -79q0 -32 -20.5 -57.5t-62.5 -35.5q99 -14 99 -97q0 -57 -43.5 -90
t-123.5 -33q-76 0 -120 25zM734 0h-102v98h-180v61l192 248h90v-236h55v-73h-55v-98zM632 171q0 98 1 123q-41 -58 -90 -123h89z" />
    <glyph glyph-name="questiondown" unicode="&#xbf;" horiz-adv-x="449" 
d="M191 253h123q0 -85 -43 -128q-45 -46 -62 -73.5t-17 -55.5q0 -32 20 -53.5t62 -21.5q74 0 130 45v-138q-63 -49 -170 -49q-92 0 -148 42.5t-56 129.5q0 52 25.5 98t86.5 99q44 38 49 105zM165 416q0 39 26 65t65 26q37 0 61 -26t24 -63q0 -39 -25.5 -65t-63.5 -26
t-62.5 25t-24.5 64z" />
    <glyph glyph-name="Agrave" unicode="&#xc0;" horiz-adv-x="701" 
d="M179 0h-174l267 706h156l269 -706h-169l-61 158h-229zM278 291h148q-59 162 -74 213q-6 -21 -74 -213zM446 760h-118l-169 139h156z" />
    <glyph glyph-name="Aacute" unicode="&#xc1;" horiz-adv-x="701" 
d="M179 0h-174l267 706h156l269 -706h-169l-61 158h-229zM278 291h148q-59 162 -74 213q-6 -21 -74 -213zM362 760h-117l130 139h157z" />
    <glyph glyph-name="Acircumflex" unicode="&#xc2;" horiz-adv-x="701" 
d="M179 0h-174l267 706h156l269 -706h-169l-61 158h-229zM278 291h148q-59 162 -74 213q-6 -21 -74 -213zM280 760h-109l133 139h92l135 -139h-111l-72 56z" />
    <glyph glyph-name="Atilde" unicode="&#xc3;" horiz-adv-x="701" 
d="M177 0h-174l267 706h156l269 -706h-169l-61 158h-229zM276 291h148q-59 162 -74 213q-6 -21 -74 -213zM250 761h-78q7 69 35.5 106.5t70.5 37.5q32 0 80 -30q35 -22 50 -22q25 0 34 52h79q-5 -71 -31.5 -107.5t-69.5 -36.5q-33 0 -84 29q-38 21 -47 21q-30 0 -39 -50z
" />
    <glyph glyph-name="Adieresis" unicode="&#xc4;" horiz-adv-x="701" 
d="M179 0h-174l267 706h156l269 -706h-169l-61 158h-229zM278 291h148q-59 162 -74 213q-6 -21 -74 -213zM321 830q0 -28 -18.5 -47t-46.5 -19q-27 0 -44 18.5t-17 45.5q0 29 18 48t46 19t45 -18t17 -47zM506 830q0 -28 -18.5 -47t-46.5 -19q-27 0 -44.5 18.5t-17.5 45.5
q0 29 18 48t46 19t45.5 -18t17.5 -47z" />
    <glyph glyph-name="Aring" unicode="&#xc5;" horiz-adv-x="701" 
d="M179 0h-174l267 706h156l269 -706h-169l-61 158h-229zM278 291h148q-59 162 -74 213q-6 -21 -74 -213zM447 842q0 -40 -28.5 -67.5t-70.5 -27.5q-40 0 -67 27t-27 68q0 43 27.5 69.5t70.5 26.5t69 -26.5t26 -69.5zM399 843q0 25 -14 39.5t-37 14.5q-21 0 -34.5 -15.5
t-13.5 -39.5q0 -23 13 -38t37 -15q22 0 35.5 15.5t13.5 38.5z" />
    <glyph glyph-name="AE" unicode="&#xc6;" horiz-adv-x="1039" 
d="M193 0h-193l459 706h529v-145h-285v-128h262v-141h-262v-146h304v-146h-466v177h-237zM383 317h158v252q-19 -33 -158 -252z" />
    <glyph glyph-name="Ccedilla" unicode="&#xc7;" horiz-adv-x="669" 
d="M262 -257v69q31 -16 75 -16q48 0 48 41q0 40 -56 40q-25 0 -43 -6l33 124q-126 22 -204.5 116.5t-78.5 239.5q0 166 103 267t257 101q147 0 222 -52v-150q-72 61 -191 61q-100 0 -161 -58.5t-61 -165.5q0 -110 64.5 -167.5t164.5 -57.5q93 0 185 56v-143
q-89 -54 -227 -54q-2 0 -5.5 0.5t-5.5 0.5l-14 -52h8q47 0 72 -26.5t25 -72.5q0 -55 -36.5 -83.5t-98.5 -28.5q-44 0 -75 17z" />
    <glyph glyph-name="Egrave" unicode="&#xc8;" horiz-adv-x="570" 
d="M538 0h-466v706h447v-145h-285v-128h263v-141h-263v-146h304v-146zM399 760h-118l-169 139h156z" />
    <glyph glyph-name="Eacute" unicode="&#xc9;" horiz-adv-x="570" 
d="M538 0h-466v706h447v-145h-285v-128h263v-141h-263v-146h304v-146zM321 750h-117l130 139h157z" />
    <glyph glyph-name="Ecircumflex" unicode="&#xca;" horiz-adv-x="570" 
d="M538 0h-466v706h447v-145h-285v-128h263v-141h-263v-146h304v-146zM224 760h-109l133 139h92l135 -139h-111l-72 56z" />
    <glyph glyph-name="Edieresis" unicode="&#xcb;" horiz-adv-x="570" 
d="M538 0h-466v706h447v-145h-285v-128h263v-141h-263v-146h304v-146zM268 830q0 -28 -18.5 -47t-46.5 -19q-27 0 -44 18.5t-17 45.5q0 29 18 48t46 19t45 -18t17 -47zM453 830q0 -28 -18.5 -47t-46.5 -19q-27 0 -44.5 18.5t-17.5 45.5q0 29 18 48t46 19t45.5 -18t17.5 -47z
" />
    <glyph glyph-name="Igrave" unicode="&#xcc;" horiz-adv-x="308" 
d="M235 0h-163v706h163v-706zM253 760h-118l-169 139h156z" />
    <glyph glyph-name="Iacute" unicode="&#xcd;" horiz-adv-x="308" 
d="M235 0h-163v706h163v-706zM163 750h-117l130 139h157z" />
    <glyph glyph-name="Icircumflex" unicode="&#xce;" horiz-adv-x="308" 
d="M235 0h-163v706h163v-706zM82 760h-109l133 139h92l135 -139h-111l-72 56z" />
    <glyph glyph-name="Idieresis" unicode="&#xcf;" horiz-adv-x="308" 
d="M235 0h-163v706h163v-706zM124 830q0 -28 -18.5 -47t-46.5 -19q-27 0 -44 18.5t-17 45.5q0 29 18 48t46 19t45 -18t17 -47zM309 830q0 -28 -18.5 -47t-46.5 -19q-27 0 -44.5 18.5t-17.5 45.5q0 29 18 48t46 19t45.5 -18t17.5 -47z" />
    <glyph glyph-name="Eth" unicode="&#xd0;" horiz-adv-x="726" 
d="M72 0v317h-62v93h62v296h182q167 0 242 -30q194 -79 194 -315q0 -251 -212 -329q-87 -32 -240 -32h-166zM235 144h46q104 0 147 23q94 49 94 190q0 130 -93 182q-40 23 -139 23h-55v-152h138v-93h-138v-173z" />
    <glyph glyph-name="Ntilde" unicode="&#xd1;" horiz-adv-x="746" 
d="M228 0h-156v706h151q263 -371 300 -428q-4 105 -4 428h155v-706h-139q-276 406 -309 459q2 -57 2 -459zM280 761h-78q7 69 35.5 106.5t70.5 37.5q32 0 80 -30q35 -22 50 -22q25 0 34 52h79q-5 -71 -31.5 -107.5t-69.5 -36.5q-33 0 -84 29q-38 21 -47 21q-30 0 -39 -50z
" />
    <glyph glyph-name="Ograve" unicode="&#xd2;" horiz-adv-x="767" 
d="M731 361q0 -171 -97.5 -272t-255.5 -101q-153 0 -247.5 100t-94.5 265q0 164 98 265t255 101q156 0 249 -99.5t93 -258.5zM563 351q0 111 -47.5 168.5t-127.5 57.5q-82 0 -132.5 -57t-50.5 -166t49.5 -167t130.5 -58q82 0 130 57t48 165zM499 760h-118l-169 139h156z" />
    <glyph glyph-name="Oacute" unicode="&#xd3;" horiz-adv-x="767" 
d="M731 361q0 -171 -97.5 -272t-255.5 -101q-153 0 -247.5 100t-94.5 265q0 164 98 265t255 101q156 0 249 -99.5t93 -258.5zM563 351q0 111 -47.5 168.5t-127.5 57.5q-82 0 -132.5 -57t-50.5 -166t49.5 -167t130.5 -58q82 0 130 57t48 165zM386 754h-117l130 139h157z" />
    <glyph glyph-name="Ocircumflex" unicode="&#xd4;" horiz-adv-x="767" 
d="M731 361q0 -171 -97.5 -272t-255.5 -101q-153 0 -247.5 100t-94.5 265q0 164 98 265t255 101q156 0 249 -99.5t93 -258.5zM563 351q0 111 -47.5 168.5t-127.5 57.5q-82 0 -132.5 -57t-50.5 -166t49.5 -167t130.5 -58q82 0 130 57t48 165zM318 760h-109l133 139h92
l135 -139h-111l-72 56z" />
    <glyph glyph-name="Otilde" unicode="&#xd5;" horiz-adv-x="767" 
d="M731 361q0 -171 -97.5 -272t-255.5 -101q-153 0 -247.5 100t-94.5 265q0 164 98 265t255 101q156 0 249 -99.5t93 -258.5zM563 351q0 111 -47.5 168.5t-127.5 57.5q-82 0 -132.5 -57t-50.5 -166t49.5 -167t130.5 -58q82 0 130 57t48 165zM290 761h-78q7 69 35.5 106.5
t70.5 37.5q32 0 80 -30q35 -22 50 -22q25 0 34 52h79q-5 -71 -31.5 -107.5t-69.5 -36.5q-33 0 -84 29q-38 21 -47 21q-30 0 -39 -50z" />
    <glyph glyph-name="Odieresis" unicode="&#xd6;" horiz-adv-x="767" 
d="M731 361q0 -171 -97.5 -272t-255.5 -101q-153 0 -247.5 100t-94.5 265q0 164 98 265t255 101q156 0 249 -99.5t93 -258.5zM563 351q0 111 -47.5 168.5t-127.5 57.5q-82 0 -132.5 -57t-50.5 -166t49.5 -167t130.5 -58q82 0 130 57t48 165zM358 830q0 -28 -18.5 -47
t-46.5 -19q-27 0 -44 18.5t-17 45.5q0 29 18 48t46 19t45 -18t17 -47zM543 830q0 -28 -18.5 -47t-46.5 -19q-27 0 -44.5 18.5t-17.5 45.5q0 29 18 48t46 19t45.5 -18t17.5 -47z" />
    <glyph glyph-name="multiply" unicode="&#xd7;" horiz-adv-x="701" 
d="M191 68l-67 68l160 162l-161 161l68 69l159 -163l162 162l66 -68l-161 -161l160 -160l-67 -68l-160 159z" />
    <glyph glyph-name="Oslash" unicode="&#xd8;" horiz-adv-x="767" 
d="M143 -49l-59 38l60 86q-108 102 -108 278q0 164 98 265t255 101q98 0 174 -42l57 81l58 -39l-58 -82q111 -100 111 -276q0 -171 -97.5 -272t-255.5 -101q-100 0 -178 45zM563 351q0 94 -36 152l-240 -346q40 -28 98 -28q82 0 130 57t48 165zM205 354q0 -90 33 -144
l239 343q-38 24 -89 24q-82 0 -132.5 -57t-50.5 -166z" />
    <glyph glyph-name="Ugrave" unicode="&#xd9;" horiz-adv-x="737" 
d="M66 706h162v-403q0 -68 13 -103q27 -71 128 -71q103 0 129 76q12 35 12 102v399h162v-404q0 -110 -34 -178q-30 -65 -100.5 -100.5t-172.5 -35.5q-199 0 -265 129q-34 66 -34 179v410zM477 760h-118l-169 139h156z" />
    <glyph glyph-name="Uacute" unicode="&#xda;" horiz-adv-x="737" 
d="M66 706h162v-403q0 -68 13 -103q27 -71 128 -71q103 0 129 76q12 35 12 102v399h162v-404q0 -110 -34 -178q-30 -65 -100.5 -100.5t-172.5 -35.5q-199 0 -265 129q-34 66 -34 179v410zM382 750h-117l130 139h157z" />
    <glyph glyph-name="Ucircumflex" unicode="&#xdb;" horiz-adv-x="737" 
d="M66 706h162v-403q0 -68 13 -103q27 -71 128 -71q103 0 129 76q12 35 12 102v399h162v-404q0 -110 -34 -178q-30 -65 -100.5 -100.5t-172.5 -35.5q-199 0 -265 129q-34 66 -34 179v410zM300 760h-109l133 139h92l135 -139h-111l-72 56z" />
    <glyph glyph-name="Udieresis" unicode="&#xdc;" horiz-adv-x="737" 
d="M66 706h162v-403q0 -68 13 -103q27 -71 128 -71q103 0 129 76q12 35 12 102v399h162v-404q0 -110 -34 -178q-30 -65 -100.5 -100.5t-172.5 -35.5q-199 0 -265 129q-34 66 -34 179v410zM342 830q0 -28 -18.5 -47t-46.5 -19q-27 0 -44 18.5t-17 45.5q0 29 18 48t46 19
t45 -18t17 -47zM527 830q0 -28 -18.5 -47t-46.5 -19q-27 0 -44.5 18.5t-17.5 45.5q0 29 18 48t46 19t45.5 -18t17.5 -47z" />
    <glyph glyph-name="Yacute" unicode="&#xdd;" horiz-adv-x="687" 
d="M424 0h-163v288l-257 418h191q96 -162 151 -264q42 77 165 264h173l-260 -418v-288zM367 759h-117l130 139h157z" />
    <glyph glyph-name="Thorn" unicode="&#xde;" horiz-adv-x="635" 
d="M235 0h-163v706h163v-108h46q103 0 154 -13q165 -40 165 -218q0 -154 -129 -211q-72 -30 -187 -30h-49v-126zM235 255h45q59 0 98 14q54 22 54 88q0 76 -70 93q-29 8 -90 8h-37v-203z" />
    <glyph glyph-name="germandbls" unicode="&#xdf;" horiz-adv-x="602" 
d="M212 0h-148v459q0 131 34 191q28 49 83.5 77.5t128.5 28.5q102 0 158 -56.5t56 -140.5q0 -69 -28 -111t-92 -66q77 -6 123 -52.5t46 -135.5q0 -92 -51.5 -149t-144.5 -57q-78 0 -121 23v122q38 -23 87 -23q83 0 83 97q0 52 -31 77t-97 25h-16v125h15q86 0 86 104
q0 44 -21 69t-58 25q-50 0 -73 -33q-19 -27 -19 -117v-482z" />
    <glyph glyph-name="agrave" unicode="&#xe0;" horiz-adv-x="524" 
d="M465 0h-140v47q-53 -57 -135 -57q-69 0 -111.5 42.5t-42.5 106.5q0 79 64 116q68 40 221 50v10q0 32 -13 52q-18 25 -64 25q-96 0 -175 -58v121q36 30 89.5 47t103.5 17q140 0 184 -93q19 -41 19 -138v-288zM321 123v95q-87 -6 -121 -28q-24 -15 -24 -43q0 -52 63 -52
q44 0 82 28zM341 577h-104l-151 172h142z" />
    <glyph glyph-name="aacute" unicode="&#xe1;" horiz-adv-x="524" 
d="M465 0h-140v47q-53 -57 -135 -57q-69 0 -111.5 42.5t-42.5 106.5q0 79 64 116q68 40 221 50v10q0 32 -13 52q-18 25 -64 25q-96 0 -175 -58v121q36 30 89.5 47t103.5 17q140 0 184 -93q19 -41 19 -138v-288zM321 123v95q-87 -6 -121 -28q-24 -15 -24 -43q0 -52 63 -52
q44 0 82 28zM276 577h-103l112 172h143z" />
    <glyph glyph-name="acircumflex" unicode="&#xe2;" horiz-adv-x="524" 
d="M465 0h-140v47q-53 -57 -135 -57q-69 0 -111.5 42.5t-42.5 106.5q0 79 64 116q68 40 221 50v10q0 32 -13 52q-18 25 -64 25q-96 0 -175 -58v121q36 30 89.5 47t103.5 17q140 0 184 -93q19 -41 19 -138v-288zM321 123v95q-87 -6 -121 -28q-24 -15 -24 -43q0 -52 63 -52
q44 0 82 28zM198 575h-99l127 170h80l126 -170h-100l-68 76z" />
    <glyph glyph-name="atilde" unicode="&#xe3;" horiz-adv-x="524" 
d="M465 0h-140v47q-53 -57 -135 -57q-69 0 -111.5 42.5t-42.5 106.5q0 79 64 116q68 40 221 50v10q0 32 -13 52q-18 25 -64 25q-96 0 -175 -58v121q36 30 89.5 47t103.5 17q140 0 184 -93q19 -41 19 -138v-288zM321 123v95q-87 -6 -121 -28q-24 -15 -24 -43q0 -52 63 -52
q44 0 82 28zM168 592h-78q4 69 33 107t70 38q26 0 74 -30q34 -22 48 -22q26 0 32 52h74q-2 -70 -28 -107.5t-67 -37.5q-33 0 -78 29q-34 22 -48 22q-23 0 -32 -51z" />
    <glyph glyph-name="adieresis" unicode="&#xe4;" horiz-adv-x="524" 
d="M465 0h-140v47q-53 -57 -135 -57q-69 0 -111.5 42.5t-42.5 106.5q0 79 64 116q68 40 221 50v10q0 32 -13 52q-18 25 -64 25q-96 0 -175 -58v121q36 30 89.5 47t103.5 17q140 0 184 -93q19 -41 19 -138v-288zM321 123v95q-87 -6 -121 -28q-24 -15 -24 -43q0 -52 63 -52
q44 0 82 28zM239 660q0 -28 -18.5 -46.5t-46.5 -18.5q-27 0 -44.5 18.5t-17.5 45.5q0 29 18 47.5t46 18.5t45.5 -18t17.5 -47zM416 660q0 -28 -18.5 -46.5t-46.5 -18.5q-27 0 -44.5 18.5t-17.5 45.5q0 29 18 47.5t46 18.5t45.5 -18t17.5 -47z" />
    <glyph glyph-name="aring" unicode="&#xe5;" horiz-adv-x="524" 
d="M465 0h-140v47q-53 -57 -135 -57q-69 0 -111.5 42.5t-42.5 106.5q0 79 64 116q68 40 221 50v10q0 32 -13 52q-18 25 -64 25q-96 0 -175 -58v121q36 30 89.5 47t103.5 17q140 0 184 -93q19 -41 19 -138v-288zM321 123v95q-87 -6 -121 -28q-24 -15 -24 -43q0 -52 63 -52
q44 0 82 28zM362 671q0 -42 -29.5 -70.5t-73.5 -28.5q-43 0 -71 28.5t-28 70.5q0 44 28.5 72t73.5 28q44 0 72 -28t28 -72zM313 672q0 26 -15 41.5t-39 15.5q-22 0 -36.5 -16t-14.5 -42q0 -25 14.5 -41.5t39.5 -16.5q23 0 37 17t14 42z" />
    <glyph glyph-name="ae" unicode="&#xe6;" horiz-adv-x="813" 
d="M776 38q-95 -50 -198 -50q-123 0 -187 70q-83 -69 -182 -69q-86 0 -129.5 42t-43.5 107q0 81 67 119q74 42 218 48v13q0 35 -16 54q-17 20 -59 20q-98 0 -177 -57v120q37 29 88.5 46.5t98.5 17.5q109 0 146 -58q55 58 157 58q111 0 166.5 -68t55.5 -185v-46h-316
q2 -29 14 -51q30 -55 130 -55q89 0 167 54v-130zM340 134q-12 29 -15 84q-88 -3 -123 -26q-26 -16 -26 -43q0 -54 64 -54q53 0 100 39zM461 308h182q-5 98 -85 98q-41 0 -68 -25.5t-29 -72.5z" />
    <glyph glyph-name="ccedilla" unicode="&#xe7;" horiz-adv-x="477" 
d="M164 -249v66q30 -15 72 -15q48 0 48 40q0 39 -55 39q-24 0 -42 -6l33 121q-87 20 -137 88t-50 169q0 117 75.5 191.5t192.5 74.5q90 0 143 -40v-136q-58 48 -123 48q-63 0 -98 -37.5t-35 -95.5q0 -64 37 -100t97 -36q58 0 123 40v-135q-61 -39 -154 -39h-12l-13 -49h9
q45 0 69.5 -25.5t24.5 -70.5q0 -54 -35.5 -81.5t-96.5 -27.5q-44 0 -73 17z" />
    <glyph glyph-name="egrave" unicode="&#xe8;" horiz-adv-x="539" 
d="M503 38q-94 -50 -198 -50q-126 0 -199 71t-73 194q0 120 69.5 193t181.5 73q111 0 167 -66.5t56 -183.5v-50h-320q4 -51 42.5 -78t105.5 -27q87 0 168 55v-131zM188 309h181q-2 97 -84 97q-40 0 -68 -26.5t-29 -70.5zM370 577h-104l-151 172h142z" />
    <glyph glyph-name="eacute" unicode="&#xe9;" horiz-adv-x="539" 
d="M503 38q-94 -50 -198 -50q-126 0 -199 71t-73 194q0 120 69.5 193t181.5 73q111 0 167 -66.5t56 -183.5v-50h-320q4 -51 42.5 -78t105.5 -27q87 0 168 55v-131zM188 309h181q-2 97 -84 97q-40 0 -68 -26.5t-29 -70.5zM295 577h-103l112 172h143z" />
    <glyph glyph-name="ecircumflex" unicode="&#xea;" horiz-adv-x="539" 
d="M503 38q-94 -50 -198 -50q-126 0 -199 71t-73 194q0 120 69.5 193t181.5 73q111 0 167 -66.5t56 -183.5v-50h-320q4 -51 42.5 -78t105.5 -27q87 0 168 55v-131zM188 309h181q-2 97 -84 97q-40 0 -68 -26.5t-29 -70.5zM217 575h-99l127 170h80l126 -170h-100l-68 76z" />
    <glyph glyph-name="edieresis" unicode="&#xeb;" horiz-adv-x="539" 
d="M503 38q-94 -50 -198 -50q-126 0 -199 71t-73 194q0 120 69.5 193t181.5 73q111 0 167 -66.5t56 -183.5v-50h-320q4 -51 42.5 -78t105.5 -27q87 0 168 55v-131zM188 309h181q-2 97 -84 97q-40 0 -68 -26.5t-29 -70.5zM258 660q0 -28 -18.5 -46.5t-46.5 -18.5
q-27 0 -44.5 18.5t-17.5 45.5q0 29 18 47.5t46 18.5t45.5 -18t17.5 -47zM435 660q0 -28 -18.5 -46.5t-46.5 -18.5q-27 0 -44.5 18.5t-17.5 45.5q0 29 18 47.5t46 18.5t45.5 -18t17.5 -47z" />
    <glyph glyph-name="igrave" unicode="&#xec;" horiz-adv-x="275" 
d="M232 577h-104l-151 172h142zM212 0h-148v506h148v-506z" />
    <glyph glyph-name="iacute" unicode="&#xed;" horiz-adv-x="275" 
d="M153 577h-103l112 172h143zM212 0h-148v506h148v-506z" />
    <glyph glyph-name="icircumflex" unicode="&#xee;" horiz-adv-x="275" 
d="M212 0h-148v506h148v-506zM70 575h-99l127 170h80l126 -170h-100l-68 76z" />
    <glyph glyph-name="idieresis" unicode="&#xef;" horiz-adv-x="275" 
d="M112 660q0 -28 -18.5 -46.5t-46.5 -18.5q-27 0 -44.5 18.5t-17.5 45.5q0 29 18 47.5t46 18.5t45.5 -18t17.5 -47zM289 660q0 -28 -18.5 -46.5t-46.5 -18.5q-27 0 -44.5 18.5t-17.5 45.5q0 29 18 47.5t46 18.5t45.5 -18t17.5 -47zM212 0h-148v506h148v-506z" />
    <glyph glyph-name="eth" unicode="&#xf0;" horiz-adv-x="597" 
d="M488 675l-71 -47q126 -144 126 -350q0 -141 -72.5 -215.5t-183.5 -74.5q-107 0 -180.5 68t-73.5 194q0 118 66.5 180t159.5 62q83 0 120 -48q-13 62 -61 120l-73 -48l-38 61l59 38q-45 38 -97 59l44 85q83 -21 151 -79l86 56zM395 252q0 69 -28.5 102.5t-77.5 33.5
q-46 0 -76.5 -35t-30.5 -100q0 -67 29.5 -102.5t77.5 -35.5t77 35t29 102z" />
    <glyph glyph-name="ntilde" unicode="&#xf1;" horiz-adv-x="588" 
d="M211 0h-147v506h144v-54q25 30 68 48t89 18q121 0 152 -110q11 -43 11 -133v-275h-149v269q0 62 -8 86q-12 38 -64 38q-28 0 -55 -14.5t-41 -38.5v-340zM204 592h-78q4 69 33 107t70 38q26 0 74 -30q34 -22 48 -22q26 0 32 52h74q-2 -70 -28 -107.5t-67 -37.5
q-33 0 -78 29q-34 22 -48 22q-23 0 -32 -51z" />
    <glyph glyph-name="ograve" unicode="&#xf2;" horiz-adv-x="577" 
d="M543 258q0 -124 -69 -197t-186 -73q-118 0 -186.5 71.5t-68.5 190.5q0 118 71.5 193.5t187.5 75.5q114 0 182.5 -71.5t68.5 -189.5zM395 254q0 139 -104 139q-49 0 -79 -36t-30 -106q0 -67 29 -102t78 -35q106 0 106 140zM376 577h-104l-151 172h142z" />
    <glyph glyph-name="oacute" unicode="&#xf3;" horiz-adv-x="577" 
d="M543 258q0 -124 -69 -197t-186 -73q-118 0 -186.5 71.5t-68.5 190.5q0 118 71.5 193.5t187.5 75.5q114 0 182.5 -71.5t68.5 -189.5zM395 254q0 139 -104 139q-49 0 -79 -36t-30 -106q0 -67 29 -102t78 -35q106 0 106 140zM293 577h-103l112 172h143z" />
    <glyph glyph-name="ocircumflex" unicode="&#xf4;" horiz-adv-x="577" 
d="M543 258q0 -124 -69 -197t-186 -73q-118 0 -186.5 71.5t-68.5 190.5q0 118 71.5 193.5t187.5 75.5q114 0 182.5 -71.5t68.5 -189.5zM395 254q0 139 -104 139q-49 0 -79 -36t-30 -106q0 -67 29 -102t78 -35q106 0 106 140zM220 575h-99l127 170h80l126 -170h-100l-68 76z
" />
    <glyph glyph-name="otilde" unicode="&#xf5;" horiz-adv-x="577" 
d="M543 258q0 -124 -69 -197t-186 -73q-118 0 -186.5 71.5t-68.5 190.5q0 118 71.5 193.5t187.5 75.5q114 0 182.5 -71.5t68.5 -189.5zM395 254q0 139 -104 139q-49 0 -79 -36t-30 -106q0 -67 29 -102t78 -35q106 0 106 140zM201 592h-78q4 69 33 107t70 38q26 0 74 -30
q34 -22 48 -22q26 0 32 52h74q-2 -70 -28 -107.5t-67 -37.5q-33 0 -78 29q-34 22 -48 22q-23 0 -32 -51z" />
    <glyph glyph-name="odieresis" unicode="&#xf6;" horiz-adv-x="577" 
d="M543 258q0 -124 -69 -197t-186 -73q-118 0 -186.5 71.5t-68.5 190.5q0 118 71.5 193.5t187.5 75.5q114 0 182.5 -71.5t68.5 -189.5zM395 254q0 139 -104 139q-49 0 -79 -36t-30 -106q0 -67 29 -102t78 -35q106 0 106 140zM263 660q0 -28 -18.5 -46.5t-46.5 -18.5
q-27 0 -44.5 18.5t-17.5 45.5q0 29 18 47.5t46 18.5t45.5 -18t17.5 -47zM440 660q0 -28 -18.5 -46.5t-46.5 -18.5q-27 0 -44.5 18.5t-17.5 45.5q0 29 18 47.5t46 18.5t45.5 -18t17.5 -47z" />
    <glyph glyph-name="divide" unicode="&#xf7;" horiz-adv-x="701" 
d="M601 247h-501v96h501v-96zM415 465q0 -29 -19 -48.5t-48 -19.5q-27 0 -45 19.5t-18 46.5q0 30 18.5 49.5t46.5 19.5q29 0 47 -18.5t18 -48.5zM415 125q0 -29 -19 -49.5t-48 -20.5q-27 0 -45 19.5t-18 47.5q0 30 18.5 49.5t46.5 19.5t46.5 -18.5t18.5 -47.5z" />
    <glyph glyph-name="oslash" unicode="&#xf8;" horiz-adv-x="577" 
d="M113 -56l-56 38l50 72q-74 71 -74 196q0 118 71.5 193t187.5 75q66 0 119 -25l50 72l56 -38l-50 -73q76 -71 76 -196q0 -124 -69 -197t-186 -73q-69 0 -126 27zM395 254q0 46 -13 78l-143 -206q19 -11 50 -11q106 0 106 139zM182 251q0 -41 11 -72l142 204q-19 9 -44 9
q-49 0 -79 -36t-30 -105z" />
    <glyph glyph-name="ugrave" unicode="&#xf9;" horiz-adv-x="588" 
d="M525 0h-148v53q-59 -65 -150 -65q-107 0 -141 76q-25 53 -25 167v275h147v-268q0 -57 7 -77q15 -48 70 -48q53 0 91 52v341h149v-506zM383 577h-104l-151 172h142z" />
    <glyph glyph-name="uacute" unicode="&#xfa;" horiz-adv-x="588" 
d="M525 0h-148v53q-59 -65 -150 -65q-107 0 -141 76q-25 53 -25 167v275h147v-268q0 -57 7 -77q15 -48 70 -48q53 0 91 52v341h149v-506zM311 577h-103l112 172h143z" />
    <glyph glyph-name="ucircumflex" unicode="&#xfb;" horiz-adv-x="588" 
d="M525 0h-148v53q-59 -65 -150 -65q-107 0 -141 76q-25 53 -25 167v275h147v-268q0 -57 7 -77q15 -48 70 -48q53 0 91 52v341h149v-506zM231 575h-99l127 170h80l126 -170h-100l-68 76z" />
    <glyph glyph-name="udieresis" unicode="&#xfc;" horiz-adv-x="588" 
d="M525 0h-148v53q-59 -65 -150 -65q-107 0 -141 76q-25 53 -25 167v275h147v-268q0 -57 7 -77q15 -48 70 -48q53 0 91 52v341h149v-506zM277 660q0 -28 -18.5 -46.5t-46.5 -18.5q-27 0 -44.5 18.5t-17.5 45.5q0 29 18 47.5t46 18.5t45.5 -18t17.5 -47zM454 660
q0 -28 -18.5 -46.5t-46.5 -18.5q-27 0 -44.5 18.5t-17.5 45.5q0 29 18 47.5t46 18.5t45.5 -18t17.5 -47z" />
    <glyph glyph-name="yacute" unicode="&#xfd;" horiz-adv-x="560" 
d="M275 -237h-158l97 253l-210 490h165q99 -248 119 -312q17 54 110 312h157zM308 577h-103l112 172h143z" />
    <glyph glyph-name="thorn" unicode="&#xfe;" horiz-adv-x="587" 
d="M212 -237h-148v984h147v-283q21 23 57 38.5t73 15.5q100 0 156.5 -69t56.5 -184q0 -124 -64.5 -199t-174.5 -75q-65 0 -103 24v-252zM212 139q11 -15 33 -24t43 -9q54 0 82.5 42t28.5 111q0 67 -26.5 105t-75.5 38q-25 0 -49.5 -13.5t-35.5 -32.5v-217z" />
    <glyph glyph-name="ydieresis" unicode="&#xff;" horiz-adv-x="560" 
d="M275 -237h-158l97 253l-210 490h165q99 -248 119 -312q17 54 110 312h157zM258 660q0 -28 -18.5 -46.5t-46.5 -18.5q-27 0 -44.5 18.5t-17.5 45.5q0 29 18 47.5t46 18.5t45.5 -18t17.5 -47zM435 660q0 -28 -18.5 -46.5t-46.5 -18.5q-27 0 -44.5 18.5t-17.5 45.5
q0 29 18 47.5t46 18.5t45.5 -18t17.5 -47z" />
    <glyph glyph-name="Amacron" unicode="&#x100;" horiz-adv-x="701" 
d="M177 0h-174l267 706h156l269 -706h-169l-61 158h-229zM276 291h148q-59 162 -74 213q-6 -21 -74 -213zM491 782h-284v89h284v-89z" />
    <glyph glyph-name="amacron" unicode="&#x101;" horiz-adv-x="524" 
d="M465 0h-140v47q-53 -57 -135 -57q-69 0 -111.5 42.5t-42.5 106.5q0 79 64 116q68 40 221 50v10q0 32 -13 52q-18 25 -64 25q-96 0 -175 -58v121q36 30 89.5 47t103.5 17q140 0 184 -93q19 -41 19 -138v-288zM321 123v95q-87 -6 -121 -28q-24 -15 -24 -43q0 -52 63 -52
q44 0 82 28zM403 605h-276v91h276v-91z" />
    <glyph glyph-name="Abreve" unicode="&#x102;" horiz-adv-x="701" 
d="M177 0h-174l267 706h156l269 -706h-169l-61 158h-229zM276 291h148q-59 162 -74 213q-6 -21 -74 -213zM195 909h79q8 -71 73 -71q70 0 77 71h80q-2 -68 -41.5 -111t-116.5 -43q-74 0 -111.5 41.5t-39.5 112.5z" />
    <glyph glyph-name="abreve" unicode="&#x103;" horiz-adv-x="524" 
d="M465 0h-140v47q-53 -57 -135 -57q-69 0 -111.5 42.5t-42.5 106.5q0 79 64 116q68 40 221 50v10q0 32 -13 52q-18 25 -64 25q-96 0 -175 -58v121q36 30 89.5 47t103.5 17q140 0 184 -93q19 -41 19 -138v-288zM321 123v95q-87 -6 -121 -28q-24 -15 -24 -43q0 -52 63 -52
q44 0 82 28zM115 726h75q3 -40 22.5 -58.5t46.5 -18.5q67 0 74 77h74q-2 -70 -39 -115.5t-110 -45.5q-70 0 -105.5 44.5t-37.5 116.5z" />
    <glyph glyph-name="Aogonek" unicode="&#x104;" horiz-adv-x="701" 
d="M179 0h-174l267 706h156l269 -706h-80q-96 -69 -96 -135q0 -27 16 -44t44 -17q35 0 65 15v-67q-37 -24 -85 -24q-62 0 -95.5 30.5t-33.5 90.5q0 90 105 151h-9l-61 158h-229zM278 291h148q-59 162 -74 213q-6 -21 -74 -213z" />
    <glyph glyph-name="aogonek" unicode="&#x105;" horiz-adv-x="524" 
d="M465 0h-55q-90 -65 -90 -128q0 -26 15.5 -42.5t41.5 -16.5q34 0 64 15v-65q-34 -23 -82 -23q-60 0 -93 29.5t-33 86.5q0 85 97 144h-5v47q-53 -57 -135 -57q-69 0 -111.5 42.5t-42.5 106.5q0 79 64 116q68 40 221 50v10q0 32 -13 52q-18 25 -64 25q-96 0 -175 -58v121
q36 30 89.5 47t103.5 17q140 0 184 -93q19 -41 19 -138v-288zM321 123v95q-87 -6 -121 -28q-24 -15 -24 -43q0 -52 63 -52q44 0 82 28z" />
    <glyph glyph-name="Cacute" unicode="&#x106;" horiz-adv-x="669" 
d="M619 42q-89 -54 -227 -54q-154 0 -255 98.5t-101 264.5t103 267t257 101q147 0 222 -52v-150q-72 61 -191 61q-100 0 -161 -58.5t-61 -165.5q0 -110 64.5 -167.5t164.5 -57.5q93 0 185 56v-143zM388 757h-117l130 139h157z" />
    <glyph glyph-name="cacute" unicode="&#x107;" horiz-adv-x="477" 
d="M445 27q-61 -39 -154 -39q-117 0 -187.5 72t-70.5 193q0 117 75.5 191.5t192.5 74.5q90 0 143 -40v-136q-58 48 -123 48q-63 0 -98 -37.5t-35 -95.5q0 -64 37 -100t97 -36q58 0 123 40v-135zM290 577h-103l112 172h143z" />
    <glyph glyph-name="Ccircumflex" unicode="&#x108;" horiz-adv-x="669" 
d="M619 42q-89 -54 -227 -54q-154 0 -255 98.5t-101 264.5t103 267t257 101q147 0 222 -52v-150q-72 61 -191 61q-100 0 -161 -58.5t-61 -165.5q0 -110 64.5 -167.5t164.5 -57.5q93 0 185 56v-143zM321 760h-109l133 139h92l135 -139h-111l-72 56z" />
    <glyph glyph-name="ccircumflex" unicode="&#x109;" horiz-adv-x="477" 
d="M445 27q-61 -39 -154 -39q-117 0 -187.5 72t-70.5 193q0 117 75.5 191.5t192.5 74.5q90 0 143 -40v-136q-58 48 -123 48q-63 0 -98 -37.5t-35 -95.5q0 -64 37 -100t97 -36q58 0 123 40v-135zM213 575h-99l127 170h80l126 -170h-100l-68 76z" />
    <glyph glyph-name="Cdotaccent" unicode="&#x10a;" horiz-adv-x="669" 
d="M619 42q-89 -54 -227 -54q-154 0 -255 98.5t-101 264.5t103 267t257 101q147 0 222 -52v-150q-72 61 -191 61q-100 0 -161 -58.5t-61 -165.5q0 -110 64.5 -167.5t164.5 -57.5q93 0 185 56v-143zM418 830q0 -28 -18.5 -47t-46.5 -19q-27 0 -44.5 18.5t-17.5 45.5
q0 29 18 48t46 19t45.5 -18t17.5 -47z" />
    <glyph glyph-name="cdotaccent" unicode="&#x10b;" horiz-adv-x="477" 
d="M445 27q-61 -39 -154 -39q-117 0 -187.5 72t-70.5 193q0 117 75.5 191.5t192.5 74.5q90 0 143 -40v-136q-58 48 -123 48q-63 0 -98 -37.5t-35 -95.5q0 -64 37 -100t97 -36q58 0 123 40v-135zM328 660q0 -28 -18.5 -46.5t-46.5 -18.5q-27 0 -44 18t-17 46q0 29 18 47.5
t46 18.5t45 -18t17 -47z" />
    <glyph glyph-name="Ccaron" unicode="&#x10c;" horiz-adv-x="669" 
d="M619 42q-89 -54 -227 -54q-154 0 -255 98.5t-101 264.5t103 267t257 101q147 0 222 -52v-150q-72 61 -191 61q-100 0 -161 -58.5t-61 -165.5q0 -110 64.5 -167.5t164.5 -57.5q93 0 185 56v-143zM427 899h110l-134 -139h-92l-134 139h111l71 -56z" />
    <glyph glyph-name="ccaron" unicode="&#x10d;" horiz-adv-x="477" 
d="M445 27q-61 -39 -154 -39q-117 0 -187.5 72t-70.5 193q0 117 75.5 191.5t192.5 74.5q90 0 143 -40v-136q-58 48 -123 48q-63 0 -98 -37.5t-35 -95.5q0 -64 37 -100t97 -36q58 0 123 40v-135zM344 747h99l-127 -170h-80l-126 170h99l69 -76z" />
    <glyph glyph-name="Dcaron" unicode="&#x10e;" horiz-adv-x="726" 
d="M72 0v706h182q167 0 242 -30q194 -79 194 -315q0 -251 -212 -329q-87 -32 -240 -32h-166zM235 144h46q104 0 147 23q94 49 94 190q0 130 -93 182q-40 23 -139 23h-55v-418zM379 899h110l-134 -139h-92l-134 139h111l71 -56z" />
    <glyph glyph-name="dcaron" unicode="&#x10f;" horiz-adv-x="598" 
d="M533 0h-145v45q-51 -57 -144 -57q-96 0 -154 70t-58 184q0 123 65 199.5t176 76.5q78 0 112 -34v263h148v-747zM385 148v216q-24 39 -85 39q-50 0 -82 -40t-32 -114t29 -109.5t74 -35.5q59 0 96 44zM658 505h-89q66 103 66 243h109q0 -146 -86 -243z" />
    <glyph glyph-name="Dcroat" unicode="&#x110;" horiz-adv-x="726" 
d="M72 0v317h-62v93h62v296h182q167 0 242 -30q194 -79 194 -315q0 -251 -212 -329q-87 -32 -240 -32h-166zM235 144h46q104 0 147 23q94 49 94 190q0 130 -93 182q-40 23 -139 23h-55v-152h138v-93h-138v-173z" />
    <glyph glyph-name="dcroat" unicode="&#x111;" horiz-adv-x="598" 
d="M533 0h-145v45q-51 -57 -144 -57q-96 0 -154 70t-58 184q0 123 65 199.5t176 76.5q78 0 112 -34v84h-118v90h118v89h148v-89h55v-90h-55v-568zM385 148v216q-24 39 -85 39q-50 0 -82 -40t-32 -114t29 -109.5t74 -35.5q59 0 96 44z" />
    <glyph glyph-name="Emacron" unicode="&#x112;" horiz-adv-x="570" 
d="M538 0h-466v706h447v-145h-285v-128h263v-141h-263v-146h304v-146zM435 782h-284v89h284v-89z" />
    <glyph glyph-name="emacron" unicode="&#x113;" horiz-adv-x="539" 
d="M503 38q-94 -50 -198 -50q-126 0 -199 71t-73 194q0 120 69.5 193t181.5 73q111 0 167 -66.5t56 -183.5v-50h-320q4 -51 42.5 -78t105.5 -27q87 0 168 55v-131zM188 309h181q-2 97 -84 97q-40 0 -68 -26.5t-29 -70.5zM420 605h-276v91h276v-91z" />
    <glyph glyph-name="Ebreve" unicode="&#x114;" horiz-adv-x="570" 
d="M538 0h-466v706h447v-145h-285v-128h263v-141h-263v-146h304v-146zM145 909h79q8 -71 73 -71q70 0 77 71h80q-2 -68 -41.5 -111t-116.5 -43q-74 0 -111.5 41.5t-39.5 112.5z" />
    <glyph glyph-name="ebreve" unicode="&#x115;" horiz-adv-x="539" 
d="M503 38q-94 -50 -198 -50q-126 0 -199 71t-73 194q0 120 69.5 193t181.5 73q111 0 167 -66.5t56 -183.5v-50h-320q4 -51 42.5 -78t105.5 -27q87 0 168 55v-131zM188 309h181q-2 97 -84 97q-40 0 -68 -26.5t-29 -70.5zM133 726h75q3 -40 22.5 -58.5t46.5 -18.5q67 0 74 77
h74q-2 -70 -39 -115.5t-110 -45.5q-70 0 -105.5 44.5t-37.5 116.5z" />
    <glyph glyph-name="Edotaccent" unicode="&#x116;" horiz-adv-x="570" 
d="M538 0h-466v706h447v-145h-285v-128h263v-141h-263v-146h304v-146zM363 830q0 -28 -18.5 -47t-46.5 -19q-27 0 -44.5 18.5t-17.5 45.5q0 29 18 48t46 19t45.5 -18t17.5 -47z" />
    <glyph glyph-name="edotaccent" unicode="&#x117;" horiz-adv-x="539" 
d="M503 38q-94 -50 -198 -50q-126 0 -199 71t-73 194q0 120 69.5 193t181.5 73q111 0 167 -66.5t56 -183.5v-50h-320q4 -51 42.5 -78t105.5 -27q87 0 168 55v-131zM188 309h181q-2 97 -84 97q-40 0 -68 -26.5t-29 -70.5zM344 660q0 -28 -18.5 -46.5t-46.5 -18.5
q-27 0 -44 18t-17 46q0 29 18 47.5t46 18.5t45 -18t17 -47z" />
    <glyph glyph-name="Eogonek" unicode="&#x118;" horiz-adv-x="570" 
d="M538 0h-36q-96 -69 -96 -135q0 -27 16 -44t44 -17q35 0 65 15v-67q-37 -24 -85 -24q-62 0 -95.5 30.5t-33.5 90.5q0 90 105 151h-350v706h447v-145h-285v-128h263v-141h-263v-146h304v-146z" />
    <glyph glyph-name="eogonek" unicode="&#x119;" horiz-adv-x="539" 
d="M503 38q-36 -20 -84 -35q-95 -66 -95 -131q0 -26 15.5 -42.5t41.5 -16.5q34 0 64 15v-65q-34 -23 -82 -23q-60 0 -93 29.5t-33 86.5q0 76 79 132h-11q-126 0 -199 71t-73 194q0 120 69.5 193t181.5 73q111 0 167 -66.5t56 -183.5v-50h-320q4 -51 42.5 -78t105.5 -27
q87 0 168 55v-131zM188 309h181q-2 97 -84 97q-40 0 -68 -26.5t-29 -70.5z" />
    <glyph glyph-name="Ecaron" unicode="&#x11a;" horiz-adv-x="570" 
d="M538 0h-466v706h447v-145h-285v-128h263v-141h-263v-146h304v-146zM363 899h110l-134 -139h-92l-134 139h111l71 -56z" />
    <glyph glyph-name="ecaron" unicode="&#x11b;" horiz-adv-x="539" 
d="M503 38q-94 -50 -198 -50q-126 0 -199 71t-73 194q0 120 69.5 193t181.5 73q111 0 167 -66.5t56 -183.5v-50h-320q4 -51 42.5 -78t105.5 -27q87 0 168 55v-131zM188 309h181q-2 97 -84 97q-40 0 -68 -26.5t-29 -70.5zM346 747h99l-127 -170h-80l-126 170h99l69 -76z" />
    <glyph glyph-name="Gcircumflex" unicode="&#x11c;" horiz-adv-x="724" 
d="M667 50q-45 -26 -118 -44t-154 -18q-159 0 -259 100t-100 264q0 166 103 266.5t258 100.5q159 0 239 -55v-151q-78 65 -207 65q-99 0 -161.5 -59t-62.5 -166q0 -108 61 -165.5t154 -57.5q53 0 91 17v96h-117v147h273v-340zM318 760h-109l133 139h92l135 -139h-111l-72 56
z" />
    <glyph glyph-name="gcircumflex" unicode="&#x11d;" horiz-adv-x="539" 
d="M153 165q-59 20 -88.5 62.5t-29.5 99.5q0 87 60.5 139t164.5 52q52 0 93 -12h175v-117h-70q17 -27 17 -59q0 -95 -78 -139q-42 -25 -125 -41q-50 -8 -50 -36q0 -18 28 -24q19 -3 74 -8.5t83 -10.5q117 -21 117 -131q0 -84 -77.5 -136t-204.5 -52q-106 0 -167.5 36
t-61.5 100q0 45 30.5 73.5t93.5 46.5q-62 17 -62 67q0 56 78 90zM335 327q0 83 -80 83q-36 0 -58 -22.5t-22 -60.5t21.5 -59t57.5 -21q37 0 59 20t22 60zM371 -82q0 31 -42 44q-27 9 -79 9q-41 0 -67 -15t-26 -44q0 -24 27.5 -39.5t72.5 -15.5q52 0 83 16.5t31 44.5z
M190 575h-99l127 170h80l126 -170h-100l-68 76z" />
    <glyph glyph-name="Gbreve" unicode="&#x11e;" horiz-adv-x="724" 
d="M667 50q-45 -26 -118 -44t-154 -18q-159 0 -259 100t-100 264q0 166 103 266.5t258 100.5q159 0 239 -55v-151q-78 65 -207 65q-99 0 -161.5 -59t-62.5 -166q0 -108 61 -165.5t154 -57.5q53 0 91 17v96h-117v147h273v-340zM221 909h79q8 -71 73 -71q70 0 77 71h80
q-2 -68 -41.5 -111t-116.5 -43q-74 0 -111.5 41.5t-39.5 112.5z" />
    <glyph glyph-name="gbreve" unicode="&#x11f;" horiz-adv-x="539" 
d="M153 165q-59 20 -88.5 62.5t-29.5 99.5q0 87 60.5 139t164.5 52q52 0 93 -12h175v-117h-70q17 -27 17 -59q0 -95 -78 -139q-42 -25 -125 -41q-50 -8 -50 -36q0 -18 28 -24q19 -3 74 -8.5t83 -10.5q117 -21 117 -131q0 -84 -77.5 -136t-204.5 -52q-106 0 -167.5 36
t-61.5 100q0 45 30.5 73.5t93.5 46.5q-62 17 -62 67q0 56 78 90zM335 327q0 83 -80 83q-36 0 -58 -22.5t-22 -60.5t21.5 -59t57.5 -21q37 0 59 20t22 60zM371 -82q0 31 -42 44q-27 9 -79 9q-41 0 -67 -15t-26 -44q0 -24 27.5 -39.5t72.5 -15.5q52 0 83 16.5t31 44.5z
M113 726h75q3 -40 22.5 -58.5t46.5 -18.5q67 0 74 77h74q-2 -70 -39 -115.5t-110 -45.5q-70 0 -105.5 44.5t-37.5 116.5z" />
    <glyph glyph-name="Gdotaccent" unicode="&#x120;" horiz-adv-x="724" 
d="M667 50q-45 -26 -118 -44t-154 -18q-159 0 -259 100t-100 264q0 166 103 266.5t258 100.5q159 0 239 -55v-151q-78 65 -207 65q-99 0 -161.5 -59t-62.5 -166q0 -108 61 -165.5t154 -57.5q53 0 91 17v96h-117v147h273v-340zM450 830q0 -28 -18.5 -47t-46.5 -19
q-27 0 -44.5 18.5t-17.5 45.5q0 29 18 48t46 19t45.5 -18t17.5 -47z" />
    <glyph glyph-name="gdotaccent" unicode="&#x121;" horiz-adv-x="539" 
d="M153 165q-59 20 -88.5 62.5t-29.5 99.5q0 87 60.5 139t164.5 52q52 0 93 -12h175v-117h-70q17 -27 17 -59q0 -95 -78 -139q-42 -25 -125 -41q-50 -8 -50 -36q0 -18 28 -24q19 -3 74 -8.5t83 -10.5q117 -21 117 -131q0 -84 -77.5 -136t-204.5 -52q-106 0 -167.5 36
t-61.5 100q0 45 30.5 73.5t93.5 46.5q-62 17 -62 67q0 56 78 90zM335 327q0 83 -80 83q-36 0 -58 -22.5t-22 -60.5t21.5 -59t57.5 -21q37 0 59 20t22 60zM371 -82q0 31 -42 44q-27 9 -79 9q-41 0 -67 -15t-26 -44q0 -24 27.5 -39.5t72.5 -15.5q52 0 83 16.5t31 44.5z
M320 660q0 -28 -18.5 -46.5t-46.5 -18.5q-27 0 -44 18t-17 46q0 29 18 47.5t46 18.5t45 -18t17 -47z" />
    <glyph glyph-name="Gcommaaccent" unicode="&#x122;" horiz-adv-x="724" 
d="M667 50q-45 -26 -118 -44t-154 -18q-159 0 -259 100t-100 264q0 166 103 266.5t258 100.5q159 0 239 -55v-151q-78 65 -207 65q-99 0 -161.5 -59t-62.5 -166q0 -108 61 -165.5t154 -57.5q53 0 91 17v96h-117v147h273v-340zM357 -309h-89q66 103 66 243h109
q0 -146 -86 -243z" />
    <glyph glyph-name="gcommaaccent" unicode="&#x123;" horiz-adv-x="539" 
d="M153 165q-59 20 -88.5 62.5t-29.5 99.5q0 87 60.5 139t164.5 52q52 0 93 -12h175v-117h-70q17 -27 17 -59q0 -95 -78 -139q-42 -25 -125 -41q-50 -8 -50 -36q0 -18 28 -24q19 -3 74 -8.5t83 -10.5q117 -21 117 -131q0 -84 -77.5 -136t-204.5 -52q-106 0 -167.5 36
t-61.5 100q0 45 30.5 73.5t93.5 46.5q-62 17 -62 67q0 56 78 90zM335 327q0 83 -80 83q-36 0 -58 -22.5t-22 -60.5t21.5 -59t57.5 -21q37 0 59 20t22 60zM371 -82q0 31 -42 44q-27 9 -79 9q-41 0 -67 -15t-26 -44q0 -24 27.5 -39.5t72.5 -15.5q52 0 83 16.5t31 44.5z
M297 827h82q-65 -101 -65 -243h-104q0 147 87 243z" />
    <glyph glyph-name="Hcircumflex" unicode="&#x124;" horiz-adv-x="723" 
d="M650 0h-162v289h-253v-289h-163v706h163v-269h253v269h162v-706zM287 760h-109l133 139h92l135 -139h-111l-72 56z" />
    <glyph glyph-name="hcircumflex" unicode="&#x125;" horiz-adv-x="587" 
d="M211 0h-147v747h147v-293q58 66 150 66q104 0 140 -78q27 -57 27 -167v-275h-149v269q0 65 -8 86q-14 39 -66 39q-56 0 -94 -54v-340zM87 774h-109l133 139h92l135 -139h-111l-72 56z" />
    <glyph glyph-name="Hbar" unicode="&#x126;" horiz-adv-x="723" 
d="M650 0h-162v285h-253v-285h-163v493h-61v92h61v121h163v-121h253v121h162v-121h63v-92h-63v-493zM235 420h253v73h-253v-73z" />
    <glyph glyph-name="hbar" unicode="&#x127;" horiz-adv-x="587" 
d="M211 0h-147v568h-53v90h53v89h147v-89h120v-90h-120v-114q58 66 150 66q104 0 140 -78q27 -57 27 -167v-275h-149v269q0 65 -8 86q-14 39 -66 39q-56 0 -94 -54v-340z" />
    <glyph glyph-name="Itilde" unicode="&#x128;" horiz-adv-x="308" 
d="M235 0h-163v706h163v-706zM56 761h-78q7 69 35.5 106.5t70.5 37.5q32 0 80 -30q35 -22 50 -22q25 0 34 52h79q-5 -71 -31.5 -107.5t-69.5 -36.5q-33 0 -84 29q-38 21 -47 21q-30 0 -39 -50z" />
    <glyph glyph-name="itilde" unicode="&#x129;" horiz-adv-x="275" 
d="M48 592h-78q4 69 33 107t70 38q26 0 74 -30q34 -22 48 -22q26 0 32 52h74q-2 -70 -28 -107.5t-67 -37.5q-33 0 -78 29q-34 22 -48 22q-23 0 -32 -51zM212 0h-148v506h148v-506z" />
    <glyph glyph-name="Imacron" unicode="&#x12a;" horiz-adv-x="308" 
d="M235 0h-163v706h163v-706zM296 782h-284v89h284v-89z" />
    <glyph glyph-name="imacron" unicode="&#x12b;" horiz-adv-x="275" 
d="M275 605h-276v91h276v-91zM212 0h-148v506h148v-506z" />
    <glyph glyph-name="Ibreve" unicode="&#x12c;" horiz-adv-x="308" 
d="M235 0h-163v706h163v-706zM-1 909h79q8 -71 73 -71q70 0 77 71h80q-2 -68 -41.5 -111t-116.5 -43q-74 0 -111.5 41.5t-39.5 112.5z" />
    <glyph glyph-name="ibreve" unicode="&#x12d;" horiz-adv-x="275" 
d="M212 0h-148v506h148v-506zM-9 726h75q3 -40 22.5 -58.5t46.5 -18.5q67 0 74 77h74q-2 -70 -39 -115.5t-110 -45.5q-70 0 -105.5 44.5t-37.5 116.5z" />
    <glyph glyph-name="Iogonek" unicode="&#x12e;" horiz-adv-x="308" 
d="M235 0h-38q-96 -69 -96 -135q0 -27 16 -44t44 -17q35 0 65 15v-67q-37 -24 -85 -24q-62 0 -95.5 30.5t-33.5 90.5q0 90 105 151h-45v706h163v-706z" />
    <glyph glyph-name="iogonek" unicode="&#x12f;" horiz-adv-x="275" 
d="M212 0h-31q-90 -65 -90 -128q0 -26 15.5 -42.5t41.5 -16.5q34 0 64 15v-65q-34 -23 -82 -23q-60 0 -93 29.5t-33 86.5q0 85 97 144h-37v506h148v-506zM216 662q0 -34 -23 -56.5t-57 -22.5q-33 0 -54.5 22t-21.5 55q0 34 22.5 57t56.5 23q33 0 55 -22t22 -56z" />
    <glyph glyph-name="Idotaccent" unicode="&#x130;" horiz-adv-x="308" 
d="M235 0h-163v706h163v-706zM217 830q0 -28 -18.5 -47t-46.5 -19q-27 0 -44.5 18.5t-17.5 45.5q0 29 18 48t46 19t45.5 -18t17.5 -47z" />
    <glyph glyph-name="dotlessi" unicode="&#x131;" horiz-adv-x="275" 
d="M212 0h-148v506h148v-506z" />
    <glyph glyph-name="IJ" unicode="&#x132;" horiz-adv-x="620" 
d="M235 0h-163v706h163v-706zM312 -203l-51 125q75 33 98 62q24 31 24 97v625h163v-620q0 -118 -48 -174q-58 -68 -186 -115z" />
    <glyph glyph-name="ij" unicode="&#x133;" horiz-adv-x="550" 
d="M212 0h-148v506h148v-506zM216 662q0 -34 -23 -56.5t-57 -22.5q-33 0 -54.5 22t-21.5 55q0 34 22.5 57t56.5 23q33 0 55 -22t22 -56zM281 -238l-51 115q55 22 78 49q31 32 31 103v477h148v-489q0 -98 -35 -142q-52 -62 -171 -113zM491 662q0 -34 -23 -56.5t-58 -22.5
q-32 0 -54 22.5t-22 54.5q0 34 23 57t57 23q33 0 55 -22t22 -56z" />
    <glyph glyph-name="Jcircumflex" unicode="&#x134;" horiz-adv-x="312" 
d="M5 -203l-51 125q75 33 98 62q24 31 24 97v625h163v-620q0 -118 -48 -174q-58 -68 -186 -115zM84 760h-109l133 139h92l135 -139h-111l-72 56z" />
    <glyph glyph-name="jcircumflex" unicode="&#x135;" horiz-adv-x="275" 
d="M6 -238l-51 114q57 25 80 50q29 32 29 101v479h148v-491q0 -99 -34 -140q-51 -61 -172 -113zM73 575h-99l127 170h80l126 -170h-100l-68 76z" />
    <glyph glyph-name="Kcommaaccent" unicode="&#x136;" horiz-adv-x="670" 
d="M235 0h-163v706h163v-293q2 2 84.5 119t133.5 174h189l-261 -328l286 -378h-199q-48 53 -100 126.5t-89 131t-44 66.5v-324zM307 -309h-89q66 103 66 243h109q0 -146 -86 -243z" />
    <glyph glyph-name="kcommaaccent" unicode="&#x137;" horiz-adv-x="579" 
d="M211 0h-147v747h147v-431q10 10 69 82.5t94 107.5h179l-207 -220l231 -286h-183q-41 45 -112 142l-71 97v-239zM256 -309h-89q66 103 66 243h109q0 -146 -86 -243z" />
    <glyph glyph-name="kgreenlandic" unicode="&#x138;" horiz-adv-x="579" 
d="M211 0h-147v506h147v-195l165 195h177l-210 -227l234 -279h-183l-183 228v-228z" />
    <glyph glyph-name="Lacute" unicode="&#x139;" horiz-adv-x="552" 
d="M535 0h-463v706h162v-558h301v-148zM171 760h-117l130 139h157z" />
    <glyph glyph-name="lacute" unicode="&#x13a;" horiz-adv-x="275" 
d="M211 0h-147v747h147v-747zM151 780h-117l130 139h157z" />
    <glyph glyph-name="Lcommaaccent" unicode="&#x13b;" horiz-adv-x="552" 
d="M535 0h-463v706h162v-558h301v-148zM266 -309h-89q66 103 66 243h109q0 -146 -86 -243z" />
    <glyph glyph-name="lcommaaccent" unicode="&#x13c;" horiz-adv-x="275" 
d="M211 0h-147v747h147v-747zM106 -309h-89q66 103 66 243h109q0 -146 -86 -243z" />
    <glyph glyph-name="Lcaron" unicode="&#x13d;" horiz-adv-x="552" 
d="M535 0h-463v706h162v-558h301v-148zM385 465h-89q66 103 66 243h109q0 -146 -86 -243z" />
    <glyph glyph-name="lcaron" unicode="&#x13e;" horiz-adv-x="275" 
d="M211 0h-147v747h147v-747zM333 505h-89q66 103 66 243h109q0 -146 -86 -243z" />
    <glyph glyph-name="Ldot" unicode="&#x13f;" horiz-adv-x="552" 
d="M512 351q0 -38 -26 -64.5t-65 -26.5q-37 0 -61.5 26t-24.5 63q0 39 26 65t64 26q37 0 62 -25t25 -64zM535 0h-463v706h162v-558h301v-148z" />
    <glyph glyph-name="ldot" unicode="&#x140;" horiz-adv-x="423" 
d="M432 325q0 -36 -24.5 -61.5t-60.5 -25.5q-34 0 -57 25t-23 60q0 38 24 62.5t60 24.5q35 0 58 -24t23 -61zM211 0h-147v747h147v-747z" />
    <glyph glyph-name="Lslash" unicode="&#x141;" horiz-adv-x="552" 
d="M535 0h-463v242l-67 -44v100l67 44v364h162v-256l125 84v-100l-125 -84v-202h301v-148z" />
    <glyph glyph-name="lslash" unicode="&#x142;" horiz-adv-x="275" 
d="M211 0h-147v257l-63 -41v99l63 41v391h147v-295l61 40v-99l-61 -40v-353z" />
    <glyph glyph-name="Nacute" unicode="&#x143;" horiz-adv-x="746" 
d="M228 0h-156v706h151q263 -371 300 -428q-4 105 -4 428h155v-706h-139q-276 406 -309 459q2 -57 2 -459zM387 760h-117l130 139h157z" />
    <glyph glyph-name="nacute" unicode="&#x144;" horiz-adv-x="588" 
d="M211 0h-147v506h144v-54q25 30 68 48t89 18q121 0 152 -110q11 -43 11 -133v-275h-149v269q0 62 -8 86q-12 38 -64 38q-28 0 -55 -14.5t-41 -38.5v-340zM314 577h-103l112 172h143z" />
    <glyph glyph-name="Ncommaaccent" unicode="&#x145;" horiz-adv-x="746" 
d="M228 0h-156v706h151q263 -371 300 -428q-4 105 -4 428h155v-706h-139q-276 406 -309 459q2 -57 2 -459zM347 -309h-89q66 103 66 243h109q0 -146 -86 -243z" />
    <glyph glyph-name="ncommaaccent" unicode="&#x146;" horiz-adv-x="588" 
d="M211 0h-147v506h144v-54q25 30 68 48t89 18q121 0 152 -110q11 -43 11 -133v-275h-149v269q0 62 -8 86q-12 38 -64 38q-28 0 -55 -14.5t-41 -38.5v-340zM272 -309h-89q66 103 66 243h109q0 -146 -86 -243z" />
    <glyph glyph-name="Ncaron" unicode="&#x147;" horiz-adv-x="746" 
d="M228 0h-156v706h151q263 -371 300 -428q-4 105 -4 428h155v-706h-139q-276 406 -309 459q2 -57 2 -459zM437 899h110l-134 -139h-92l-134 139h111l71 -56z" />
    <glyph glyph-name="ncaron" unicode="&#x148;" horiz-adv-x="588" 
d="M211 0h-147v506h144v-54q25 30 68 48t89 18q121 0 152 -110q11 -43 11 -133v-275h-149v269q0 62 -8 86q-12 38 -64 38q-28 0 -55 -14.5t-41 -38.5v-340zM359 747h99l-127 -170h-80l-126 170h99l69 -76z" />
    <glyph glyph-name="napostrophe" unicode="&#x149;" horiz-adv-x="588" 
d="M211 0h-147v506h144v-54q25 30 68 48t89 18q121 0 152 -110q11 -43 11 -133v-275h-149v269q0 62 -8 86q-12 38 -64 38q-28 0 -55 -14.5t-41 -38.5v-340zM99 556h-89q66 103 66 243h109q0 -146 -86 -243z" />
    <glyph glyph-name="Eng" unicode="&#x14a;" horiz-adv-x="746" 
d="M224 0h-156v706h151q268 -379 299 -429q-3 78 -3 429h155v-671q0 -107 -47 -160q-59 -68 -185 -116l-52 126q76 35 98 62q21 25 21 58v29q-160 230 -283 427q2 -57 2 -461z" />
    <glyph glyph-name="eng" unicode="&#x14b;" horiz-adv-x="588" 
d="M211 0h-147v506h144l2 -53q57 65 156 65q121 0 152 -110q11 -43 11 -133v-260q0 -95 -36 -140q-46 -59 -170 -113l-51 114q58 26 79 50q29 30 29 101v242q0 61 -8 85q-13 39 -67 39q-64 0 -94 -53v-340z" />
    <glyph glyph-name="Omacron" unicode="&#x14c;" horiz-adv-x="767" 
d="M731 361q0 -171 -97.5 -272t-255.5 -101q-153 0 -247.5 100t-94.5 265q0 164 98 265t255 101q156 0 249 -99.5t93 -258.5zM563 351q0 111 -47.5 168.5t-127.5 57.5q-82 0 -132.5 -57t-50.5 -166t49.5 -167t130.5 -58q82 0 130 57t48 165zM527 782h-284v89h284v-89z" />
    <glyph glyph-name="omacron" unicode="&#x14d;" horiz-adv-x="577" 
d="M543 258q0 -124 -69 -197t-186 -73q-118 0 -186.5 71.5t-68.5 190.5q0 118 71.5 193.5t187.5 75.5q114 0 182.5 -71.5t68.5 -189.5zM395 254q0 139 -104 139q-49 0 -79 -36t-30 -106q0 -67 29 -102t78 -35q106 0 106 140zM429 605h-276v91h276v-91z" />
    <glyph glyph-name="Obreve" unicode="&#x14e;" horiz-adv-x="767" 
d="M731 361q0 -171 -97.5 -272t-255.5 -101q-153 0 -247.5 100t-94.5 265q0 164 98 265t255 101q156 0 249 -99.5t93 -258.5zM563 351q0 111 -47.5 168.5t-127.5 57.5q-82 0 -132.5 -57t-50.5 -166t49.5 -167t130.5 -58q82 0 130 57t48 165zM230 909h79q8 -71 73 -71
q70 0 77 71h80q-2 -68 -41.5 -111t-116.5 -43q-74 0 -111.5 41.5t-39.5 112.5z" />
    <glyph glyph-name="obreve" unicode="&#x14f;" horiz-adv-x="577" 
d="M543 258q0 -124 -69 -197t-186 -73q-118 0 -186.5 71.5t-68.5 190.5q0 118 71.5 193.5t187.5 75.5q114 0 182.5 -71.5t68.5 -189.5zM395 254q0 139 -104 139q-49 0 -79 -36t-30 -106q0 -67 29 -102t78 -35q106 0 106 140zM141 726h75q3 -40 22.5 -58.5t46.5 -18.5
q67 0 74 77h74q-2 -70 -39 -115.5t-110 -45.5q-70 0 -105.5 44.5t-37.5 116.5z" />
    <glyph glyph-name="Ohungarumlaut" unicode="&#x150;" horiz-adv-x="767" 
d="M731 361q0 -171 -97.5 -272t-255.5 -101q-153 0 -247.5 100t-94.5 265q0 164 98 265t255 101q156 0 249 -99.5t93 -258.5zM563 351q0 111 -47.5 168.5t-127.5 57.5q-82 0 -132.5 -57t-50.5 -166t49.5 -167t130.5 -58q82 0 130 57t48 165zM317 760h-107l125 139h141z
M512 760h-107l125 139h140z" />
    <glyph glyph-name="ohungarumlaut" unicode="&#x151;" horiz-adv-x="577" 
d="M543 258q0 -124 -69 -197t-186 -73q-118 0 -186.5 71.5t-68.5 190.5q0 118 71.5 193.5t187.5 75.5q114 0 182.5 -71.5t68.5 -189.5zM395 254q0 139 -104 139q-49 0 -79 -36t-30 -106q0 -67 29 -102t78 -35q106 0 106 140zM231 577h-92l112 172h123zM403 577h-92l111 172
h123z" />
    <glyph glyph-name="OE" unicode="&#x152;" horiz-adv-x="1016" 
d="M982 0h-464q-78 -8 -140 -8q-153 0 -247.5 91t-94.5 270q0 92 28.5 163.5t78 114t111 63.5t131.5 21t133 -9h446v-140h-284v-137h262v-133h-262v-156h302v-140zM518 142v423q-46 11 -107 11q-93 0 -149.5 -55.5t-56.5 -164.5q0 -116 58 -170.5t146 -54.5q56 0 109 11z
" />
    <glyph glyph-name="oe" unicode="&#x153;" horiz-adv-x="893" 
d="M464 64q-61 -76 -176 -76q-118 0 -186.5 71.5t-68.5 190.5q0 118 71.5 193.5t187.5 75.5q120 0 173 -73q65 73 173 73q112 0 167.5 -65.5t55.5 -182.5v-52h-320q8 -58 47 -81.5t106 -23.5q77 0 163 53v-129q-92 -50 -198 -50q-125 0 -195 76zM395 254q0 139 -104 139
q-49 0 -79 -36t-30 -106q0 -67 29 -102t78 -35q106 0 106 140zM541 309h182q-3 97 -85 97q-37 0 -65.5 -24t-31.5 -73z" />
    <glyph glyph-name="Racute" unicode="&#x154;" horiz-adv-x="664" 
d="M234 0h-162v706h200q109 0 165 -14q75 -19 111.5 -64t36.5 -122q0 -126 -125 -184q43 -20 78 -78.5t123 -243.5h-180q-63 137 -91 187.5t-52 68.5q-18 13 -57 13h-47v-269zM234 400h65q41 0 68 9q51 18 51 80q0 66 -70 79q-28 5 -76 5h-38v-173zM336 760h-117l130 139
h157z" />
    <glyph glyph-name="racute" unicode="&#x155;" horiz-adv-x="410" 
d="M211 0h-147v506h144v-67q39 81 130 81q33 0 61 -12v-129q-32 21 -76 21q-77 0 -112 -74v-326zM246 577h-103l112 172h143z" />
    <glyph glyph-name="Rcommaaccent" unicode="&#x156;" horiz-adv-x="664" 
d="M234 0h-162v706h200q109 0 165 -14q75 -19 111.5 -64t36.5 -122q0 -126 -125 -184q43 -20 78 -78.5t123 -243.5h-180q-63 137 -91 187.5t-52 68.5q-18 13 -57 13h-47v-269zM234 400h65q41 0 68 9q51 18 51 80q0 66 -70 79q-28 5 -76 5h-38v-173zM302 -309h-89
q66 103 66 243h109q0 -146 -86 -243z" />
    <glyph glyph-name="rcommaaccent" unicode="&#x157;" horiz-adv-x="410" 
d="M211 0h-147v506h144v-67q39 81 130 81q33 0 61 -12v-129q-32 21 -76 21q-77 0 -112 -74v-326zM112 -309h-89q66 103 66 243h109q0 -146 -86 -243z" />
    <glyph glyph-name="Rcaron" unicode="&#x158;" horiz-adv-x="664" 
d="M234 0h-162v706h200q109 0 165 -14q75 -19 111.5 -64t36.5 -122q0 -126 -125 -184q43 -20 78 -78.5t123 -243.5h-180q-63 137 -91 187.5t-52 68.5q-18 13 -57 13h-47v-269zM234 400h65q41 0 68 9q51 18 51 80q0 66 -70 79q-28 5 -76 5h-38v-173zM358 899h110l-134 -139
h-92l-134 139h111l71 -56z" />
    <glyph glyph-name="rcaron" unicode="&#x159;" horiz-adv-x="410" 
d="M211 0h-147v506h144v-67q39 81 130 81q33 0 61 -12v-129q-32 21 -76 21q-77 0 -112 -74v-326zM285 747h99l-127 -170h-80l-126 170h99l69 -76z" />
    <glyph glyph-name="Sacute" unicode="&#x15a;" horiz-adv-x="579" 
d="M39 58v161q49 -42 120 -66t130 -24q98 0 98 66q0 24 -17.5 39.5t-60.5 32.5l-92 35q-94 35 -135 84t-41 128q0 93 68 149t198 56q56 0 113 -14.5t93 -38.5v-157q-42 31 -103 50t-114 19q-91 0 -91 -61q0 -26 15 -40t53 -28l92 -35q108 -41 147.5 -90t39.5 -124
q0 -93 -67.5 -152.5t-203.5 -59.5q-70 0 -136 20t-106 50zM303 760h-117l130 139h157z" />
    <glyph glyph-name="sacute" unicode="&#x15b;" horiz-adv-x="454" 
d="M38 38v139q39 -33 89.5 -50t96.5 -17q33 0 46.5 7.5t13.5 25.5q0 13 -12 22t-53 25l-57 22q-123 48 -123 157q0 69 52 109.5t143 40.5q99 0 171 -46v-131q-85 58 -167 58q-51 0 -51 -33q0 -13 11 -22t51 -25l58 -22q64 -24 94.5 -60t30.5 -93q0 -72 -55.5 -114.5
t-147.5 -42.5q-105 0 -191 50zM250 577h-103l112 172h143z" />
    <glyph glyph-name="Scircumflex" unicode="&#x15c;" horiz-adv-x="579" 
d="M39 58v161q49 -42 120 -66t130 -24q98 0 98 66q0 24 -17.5 39.5t-60.5 32.5l-92 35q-94 35 -135 84t-41 128q0 93 68 149t198 56q56 0 113 -14.5t93 -38.5v-157q-42 31 -103 50t-114 19q-91 0 -91 -61q0 -26 15 -40t53 -28l92 -35q108 -41 147.5 -90t39.5 -124
q0 -93 -67.5 -152.5t-203.5 -59.5q-70 0 -136 20t-106 50zM226 760h-109l133 139h92l135 -139h-111l-72 56z" />
    <glyph glyph-name="scircumflex" unicode="&#x15d;" horiz-adv-x="454" 
d="M38 38v139q39 -33 89.5 -50t96.5 -17q33 0 46.5 7.5t13.5 25.5q0 13 -12 22t-53 25l-57 22q-123 48 -123 157q0 69 52 109.5t143 40.5q99 0 171 -46v-131q-85 58 -167 58q-51 0 -51 -33q0 -13 11 -22t51 -25l58 -22q64 -24 94.5 -60t30.5 -93q0 -72 -55.5 -114.5
t-147.5 -42.5q-105 0 -191 50zM170 575h-99l127 170h80l126 -170h-100l-68 76z" />
    <glyph glyph-name="Scedilla" unicode="&#x15e;" horiz-adv-x="579" 
d="M183 -257v69q31 -16 75 -16q48 0 48 41q0 40 -56 40q-25 0 -43 -6l32 119q-128 12 -200 68v161q49 -42 120 -66t130 -24q98 0 98 66q0 24 -17.5 39.5t-60.5 32.5l-92 35q-94 35 -135 84t-41 128q0 93 68 149t198 56q56 0 113 -14.5t93 -38.5v-157q-42 31 -103 50t-114 19
q-91 0 -91 -61q0 -26 15 -40t53 -28l92 -35q108 -41 147.5 -90t39.5 -124q0 -89 -62 -147.5t-188 -63.5l-14 -52h8q47 0 72 -26.5t25 -72.5q0 -55 -36.5 -83.5t-98.5 -28.5q-44 0 -75 17z" />
    <glyph glyph-name="scedilla" unicode="&#x15f;" horiz-adv-x="454" 
d="M126 -249v66q30 -15 72 -15q48 0 48 40q0 39 -55 39q-24 0 -42 -6l31 116q-78 9 -142 47v139q39 -33 89.5 -50t96.5 -17q33 0 46.5 7.5t13.5 25.5q0 13 -12 22t-53 25l-57 22q-123 48 -123 157q0 69 52 109.5t143 40.5q99 0 171 -46v-131q-85 58 -167 58q-51 0 -51 -33
q0 -13 11 -22t51 -25l58 -22q64 -24 94.5 -60t30.5 -93q0 -69 -52 -111.5t-139 -45.5l-13 -49h9q45 0 69.5 -25.5t24.5 -70.5q0 -54 -35.5 -81.5t-96.5 -27.5q-44 0 -73 17z" />
    <glyph glyph-name="Scaron" unicode="&#x160;" horiz-adv-x="579" 
d="M39 58v161q49 -42 120 -66t130 -24q98 0 98 66q0 24 -17.5 39.5t-60.5 32.5l-92 35q-94 35 -135 84t-41 128q0 93 68 149t198 56q56 0 113 -14.5t93 -38.5v-157q-42 31 -103 50t-114 19q-91 0 -91 -61q0 -26 15 -40t53 -28l92 -35q108 -41 147.5 -90t39.5 -124
q0 -93 -67.5 -152.5t-203.5 -59.5q-70 0 -136 20t-106 50zM364 899h110l-134 -139h-92l-134 139h111l71 -56z" />
    <glyph glyph-name="scaron" unicode="&#x161;" horiz-adv-x="454" 
d="M38 38v139q39 -33 89.5 -50t96.5 -17q33 0 46.5 7.5t13.5 25.5q0 13 -12 22t-53 25l-57 22q-123 48 -123 157q0 69 52 109.5t143 40.5q99 0 171 -46v-131q-85 58 -167 58q-51 0 -51 -33q0 -13 11 -22t51 -25l58 -22q64 -24 94.5 -60t30.5 -93q0 -72 -55.5 -114.5
t-147.5 -42.5q-105 0 -191 50zM295 747h99l-127 -170h-80l-126 170h99l69 -76z" />
    <glyph glyph-name="uni0162" unicode="&#x162;" horiz-adv-x="599" 
d="M205 -257v69q31 -16 75 -16q48 0 48 41q0 40 -56 40q-25 0 -43 -6l35 129h-48v559h-194v147h554v-147h-197v-559h-52l-17 -63h8q47 0 72 -26.5t25 -72.5q0 -55 -36.5 -83.5t-98.5 -28.5q-44 0 -75 17z" />
    <glyph glyph-name="uni0163" unicode="&#x163;" horiz-adv-x="392" 
d="M112 -249v66q30 -15 72 -15q48 0 48 40q0 39 -55 39q-24 0 -42 -6l34 127q-56 23 -74 78q-14 40 -14 139v170h-62v117h63v146h147v-146h133v-117h-133v-176q0 -45 9 -68q13 -32 59 -32q41 0 81 21v-119q-55 -27 -135 -27q-11 0 -16 1l-13 -50h9q45 0 69.5 -25.5
t24.5 -70.5q0 -54 -35.5 -81.5t-96.5 -27.5q-44 0 -73 17z" />
    <glyph glyph-name="Tcaron" unicode="&#x164;" horiz-adv-x="599" 
d="M373 0h-163v559h-194v147h554v-147h-197v-559zM361 899h110l-134 -139h-92l-134 139h111l71 -56z" />
    <glyph glyph-name="tcaron" unicode="&#x165;" horiz-adv-x="392" 
d="M378 15q-55 -27 -135 -27q-52 0 -92 23t-56 69q-14 40 -14 139v170h-62v117h63v146h147v-146h133v-117h-133v-176q0 -45 9 -68q13 -32 59 -32q41 0 81 21v-119zM370 580h-89q66 103 66 243h109q0 -146 -86 -243z" />
    <glyph glyph-name="Tbar" unicode="&#x166;" horiz-adv-x="599" 
d="M379 0h-163v311h-112v93h112v155h-194v147h554v-147h-197v-155h115v-93h-115v-311z" />
    <glyph glyph-name="tbar" unicode="&#x167;" horiz-adv-x="392" 
d="M378 15q-55 -27 -135 -27q-52 0 -92 23t-56 69q-14 40 -14 139v9h-55v89h55v72h-62v117h63v146h147v-146h133v-117h-133v-72h122v-89h-122v-15q0 -45 9 -68q13 -32 59 -32q41 0 81 21v-119z" />
    <glyph glyph-name="Utilde" unicode="&#x168;" horiz-adv-x="737" 
d="M66 706h162v-403q0 -68 13 -103q27 -71 128 -71q103 0 129 76q12 35 12 102v399h162v-404q0 -110 -34 -178q-30 -65 -100.5 -100.5t-172.5 -35.5q-199 0 -265 129q-34 66 -34 179v410zM271 761h-78q7 69 35.5 106.5t70.5 37.5q32 0 80 -30q35 -22 50 -22q25 0 34 52h79
q-5 -71 -31.5 -107.5t-69.5 -36.5q-33 0 -84 29q-38 21 -47 21q-30 0 -39 -50z" />
    <glyph glyph-name="utilde" unicode="&#x169;" horiz-adv-x="588" 
d="M525 0h-148v53q-59 -65 -150 -65q-107 0 -141 76q-25 53 -25 167v275h147v-268q0 -57 7 -77q15 -48 70 -48q53 0 91 52v341h149v-506zM209 592h-78q4 69 33 107t70 38q26 0 74 -30q34 -22 48 -22q26 0 32 52h74q-2 -70 -28 -107.5t-67 -37.5q-33 0 -78 29q-34 22 -48 22
q-23 0 -32 -51z" />
    <glyph glyph-name="Umacron" unicode="&#x16a;" horiz-adv-x="737" 
d="M66 706h162v-403q0 -68 13 -103q27 -71 128 -71q103 0 129 76q12 35 12 102v399h162v-404q0 -110 -34 -178q-30 -65 -100.5 -100.5t-172.5 -35.5q-199 0 -265 129q-34 66 -34 179v410zM512 782h-284v89h284v-89z" />
    <glyph glyph-name="umacron" unicode="&#x16b;" horiz-adv-x="588" 
d="M525 0h-148v53q-59 -65 -150 -65q-107 0 -141 76q-25 53 -25 167v275h147v-268q0 -57 7 -77q15 -48 70 -48q53 0 91 52v341h149v-506zM430 605h-276v91h276v-91z" />
    <glyph glyph-name="Ubreve" unicode="&#x16c;" horiz-adv-x="737" 
d="M66 706h162v-403q0 -68 13 -103q27 -71 128 -71q103 0 129 76q12 35 12 102v399h162v-404q0 -110 -34 -178q-30 -65 -100.5 -100.5t-172.5 -35.5q-199 0 -265 129q-34 66 -34 179v410zM214 909h79q8 -71 73 -71q70 0 77 71h80q-2 -68 -41.5 -111t-116.5 -43
q-74 0 -111.5 41.5t-39.5 112.5z" />
    <glyph glyph-name="ubreve" unicode="&#x16d;" horiz-adv-x="588" 
d="M525 0h-148v53q-59 -65 -150 -65q-107 0 -141 76q-25 53 -25 167v275h147v-268q0 -57 7 -77q15 -48 70 -48q53 0 91 52v341h149v-506zM149 726h75q3 -40 22.5 -58.5t46.5 -18.5q67 0 74 77h74q-2 -70 -39 -115.5t-110 -45.5q-70 0 -105.5 44.5t-37.5 116.5z" />
    <glyph glyph-name="Uring" unicode="&#x16e;" horiz-adv-x="737" 
d="M66 706h162v-403q0 -68 13 -103q27 -71 128 -71q103 0 129 76q12 35 12 102v399h162v-404q0 -110 -34 -178q-30 -65 -100.5 -100.5t-172.5 -35.5q-199 0 -265 129q-34 66 -34 179v410zM463 842q0 -40 -28.5 -67.5t-70.5 -27.5q-40 0 -67 27t-27 68q0 43 27.5 69.5
t70.5 26.5t69 -26.5t26 -69.5zM415 843q0 25 -14 39.5t-37 14.5q-21 0 -34.5 -15.5t-13.5 -39.5q0 -23 13 -38t37 -15q22 0 35.5 15.5t13.5 38.5z" />
    <glyph glyph-name="uring" unicode="&#x16f;" horiz-adv-x="588" 
d="M525 0h-148v53q-59 -65 -150 -65q-107 0 -141 76q-25 53 -25 167v275h147v-268q0 -57 7 -77q15 -48 70 -48q53 0 91 52v341h149v-506zM396 671q0 -42 -29.5 -70.5t-73.5 -28.5q-43 0 -71 28.5t-28 70.5q0 44 28.5 72t73.5 28q44 0 72 -28t28 -72zM347 672q0 26 -15 41.5
t-39 15.5q-22 0 -36.5 -16t-14.5 -42q0 -25 14.5 -41.5t39.5 -16.5q23 0 37 17t14 42z" />
    <glyph glyph-name="Uhungarumlaut" unicode="&#x170;" horiz-adv-x="737" 
d="M66 706h162v-403q0 -68 13 -103q27 -71 128 -71q103 0 129 76q12 35 12 102v399h162v-404q0 -110 -34 -178q-30 -65 -100.5 -100.5t-172.5 -35.5q-199 0 -265 129q-34 66 -34 179v410zM290 760h-107l125 139h141zM485 760h-107l125 139h140z" />
    <glyph glyph-name="uhungarumlaut" unicode="&#x171;" horiz-adv-x="588" 
d="M525 0h-148v53q-59 -65 -150 -65q-107 0 -141 76q-25 53 -25 167v275h147v-268q0 -57 7 -77q15 -48 70 -48q53 0 91 52v341h149v-506zM226 577h-92l112 172h123zM398 577h-92l111 172h123z" />
    <glyph glyph-name="Uogonek" unicode="&#x172;" horiz-adv-x="737" 
d="M66 706h162v-403q0 -68 13 -103q27 -71 128 -71q103 0 129 76q12 35 12 102v399h162v-404q0 -110 -34 -178q-27 -58 -87.5 -93t-147.5 -41q-82 -64 -82 -125q0 -27 16 -44t44 -17q35 0 65 15v-67q-37 -24 -85 -24q-62 0 -95.5 30.5t-33.5 90.5q0 81 88 141
q-164 14 -220 127q-34 66 -34 179v410z" />
    <glyph glyph-name="uogonek" unicode="&#x173;" horiz-adv-x="588" 
d="M525 0h-66q-90 -65 -90 -128q0 -26 15.5 -42.5t41.5 -16.5q34 0 64 15v-65q-34 -23 -82 -23q-60 0 -93 29.5t-33 86.5q0 85 97 144h-2v53q-59 -65 -150 -65q-107 0 -141 76q-25 53 -25 167v275h147v-268q0 -57 7 -77q15 -48 70 -48q53 0 91 52v341h149v-506z" />
    <glyph glyph-name="Wcircumflex" unicode="&#x174;" horiz-adv-x="1021" 
d="M359 0h-149l-200 706h175q104 -397 118 -475q19 77 147 475h130q112 -346 147 -474q31 146 121 474h165l-204 -706h-148q-136 447 -148 491q-39 -139 -154 -491zM444 760h-109l133 139h92l135 -139h-111l-72 56z" />
    <glyph glyph-name="wcircumflex" unicode="&#x175;" horiz-adv-x="817" 
d="M297 0h-123l-161 506h165q63 -252 74 -309q20 69 102 309h112q89 -260 103 -309q11 68 73 309h162l-161 -506h-124q-96 266 -113 326q-18 -66 -109 -326zM338 575h-99l127 170h80l126 -170h-100l-68 76z" />
    <glyph glyph-name="Ycircumflex" unicode="&#x176;" horiz-adv-x="687" 
d="M424 0h-163v288l-257 418h191q96 -162 151 -264q42 77 165 264h173l-260 -418v-288zM272 760h-109l133 139h92l135 -139h-111l-72 56z" />
    <glyph glyph-name="ycircumflex" unicode="&#x177;" horiz-adv-x="560" 
d="M275 -237h-158l97 253l-210 490h165q99 -248 119 -312q17 54 110 312h157zM220 575h-99l127 170h80l126 -170h-100l-68 76z" />
    <glyph glyph-name="Ydieresis" unicode="&#x178;" horiz-adv-x="687" 
d="M424 0h-163v288l-257 418h191q96 -162 151 -264q42 77 165 264h173l-260 -418v-288zM318 830q0 -28 -18.5 -47t-46.5 -19q-27 0 -44 18.5t-17 45.5q0 29 18 48t46 19t45 -18t17 -47zM503 830q0 -28 -18.5 -47t-46.5 -19q-27 0 -44.5 18.5t-17.5 45.5q0 29 18 48t46 19
t45.5 -18t17.5 -47z" />
    <glyph glyph-name="Zacute" unicode="&#x179;" horiz-adv-x="665" 
d="M637 0h-632q305 483 351 560h-39t-106.5 -0.5t-158.5 -0.5v147h588q-310 -500 -349 -560q47 1 346 1v-147zM364 760h-117l130 139h157z" />
    <glyph glyph-name="zacute" unicode="&#x17a;" horiz-adv-x="513" 
d="M495 0h-491q235 374 245 390q-45 -1 -209 -1v117h453q-143 -225 -247 -390q27 1 249 1v-117zM295 577h-103l112 172h143z" />
    <glyph glyph-name="Zdotaccent" unicode="&#x17b;" horiz-adv-x="665" 
d="M637 0h-632q305 483 351 560h-39t-106.5 -0.5t-158.5 -0.5v147h588q-310 -500 -349 -560q47 1 346 1v-147zM399 830q0 -28 -18.5 -47t-46.5 -19q-27 0 -44.5 18.5t-17.5 45.5q0 29 18 48t46 19t45.5 -18t17.5 -47z" />
    <glyph glyph-name="zdotaccent" unicode="&#x17c;" horiz-adv-x="513" 
d="M495 0h-491q235 374 245 390q-45 -1 -209 -1v117h453q-143 -225 -247 -390q27 1 249 1v-117zM333 660q0 -28 -18.5 -46.5t-46.5 -18.5q-27 0 -44 18t-17 46q0 29 18 47.5t46 18.5t45 -18t17 -47z" />
    <glyph glyph-name="Zcaron" unicode="&#x17d;" horiz-adv-x="665" 
d="M637 0h-632q305 483 351 560h-39t-106.5 -0.5t-158.5 -0.5v147h588q-310 -500 -349 -560q47 1 346 1v-147zM407 899h110l-134 -139h-92l-134 139h111l71 -56z" />
    <glyph glyph-name="zcaron" unicode="&#x17e;" horiz-adv-x="513" 
d="M495 0h-491q235 374 245 390q-45 -1 -209 -1v117h453q-143 -225 -247 -390q27 1 249 1v-117zM324 747h99l-127 -170h-80l-126 170h99l69 -76z" />
    <glyph glyph-name="longs" unicode="&#x17f;" horiz-adv-x="298" 
d="M211 0h-147v548q0 84 21 127q41 83 170 83q47 0 92 -16v-123q-34 16 -62 16q-46 0 -63 -30q-11 -18 -11 -64v-541z" />
    <glyph glyph-name="florin" unicode="&#x192;" horiz-adv-x="533" 
d="M17 -115v131q32 -21 73 -21q52 0 63 40q8 22 11 70l18 225h-93v93h98l7 75q7 79 34 124q50 79 165 79q76 0 112 -28v-130q-32 24 -80 24q-47 0 -65 -27q-14 -19 -17 -62l-4 -55h112v-93h-121l-17 -240q-7 -78 -21 -118q-14 -42 -48.5 -67.5t-67.5 -33t-68 -7.5
q-55 0 -91 21z" />
    <glyph glyph-name="Aringacute" unicode="&#x1fa;" horiz-adv-x="701" 
d="M439 761q0 -30 -18 -55h7l269 -706h-169l-61 158h-229l-59 -158h-174l267 706h5q-16 24 -16 55q0 39 25 64t64 25q40 0 64.5 -25t24.5 -64zM278 291h148q-59 162 -74 213q-6 -21 -74 -213zM388 873h-99l94 126h136zM397 761q0 24 -13.5 38t-35.5 14q-21 0 -34 -14.5
t-13 -37.5t13 -38t36 -15q22 0 34.5 15t12.5 38z" />
    <glyph glyph-name="aringacute" unicode="&#x1fb;" horiz-adv-x="524" 
d="M465 0h-139l-1 47q-53 -57 -135 -57q-69 0 -111.5 42t-42.5 106q0 78 64 115q64 38 221 51v9q0 34 -13 54q-18 25 -64 25q-101 0 -175 -58v121q74 64 193 64q139 0 183 -93q20 -41 20 -138v-288zM321 121v101q-81 -6 -120 -28q-26 -14 -26 -45q0 -25 16.5 -41.5
t49.5 -16.5q44 0 80 30zM370 671q0 -42 -29 -70.5t-73 -28.5q-43 0 -71.5 28.5t-28.5 70.5q0 44 28.5 72t74.5 28q44 0 71.5 -28t27.5 -72zM321 672q0 26 -14.5 41.5t-38.5 15.5q-23 0 -37.5 -16t-14.5 -42q0 -25 14.5 -41.5t40.5 -16.5q23 0 36.5 17t13.5 42zM298 801h-101
l104 155h139z" />
    <glyph glyph-name="AEacute" unicode="&#x1fc;" horiz-adv-x="1039" 
d="M193 0h-193l459 706h529v-145h-285v-128h262v-141h-262v-146h304v-146h-466v177h-237zM383 317h158v252q-19 -33 -158 -252zM685 755h-117l130 139h157z" />
    <glyph glyph-name="aeacute" unicode="&#x1fd;" horiz-adv-x="813" 
d="M776 38q-95 -50 -198 -50q-123 0 -187 70q-83 -69 -182 -69q-86 0 -129.5 42t-43.5 107q0 81 67 119q74 42 218 48v13q0 35 -16 54q-17 20 -59 20q-98 0 -177 -57v120q37 29 88.5 46.5t98.5 17.5q109 0 146 -58q55 58 157 58q111 0 166.5 -68t55.5 -185v-46h-316
q2 -29 14 -51q30 -55 130 -55q89 0 167 54v-130zM340 134q-12 29 -15 84q-88 -3 -123 -26q-26 -16 -26 -43q0 -54 64 -54q53 0 100 39zM461 308h182q-5 98 -85 98q-41 0 -68 -25.5t-29 -72.5zM450 577h-103l112 172h143z" />
    <glyph glyph-name="Oslashacute" unicode="&#x1fe;" horiz-adv-x="767" 
d="M143 -49l-59 38l60 86q-108 102 -108 278q0 164 98 265t255 101q98 0 174 -42l57 81l58 -39l-58 -82q111 -100 111 -276q0 -171 -97.5 -272t-255.5 -101q-100 0 -178 45zM563 351q0 94 -36 152l-240 -346q40 -28 98 -28q82 0 130 57t48 165zM205 354q0 -90 33 -144
l239 343q-38 24 -89 24q-82 0 -132.5 -57t-50.5 -166zM404 760h-117l130 139h157z" />
    <glyph glyph-name="oslashacute" unicode="&#x1ff;" horiz-adv-x="577" 
d="M113 -56l-56 38l50 72q-74 71 -74 196q0 118 71.5 193t187.5 75q66 0 119 -25l50 72l56 -38l-50 -73q76 -71 76 -196q0 -124 -69 -197t-186 -73q-69 0 -126 27zM312 577h-103l112 172h143zM395 254q0 46 -13 78l-143 -206q19 -11 50 -11q106 0 106 139zM182 251
q0 -41 11 -72l142 204q-19 9 -44 9q-49 0 -79 -36t-30 -105z" />
    <glyph glyph-name="uni0218" unicode="&#x218;" horiz-adv-x="579" 
d="M39 58v161q49 -42 120 -66t130 -24q98 0 98 66q0 24 -17.5 39.5t-60.5 32.5l-92 35q-94 35 -135 84t-41 128q0 93 68 149t198 56q56 0 113 -14.5t93 -38.5v-157q-42 31 -103 50t-114 19q-91 0 -91 -61q0 -26 15 -40t53 -28l92 -35q108 -41 147.5 -90t39.5 -124
q0 -93 -67.5 -152.5t-203.5 -59.5q-70 0 -136 20t-106 50zM258 -309h-89q66 103 66 243h109q0 -146 -86 -243z" />
    <glyph glyph-name="uni0219" unicode="&#x219;" horiz-adv-x="454" 
d="M38 38v139q39 -33 89.5 -50t96.5 -17q33 0 46.5 7.5t13.5 25.5q0 13 -12 22t-53 25l-57 22q-123 48 -123 157q0 69 52 109.5t143 40.5q99 0 171 -46v-131q-85 58 -167 58q-51 0 -51 -33q0 -13 11 -22t51 -25l58 -22q64 -24 94.5 -60t30.5 -93q0 -72 -55.5 -114.5
t-147.5 -42.5q-105 0 -191 50zM202 -309h-89q66 103 66 243h109q0 -146 -86 -243z" />
    <glyph glyph-name="uni021A" unicode="&#x21a;" horiz-adv-x="599" 
d="M373 0h-163v559h-194v147h554v-147h-197v-559zM263 -309h-89q66 103 66 243h109q0 -146 -86 -243z" />
    <glyph glyph-name="uni021B" unicode="&#x21b;" horiz-adv-x="392" 
d="M378 15q-55 -27 -135 -27q-52 0 -92 23t-56 69q-14 40 -14 139v170h-62v117h63v146h147v-146h133v-117h-133v-176q0 -45 9 -68q13 -32 59 -32q41 0 81 21v-119zM184 -309h-89q66 103 66 243h109q0 -146 -86 -243z" />
    <glyph glyph-name="circumflex" unicode="&#x2c6;" horiz-adv-x="162" 
d="M13 575h-99l127 170h80l126 -170h-100l-68 76z" />
    <glyph glyph-name="caron" unicode="&#x2c7;" horiz-adv-x="162" 
d="M148 747h99l-127 -170h-80l-126 170h99l69 -76z" />
    <glyph glyph-name="breve" unicode="&#x2d8;" horiz-adv-x="162" 
d="M-65 726h75q3 -40 22.5 -58.5t46.5 -18.5q67 0 74 77h74q-2 -70 -39 -115.5t-110 -45.5q-70 0 -105.5 44.5t-37.5 116.5z" />
    <glyph glyph-name="dotaccent" unicode="&#x2d9;" horiz-adv-x="162" 
d="M144 660q0 -28 -18.5 -46.5t-46.5 -18.5q-27 0 -44 18t-17 46q0 29 18 47.5t46 18.5t45 -18t17 -47z" />
    <glyph glyph-name="ring" unicode="&#x2da;" horiz-adv-x="162" 
d="M182 671q0 -42 -29.5 -70.5t-73.5 -28.5q-43 0 -71 28.5t-28 70.5q0 44 28.5 72t73.5 28q44 0 72 -28t28 -72zM133 672q0 26 -15 41.5t-39 15.5q-22 0 -36.5 -16t-14.5 -42q0 -25 14.5 -41.5t39.5 -16.5q23 0 37 17t14 42z" />
    <glyph glyph-name="ogonek" unicode="&#x2db;" horiz-adv-x="162" 
d="M179 18q-117 -75 -117 -146q0 -26 15.5 -42.5t41.5 -16.5q34 0 64 15v-65q-34 -23 -82 -23q-60 0 -93 29.5t-33 86.5q0 101 133 163z" />
    <glyph glyph-name="tilde" unicode="&#x2dc;" horiz-adv-x="180" 
d="M2 592h-78q4 69 33 107t70 38q26 0 74 -30q34 -22 48 -22q26 0 32 52h74q-2 -70 -28 -107.5t-67 -37.5q-33 0 -78 29q-34 22 -48 22q-23 0 -32 -51z" />
    <glyph glyph-name="hungarumlaut" unicode="&#x2dd;" horiz-adv-x="162" 
d="M-30 577h-92l112 172h123zM142 577h-92l111 172h123z" />
    <glyph glyph-name="uni0394" unicode="&#x394;" horiz-adv-x="767" 
d="M757 0h-747l290 707h175zM386 547q-37 -101 -162 -406h317q-83 211 -155 406z" />
    <glyph glyph-name="uni03A9" unicode="&#x3a9;" horiz-adv-x="745" 
d="M340 0h-286v136h186q-83 33 -130 101.5t-47 166.5q0 147 88.5 231t224.5 84q140 0 222 -83t82 -228q0 -191 -177 -272h187v-136h-284v174q61 25 95.5 81t34.5 126q0 98 -45.5 147.5t-116.5 49.5q-70 0 -117.5 -50t-47.5 -151q0 -70 35.5 -126.5t95.5 -77.5v-173z" />
    <glyph glyph-name="uni03BC" unicode="&#x3bc;" horiz-adv-x="610" 
d="M218 -237h-148v743h148v-268q0 -57 6 -77q15 -48 72 -48q55 0 94 53v340h148v-506h-147v54q-13 -27 -39.5 -44t-59.5 -17q-55 0 -74 43v-273z" />
    <glyph glyph-name="pi" unicode="&#x3c0;" horiz-adv-x="646" 
d="M606 391h-60v-203q0 -115 20 -188h-147q-15 72 -15 186v205h-152v-391h-142v391h-56v115h552v-115z" />
    <glyph glyph-name="Wgrave" unicode="&#x1e80;" horiz-adv-x="1021" 
d="M359 0h-149l-200 706h175q104 -397 118 -475q19 77 147 475h130q112 -346 147 -474q31 146 121 474h165l-204 -706h-148q-136 447 -148 491q-39 -139 -154 -491zM606 760h-118l-169 139h156z" />
    <glyph glyph-name="wgrave" unicode="&#x1e81;" horiz-adv-x="817" 
d="M297 0h-123l-161 506h165q63 -252 74 -309q20 69 102 309h112q89 -260 103 -309q11 68 73 309h162l-161 -506h-124q-96 266 -113 326q-18 -66 -109 -326zM489 577h-104l-151 172h142z" />
    <glyph glyph-name="Wacute" unicode="&#x1e82;" horiz-adv-x="1021" 
d="M359 0h-149l-200 706h175q104 -397 118 -475q19 77 147 475h130q112 -346 147 -474q31 146 121 474h165l-204 -706h-148q-136 447 -148 491q-39 -139 -154 -491zM535 760h-117l130 139h157z" />
    <glyph glyph-name="wacute" unicode="&#x1e83;" horiz-adv-x="817" 
d="M297 0h-123l-161 506h165q63 -252 74 -309q20 69 102 309h112q89 -260 103 -309q11 68 73 309h162l-161 -506h-124q-96 266 -113 326q-18 -66 -109 -326zM433 577h-103l112 172h143z" />
    <glyph glyph-name="Wdieresis" unicode="&#x1e84;" horiz-adv-x="1021" 
d="M359 0h-149l-200 706h175q104 -397 118 -475q19 77 147 475h130q112 -346 147 -474q31 146 121 474h165l-204 -706h-148q-136 447 -148 491q-39 -139 -154 -491zM484 830q0 -28 -18.5 -47t-46.5 -19q-27 0 -44 18.5t-17 45.5q0 29 18 48t46 19t45 -18t17 -47zM669 830
q0 -28 -18.5 -47t-46.5 -19q-27 0 -44.5 18.5t-17.5 45.5q0 29 18 48t46 19t45.5 -18t17.5 -47z" />
    <glyph glyph-name="wdieresis" unicode="&#x1e85;" horiz-adv-x="817" 
d="M297 0h-123l-161 506h165q63 -252 74 -309q20 69 102 309h112q89 -260 103 -309q11 68 73 309h162l-161 -506h-124q-96 266 -113 326q-18 -66 -109 -326zM382 660q0 -28 -18.5 -46.5t-46.5 -18.5q-27 0 -44.5 18.5t-17.5 45.5q0 29 18 47.5t46 18.5t45.5 -18t17.5 -47z
M559 660q0 -28 -18.5 -46.5t-46.5 -18.5q-27 0 -44.5 18.5t-17.5 45.5q0 29 18 47.5t46 18.5t45.5 -18t17.5 -47z" />
    <glyph glyph-name="Ygrave" unicode="&#x1ef2;" horiz-adv-x="687" 
d="M424 0h-163v288l-257 418h191q96 -162 151 -264q42 77 165 264h173l-260 -418v-288zM434 760h-118l-169 139h156z" />
    <glyph glyph-name="ygrave" unicode="&#x1ef3;" horiz-adv-x="560" 
d="M275 -237h-158l97 253l-210 490h165q99 -248 119 -312q17 54 110 312h157zM360 577h-104l-151 172h142z" />
    <glyph glyph-name="endash" unicode="&#x2013;" horiz-adv-x="562" 
d="M517 207h-472v103h472v-103z" />
    <glyph glyph-name="emdash" unicode="&#x2014;" horiz-adv-x="881" 
d="M836 207h-791v103h791v-103z" />
    <glyph glyph-name="quoteleft" unicode="&#x2018;" horiz-adv-x="200" 
d="M107 747h90q-62 -103 -63 -257h-114q0 152 87 257z" />
    <glyph glyph-name="quoteright" unicode="&#x2019;" horiz-adv-x="200" 
d="M94 490h-90q62 106 62 257h115q0 -156 -87 -257z" />
    <glyph glyph-name="quotesinglbase" unicode="&#x201a;" horiz-adv-x="200" 
d="M94 -105h-90q62 106 62 257h115q0 -156 -87 -257z" />
    <glyph glyph-name="quotedblleft" unicode="&#x201c;" horiz-adv-x="388" 
d="M298 747h90q-62 -106 -62 -257h-115q0 156 87 257zM107 747h90q-62 -103 -63 -257h-114q0 152 87 257z" />
    <glyph glyph-name="quotedblright" unicode="&#x201d;" horiz-adv-x="388" 
d="M90 490h-90q62 106 62 257h115q0 -156 -87 -257zM281 490h-90q62 103 63 257h114q0 -152 -87 -257z" />
    <glyph glyph-name="quotedblbase" unicode="&#x201e;" horiz-adv-x="388" 
d="M90 -105h-90q62 106 62 257h115q0 -156 -87 -257zM281 -105h-90q62 103 63 257h114q0 -152 -87 -257z" />
    <glyph glyph-name="dagger" unicode="&#x2020;" horiz-adv-x="502" 
d="M305 -84h-108v496h-170v107h170v204h108v-204h170v-107h-170v-496z" />
    <glyph glyph-name="daggerdbl" unicode="&#x2021;" horiz-adv-x="502" 
d="M305 -84h-108v207h-170v107h170v194h-170v107h170v192h108v-192h170v-107h-170v-194h170v-107h-170v-207z" />
    <glyph glyph-name="bullet" unicode="&#x2022;" horiz-adv-x="362" 
d="M322 264q0 -61 -41.5 -103t-102.5 -42q-59 0 -98.5 40.5t-39.5 101.5q0 65 42 106t101 41t99 -39.5t40 -104.5z" />
    <glyph glyph-name="ellipsis" unicode="&#x2026;" horiz-adv-x="951" 
d="M263 82q0 -38 -26 -64.5t-65 -26.5q-37 0 -61.5 26t-24.5 63q0 39 26 65t64 26q37 0 62 -25t25 -64zM564 82q0 -38 -26 -64.5t-65 -26.5q-37 0 -61.5 26t-24.5 63q0 39 26 65t64 26q37 0 62 -25t25 -64zM864 82q0 -38 -26 -64.5t-65 -26.5q-37 0 -61 26t-24 63
q0 39 25.5 65t63.5 26t62.5 -25t24.5 -64z" />
    <glyph glyph-name="perthousand" unicode="&#x2030;" horiz-adv-x="1224" 
d="M351 482q0 -89 -40.5 -148t-122.5 -59q-84 0 -124.5 58.5t-40.5 148.5q0 93 42.5 153.5t124.5 60.5q161 0 161 -214zM250 483q0 73 -16 98.5t-45 25.5q-61 0 -61 -126q0 -120 61 -120t61 122zM281 -12h-66l347 713h65zM815 200q0 -89 -40.5 -148t-122.5 -59
q-84 0 -124.5 58.5t-40.5 148.5q0 93 42.5 153.5t124.5 60.5q161 0 161 -214zM714 201q0 73 -16 98.5t-45 25.5q-61 0 -61 -126q0 -120 61 -120t61 122zM1200 200q0 -89 -40.5 -148t-122.5 -59q-84 0 -124.5 58.5t-40.5 148.5q0 93 42.5 153.5t124.5 60.5q161 0 161 -214z
M1098 201q0 73 -15.5 98.5t-44.5 25.5q-61 0 -61 -126q0 -120 61 -120q60 0 60 122z" />
    <glyph glyph-name="guilsinglleft" unicode="&#x2039;" horiz-adv-x="268" 
d="M248 74h-102l-124 184l123 184h103l-120 -184z" />
    <glyph glyph-name="guilsinglright" unicode="&#x203a;" horiz-adv-x="268" 
d="M20 442h104l123 -184l-122 -184h-104l119 184z" />
    <glyph glyph-name="fraction" unicode="&#x2044;" horiz-adv-x="89" 
d="M-96 -12h-65l347 713h64z" />
    <glyph glyph-name="zero.superior" unicode="&#x2070;" 
d="M351 620q0 -89 -40.5 -148t-122.5 -59q-84 0 -124.5 58.5t-40.5 148.5q0 93 42.5 153.5t124.5 60.5q161 0 161 -214zM250 621q0 73 -16 98.5t-45 25.5q-61 0 -61 -126q0 -120 61 -120t61 122z" />
    <glyph glyph-name="four.superior" unicode="&#x2074;" 
d="M301 420h-102v98h-180v61l192 248h90v-236h55v-73h-55v-98zM199 591q0 98 1 123q-41 -58 -90 -123h89z" />
    <glyph glyph-name="five.superior" unicode="&#x2075;" 
d="M42 438v89q50 -29 114 -29q37 0 57 15t20 41q0 51 -73 51q-64 0 -107 -18l23 240h233v-86h-161l-8 -75q21 9 60 9q59 0 96 -31t37 -89q0 -69 -44.5 -105.5t-125.5 -36.5q-74 0 -121 25z" />
    <glyph glyph-name="six.superior" unicode="&#x2076;" 
d="M131 640q11 19 36.5 31.5t54.5 12.5q57 0 91.5 -33t34.5 -96q0 -65 -41.5 -103.5t-110.5 -38.5q-77 0 -121.5 51t-44.5 148q0 109 54 165.5t137 56.5q65 0 99 -21v-92q-37 24 -90 24q-50 0 -73.5 -26t-25.5 -79zM135 575q0 -28 8 -47q14 -33 51 -33q24 0 39.5 16t15.5 47
q0 55 -55 55q-46 0 -59 -38z" />
    <glyph glyph-name="seven.superior" unicode="&#x2077;" 
d="M188 420h-103l136 321h-190v86h321z" />
    <glyph glyph-name="eight.superior" unicode="&#x2078;" 
d="M97 630q-58 25 -58 89q0 54 44.5 84.5t104.5 30.5q65 0 106.5 -28.5t41.5 -84.5q0 -67 -62 -90q72 -20 72 -94q0 -56 -44.5 -90t-116.5 -34q-68 0 -113.5 29.5t-45.5 88.5q0 74 71 99zM248 709q0 22 -16 35t-44 13q-26 0 -43 -13t-17 -35q0 -21 15.5 -35.5t43.5 -14.5
q29 0 45 13t16 37zM253 546q0 25 -18 38t-48 13q-31 0 -48.5 -14.5t-17.5 -38.5q0 -27 18.5 -39.5t46.5 -12.5q29 0 48 14t19 40z" />
    <glyph glyph-name="nine.superior" unicode="&#x2079;" 
d="M242 605q-11 -18 -37.5 -29.5t-55.5 -11.5q-56 0 -90 32.5t-34 94.5q0 66 42 104.5t112 38.5q76 0 119.5 -51.5t43.5 -147.5q0 -110 -54 -166t-137 -56q-68 0 -102 20v93q37 -25 94 -25q51 0 74 25t25 79zM237 672q0 28 -7 46q-14 33 -50 33q-25 0 -41 -16t-16 -46
q0 -56 55 -56q21 0 37.5 11t21.5 28z" />
    <glyph glyph-name="parenleft.superior" unicode="&#x207d;" horiz-adv-x="232" 
d="M166 326q-136 97 -136 266q0 95 38.5 163t96.5 107h61q-124 -102 -124 -269q0 -153 124 -267h-60z" />
    <glyph glyph-name="parenright.superior" unicode="&#x207e;" horiz-adv-x="232" 
d="M6 862h60q58 -38 97 -106t39 -163q0 -169 -136 -267h-60q124 111 124 268q0 163 -124 268z" />
    <glyph glyph-name="n.superior" unicode="&#x207f;" horiz-adv-x="368" 
d="M136 282h-97v300h95l1 -31q36 38 93 38q76 0 95 -66q7 -23 7 -79v-162h-98v158q0 36 -4 47q-7 23 -38 23q-38 0 -54 -30v-198z" />
    <glyph glyph-name="zero.inferior" unicode="&#x2080;" 
d="M351 74q0 -89 -40.5 -148t-122.5 -59q-84 0 -124.5 58.5t-40.5 148.5q0 93 42.5 153.5t124.5 60.5q161 0 161 -214zM250 75q0 73 -16 98.5t-45 25.5q-61 0 -61 -126q0 -120 61 -120t61 122z" />
    <glyph glyph-name="one.inferior" unicode="&#x2081;" 
d="M252 -126h-108v292l-72 -27v89l180 63v-417z" />
    <glyph glyph-name="two.inferior" unicode="&#x2082;" 
d="M338 -126h-325q125 134 165 186q35 43 35 81q0 58 -65 58q-58 0 -111 -39v84q60 44 137 44q69 0 105 -34t36 -91q0 -66 -52 -126q-25 -29 -74 -78q30 1 149 1v-86z" />
    <glyph glyph-name="three.inferior" unicode="&#x2083;" 
d="M38 -108v89q50 -30 123 -30q63 0 63 47q0 33 -40 40q-25 5 -61 5h-15v75h15q40 0 55 5q31 9 31 39q0 40 -58 40q-57 0 -103 -30v81q52 35 124 35q68 0 102.5 -29t34.5 -79q0 -32 -20.5 -57.5t-62.5 -35.5q99 -14 99 -97q0 -57 -43.5 -90t-123.5 -33q-76 0 -120 25z" />
    <glyph glyph-name="four.inferior" unicode="&#x2084;" 
d="M301 -126h-102v98h-180v61l192 248h90v-236h55v-73h-55v-98zM199 45q0 98 1 123q-41 -58 -90 -123h89z" />
    <glyph glyph-name="five.inferior" unicode="&#x2085;" 
d="M42 -108v89q50 -29 114 -29q37 0 57 15t20 41q0 51 -73 51q-64 0 -107 -18l23 240h233v-86h-161l-8 -75q21 9 60 9q59 0 96 -31t37 -89q0 -69 -44.5 -105.5t-125.5 -36.5q-74 0 -121 25z" />
    <glyph glyph-name="six.inferior" unicode="&#x2086;" 
d="M131 94q11 19 36.5 31.5t54.5 12.5q57 0 91.5 -33t34.5 -96q0 -65 -41.5 -103.5t-110.5 -38.5q-77 0 -121.5 51t-44.5 148q0 109 54 165.5t137 56.5q65 0 99 -21v-92q-37 24 -90 24q-50 0 -73.5 -26t-25.5 -79zM135 29q0 -28 8 -47q13 -33 51 -33q24 0 39.5 16t15.5 47
q0 55 -55 55q-46 0 -59 -38z" />
    <glyph glyph-name="seven.inferior" unicode="&#x2087;" 
d="M188 -126h-103l136 321h-190v86h321z" />
    <glyph glyph-name="eight.inferior" unicode="&#x2088;" 
d="M97 84q-58 25 -58 89q0 54 44.5 84.5t104.5 30.5q65 0 106.5 -28.5t41.5 -84.5q0 -67 -62 -90q72 -20 72 -94q0 -56 -44.5 -90t-116.5 -34q-68 0 -113.5 29.5t-45.5 88.5q0 74 71 99zM248 163q0 22 -16 35t-44 13q-26 0 -43 -13t-17 -35q0 -21 15.5 -35.5t43.5 -14.5
q29 0 45 13t16 37zM253 0q0 25 -18 38t-48 13q-31 0 -48.5 -14.5t-17.5 -38.5q0 -27 18.5 -39.5t46.5 -12.5q29 0 48 14t19 40z" />
    <glyph glyph-name="nine.inferior" unicode="&#x2089;" 
d="M242 59q-11 -18 -37.5 -29.5t-55.5 -11.5q-56 0 -90 32.5t-34 94.5q0 66 42 104.5t112 38.5q76 0 119.5 -51.5t43.5 -147.5q0 -110 -54 -166t-137 -56q-68 0 -102 20v93q37 -25 94 -25q51 0 74 25t25 79zM237 126q0 28 -7 46q-14 33 -50 33q-25 0 -41 -16t-16 -46
q0 -56 55 -56q21 0 37.5 11t21.5 28z" />
    <glyph glyph-name="parenleft.inferior" unicode="&#x208d;" horiz-adv-x="232" 
d="M166 -220q-136 97 -136 266q0 95 38.5 163t96.5 107h61q-124 -102 -124 -269q0 -153 124 -267h-60z" />
    <glyph glyph-name="parenright.inferior" unicode="&#x208e;" horiz-adv-x="232" 
d="M6 316h60q58 -38 97 -106t39 -163q0 -169 -136 -267h-60q124 111 124 268q0 163 -124 268z" />
    <glyph glyph-name="Euro" unicode="&#x20ac;" horiz-adv-x="688" 
d="M501 240h-193q38 -117 163 -117q92 0 163 46v-135q-70 -45 -187 -45q-115 0 -193 66t-103 185h-71v71h62q-1 11 -1 34t1 34h-62v72h72q25 120 105.5 188.5t193.5 68.5q120 0 183 -45v-145q-57 52 -167 52q-122 0 -159 -119h193v-72h-206q-1 -11 -1 -32q0 -25 1 -36h206
v-71z" />
    <glyph glyph-name="afii61289" unicode="&#x2113;" horiz-adv-x="506" 
d="M455 29q-62 -41 -144 -41q-160 0 -203 160q-24 -17 -76 -47v120q34 22 52 37q-8 72 -8 126q0 65 10 118t33.5 100t67 73t105.5 26q79 0 121.5 -44.5t42.5 -114.5q0 -53 -17 -98.5t-52 -86t-68.5 -69.5t-87.5 -69q14 -110 104 -110q59 0 120 41v-121zM212 345
q121 101 121 190q0 28 -13.5 42.5t-34.5 14.5q-35 0 -55 -44.5t-20 -125.5q0 -56 2 -77z" />
    <glyph glyph-name="trademark" unicode="&#x2122;" horiz-adv-x="892" 
d="M253 328h-92v295h-104v83h301v-83h-105v-295zM506 328h-91v378h98q86 -130 95 -146q30 50 94 146h96v-378h-90q0 168 2 252q-5 -7 -15.5 -23t-33 -49.5t-54.5 -79.5q-95 140 -102 152q1 -42 1 -252z" />
    <glyph glyph-name="Omega" unicode="&#x2126;" horiz-adv-x="745" 
d="M340 0h-286v136h186q-83 33 -130 101.5t-47 166.5q0 147 88.5 231t224.5 84q140 0 222 -83t82 -228q0 -191 -177 -272h187v-136h-284v174q61 25 95.5 81t34.5 126q0 98 -45.5 147.5t-116.5 49.5q-70 0 -117.5 -50t-47.5 -151q0 -70 35.5 -126.5t95.5 -77.5v-173z" />
    <glyph glyph-name="estimated" unicode="&#x212e;" horiz-adv-x="885" 
d="M843 336h-647q-6 0 -6 -5v-195q0 -10 10 -22q98 -104 245 -104q76 0 143 31t114 85h59q-56 -64 -139 -101t-178 -37q-166 0 -283.5 104.5t-117.5 252.5t117.5 252.5t283.5 104.5t282.5 -104.5t116.5 -252.5v-9zM698 361v195q0 13 -11 24q-101 99 -242 99
q-144 0 -244 -103q-11 -9 -11 -24v-191q0 -5 6 -5h496q6 0 6 5z" />
    <glyph glyph-name="onethird" unicode="&#x2153;" horiz-adv-x="832" 
d="M240 -12h-65l347 713h64zM252 282h-108v292l-72 -27v89l180 63v-417zM472 18v89q50 -30 123 -30q63 0 63 47q0 33 -40 40q-25 5 -61 5h-15v75h15q40 0 55 5q31 9 31 39q0 40 -58 40q-57 0 -103 -30v81q52 35 124 35q68 0 102.5 -29t34.5 -79q0 -32 -20.5 -57.5
t-62.5 -35.5q99 -14 99 -97q0 -57 -43.5 -90t-123.5 -33q-76 0 -120 25z" />
    <glyph glyph-name="twothirds" unicode="&#x2154;" horiz-adv-x="832" 
d="M311 -12h-65l347 713h64zM358 282h-325q125 134 165 186q35 43 35 81q0 58 -65 58q-58 0 -111 -39v84q60 44 137 44q69 0 105 -34t36 -91q0 -66 -52 -126q-25 -29 -74 -78q30 1 149 1v-86zM531 18v89q50 -30 123 -30q63 0 63 47q0 33 -40 40q-25 5 -61 5h-15v75h15
q40 0 55 5q31 9 31 39q0 40 -58 40q-56 0 -103 -30v81q52 35 124 35q68 0 102.5 -29t34.5 -79q0 -32 -20.5 -57.5t-62.5 -35.5q99 -14 99 -97q0 -57 -43.5 -90t-123.5 -33q-76 0 -120 25z" />
    <glyph glyph-name="oneeighth" unicode="&#x215b;" horiz-adv-x="832" 
d="M241 -12h-65l347 713h64zM244 282h-108v292l-72 -27v89l180 63v-417zM534 210q-58 25 -58 89q0 54 44.5 84.5t104.5 30.5q65 0 106.5 -28.5t41.5 -84.5q0 -67 -62 -90q72 -20 72 -94q0 -56 -44.5 -90t-116.5 -34q-68 0 -113.5 29.5t-45.5 88.5q0 74 71 99zM685 289
q0 22 -16 35t-44 13q-26 0 -43 -13t-17 -35q0 -21 15.5 -35.5t43.5 -14.5q29 0 45 13t16 37zM690 126q0 25 -18 38t-48 13q-31 0 -48.5 -14.5t-17.5 -38.5q0 -27 18.5 -39.5t46.5 -12.5q29 0 48 14t19 40z" />
    <glyph glyph-name="threeeighths" unicode="&#x215c;" horiz-adv-x="832" 
d="M280 -12h-65l347 713h64zM58 300v89q50 -30 123 -30q63 0 63 47q0 33 -40 40q-25 5 -61 5h-15v75h15q40 0 55 5q31 9 31 39q0 40 -58 40q-56 0 -103 -30v81q52 35 124 35q68 0 102.5 -29t34.5 -79q0 -32 -20.5 -57.5t-62.5 -35.5q99 -14 99 -97q0 -57 -43.5 -90
t-123.5 -33q-76 0 -120 25zM555 210q-58 25 -58 89q0 54 44.5 84.5t104.5 30.5q65 0 106.5 -28.5t41.5 -84.5q0 -67 -62 -90q72 -20 72 -94q0 -56 -44.5 -90t-116.5 -34q-68 0 -113.5 29.5t-45.5 88.5q0 74 71 99zM706 289q0 22 -16 35t-44 13q-26 0 -43 -13t-17 -35
q0 -21 15.5 -35.5t43.5 -14.5q29 0 45 13t16 37zM711 126q0 25 -18 38t-48 13q-31 0 -48.5 -14.5t-17.5 -38.5q0 -27 18.5 -39.5t46.5 -12.5q29 0 48 14t19 40z" />
    <glyph glyph-name="fiveeighths" unicode="&#x215d;" horiz-adv-x="832" 
d="M271 -12h-65l347 713h64zM49 300v89q50 -29 114 -29q37 0 57 15t20 41q0 51 -73 51q-64 0 -107 -18l23 240h233v-86h-161l-8 -75q21 9 60 9q59 0 96 -31t37 -89q0 -69 -44.5 -105.5t-125.5 -36.5q-74 0 -121 25zM546 210q-58 25 -58 89q0 54 44.5 84.5t104.5 30.5
q65 0 106.5 -28.5t41.5 -84.5q0 -67 -62 -90q72 -20 72 -94q0 -56 -44.5 -90t-116.5 -34q-68 0 -113.5 29.5t-45.5 88.5q0 74 71 99zM697 289q0 22 -16 35t-44 13q-26 0 -43 -13t-17 -35q0 -21 15.5 -35.5t43.5 -14.5q29 0 45 13t16 37zM702 126q0 25 -18 38t-48 13
q-31 0 -48.5 -14.5t-17.5 -38.5q0 -27 18.5 -39.5t46.5 -12.5q29 0 48 14t19 40z" />
    <glyph glyph-name="seveneighths" unicode="&#x215e;" horiz-adv-x="832" 
d="M240 -12h-65l347 713h64zM209 282h-103l136 321h-190v86h321zM520 210q-58 25 -58 89q0 54 44.5 84.5t104.5 30.5q65 0 106.5 -28.5t41.5 -84.5q0 -67 -62 -90q72 -20 72 -94q0 -56 -44.5 -90t-116.5 -34q-68 0 -113.5 29.5t-45.5 88.5q0 74 71 99zM671 289q0 22 -16 35
t-44 13q-26 0 -43 -13t-17 -35q0 -21 15.5 -35.5t43.5 -14.5q29 0 45 13t16 37zM676 126q0 25 -18 38t-48 13q-31 0 -48.5 -14.5t-17.5 -38.5q0 -27 18.5 -39.5t46.5 -12.5q29 0 48 14t19 40z" />
    <glyph glyph-name="arrowleft" unicode="&#x2190;" horiz-adv-x="783" 
d="M750 423v-140q-405 0 -482 1q30 -25 204 -199l-88 -91l-358 359l358 358l88 -92q-57 -55 -108.5 -105.5t-68.5 -67t-27 -24.5q8 0 145 0.5t337 0.5z" />
    <glyph glyph-name="arrowup" unicode="&#x2191;" horiz-adv-x="783" 
d="M461 0h-139q0 404 1 480q-26 -31 -199 -203l-91 89l359 358l358 -358l-91 -89q-166 168 -199 203q1 -80 1 -480z" />
    <glyph glyph-name="arrowright" unicode="&#x2192;" horiz-adv-x="783" 
d="M33 283v140q201 0 337 -0.5t145 -0.5q-10 8 -27 24.5t-68.5 67t-108.5 105.5l88 92l358 -358l-358 -359l-88 91q174 174 204 199q-77 -1 -482 -1z" />
    <glyph glyph-name="arrowdown" unicode="&#x2193;" horiz-adv-x="783" 
d="M322 706h139q0 -400 -1 -480l199 203l91 -89l-358 -358l-359 358l91 89q173 -172 199 -203q-1 76 -1 480z" />
    <glyph glyph-name="uni2196" unicode="&#x2196;" horiz-adv-x="783" 
d="M697 144l-99 -99q-297 297 -336 339q1 -22 2 -285h-128v508h507v-125q-261 0 -290 1q280 -275 344 -339z" />
    <glyph glyph-name="uni2197" unicode="&#x2197;" horiz-adv-x="783" 
d="M185 45l-99 99q64 64 344 339q-29 -1 -290 -1v125h507v-508h-128q1 263 2 285q-39 -42 -336 -339z" />
    <glyph glyph-name="uni2198" unicode="&#x2198;" horiz-adv-x="783" 
d="M87 562l98 99q295 -294 337 -339q-2 64 -2 285h128v-508h-508v125q262 0 291 -1q-142 138 -344 339z" />
    <glyph glyph-name="uni2199" unicode="&#x2199;" horiz-adv-x="783" 
d="M598 664l99 -99q-272 -271 -344 -339q29 1 290 1v-125h-507v508h128q-1 -261 -2 -284q35 37 336 338z" />
    <glyph glyph-name="partialdiff" unicode="&#x2202;" horiz-adv-x="580" 
d="M387 303q-37 37 -97 37q-45 0 -77 -30t-32 -89q0 -61 28 -89.5t70 -28.5q35 0 62.5 21t36.5 64q9 45 9 115zM128 567l-27 99q73 34 181 34q124 0 182.5 -89t58.5 -300q0 -69 -12.5 -125t-40 -101.5t-77.5 -71t-119 -25.5q-98 0 -160 58t-62 164q0 119 62 175.5t161 56.5
q61 0 104 -30q-4 182 -122 182q-75 0 -129 -27z" />
    <glyph glyph-name="Delta" unicode="&#x2206;" horiz-adv-x="767" 
d="M757 0h-747l290 707h175zM386 547q-37 -101 -162 -406h317q-83 211 -155 406z" />
    <glyph glyph-name="product" unicode="&#x220f;" horiz-adv-x="728" 
d="M654 -96h-158v656h-265v-656h-157v802h580v-802z" />
    <glyph glyph-name="summation" unicode="&#x2211;" horiz-adv-x="616" 
d="M590 -97h-580l277 423l-256 380h541v-146h-265l161 -234l-185 -277h307v-146z" />
    <glyph glyph-name="minus" unicode="&#x2212;" horiz-adv-x="701" 
d="M601 247h-501v96h501v-96z" />
    <glyph glyph-name="uni2215" unicode="&#x2215;" horiz-adv-x="89" 
d="M-96 -12h-65l347 713h64z" />
    <glyph glyph-name="uni2219" unicode="&#x2219;" horiz-adv-x="253" 
d="M220 260q0 -38 -26 -64.5t-65 -26.5q-37 0 -61.5 26t-24.5 63q0 39 26 64.5t64 25.5q37 0 62 -24.5t25 -63.5z" />
    <glyph glyph-name="radical" unicode="&#x221a;" horiz-adv-x="649" 
d="M379 -178h-86l-144 259l-64 -33l-31 66l157 84l124 -235l166 743h89z" />
    <glyph glyph-name="infinity" unicode="&#x221e;" horiz-adv-x="731" 
d="M366 360q78 94 169 94q64 0 105 -44.5t41 -114.5q0 -71 -41 -116t-110 -45q-47 0 -84 23t-79 71q-44 -49 -81.5 -71.5t-87.5 -22.5q-67 0 -108 40.5t-41 114.5q0 75 42.5 120t111.5 45q47 0 84 -23t79 -71zM311 294q-25 29 -37.5 42t-31.5 23.5t-39 10.5q-31 0 -50.5 -21
t-19.5 -56q0 -33 19 -53.5t49 -20.5q31 0 55.5 17.5t54.5 57.5zM421 294q60 -75 108 -75q30 0 49 19.5t19 52.5q0 37 -18 58t-50 21q-49 0 -108 -76z" />
    <glyph glyph-name="integral" unicode="&#x222b;" horiz-adv-x="356" 
d="M135 0q0 28 -2 76l-18 398q-3 81 -3 86q0 68 37 108t115 40q50 0 70 -6v-98q-31 9 -51 9q-58 0 -58 -72q0 -20 2 -62l16 -398q0 -3 2 -41.5t2 -56.5q0 -77 -40 -110.5t-115 -33.5q-30 0 -62 8v99q31 -9 51 -9q27 0 40.5 13.5t13.5 49.5z" />
    <glyph glyph-name="approxequal" unicode="&#x2248;" horiz-adv-x="701" 
d="M144 310l-68 50q82 130 169 130q44 0 116 -43q56 -35 92 -35q29 0 51 18t51 64l71 -46q-39 -67 -79 -101t-95 -34q-53 0 -116 39q-61 36 -90 36q-50 0 -102 -78zM144 99l-68 50q82 130 169 130q44 0 116 -43q56 -35 92 -35q29 0 51 18t51 64l71 -45q-39 -67 -79 -101.5
t-95 -34.5q-53 0 -116 39q-61 36 -90 36q-50 0 -102 -78z" />
    <glyph glyph-name="notequal" unicode="&#x2260;" horiz-adv-x="701" 
d="M248 2h-81l69 138h-136v96h182l59 118h-241v96h287l63 127h81l-63 -127h133v-96h-179l-59 -118h238v-96h-284z" />
    <glyph glyph-name="lessequal" unicode="&#x2264;" horiz-adv-x="701" 
d="M573 153l-456 205v95l456 210v-109l-351 -148l351 -142v-111zM573 0h-456v95h456v-95z" />
    <glyph glyph-name="greaterequal" unicode="&#x2265;" horiz-adv-x="701" 
d="M127 663l456 -206v-95l-456 -209v109l352 147l-352 143v111zM584 0h-456v95h456v-95z" />
    <glyph glyph-name="lozenge" unicode="&#x25ca;" horiz-adv-x="721" 
d="M310 706h104l179 -351l-179 -355h-104l-184 354zM238 354l126 -245l120 246l-122 245z" />
    <glyph glyph-name="commaaccent" unicode="&#xf6c3;" horiz-adv-x="169" 
d="M88 -309h-89q66 103 66 243h109q0 -146 -86 -243z" />
    <glyph glyph-name="Dotlessi" horiz-adv-x="308" 
d="M235 0h-163v706h163v-706z" />
    <glyph glyph-name="Euro.denominator" horiz-adv-x="443" 
d="M323 141h-118q23 -63 99 -63q56 0 102 26v-83q-42 -27 -118 -27q-73 0 -123 38.5t-66 108.5h-43v42h37v21v19h-37v44h44q17 70 68 110t122 40q78 0 115 -25v-91q-37 30 -104 30q-73 0 -97 -64h119v-44h-128v-19q0 -15 1 -21h127v-42z" />
    <glyph glyph-name="Euro.inferior" horiz-adv-x="443" 
d="M323 15h-118q23 -63 99 -63q56 0 102 26v-83q-42 -27 -118 -27q-73 0 -123 38.5t-66 108.5h-43v42h37v21v19h-37v44h44q17 70 68 110t122 40q78 0 115 -25v-91q-37 30 -104 30q-73 0 -97 -64h119v-44h-128v-19q0 -15 1 -21h127v-42z" />
    <glyph glyph-name="Euro.numerator" horiz-adv-x="443" 
d="M323 423h-118q23 -63 99 -63q56 0 102 26v-83q-42 -27 -118 -27q-73 0 -123 38.5t-66 108.5h-43v42h37v21v19h-37v44h44q17 70 68 110t122 40q78 0 115 -25v-91q-37 30 -104 30q-73 0 -97 -64h119v-44h-128v-19q0 -15 1 -21h127v-42z" />
    <glyph glyph-name="Euro.oldstyle" horiz-adv-x="680" 
d="M492 208h-177q36 -90 148 -90q85 0 155 41v-131q-68 -39 -177 -39q-108 0 -182.5 57.5t-98.5 161.5h-68v67h59q-1 9 -1 28q0 20 1 30h-59v70h70q25 103 100.5 162.5t181.5 59.5q113 0 174 -39v-138q-56 43 -158 43q-108 0 -145 -88h177v-70h-192q-1 -9 -1 -27
q0 -21 1 -31h192v-67z" />
    <glyph glyph-name="Euro.superior" horiz-adv-x="443" 
d="M323 561h-118q23 -63 99 -63q56 0 102 26v-83q-42 -27 -118 -27q-73 0 -123 38.5t-66 108.5h-43v42h37v21v19h-37v44h44q17 70 68 110t122 40q78 0 115 -25v-91q-37 30 -104 30q-73 0 -97 -64h119v-44h-128v-19q0 -15 1 -21h127v-42z" />
    <glyph glyph-name="Kgreenlandic" horiz-adv-x="765" 
d="M736 747h91q-72 -119 -73 -286h-115q0 171 97 286zM235 0h-163v706h163v-293q2 2 84.5 119t133.5 174h189l-261 -328l286 -378h-199q-48 53 -100 126.5t-89 131t-44 66.5v-324z" />
    <glyph glyph-name="S_S" horiz-adv-x="1158" 
d="M39 58v161q49 -42 120 -66t130 -24q98 0 98 66q0 24 -17.5 39.5t-60.5 32.5l-92 35q-94 35 -135 84t-41 128q0 93 68 149t198 56q56 0 113 -14.5t93 -38.5v-157q-42 31 -103 50t-114 19q-91 0 -91 -61q0 -26 15 -40t53 -28l92 -35q108 -41 147.5 -90t39.5 -124
q0 -93 -67.5 -152.5t-203.5 -59.5q-70 0 -136 20t-106 50zM618 58v161q49 -42 120 -66t130 -24q98 0 98 66q0 24 -17.5 39.5t-60.5 32.5l-92 35q-94 35 -135 84t-41 128q0 93 68 149t198 56q56 0 113 -14.5t93 -38.5v-157q-42 31 -103 50t-114 19q-91 0 -91 -61
q0 -26 15 -40t53 -28l92 -35q108 -41 147.5 -90t39.5 -124q0 -93 -67.5 -152.5t-203.5 -59.5q-70 0 -136 20t-106 50z" />
    <glyph glyph-name="a.superior" horiz-adv-x="328" 
d="M290 282h-90l-1 28q-30 -34 -82 -34q-43 0 -68 24t-25 62q0 48 39 69q44 23 134 31v7q0 15 -7 26q-9 14 -39 14q-61 0 -107 -34v75q45 39 120 39q86 0 114 -56q12 -23 12 -82v-169zM197 358v51q-49 -3 -68 -15q-15 -8 -15 -26q0 -26 37 -26q25 0 46 16z" />
    <glyph glyph-name="acute.cap" horiz-adv-x="180" 
d="M64 760h-117l130 139h157z" />
    <glyph glyph-name="b.superior" horiz-adv-x="368" 
d="M39 296v427h94v-165q36 31 85 31q63 0 95.5 -39.5t32.5 -108.5q0 -88 -49.5 -127t-125.5 -39q-66 0 -132 21zM136 354q20 -8 47 -8q28 0 45 22t17 65q0 40 -15.5 60.5t-41.5 20.5q-32 0 -52 -23v-137z" />
    <glyph glyph-name="braceleft.cap" horiz-adv-x="338" 
d="M332 -80h-42q-79 0 -119 26q-30 18 -42.5 52.5t-12.5 93.5v74q0 64 -18 92q-18 32 -82 39v81q65 8 83 37q17 26 17 92v82q0 91 44 132q42 36 129 36h43v-74h-30q-43 0 -63 -25t-20 -79v-78q0 -95 -37 -130q-18 -18 -62 -33q39 -7 59 -27q40 -38 40 -139v-78q0 -60 25 -83
q19 -20 59 -20h29v-71z" />
    <glyph glyph-name="braceright.cap" horiz-adv-x="338" 
d="M6 757h43q76 0 118 -27q30 -19 42.5 -53.5t12.5 -92.5v-74q0 -64 18 -92q18 -32 82 -39v-80q-63 -8 -83 -38q-17 -27 -17 -91v-83q0 -92 -44 -131q-42 -36 -128 -36h-44v73h29q42 0 62 24q21 26 21 79v78q0 94 37 131q14 14 62 33q-38 7 -59 27q-40 38 -40 138v78
q0 60 -24 84q-20 20 -60 20h-28v72z" />
    <glyph glyph-name="bracketleft.cap" horiz-adv-x="284" 
d="M275 -67h-206v826h206v-74h-98v-677h98v-75z" />
    <glyph glyph-name="bracketright.cap" horiz-adv-x="284" 
d="M8 753h207v-827h-207v74h99v677h-99v76z" />
    <glyph glyph-name="breve.cap" horiz-adv-x="180" 
d="M-63 909h79q8 -71 73 -71q70 0 77 71h80q-2 -68 -41.5 -111t-116.5 -43q-74 0 -111.5 41.5t-39.5 112.5z" />
    <glyph glyph-name="bullet.cap" horiz-adv-x="362" 
d="M322 334q0 -61 -41.5 -103t-102.5 -42q-59 0 -98.5 40.5t-39.5 101.5q0 65 42 106t101 41t99 -39.5t40 -104.5z" />
    <glyph glyph-name="caron.alt" horiz-adv-x="172" 
d="M88 548h-89q66 103 66 243h109q0 -146 -86 -243z" />
    <glyph glyph-name="caron.cap" horiz-adv-x="180" 
d="M161 899h110l-134 -139h-92l-134 139h111l71 -56z" />
    <glyph glyph-name="cedilla.cap" horiz-adv-x="180" 
d="M-15 -257v69q31 -16 75 -16q48 0 48 41q0 40 -56 40q-25 0 -43 -6l37 137h64l-20 -71h8q47 0 72 -26.5t25 -72.5q0 -55 -36.5 -83.5t-98.5 -28.5q-44 0 -75 17z" />
    <glyph glyph-name="cent.denominator" horiz-adv-x="334" 
d="M231 -54h-46v51q-65 5 -103 45t-38 103q0 61 38.5 101t102.5 47v55h46v-54q41 -5 67 -20v-83q-32 23 -67 26v-142q34 1 69 25v-80q-32 -19 -69 -22v-52zM144 147q0 -51 41 -66v131q-41 -14 -41 -65z" />
    <glyph glyph-name="cent.inferior" horiz-adv-x="334" 
d="M231 -180h-46v51q-65 5 -103 45t-38 103q0 61 38.5 101t102.5 47v55h46v-54q41 -5 67 -20v-83q-32 23 -67 26v-142q34 3 69 25v-80q-32 -18 -69 -22v-52zM144 21q0 -51 41 -66v131q-41 -14 -41 -65z" />
    <glyph glyph-name="cent.numerator" horiz-adv-x="334" 
d="M231 228h-46v51q-65 5 -103 45t-38 103q0 61 38.5 101t102.5 47v55h46v-54q41 -5 67 -20v-83q-32 23 -67 26v-142q34 1 69 25v-80q-31 -18 -69 -23v-51zM144 429q0 -51 41 -66v131q-41 -14 -41 -65z" />
    <glyph glyph-name="cent.oldstyle" horiz-adv-x="501" 
d="M351 -86h-71v80q-102 7 -160.5 70t-58.5 164q0 97 58.5 161t160.5 74v88h71v-88q62 -8 100 -32v-129q-47 36 -100 42v-224q54 6 102 39v-129q-47 -28 -102 -34v-82zM210 232q0 -83 70 -105v210q-70 -23 -70 -105z" />
    <glyph glyph-name="cent.superior" horiz-adv-x="334" 
d="M231 366h-46v51q-65 5 -103 45t-38 103q0 61 38.5 101t102.5 47v55h46v-54q41 -5 67 -20v-83q-32 23 -67 26v-142q34 1 69 25v-80q-31 -18 -69 -23v-51zM144 567q0 -51 41 -66v131q-41 -14 -41 -65z" />
    <glyph glyph-name="circumflex.cap" horiz-adv-x="180" 
d="M20 760h-109l133 139h92l135 -139h-111l-72 56z" />
    <glyph glyph-name="comma.denominator" horiz-adv-x="174" 
d="M71 -100h-72q52 86 52 195h90q0 -118 -70 -195z" />
    <glyph glyph-name="comma.inferior" horiz-adv-x="174" 
d="M71 -226h-72q52 86 52 195h90q0 -118 -70 -195z" />
    <glyph glyph-name="comma.numerator" horiz-adv-x="174" 
d="M69 182h-70q51 86 51 198h90q0 -118 -71 -198z" />
    <glyph glyph-name="comma.superior" horiz-adv-x="174" 
d="M71 320h-72q52 86 52 195h90q0 -118 -70 -195z" />
    <glyph glyph-name="d.superior" horiz-adv-x="372" 
d="M331 282h-93v26q-32 -33 -88 -33q-60 0 -94.5 41t-34.5 109q0 73 39.5 118t107.5 45q49 0 68 -20v155h95v-441zM235 372v123q-15 21 -49 21q-29 0 -47 -22.5t-18 -64.5q0 -41 16.5 -61t42.5 -20q35 0 55 24z" />
    <glyph glyph-name="dieresis.cap" horiz-adv-x="180" 
d="M61 830q0 -28 -18.5 -47t-46.5 -19q-27 0 -44 18.5t-17 45.5q0 29 18 48t46 19t45 -18t17 -47zM246 830q0 -28 -18.5 -47t-46.5 -19q-27 0 -44.5 18.5t-17.5 45.5q0 29 18 48t46 19t45.5 -18t17.5 -47z" />
    <glyph glyph-name="dollar.denominator" horiz-adv-x="381" 
d="M216 -54h-43v49q-81 5 -130 41v95q50 -43 130 -51v83l-24 9q-55 19 -79.5 47.5t-24.5 73.5q0 49 32 79.5t96 36.5v51h43v-49q67 -3 107 -30v-92q-43 32 -107 39v-81l21 -7q64 -21 87 -49.5t23 -71.5q0 -48 -32.5 -82t-98.5 -40v-51zM248 114q0 12 -6.5 19.5t-25.5 14.5
v-67q32 5 32 33zM144 295q0 -21 29 -33v65q-29 -6 -29 -32z" />
    <glyph glyph-name="dollar.inferior" horiz-adv-x="381" 
d="M216 -180h-43v49q-79 4 -130 41v95q52 -44 130 -51v83l-24 9q-55 19 -79.5 47.5t-24.5 73.5q0 49 32 79.5t96 36.5v51h43v-49q67 -3 107 -30v-92q-43 32 -107 39v-81l21 -7q64 -21 87 -49.5t23 -71.5q0 -48 -32.5 -82t-98.5 -40v-51zM248 -12q0 12 -6.5 19.5t-25.5 14.5
v-67q32 7 32 33zM144 169q0 -21 29 -33v65q-29 -6 -29 -32z" />
    <glyph glyph-name="dollar.numerator" horiz-adv-x="381" 
d="M216 228h-43v49q-81 5 -130 41v95q50 -43 130 -51v83l-24 9q-55 19 -79.5 47.5t-24.5 73.5q0 49 32 79.5t96 36.5v51h43v-49q67 -3 107 -30v-92q-43 32 -107 39v-81l21 -7q64 -21 87 -49.5t23 -71.5q0 -48 -32.5 -82t-98.5 -41v-50zM248 396q0 12 -6.5 19.5t-25.5 14.5
v-67q32 5 32 33zM144 577q0 -21 29 -33v65q-29 -6 -29 -32z" />
    <glyph glyph-name="dollar.oldstyle" horiz-adv-x="555" 
d="M316 -86h-72v79q-117 6 -189 59v144q76 -66 189 -77v131l-34 11q-83 27 -118 71.5t-35 113.5q0 73 47.5 120t139.5 56v87h72v-86q97 -9 150 -45v-137q-59 44 -150 56v-126l22 -8q94 -34 128 -77.5t34 -107.5q0 -72 -45.5 -122t-138.5 -61v-81zM198 447q0 -18 10 -29
t36 -21v100q-46 -10 -46 -50zM361 174q0 17 -9.5 28.5t-35.5 22.5v-102q45 12 45 51z" />
    <glyph glyph-name="dollar.superior" horiz-adv-x="381" 
d="M216 366h-43v49q-79 3 -130 41v95q50 -43 130 -51v83l-24 9q-55 19 -79.5 47.5t-24.5 73.5q0 49 32 79.5t96 36.5v51h43v-49q67 -3 107 -30v-92q-43 32 -107 39v-81l21 -7q64 -21 87 -49.5t23 -71.5q0 -48 -32.5 -82t-98.5 -41v-50zM248 534q0 12 -6.5 19.5t-25.5 14.5
v-67q32 5 32 33zM144 715q0 -21 29 -33v65q-29 -6 -29 -32z" />
    <glyph glyph-name="dotaccent.cap" horiz-adv-x="180" 
d="M154 830q0 -28 -18.5 -47t-46.5 -19q-27 0 -44.5 18.5t-17.5 45.5q0 29 18 48t46 19t45.5 -18t17.5 -47z" />
    <glyph glyph-name="e.superior" horiz-adv-x="335" 
d="M311 305q-58 -30 -122 -30q-78 0 -122.5 42t-44.5 114t42 115t112 43q69 0 103.5 -39t34.5 -108v-29h-192q7 -59 87 -59q59 0 102 28v-77zM122 472h105q-5 47 -50 47q-48 0 -55 -47z" />
    <glyph glyph-name="egrave.superior" horiz-adv-x="338" 
d="M232 622h-72l-91 101h94zM311 305q-58 -30 -122 -30q-78 0 -122.5 42t-44.5 114t42 115t112 43q69 0 103.5 -39t34.5 -108v-29h-192q7 -59 87 -59q59 0 102 28v-77zM122 472h105q-5 47 -50 47q-48 0 -55 -47z" />
    <glyph glyph-name="eight.denominator" 
d="M97 210q-58 25 -58 89q0 54 44.5 84.5t104.5 30.5q65 0 106.5 -28.5t41.5 -84.5q0 -67 -62 -90q72 -20 72 -94q0 -56 -44.5 -90t-116.5 -34q-68 0 -113.5 29.5t-45.5 88.5q0 74 71 99zM248 289q0 22 -16 35t-44 13q-26 0 -43 -13t-17 -35q0 -21 15.5 -35.5t43.5 -14.5
q29 0 45 13t16 37zM253 126q0 25 -18 38t-48 13q-31 0 -48.5 -14.5t-17.5 -38.5q0 -27 18.5 -39.5t46.5 -12.5q29 0 48 14t19 40z" />
    <glyph glyph-name="eight.numerator" 
d="M97 492q-58 25 -58 89q0 54 44.5 84.5t104.5 30.5q65 0 106.5 -28.5t41.5 -84.5q0 -67 -62 -90q72 -20 72 -94q0 -56 -44.5 -90t-116.5 -34q-68 0 -113.5 29.5t-45.5 88.5q0 74 71 99zM248 571q0 22 -16 35t-44 13q-26 0 -43 -13t-17 -35q0 -21 15.5 -35.5t43.5 -14.5
q29 0 45 13t16 37zM253 408q0 25 -18 38t-48 13q-31 0 -48.5 -14.5t-17.5 -38.5q0 -27 18.5 -39.5t46.5 -12.5q29 0 48 14t19 40z" />
    <glyph glyph-name="eight.oldstyle" horiz-adv-x="553" 
d="M145 346q-93 41 -93 148q0 87 67.5 137t158.5 50q100 0 163 -47t63 -138q0 -48 -24 -88.5t-73 -59.5q58 -18 85.5 -60.5t27.5 -97.5q0 -92 -67.5 -147t-178.5 -55q-103 0 -172 49t-69 146q0 58 29 101t83 62zM374 477q0 40 -25 62.5t-70 22.5q-41 0 -69 -22.5t-28 -61.5
q0 -37 25 -61t70 -24q46 0 71.5 22.5t25.5 61.5zM383 203q0 43 -28.5 66t-76.5 23q-49 0 -77.5 -24.5t-28.5 -65.5q0 -46 30 -69t75 -23q47 0 76.5 24t29.5 69z" />
    <glyph glyph-name="eight.taboldstyle" horiz-adv-x="553" 
d="M145 346q-93 41 -93 148q0 87 67.5 137t158.5 50q100 0 163 -47t63 -138q0 -48 -24 -88.5t-73 -59.5q58 -18 85.5 -60.5t27.5 -97.5q0 -92 -67.5 -147t-178.5 -55q-103 0 -172 49t-69 146q0 58 29 101t83 62zM374 477q0 40 -25 62.5t-70 22.5q-41 0 -69 -22.5t-28 -61.5
q0 -37 25 -61t70 -24q46 0 71.5 22.5t25.5 61.5zM383 203q0 43 -28.5 66t-76.5 23q-49 0 -77.5 -24.5t-28.5 -65.5q0 -46 30 -69t75 -23q47 0 76.5 24t29.5 69z" />
    <glyph glyph-name="emdash.cap" horiz-adv-x="881" 
d="M836 277h-791v103h791v-103z" />
    <glyph glyph-name="endash.cap" horiz-adv-x="562" 
d="M517 277h-472v103h472v-103z" />
    <glyph glyph-name="estimated.alt" horiz-adv-x="839" 
d="M773 55q-132 -67 -298 -67q-190 0 -299.5 94.5t-109.5 266.5q0 160 103 256t270 96q169 0 254.5 -91.5t85.5 -243.5v-64h-558q11 -101 80.5 -144.5t198.5 -43.5q69 0 143 19.5t130 54.5v-133zM222 420h410q-4 68 -49.5 116t-144.5 48q-91 0 -148 -44t-68 -120z" />
    <glyph glyph-name="exclamdown.cap" horiz-adv-x="295" 
d="M71 461h122q20 -311 20 -461h-162q0 149 20 461zM45 624q0 38 26 64.5t65 26.5q37 0 61.5 -26t24.5 -63q0 -39 -26 -65t-64 -26q-37 0 -62 25t-25 64z" />
    <glyph glyph-name="five.denominator" 
d="M42 18v89q50 -29 114 -29q37 0 57 15t20 41q0 51 -73 51q-64 0 -107 -18l23 240h233v-86h-161l-8 -75q21 9 60 9q59 0 96 -31t37 -89q0 -69 -44.5 -105.5t-125.5 -36.5q-74 0 -121 25z" />
    <glyph glyph-name="five.numerator" 
d="M42 300v89q50 -29 114 -29q37 0 57 15t20 41q0 51 -73 51q-64 0 -107 -18l23 240h233v-86h-161l-8 -75q21 9 60 9q59 0 96 -31t37 -89q0 -69 -44.5 -105.5t-125.5 -36.5q-74 0 -121 25z" />
    <glyph glyph-name="five.oldstyle" horiz-adv-x="520" 
d="M41 -95v140q78 -51 176 -51q61 0 92.5 26.5t31.5 73.5q0 46 -31.5 69.5t-87.5 23.5q-91 0 -164 -31l36 390h356v-135h-252l-13 -132q38 16 96 16q91 0 149 -50.5t58 -149.5q0 -114 -68.5 -174.5t-192.5 -60.5q-115 0 -186 45z" />
    <glyph glyph-name="five.taboldstyle" horiz-adv-x="553" 
d="M66 -95v140q80 -51 176 -51q61 0 93 26.5t32 73.5q0 46 -31.5 69.5t-88.5 23.5q-91 0 -164 -31l37 390h356v-135h-252l-14 -132q38 16 96 16q91 0 149 -50.5t58 -149.5q0 -114 -68 -174.5t-192 -60.5q-116 0 -187 45z" />
    <glyph glyph-name="florin.denominator" horiz-adv-x="344" 
d="M13 -68v82q20 -12 47 -12q33 0 40 25q4 13 6 41l11 123h-58v60h62l4 41q5 48 21 73q34 49 108 49q48 0 72 -17v-82q-19 14 -50 14q-30 0 -41 -15q-9 -12 -10 -35l-2 -28h70v-60h-76l-10 -133q-4 -43 -14 -72q-24 -66 -121 -66q-36 0 -59 12z" />
    <glyph glyph-name="florin.inferior" horiz-adv-x="344" 
d="M13 -194v82q20 -12 47 -12q33 0 40 25q4 13 6 41l11 123h-58v60h62l4 41q5 48 21 73q34 49 108 49q48 0 72 -17v-82q-19 14 -50 14q-30 0 -41 -15q-9 -12 -10 -35l-2 -28h70v-60h-76l-10 -133q-4 -43 -14 -72q-24 -66 -121 -66q-36 0 -59 12z" />
    <glyph glyph-name="florin.numerator" horiz-adv-x="344" 
d="M13 214v82q20 -12 47 -12q33 0 40 25q4 13 6 41l11 123h-58v60h62l4 41q5 48 21 73q34 49 108 49q48 0 72 -17v-82q-19 14 -50 14q-30 0 -41 -15q-9 -12 -10 -35l-2 -28h70v-60h-76l-10 -133q-4 -43 -14 -72q-24 -66 -121 -66q-36 0 -59 12z" />
    <glyph glyph-name="florin.oldstyle" horiz-adv-x="518" 
d="M21 -99v128q31 -19 72 -19q49 0 60 37q8 19 11 64l13 179h-89v88h95l6 54q7 75 34 117q52 75 158 75q71 0 108 -22v-124q-30 21 -77 21q-45 0 -62 -24q-12 -15 -15 -58l-4 -39h108v-88h-116l-15 -198q-5 -67 -21 -110q-13 -38 -46.5 -61.5t-65 -30.5t-65.5 -7
q-56 0 -89 18z" />
    <glyph glyph-name="florin.superior" horiz-adv-x="344" 
d="M13 352v82q20 -12 47 -12q33 0 40 25q4 13 6 41l11 123h-58v60h62l4 41q5 48 21 73q34 49 108 49q48 0 72 -17v-82q-19 14 -50 14q-30 0 -41 -15q-9 -12 -10 -35l-2 -28h70v-60h-76l-10 -133q-4 -43 -14 -72q-24 -66 -121 -66q-36 0 -59 12z" />
    <glyph glyph-name="four.denominator" 
d="M301 0h-102v98h-180v61l192 248h90v-236h55v-73h-55v-98zM199 171q0 98 1 123q-41 -58 -90 -123h89z" />
    <glyph glyph-name="four.numerator" 
d="M301 282h-102v98h-180v61l192 248h90v-236h55v-73h-55v-98zM199 453q0 98 1 123q-41 -58 -90 -123h89z" />
    <glyph glyph-name="four.oldstyle" horiz-adv-x="566" 
d="M465 -136h-148v169h-296v96l314 420h130v-401h89v-115h-89v-169zM317 148q0 188 2 232q-28 -41 -165 -232h163z" />
    <glyph glyph-name="four.taboldstyle" horiz-adv-x="553" 
d="M454 -136h-148v169h-284v96l302 420h130v-401h89v-115h-89v-169zM306 148q0 178 2 222q-96 -141 -153 -222h151z" />
    <glyph glyph-name="fourfifths" horiz-adv-x="832" 
d="M297 -12h-65l347 713h64zM305 282h-102v98h-180v61l192 248h90v-236h55v-73h-55v-98zM203 453q0 98 1 123q-41 -58 -90 -123h89zM512 18v89q50 -29 114 -29q37 0 57 15t20 41q0 51 -73 51q-64 0 -107 -18l23 240h233v-86h-161l-8 -75q21 9 60 9q59 0 96 -31t37 -89
q0 -69 -44.5 -105.5t-125.5 -36.5q-74 0 -121 25z" />
    <glyph glyph-name="grave.cap" horiz-adv-x="180" 
d="M234 760h-118l-169 139h156z" />
    <glyph glyph-name="guillemotleft.cap" horiz-adv-x="456" 
d="M248 144h-102l-124 184l123 184h103l-120 -184zM436 144h-104l-124 184l123 184h104l-120 -184z" />
    <glyph glyph-name="guillemotright.cap" horiz-adv-x="456" 
d="M207 512h103l124 -184l-123 -184h-103l120 184zM20 512h104l123 -184l-122 -184h-104l119 184z" />
    <glyph glyph-name="guilsinglleft.cap" horiz-adv-x="268" 
d="M248 144h-102l-124 184l123 184h103l-120 -184z" />
    <glyph glyph-name="guilsinglright.cap" horiz-adv-x="269" 
d="M20 512h104l123 -184l-122 -184h-104l119 184z" />
    <glyph glyph-name="h.superior" horiz-adv-x="368" 
d="M136 282h-97v441h96v-172q37 39 93 39q63 0 85 -46q17 -31 17 -100v-162h-98v158q0 36 -4 47q-9 23 -38 23q-32 0 -54 -30v-198z" />
    <glyph glyph-name="hungarumlaut.cap" horiz-adv-x="180" 
d="M-33 760h-107l125 139h141zM162 760h-107l125 139h140z" />
    <glyph glyph-name="hyphen.cap" horiz-adv-x="347" 
d="M303 273h-258v111h258v-111z" />
    <glyph glyph-name="hyphen.denominator" horiz-adv-x="226" 
d="M194 157h-162v71h162v-71z" />
    <glyph glyph-name="hyphen.inferior" horiz-adv-x="226" 
d="M194 31h-162v71h162v-71z" />
    <glyph glyph-name="hyphen.numerator" horiz-adv-x="226" 
d="M194 439h-162v71h162v-71z" />
    <glyph glyph-name="hyphen.superior" horiz-adv-x="226" 
d="M194 577h-162v71h162v-71z" />
    <glyph glyph-name="i.superior" horiz-adv-x="176" 
d="M137 282h-97v300h97v-300zM140 673q0 -22 -15 -36.5t-38 -14.5q-22 0 -36 14.5t-14 35.5q0 23 14.5 38t37.5 15q22 0 36.5 -14.5t14.5 -37.5z" />
    <glyph glyph-name="idotaccent" horiz-adv-x="275" 
d="M212 0h-148v506h148v-506zM216 662q0 -34 -23 -56.5t-57 -22.5q-33 0 -54.5 22t-21.5 55q0 34 22.5 57t56.5 23q33 0 55 -22t22 -56z" />
    <glyph glyph-name="l.superior" horiz-adv-x="176" 
d="M137 282h-98v441h98v-441z" />
    <glyph glyph-name="m.superior" horiz-adv-x="552" 
d="M136 282h-97v300h96v-31q38 38 91 38q60 0 84 -48q43 48 104 48q63 0 85 -46q14 -28 14 -99v-162h-96v158q0 32 -3 42q-7 28 -37 28q-33 0 -53 -29q1 -13 1 -37v-162h-96v158q0 29 -4 44q-8 26 -38 26q-31 0 -51 -30v-198z" />
    <glyph glyph-name="macron.cap" horiz-adv-x="180" 
d="M232 782h-284v89h284v-89z" />
    <glyph glyph-name="nine.denominator" 
d="M242 185q-11 -18 -37.5 -29.5t-55.5 -11.5q-56 0 -90 32.5t-34 94.5q0 66 42 104.5t112 38.5q76 0 119.5 -51.5t43.5 -147.5q0 -110 -54 -166t-137 -56q-68 0 -102 20v93q37 -25 94 -25q51 0 74 25t25 79zM237 252q0 28 -7 46q-14 33 -50 33q-25 0 -41 -16t-16 -46
q0 -56 55 -56q21 0 37.5 11t21.5 28z" />
    <glyph glyph-name="nine.numerator" 
d="M242 467q-11 -18 -37.5 -29.5t-55.5 -11.5q-56 0 -90 32.5t-34 94.5q0 66 42 104.5t112 38.5q76 0 119.5 -51.5t43.5 -147.5q0 -110 -54 -166t-137 -56q-68 0 -102 20v93q38 -25 94 -25q51 0 74 25t25 79zM237 534q0 28 -7 46q-14 33 -50 33q-25 0 -41 -16t-16 -46
q0 -56 55 -56q21 0 37.5 11t21.5 28z" />
    <glyph glyph-name="nine.oldstyle" horiz-adv-x="563" 
d="M374 181q-21 -31 -60 -49.5t-85 -18.5q-86 0 -137.5 53t-51.5 156q0 109 63 172.5t169 63.5q116 0 181.5 -83.5t65.5 -245.5q0 -183 -81 -276t-207 -93q-101 0 -155 34v145q56 -41 144 -41q79 0 115 45.5t39 137.5zM368 293q-2 54 -12 79q-23 59 -83 59q-40 0 -65.5 -29
t-25.5 -83q0 -101 88 -101q36 0 62 21t36 54z" />
    <glyph glyph-name="nine.taboldstyle" horiz-adv-x="553" 
d="M367 181q-21 -31 -60 -49.5t-85 -18.5q-86 0 -137.5 53.5t-51.5 155.5q0 109 63.5 172.5t168.5 63.5q117 0 182.5 -83.5t65.5 -245.5q0 -183 -81.5 -276t-207.5 -93q-100 0 -154 34v145q56 -41 143 -41q79 0 115.5 46t38.5 137zM361 293q0 47 -11 79q-23 59 -84 59
q-40 0 -65.5 -29t-25.5 -83q0 -101 88 -101q36 0 62.5 21.5t35.5 53.5z" />
    <glyph glyph-name="numbersign.oldstyle" horiz-adv-x="542" 
d="M169 -25h-57l20 156h-91v105h105l11 88h-97v105h111l19 143h54l-18 -143h120l19 143h54l-19 -143h101v-105h-114l-12 -88h107v-105h-120l-20 -156h-54l20 156h-120zM212 324l-11 -88h120l12 88h-121z" />
    <glyph glyph-name="o.superior" horiz-adv-x="359" 
d="M336 435q0 -74 -42.5 -117t-115.5 -43q-72 0 -114 42t-42 113q0 70 44 114.5t115 44.5q72 0 113.5 -42t41.5 -112zM240 432q0 77 -60 77q-28 0 -44.5 -20t-16.5 -59q0 -75 60 -75q61 0 61 77z" />
    <glyph glyph-name="ogonek.cap" horiz-adv-x="180" 
d="M190 17q-121 -80 -121 -152q0 -27 16 -44t44 -17q35 0 65 15v-67q-37 -24 -85 -24q-62 0 -95.5 30.5t-33.5 90.5q0 50 36 94t101 74h73z" />
    <glyph glyph-name="one.denominator" 
d="M252 0h-108v292l-72 -27v89l180 63v-417z" />
    <glyph glyph-name="one.numerator" 
d="M252 282h-108v292l-72 -27v89l180 63v-417z" />
    <glyph glyph-name="one.oldstyle" horiz-adv-x="415" 
d="M323 0h-160v369l-118 -48v143l278 101v-565z" />
    <glyph glyph-name="one.taboldstyle" horiz-adv-x="553" 
d="M382 0h-160v367l-118 -47v144l278 101v-565z" />
    <glyph glyph-name="onefifth" horiz-adv-x="832" 
d="M242 -12h-65l347 713h64zM255 282h-108v292l-72 -27v89l180 63v-417zM473 18v89q50 -29 114 -29q37 0 57 15t20 41q0 51 -73 51q-64 0 -107 -18l23 240h233v-86h-161l-8 -75q21 9 60 9q59 0 96 -31t37 -89q0 -69 -44.5 -105.5t-125.5 -36.5q-74 0 -121 25z" />
    <glyph glyph-name="parenleft.cap" horiz-adv-x="347" 
d="M254 -76q-44 34 -76 67t-67 83t-54 116.5t-19 144.5q0 264 215 418h95q-100 -89 -148.5 -185t-48.5 -232q0 -124 50 -220t147 -192h-94z" />
    <glyph glyph-name="parenleft.denominator" horiz-adv-x="232" 
d="M166 -94q-136 97 -136 266q0 95 38.5 163t96.5 107h61q-124 -102 -124 -269q0 -153 124 -267h-60z" />
    <glyph glyph-name="parenleft.numerator" horiz-adv-x="232" 
d="M166 188q-136 97 -136 266q0 95 38.5 163t96.5 107h61q-124 -102 -124 -269q0 -153 124 -267h-60z" />
    <glyph glyph-name="parenright.cap" horiz-adv-x="347" 
d="M0 753h94q34 -26 60.5 -50.5t57 -63t51 -79.5t34 -98t13.5 -120q0 -264 -215 -418h-95q100 90 148.5 186t48.5 231q0 124 -50 220t-147 192z" />
    <glyph glyph-name="parenright.denominator" horiz-adv-x="232" 
d="M6 442h60q58 -38 97 -106t39 -163q0 -169 -136 -267h-60q124 111 124 268q0 163 -124 268z" />
    <glyph glyph-name="parenright.numerator" horiz-adv-x="232" 
d="M6 724h60q58 -38 97 -106t39 -163q0 -169 -136 -267h-60q124 111 124 268q0 163 -124 268z" />
    <glyph glyph-name="percent.oldstyle" horiz-adv-x="825" 
d="M342 418q0 -86 -40.5 -142.5t-119.5 -56.5q-80 0 -121 56t-41 142q0 89 43 147.5t122 58.5q157 0 157 -205zM243 418q0 116 -59 116q-61 0 -61 -118q0 -111 61 -111q59 0 59 113zM287 -17h-63l317 650h62zM805 192q0 -86 -40.5 -142.5t-119.5 -56.5q-81 0 -121.5 56
t-40.5 142q0 90 42.5 148t122.5 58q157 0 157 -205zM705 192q0 67 -15.5 91.5t-42.5 24.5q-61 0 -61 -118q0 -111 61 -111q58 0 58 113z" />
    <glyph glyph-name="period.denominator" horiz-adv-x="167" 
d="M145 53q0 -25 -16 -42t-43 -17q-25 0 -40 16.5t-15 40.5q0 27 16.5 43t41.5 16q24 0 40 -15.5t16 -41.5z" />
    <glyph glyph-name="period.inferior" horiz-adv-x="167" 
d="M145 -73q0 -25 -16 -42t-43 -17q-25 0 -40 16.5t-15 40.5q0 27 16.5 43t41.5 16q24 0 40 -15.5t16 -41.5z" />
    <glyph glyph-name="period.numerator" horiz-adv-x="167" 
d="M144 335q0 -24 -15.5 -41t-42.5 -17q-25 0 -39.5 16.5t-14.5 39.5q0 27 16 43t41 16q24 0 39.5 -15.5t15.5 -41.5z" />
    <glyph glyph-name="period.superior" horiz-adv-x="167" 
d="M145 473q0 -25 -16 -42t-43 -17q-25 0 -40 16.5t-15 40.5q0 27 16.5 43t41.5 16q24 0 40 -15.5t16 -41.5z" />
    <glyph glyph-name="periodcentered.cap" horiz-adv-x="253" 
d="M216 331q0 -39 -26 -65.5t-65 -26.5q-37 0 -61 26t-24 63q0 40 25.5 65.5t63.5 25.5t62.5 -25t24.5 -63z" />
    <glyph glyph-name="perthousand.oldstyle" horiz-adv-x="1195" 
d="M342 418q0 -86 -40.5 -142.5t-119.5 -56.5q-80 0 -121 56t-41 142q0 89 43 147.5t122 58.5q157 0 157 -205zM243 418q0 116 -59 116q-61 0 -61 -118q0 -111 61 -111q59 0 59 113zM287 -17h-63l317 650h62zM805 192q0 -86 -40.5 -142.5t-119.5 -56.5q-81 0 -121.5 56
t-40.5 142q0 90 42.5 148t122.5 58q157 0 157 -205zM705 192q0 67 -15.5 91.5t-42.5 24.5q-61 0 -61 -118q0 -111 61 -111q58 0 58 113zM1175 192q0 -86 -40.5 -142.5t-119.5 -56.5q-81 0 -121.5 56t-40.5 142q0 90 42.5 148t122.5 58q157 0 157 -205zM1075 192
q0 67 -15.5 91.5t-42.5 24.5q-61 0 -61 -118q0 -111 61 -111q58 0 58 113z" />
    <glyph glyph-name="questiondown.cap" horiz-adv-x="449" 
d="M191 461h123q0 -43 -8.5 -72.5t-34.5 -55.5q-45 -46 -62 -73.5t-17 -55.5q0 -32 20 -53.5t62 -21.5q75 0 130 46v-139q-65 -49 -170 -49q-92 0 -148 42.5t-56 129.5q0 52 25.5 98t86.5 100q44 37 49 104zM165 624q0 39 26 65t65 26q37 0 61 -26t24 -63q0 -39 -25.5 -65
t-63.5 -26t-62.5 25t-24.5 64z" />
    <glyph glyph-name="r.superior" horiz-adv-x="266" 
d="M136 282h-97v300h97v-42q30 50 85 50q20 0 37 -8v-92q-22 13 -48 13q-45 0 -74 -44v-177z" />
    <glyph glyph-name="ring.cap" horiz-adv-x="180" 
d="M187 842q0 -40 -28.5 -67.5t-70.5 -27.5q-40 0 -67 27t-27 68q0 43 27.5 69.5t70.5 26.5t69 -26.5t26 -69.5zM139 843q0 25 -14 39.5t-37 14.5q-21 0 -34.5 -15.5t-13.5 -39.5q0 -23 13 -38t37 -15q22 0 35.5 15.5t13.5 38.5z" />
    <glyph glyph-name="s.superior" horiz-adv-x="290" 
d="M26 303v88q49 -39 119 -39q34 0 34 14q0 9 -7.5 14.5t-33.5 13.5l-35 11q-77 25 -77 89q0 44 33 69.5t91 25.5q57 0 106 -28v-82q-51 35 -108 35q-28 0 -28 -16q0 -8 7.5 -13.5t33.5 -13.5l34 -11q78 -24 78 -88q0 -44 -35 -70.5t-93 -26.5q-66 0 -119 28z" />
    <glyph glyph-name="seven.denominator" 
d="M188 0h-103l136 321h-190v86h321z" />
    <glyph glyph-name="seven.numerator" 
d="M188 282h-103l136 321h-190v86h321z" />
    <glyph glyph-name="seven.oldstyle" horiz-adv-x="501" 
d="M239 -133h-149l207 544h-283v135h469z" />
    <glyph glyph-name="seven.taboldstyle" horiz-adv-x="553" 
d="M275 -133h-148l210 544h-292v135h478z" />
    <glyph glyph-name="six.denominator" 
d="M131 220q11 19 36.5 31.5t54.5 12.5q57 0 91.5 -33t34.5 -96q0 -65 -41.5 -103.5t-110.5 -38.5q-77 0 -121.5 51t-44.5 148q0 109 54 165.5t137 56.5q65 0 99 -21v-92q-37 24 -90 24q-50 0 -73.5 -26t-25.5 -79zM135 155q0 -28 8 -47q13 -33 51 -33q24 0 39.5 16t15.5 47
q0 55 -55 55q-46 0 -59 -38z" />
    <glyph glyph-name="six.numerator" 
d="M131 502q11 19 36.5 31.5t54.5 12.5q57 0 91.5 -33t34.5 -96q0 -65 -41.5 -103.5t-110.5 -38.5q-77 0 -121.5 51t-44.5 148q0 109 54 165.5t137 56.5q65 0 99 -21v-92q-37 24 -90 24q-50 0 -73.5 -26t-25.5 -79zM135 437q0 -28 8 -47q14 -33 51 -33q24 0 39.5 16t15.5 47
q0 55 -55 55q-46 0 -59 -38z" />
    <glyph glyph-name="six.oldstyle" horiz-adv-x="563" 
d="M189 359q17 32 57 52t87 20q87 0 139 -53.5t52 -155.5q0 -108 -63 -171t-167 -63q-115 0 -182 83.5t-67 244.5q0 181 81.5 273t205.5 92q100 0 150 -34v-144q-56 41 -137 41q-80 0 -116 -45.5t-40 -139.5zM195 251q2 -44 15 -78q22 -58 82 -58q40 0 64.5 28t24.5 83
q0 99 -87 99q-35 0 -62.5 -21.5t-36.5 -52.5z" />
    <glyph glyph-name="six.taboldstyle" horiz-adv-x="553" 
d="M184 359q18 32 57.5 52t86.5 20q87 0 139.5 -53.5t52.5 -155.5q0 -108 -63.5 -171t-167.5 -63q-115 0 -182 83.5t-67 244.5q0 180 81.5 272.5t205.5 92.5q100 0 150 -34v-144q-55 41 -137 41q-79 0 -115.5 -46t-40.5 -139zM190 251q2 -44 15 -78q22 -58 82 -58
q40 0 65 28t25 83q0 99 -88 99q-34 0 -61.5 -21t-37.5 -53z" />
    <glyph glyph-name="sterling.denominator" horiz-adv-x="434" 
d="M304 166h-86l-15 -80h181v-86h-335v86h46l15 80h-41v61h53l8 39q9 54 28 85q40 63 134 63q62 0 94 -19l-13 -86q-27 17 -68 17q-38 0 -54 -28q-10 -16 -18 -53l-4 -18h75v-61z" />
    <glyph glyph-name="sterling.inferior" horiz-adv-x="434" 
d="M304 40h-86l-15 -80h181v-86h-335v86h46l15 80h-41v61h53l8 39q9 54 28 85q40 63 134 63q62 0 94 -19l-13 -86q-27 17 -68 17q-38 0 -54 -28q-10 -16 -18 -53l-4 -18h75v-61z" />
    <glyph glyph-name="sterling.numerator" horiz-adv-x="434" 
d="M304 448h-86l-15 -80h181v-86h-335v86h46l15 80h-41v61h53l8 39q9 54 28 85q40 63 134 63q62 0 94 -19l-13 -86q-27 17 -68 17q-38 0 -54 -28q-10 -16 -18 -53l-4 -18h75v-61z" />
    <glyph glyph-name="sterling.oldstyle" horiz-adv-x="632" 
d="M462 252h-141l-24 -121h286v-131h-515v131h73l24 121h-64v88h81l13 64q16 83 45 128q57 93 197 93q80 0 129 -25v-128q-47 28 -104 28q-65 0 -90 -41q-15 -26 -27 -84l-7 -35h124v-88z" />
    <glyph glyph-name="sterling.superior" horiz-adv-x="434" 
d="M304 586h-86l-15 -80h181v-86h-335v86h46l15 80h-41v61h53l8 39q9 54 28 85q40 63 134 63q62 0 94 -19l-13 -86q-27 17 -68 17q-38 0 -54 -28q-10 -16 -18 -53l-4 -18h75v-61z" />
    <glyph glyph-name="t.superior" horiz-adv-x="248" 
d="M238 291q-36 -16 -85 -16q-74 0 -94 56q-9 28 -9 84v92h-37v75h39v86h95v-86h82v-75h-82v-96q0 -25 6 -40q8 -18 36 -18q21 0 49 13v-75z" />
    <glyph glyph-name="three.denominator" 
d="M38 18v89q50 -30 123 -30q63 0 63 47q0 33 -40 40q-25 5 -61 5h-15v75h15q40 0 55 5q31 9 31 39q0 40 -58 40q-57 0 -103 -30v81q52 35 124 35q68 0 102.5 -29t34.5 -79q0 -32 -20.5 -57.5t-62.5 -35.5q99 -14 99 -97q0 -57 -43.5 -90t-123.5 -33q-76 0 -120 25z" />
    <glyph glyph-name="three.numerator" 
d="M38 300v89q50 -30 123 -30q63 0 63 47q0 33 -40 40q-25 5 -61 5h-15v75h15q40 0 55 5q31 9 31 39q0 40 -58 40q-57 0 -103 -30v81q52 35 124 35q68 0 102.5 -29t34.5 -79q0 -32 -20.5 -57.5t-62.5 -35.5q99 -14 99 -97q0 -57 -43.5 -90t-123.5 -33q-76 0 -120 25z" />
    <glyph glyph-name="three.oldstyle" horiz-adv-x="506" 
d="M31 -97v140q78 -51 189 -51q53 0 78.5 22.5t25.5 59.5q0 61 -67 73q-28 7 -95 7h-22v120h22q61 0 86 8q53 17 53 70q0 72 -97 72q-87 0 -160 -51v127q34 25 87.5 41.5t105.5 16.5q105 0 157.5 -47t52.5 -130q0 -54 -31.5 -96.5t-97.5 -59.5q156 -24 156 -160
q0 -95 -68 -150t-192 -55q-115 0 -183 43z" />
    <glyph glyph-name="three.taboldstyle" horiz-adv-x="553" 
d="M61 -97v140q78 -51 189 -51q53 0 78.5 22.5t25.5 59.5q0 61 -67 73q-27 7 -95 7h-22v120h22q61 0 86 8q53 17 53 70q0 72 -96 72q-87 0 -161 -51v127q35 25 88 41.5t105 16.5q105 0 158 -47t53 -130q0 -54 -32 -96.5t-97 -59.5q155 -24 155 -160q0 -95 -68 -150t-192 -55
q-114 0 -183 43z" />
    <glyph glyph-name="threefifths" horiz-adv-x="832" 
d="M284 -12h-65l347 713h64zM61 300v89q50 -30 123 -30q63 0 63 47q0 33 -40 40q-25 5 -61 5h-15v75h15q40 0 55 5q31 9 31 39q0 40 -58 40q-56 0 -103 -30v81q52 35 124 35q68 0 102.5 -29t34.5 -79q0 -32 -20.5 -57.5t-62.5 -35.5q99 -14 99 -97q0 -57 -43.5 -90
t-123.5 -33q-76 0 -120 25zM502 18v89q50 -29 114 -29q37 0 57 15t20 41q0 51 -73 51q-64 0 -107 -18l23 240h233v-86h-161l-8 -75q21 9 60 9q59 0 96 -31t37 -89q0 -69 -44.5 -105.5t-125.5 -36.5q-74 0 -121 25z" />
    <glyph glyph-name="tilde.cap" horiz-adv-x="180" 
d="M-6 761h-78q7 69 35.5 106.5t70.5 37.5q32 0 80 -30q35 -22 50 -22q25 0 34 52h79q-5 -71 -31.5 -107.5t-69.5 -36.5q-33 0 -84 29q-38 21 -47 21q-30 0 -39 -50z" />
    <glyph glyph-name="two.denominator" 
d="M338 0h-325q125 134 165 186q35 43 35 81q0 58 -65 58q-58 0 -111 -39v84q60 44 137 44q69 0 105 -34t36 -91q0 -66 -52 -126q-25 -29 -74 -78q30 1 149 1v-86z" />
    <glyph glyph-name="two.numerator" 
d="M338 282h-325q125 134 165 186q35 43 35 81q0 58 -65 58q-58 0 -111 -39v84q60 44 137 44q69 0 105 -34t36 -91q0 -66 -52 -126q-25 -29 -74 -78q30 1 149 1v-86z" />
    <glyph glyph-name="two.oldstyle" horiz-adv-x="526" 
d="M495 0h-489q188 176 240 234q54 62 54 110q0 79 -92 79q-86 0 -174 -59v131q91 63 211 63q104 0 157 -47t53 -124q0 -92 -66 -166q-45 -49 -95 -92q34 2 201 2v-131z" />
    <glyph glyph-name="two.taboldstyle" horiz-adv-x="553" 
d="M513 0h-489q188 176 240 234q54 62 54 110q0 79 -92 79q-86 0 -174 -59v131q91 63 211 63q104 0 157 -47t53 -124q0 -92 -66 -166q-45 -49 -95 -92q34 2 201 2v-131z" />
    <glyph glyph-name="twofifths" horiz-adv-x="832" 
d="M307 -12h-65l347 713h64zM353 282h-325q125 134 165 186q35 43 35 81q0 58 -65 58q-58 0 -111 -39v84q60 44 137 44q69 0 105 -34t36 -91q0 -66 -52 -126q-25 -29 -74 -78q30 1 149 1v-86zM520 18v89q50 -29 114 -29q37 0 57 15t20 41q0 51 -73 51q-64 0 -107 -18l23 240
h233v-86h-161l-8 -75q21 9 60 9q59 0 96 -31t37 -89q0 -69 -44.5 -105.5t-125.5 -36.5q-74 0 -121 25z" />
    <glyph glyph-name="yen.denominator" horiz-adv-x="456" 
d="M392 194h-91l-18 -28v-10h109v-44h-109v-112h-107v112h-108v44h108v10l-18 28h-90v45h60l-109 168h127q37 -59 86 -145q25 43 95 145h114l-110 -168h61v-45z" />
    <glyph glyph-name="yen.inferior" horiz-adv-x="456" 
d="M392 68h-91l-18 -28v-10h109v-44h-109v-112h-107v112h-108v44h108v10l-18 28h-90v45h60l-109 168h127q37 -59 86 -145q25 43 95 145h114l-110 -168h61v-45z" />
    <glyph glyph-name="yen.numerator" horiz-adv-x="456" 
d="M392 476h-91l-18 -28v-10h109v-44h-109v-112h-107v112h-108v44h108v10l-18 28h-90v45h60l-109 168h127q37 -59 86 -145q25 43 95 145h114l-110 -168h61v-45z" />
    <glyph glyph-name="yen.oldstyle" horiz-adv-x="663" 
d="M575 298h-140l-29 -45v-19h169v-66h-169v-168h-153v168h-165v66h165v19l-29 45h-136v70h92l-158 247h180q105 -171 133 -223q95 157 137 223h170l-161 -247h94v-70z" />
    <glyph glyph-name="yen.superior" horiz-adv-x="456" 
d="M392 614h-91l-18 -28v-10h109v-44h-109v-112h-107v112h-108v44h108v10l-18 28h-90v45h60l-109 168h127q37 -59 86 -145q25 43 95 145h114l-110 -168h61v-45z" />
    <glyph glyph-name="zero.denominator" 
d="M351 200q0 -89 -40.5 -148t-122.5 -59q-84 0 -124.5 58.5t-40.5 148.5q0 93 42.5 153.5t124.5 60.5q161 0 161 -214zM250 201q0 73 -16 98.5t-45 25.5q-61 0 -61 -126q0 -120 61 -120t61 122z" />
    <glyph glyph-name="zero.numerator" 
d="M351 482q0 -89 -40.5 -148t-122.5 -59q-84 0 -124.5 58.5t-40.5 148.5q0 93 42.5 153.5t124.5 60.5q161 0 161 -214zM250 483q0 73 -16 98.5t-45 25.5q-61 0 -61 -126q0 -120 61 -120t61 122z" />
    <glyph glyph-name="zero.oldstyle" horiz-adv-x="553" 
d="M525 270q0 -122 -62.5 -202t-186.5 -80q-85 0 -142.5 40t-81.5 101.5t-24 139.5q0 125 64.5 207t188.5 82q244 0 244 -288zM376 271q0 88 -25 120t-71 32q-41 0 -69.5 -34t-28.5 -120q0 -146 99 -146q95 0 95 148z" />
    <glyph glyph-name="zero.taboldstyle" horiz-adv-x="553" 
d="M525 270q0 -122 -62.5 -202t-186.5 -80q-85 0 -142.5 40t-81.5 101.5t-24 139.5q0 125 64.5 207t188.5 82q244 0 244 -288zM376 271q0 88 -25 120t-71 32q-41 0 -69.5 -34t-28.5 -120q0 -146 99 -146q95 0 95 148z" />
    <glyph glyph-name="acute.sc" horiz-adv-x="180" 
d="M66 592h-103l112 172h143z" />
    <glyph glyph-name="breve.sc" horiz-adv-x="162" 
d="M-65 741h75q3 -40 22.5 -58.5t46.5 -18.5q67 0 74 77h74q-2 -70 -39 -115.5t-110 -45.5q-70 0 -105.5 44.5t-37.5 116.5z" />
    <glyph glyph-name="caron.sc" horiz-adv-x="162" 
d="M148 762h99l-127 -170h-80l-126 170h99l69 -76z" />
    <glyph glyph-name="cedilla.sc" horiz-adv-x="162" 
d="M-21 -249v66q30 -15 72 -15q48 0 48 40q0 39 -55 39q-24 0 -42 -6l36 133h62l-19 -69h9q45 0 69.5 -25.5t24.5 -70.5q0 -54 -35.5 -81.5t-96.5 -27.5q-44 0 -73 17z" />
    <glyph glyph-name="circumflex.sc" horiz-adv-x="162" 
d="M13 590h-99l127 170h80l126 -170h-100l-68 76z" />
    <glyph glyph-name="commaaccent.sc" horiz-adv-x="169" 
d="M88 -309h-89q66 103 66 243h109q0 -146 -86 -243z" />
    <glyph glyph-name="dieresis.sc" horiz-adv-x="180" 
d="M65 675q0 -28 -18.5 -46.5t-46.5 -18.5q-27 0 -44.5 18.5t-17.5 45.5q0 29 18 47.5t46 18.5t45.5 -18t17.5 -47zM242 675q0 -28 -18.5 -46.5t-46.5 -18.5q-27 0 -44.5 18.5t-17.5 45.5q0 29 18 47.5t46 18.5t45.5 -18t17.5 -47z" />
    <glyph glyph-name="dotaccent.sc" horiz-adv-x="162" 
d="M144 675q0 -28 -18.5 -46.5t-46.5 -18.5q-27 0 -44 18t-17 46q0 29 18 47.5t46 18.5t45 -18t17 -47z" />
    <glyph glyph-name="grave.sc" horiz-adv-x="180" 
d="M218 592h-104l-151 172h142z" />
    <glyph glyph-name="hungarumlaut.sc" horiz-adv-x="162" 
d="M-30 592h-92l112 172h123zM142 592h-92l111 172h123z" />
    <glyph glyph-name="macron.sc" horiz-adv-x="162" 
d="M218 620h-276v91h276v-91z" />
    <glyph glyph-name="ogonek.sc" horiz-adv-x="162" 
d="M179 18q-117 -75 -117 -146q0 -26 15.5 -42.5t41.5 -16.5q34 0 64 15v-65q-34 -23 -82 -23q-60 0 -93 29.5t-33 86.5q0 101 133 163z" />
    <glyph glyph-name="ring.sc" horiz-adv-x="162" 
d="M182 686q0 -42 -29.5 -70.5t-73.5 -28.5q-43 0 -71 28.5t-28 70.5q0 44 28.5 72t73.5 28q44 0 72 -28t28 -72zM133 687q0 26 -15 41.5t-39 15.5q-22 0 -36.5 -16t-14.5 -42q0 -25 14.5 -41.5t39.5 -16.5q23 0 37 17t14 42z" />
    <glyph glyph-name="tilde.sc" horiz-adv-x="180" 
d="M2 607h-78q4 69 33 107t70 38q26 0 74 -30q34 -22 48 -22q26 0 32 52h74q-2 -70 -28 -107.5t-67 -37.5q-33 0 -78 29q-34 22 -48 22q-23 0 -32 -51z" />
    <glyph glyph-name="a.sc" horiz-adv-x="577" 
d="M163 0h-159l205 536h157l207 -536h-154l-43 110h-173zM239 228h100q-16 46 -50 152q-23 -71 -50 -152z" />
    <glyph glyph-name="b.sc" horiz-adv-x="546" 
d="M64 0v536h195q45 0 95 -8q123 -20 123 -122q0 -87 -87 -125q121 -17 121 -127q0 -100 -92 -136q-43 -18 -147 -18h-208zM210 117h57q37 0 57 5q34 9 34 44q0 37 -40 44q-27 3 -54 3h-54v-96zM210 326h47q40 0 55 6q28 10 28 41q0 34 -30 41q-16 5 -52 5h-48v-93z" />
    <glyph glyph-name="c.sc" horiz-adv-x="525" 
d="M488 30q-70 -42 -180 -42q-121 0 -197.5 76t-76.5 204q0 126 80 203t201 77q115 0 172 -40v-137q-55 45 -151 45q-68 0 -108.5 -38.5t-40.5 -109.5q0 -74 42 -111.5t117 -37.5q71 0 142 42v-131z" />
    <glyph glyph-name="d.sc" horiz-adv-x="597" 
d="M64 0v536h156q142 0 201 -22q75 -28 108 -85.5t33 -153.5q0 -196 -157 -251q-67 -24 -197 -24h-144zM214 132h33q65 0 97 14q67 31 67 125q0 90 -62 120q-28 13 -96 13h-39v-272z" />
    <glyph glyph-name="e.sc" horiz-adv-x="477" 
d="M451 0h-387v536h373v-128h-225v-71h203v-125h-203v-83h239v-129z" />
    <glyph glyph-name="f.sc" horiz-adv-x="456" 
d="M212 0h-148v536h363v-128h-215v-94h197v-131h-197v-183z" />
    <glyph glyph-name="g.sc" horiz-adv-x="580" 
d="M534 37q-36 -19 -98 -34t-126 -15q-124 0 -200 77t-76 203q0 127 79 203.5t203 76.5q122 0 193 -39v-138q-34 21 -81 33t-87 12q-75 0 -114.5 -38t-39.5 -114q0 -73 39 -112.5t102 -39.5q38 0 67 12v57h-78v132h217v-276z" />
    <glyph glyph-name="h.sc" horiz-adv-x="607" 
d="M543 0h-149v207h-180v-207h-150v536h150v-192h180v192h149v-536z" />
    <glyph glyph-name="i.sc" horiz-adv-x="278" 
d="M214 0h-150v536h150v-536z" />
    <glyph glyph-name="j.sc" horiz-adv-x="278" 
d="M19 -155l-51 110q61 29 78 52q18 21 18 71v458h150v-461q0 -94 -46 -140q-56 -54 -149 -90z" />
    <glyph glyph-name="k.sc" horiz-adv-x="559" 
d="M213 0h-149v536h149v-223q151 218 155 223h170l-191 -250l211 -286h-177q-148 213 -168 244v-244z" />
    <glyph glyph-name="l.sc" horiz-adv-x="465" 
d="M440 0h-376v536h150v-406h226v-130z" />
    <glyph glyph-name="m.sc" horiz-adv-x="699" 
d="M211 0h-147v536h162q113 -187 121 -204q14 24 134 204h154v-536h-146q0 260 3 350q-10 -15 -22.5 -32.5t-48.5 -69.5t-78 -113q-119 188 -135 215q3 -60 3 -350z" />
    <glyph glyph-name="n.sc" horiz-adv-x="626" 
d="M212 0h-148v536h144q186 -261 209 -300q-3 91 -3 300h148v-536h-135q-160 232 -216 321q1 -43 1 -321z" />
    <glyph glyph-name="o.sc" horiz-adv-x="621" 
d="M586 274q0 -130 -76 -208t-200 -78t-200 76.5t-76 201.5q0 124 79 203t202 79t197 -75.5t74 -198.5zM436 268q0 73 -33.5 112t-88.5 39q-56 0 -91.5 -38.5t-35.5 -113.5q0 -72 35 -110.5t89 -38.5q56 0 90.5 37.5t34.5 112.5z" />
    <glyph glyph-name="p.sc" horiz-adv-x="532" 
d="M214 0h-150v536h185q80 0 122 -11q129 -31 129 -171q0 -128 -96 -168q-59 -25 -155 -25h-35v-161zM214 281h29q45 0 72 9q35 13 35 56q0 48 -46 57q-27 5 -66 5h-24v-127z" />
    <glyph glyph-name="q.sc" horiz-adv-x="621" 
d="M586 274q0 -84 -33 -148t-93 -100q49 -27 134 -52l-47 -107q-61 15 -135.5 53t-114.5 68q-119 5 -191 80.5t-72 197.5q0 124 79 203t202 79t197 -75.5t74 -198.5zM436 268q0 73 -33.5 112t-88.5 39q-56 0 -91.5 -38.5t-35.5 -113.5q0 -72 35 -110.5t89 -38.5
q56 0 90.5 37.5t34.5 112.5z" />
    <glyph glyph-name="r.sc" horiz-adv-x="551" 
d="M213 0h-149v536h178q90 0 134 -10q120 -28 120 -144q0 -111 -103 -150q34 -14 59 -53.5t93 -178.5h-161q-43 89 -60 117.5t-34 45.5q-15 13 -42 13h-35v-176zM213 292h44q36 0 55 7q37 15 37 57q0 50 -54 60q-24 4 -57 4h-25v-128z" />
    <glyph glyph-name="s.sc" horiz-adv-x="486" 
d="M38 38v143q88 -69 196 -69q67 0 67 37q0 32 -69 55l-64 21q-68 22 -99.5 60t-31.5 101q0 75 56.5 118.5t155.5 43.5q98 0 175 -45v-135q-91 59 -174 59q-56 0 -56 -38q0 -18 13.5 -28t51.5 -22l63 -20q73 -23 104 -62t31 -102q0 -76 -59.5 -121.5t-160.5 -45.5
q-111 0 -199 50z" />
    <glyph glyph-name="t.sc" horiz-adv-x="479" 
d="M311 0h-149v406h-143v130h440v-130h-148v-406z" />
    <glyph glyph-name="u.sc" horiz-adv-x="603" 
d="M59 536h150v-301q0 -52 10 -75q16 -42 83 -42q69 0 88 47q10 26 10 72v299h145v-306q0 -83 -29 -138q-26 -49 -83 -76.5t-138 -27.5q-153 0 -207 98q-29 50 -29 142v308z" />
    <glyph glyph-name="v.sc" horiz-adv-x="569" 
d="M364 0h-158l-202 536h162q90 -243 123 -352q25 91 121 352h156z" />
    <glyph glyph-name="w.sc" horiz-adv-x="817" 
d="M308 0h-147l-154 536h162q68 -261 82 -339q23 84 103 339h111q89 -273 104 -339q18 102 82 339h160l-156 -536h-146q-103 325 -103 326q-18 -71 -98 -326z" />
    <glyph glyph-name="x.sc" horiz-adv-x="598" 
d="M177 0h-170l195 276l-179 260h176q80 -119 103 -157q60 92 105 157h169l-184 -249l199 -287h-176q-87 128 -118 176q-30 -46 -120 -176z" />
    <glyph glyph-name="y.sc" horiz-adv-x="564" 
d="M351 0h-148v216l-199 320h170q70 -118 107 -186q56 92 118 186h161l-209 -320v-216z" />
    <glyph glyph-name="z.sc" horiz-adv-x="543" 
d="M516 0h-513q223 336 272 408h-37t-88.5 -0.5t-107.5 -0.5v129h475q-201 -306 -271 -407q5 0 41 0.5t98.5 0.5h130.5v-130z" />
    <glyph glyph-name="germandbls.sc" horiz-adv-x="972" 
d="M38 38v143q88 -69 196 -69q67 0 67 37q0 32 -69 55l-64 21q-68 22 -99.5 60t-31.5 101q0 75 56.5 118.5t155.5 43.5q98 0 175 -45v-135q-91 59 -174 59q-56 0 -56 -38q0 -18 13.5 -28t51.5 -22l63 -20q73 -23 104 -62t31 -102q0 -76 -59.5 -121.5t-160.5 -45.5
q-111 0 -199 50zM522 38v143q88 -69 196 -69q67 0 67 37q0 32 -69 55l-64 21q-68 22 -99.5 60t-31.5 101q0 75 56.5 118.5t155.5 43.5q98 0 175 -45v-135q-91 59 -174 59q-56 0 -56 -38q0 -18 13.5 -28t51.5 -22l63 -20q73 -23 104 -62t31 -102q0 -76 -59.5 -121.5
t-160.5 -45.5q-111 0 -199 50z" />
    <glyph glyph-name="ae.sc" horiz-adv-x="856" 
d="M176 0h-176l361 536h455v-128h-224v-71h202v-125h-202v-83h238v-129h-386v120h-191zM323 242h121v184q-25 -41 -121 -184z" />
    <glyph glyph-name="oslash.sc" horiz-adv-x="621" 
d="M126 -50l-55 37l48 68q-85 77 -85 211q0 124 79 203t202 79q71 0 130 -28l52 75l56 -37l-53 -75q86 -75 86 -209q0 -130 -76 -208t-200 -78q-74 0 -136 30zM436 268q0 55 -21 94l-162 -231q25 -13 58 -13q56 0 90.5 37.5t34.5 112.5zM187 267q0 -52 19 -88l160 229
q-25 11 -52 11q-56 0 -91.5 -38.5t-35.5 -113.5z" />
    <glyph glyph-name="oe.sc" horiz-adv-x="805" 
d="M779 0h-375q-58 -7 -102 -7q-120 0 -194 69.5t-74 205.5q0 137 78.5 206.5t195.5 69.5q51 0 93 -8h364v-128h-225v-71h203v-125h-203v-83h239v-129zM392 131v277q-30 8 -65 8q-65 0 -102.5 -35.5t-37.5 -109.5q0 -83 37 -115t102 -32q33 0 66 7z" />
    <glyph glyph-name="ydieresis.sc" horiz-adv-x="564" 
d="M351 0h-148v216l-199 320h170q70 -118 107 -186q56 92 118 186h161l-209 -320v-216zM257 675q0 -28 -18.5 -46.5t-46.5 -18.5q-27 0 -44.5 18.5t-17.5 45.5q0 29 18 47.5t46 18.5t45.5 -18t17.5 -47zM434 675q0 -28 -18.5 -46.5t-46.5 -18.5q-27 0 -44.5 18.5t-17.5 45.5
q0 29 18 47.5t46 18.5t45.5 -18t17.5 -47z" />
    <glyph glyph-name="f_i.sc" horiz-adv-x="734" 
d="M212 0h-148v536h363v-128h-215v-94h197v-131h-197v-183zM670 0h-150v536h150v-536z" />
    <glyph glyph-name="f_l.sc" horiz-adv-x="921" 
d="M212 0h-148v536h363v-128h-215v-94h197v-131h-197v-183zM896 0h-376v536h150v-406h226v-130z" />
    <glyph glyph-name="exclam.sc" horiz-adv-x="256" 
d="M192 238h-107q-17 253 -17 364h142q0 -111 -18 -364zM226 82q0 -38 -26 -64.5t-65 -26.5q-37 0 -61 26t-24 63q0 39 25.5 65t63.5 26q37 0 62 -25t25 -64z" />
    <glyph glyph-name="question.sc" horiz-adv-x="390" 
d="M225 239h-115q0 69 33 101q69 65 69 104q0 25 -17 41.5t-51 16.5q-59 0 -107 -35v109q60 37 152 37q80 0 127.5 -33t47.5 -101q0 -42 -22.5 -78t-75.5 -79q-37 -28 -41 -83zM255 82q0 -38 -26 -64.5t-65 -26.5q-37 0 -61.5 26t-24.5 63q0 39 26 65t64 26q37 0 62 -25
t25 -64z" />
    <glyph glyph-name="exclamdown.sc" horiz-adv-x="256" 
d="M64 305h107q17 -253 17 -364h-142q0 111 18 364zM30 461q0 38 26 64.5t65 26.5q37 0 61 -26t24 -63q0 -39 -25.5 -65t-63.5 -26t-62.5 25t-24.5 64z" />
    <glyph glyph-name="questiondown.sc" horiz-adv-x="390" 
d="M166 304h114q0 -37 -6 -59t-27 -43q-68 -65 -68 -104q0 -25 16.5 -41t50.5 -16q61 0 108 34v-109q-60 -36 -153 -36q-79 0 -126.5 33t-47.5 100q0 42 22 78t75 79q38 31 42 84zM136 460q0 39 26 65t65 26q37 0 61 -25.5t24 -62.5q0 -40 -25.5 -65.5t-63.5 -25.5t-62.5 25
t-24.5 63z" />
    <glyph glyph-name="aacute.sc" horiz-adv-x="576" 
d="M163 0h-159l205 536h157l207 -536h-154l-43 110h-173zM239 228h100q-16 46 -50 152q-23 -71 -50 -152zM312 592h-103l112 172h143z" />
    <glyph glyph-name="agrave.sc" horiz-adv-x="576" 
d="M163 0h-159l205 536h157l207 -536h-154l-43 110h-173zM239 228h100q-16 46 -50 152q-23 -71 -50 -152zM357 592h-104l-151 172h142z" />
    <glyph glyph-name="acircumflex.sc" horiz-adv-x="576" 
d="M163 0h-159l205 536h157l207 -536h-154l-43 110h-173zM239 228h100q-16 46 -50 152q-23 -71 -50 -152zM221 590h-99l127 170h80l126 -170h-100l-68 76z" />
    <glyph glyph-name="adieresis.sc" horiz-adv-x="576" 
d="M163 0h-159l205 536h157l207 -536h-154l-43 110h-173zM239 228h100q-16 46 -50 152q-23 -71 -50 -152zM263 675q0 -28 -18.5 -46.5t-46.5 -18.5q-27 0 -44.5 18.5t-17.5 45.5q0 29 18 47.5t46 18.5t45.5 -18t17.5 -47zM440 675q0 -28 -18.5 -46.5t-46.5 -18.5
q-27 0 -44.5 18.5t-17.5 45.5q0 29 18 47.5t46 18.5t45.5 -18t17.5 -47z" />
    <glyph glyph-name="atilde.sc" horiz-adv-x="576" 
d="M163 0h-159l205 536h157l207 -536h-154l-43 110h-173zM239 228h100q-16 46 -50 152q-23 -71 -50 -152zM202 607h-78q4 69 33 107t70 38q26 0 74 -30q34 -22 48 -22q26 0 32 52h74q-2 -70 -28 -107.5t-67 -37.5q-33 0 -78 29q-34 22 -48 22q-23 0 -32 -51z" />
    <glyph glyph-name="aring.sc" horiz-adv-x="576" 
d="M163 0h-159l205 536h157l207 -536h-154l-43 110h-173zM239 228h100q-16 46 -50 152q-23 -71 -50 -152zM389 686q0 -42 -29.5 -70.5t-73.5 -28.5q-43 0 -71 28.5t-28 70.5q0 44 28.5 72t73.5 28q44 0 72 -28t28 -72zM340 687q0 26 -15 41.5t-39 15.5q-22 0 -36.5 -16
t-14.5 -42q0 -25 14.5 -41.5t39.5 -16.5q23 0 37 17t14 42z" />
    <glyph glyph-name="ccedilla.sc" horiz-adv-x="525" 
d="M184 -249v66q30 -15 72 -15q48 0 48 40q0 39 -55 39q-24 0 -42 -6l32 120q-93 20 -149 92t-56 181q0 126 80 203t201 77q115 0 172 -40v-137q-55 45 -151 45q-68 0 -108.5 -38.5t-40.5 -109.5q0 -74 42 -111.5t117 -37.5q71 0 142 42v-131q-70 -42 -180 -42h-9l-13 -49h9
q45 0 69.5 -25.5t24.5 -70.5q0 -54 -35.5 -81.5t-96.5 -27.5q-44 0 -73 17z" />
    <glyph glyph-name="eacute.sc" horiz-adv-x="477" 
d="M451 0h-387v536h373v-128h-225v-71h203v-125h-203v-83h239v-129zM278 592h-103l112 172h143z" />
    <glyph glyph-name="egrave.sc" horiz-adv-x="477" 
d="M451 0h-387v536h373v-128h-225v-71h203v-125h-203v-83h239v-129zM320 592h-104l-151 172h142z" />
    <glyph glyph-name="ecircumflex.sc" horiz-adv-x="477" 
d="M451 0h-387v536h373v-128h-225v-71h203v-125h-203v-83h239v-129zM171 590h-99l127 170h80l126 -170h-100l-68 76z" />
    <glyph glyph-name="edieresis.sc" horiz-adv-x="477" 
d="M451 0h-387v536h373v-128h-225v-71h203v-125h-203v-83h239v-129zM228 675q0 -28 -18.5 -46.5t-46.5 -18.5q-27 0 -44.5 18.5t-17.5 45.5q0 29 18 47.5t46 18.5t45.5 -18t17.5 -47zM405 675q0 -28 -18.5 -46.5t-46.5 -18.5q-27 0 -44.5 18.5t-17.5 45.5q0 29 18 47.5
t46 18.5t45.5 -18t17.5 -47z" />
    <glyph glyph-name="iacute.sc" horiz-adv-x="277" 
d="M214 0h-150v536h150v-536zM161 592h-103l112 172h143z" />
    <glyph glyph-name="igrave.sc" horiz-adv-x="277" 
d="M214 0h-150v536h150v-536zM222 592h-104l-151 172h142z" />
    <glyph glyph-name="icircumflex.sc" horiz-adv-x="277" 
d="M214 0h-150v536h150v-536zM70 590h-99l127 170h80l126 -170h-100l-68 76z" />
    <glyph glyph-name="idieresis.sc" horiz-adv-x="277" 
d="M214 0h-150v536h150v-536zM112 675q0 -28 -18.5 -46.5t-46.5 -18.5q-27 0 -44.5 18.5t-17.5 45.5q0 29 18 47.5t46 18.5t45.5 -18t17.5 -47zM289 675q0 -28 -18.5 -46.5t-46.5 -18.5q-27 0 -44.5 18.5t-17.5 45.5q0 29 18 47.5t46 18.5t45.5 -18t17.5 -47z" />
    <glyph glyph-name="ntilde.sc" horiz-adv-x="625" 
d="M212 0h-148v536h144q186 -261 209 -300q-3 91 -3 300h148v-536h-135q-160 232 -216 321q1 -43 1 -321zM222 607h-78q4 69 33 107t70 38q26 0 74 -30q34 -22 48 -22q26 0 32 52h74q-2 -70 -28 -107.5t-67 -37.5q-33 0 -78 29q-34 22 -48 22q-23 0 -32 -51z" />
    <glyph glyph-name="oacute.sc" horiz-adv-x="621" 
d="M586 274q0 -130 -76 -208t-200 -78t-200 76.5t-76 201.5q0 124 79 203t202 79t197 -75.5t74 -198.5zM436 268q0 73 -33.5 112t-88.5 39q-56 0 -91.5 -38.5t-35.5 -113.5q0 -72 35 -110.5t89 -38.5q56 0 90.5 37.5t34.5 112.5zM324 592h-103l112 172h143z" />
    <glyph glyph-name="ograve.sc" horiz-adv-x="621" 
d="M586 274q0 -130 -76 -208t-200 -78t-200 76.5t-76 201.5q0 124 79 203t202 79t197 -75.5t74 -198.5zM436 268q0 73 -33.5 112t-88.5 39q-56 0 -91.5 -38.5t-35.5 -113.5q0 -72 35 -110.5t89 -38.5q56 0 90.5 37.5t34.5 112.5zM394 592h-104l-151 172h142z" />
    <glyph glyph-name="ocircumflex.sc" horiz-adv-x="621" 
d="M586 274q0 -130 -76 -208t-200 -78t-200 76.5t-76 201.5q0 124 79 203t202 79t197 -75.5t74 -198.5zM436 268q0 73 -33.5 112t-88.5 39q-56 0 -91.5 -38.5t-35.5 -113.5q0 -72 35 -110.5t89 -38.5q56 0 90.5 37.5t34.5 112.5zM243 590h-99l127 170h80l126 -170h-100
l-68 76z" />
    <glyph glyph-name="odieresis.sc" horiz-adv-x="621" 
d="M586 274q0 -130 -76 -208t-200 -78t-200 76.5t-76 201.5q0 124 79 203t202 79t197 -75.5t74 -198.5zM436 268q0 73 -33.5 112t-88.5 39q-56 0 -91.5 -38.5t-35.5 -113.5q0 -72 35 -110.5t89 -38.5q56 0 90.5 37.5t34.5 112.5zM287 675q0 -28 -18.5 -46.5t-46.5 -18.5
q-27 0 -44.5 18.5t-17.5 45.5q0 29 18 47.5t46 18.5t45.5 -18t17.5 -47zM464 675q0 -28 -18.5 -46.5t-46.5 -18.5q-27 0 -44.5 18.5t-17.5 45.5q0 29 18 47.5t46 18.5t45.5 -18t17.5 -47z" />
    <glyph glyph-name="otilde.sc" horiz-adv-x="621" 
d="M586 274q0 -130 -76 -208t-200 -78t-200 76.5t-76 201.5q0 124 79 203t202 79t197 -75.5t74 -198.5zM436 268q0 73 -33.5 112t-88.5 39q-56 0 -91.5 -38.5t-35.5 -113.5q0 -72 35 -110.5t89 -38.5q56 0 90.5 37.5t34.5 112.5zM224 607h-78q4 69 33 107t70 38q26 0 74 -30
q34 -22 48 -22q26 0 32 52h74q-2 -70 -28 -107.5t-67 -37.5q-33 0 -78 29q-34 22 -48 22q-23 0 -32 -51z" />
    <glyph glyph-name="uacute.sc" horiz-adv-x="603" 
d="M59 536h150v-301q0 -52 10 -75q16 -42 83 -42q69 0 88 47q10 26 10 72v299h145v-306q0 -83 -29 -138q-26 -49 -83 -76.5t-138 -27.5q-153 0 -207 98q-29 50 -29 142v308zM320 592h-103l112 172h143z" />
    <glyph glyph-name="ugrave.sc" horiz-adv-x="603" 
d="M59 536h150v-301q0 -52 10 -75q16 -42 83 -42q69 0 88 47q10 26 10 72v299h145v-306q0 -83 -29 -138q-26 -49 -83 -76.5t-138 -27.5q-153 0 -207 98q-29 50 -29 142v308zM379 592h-104l-151 172h142z" />
    <glyph glyph-name="ucircumflex.sc" horiz-adv-x="603" 
d="M59 536h150v-301q0 -52 10 -75q16 -42 83 -42q69 0 88 47q10 26 10 72v299h145v-306q0 -83 -29 -138q-26 -49 -83 -76.5t-138 -27.5q-153 0 -207 98q-29 50 -29 142v308zM234 590h-99l127 170h80l126 -170h-100l-68 76z" />
    <glyph glyph-name="udieresis.sc" horiz-adv-x="603" 
d="M59 536h150v-301q0 -52 10 -75q16 -42 83 -42q69 0 88 47q10 26 10 72v299h145v-306q0 -83 -29 -138q-26 -49 -83 -76.5t-138 -27.5q-153 0 -207 98q-29 50 -29 142v308zM276 675q0 -28 -18.5 -46.5t-46.5 -18.5q-27 0 -44.5 18.5t-17.5 45.5q0 29 18 47.5t46 18.5
t45.5 -18t17.5 -47zM453 675q0 -28 -18.5 -46.5t-46.5 -18.5q-27 0 -44.5 18.5t-17.5 45.5q0 29 18 47.5t46 18.5t45.5 -18t17.5 -47z" />
    <glyph glyph-name="eth.sc" horiz-adv-x="596" 
d="M64 0v230h-52v90h52v216h156q142 0 201 -22q75 -28 108 -85.5t33 -153.5q0 -196 -157 -251q-67 -24 -197 -24h-144zM214 132h33q65 0 97 14q67 31 67 125q0 90 -62 120q-28 13 -96 13h-39v-84h98v-90h-98v-98z" />
    <glyph glyph-name="lslash.sc" horiz-adv-x="465" 
d="M440 0h-376v155l-56 -38v101l56 38v280h150v-177l95 65v-101l-95 -65v-128h226v-130z" />
    <glyph glyph-name="scaron.sc" horiz-adv-x="486" 
d="M38 38v143q88 -69 196 -69q67 0 67 37q0 32 -69 55l-64 21q-68 22 -99.5 60t-31.5 101q0 75 56.5 118.5t155.5 43.5q98 0 175 -45v-135q-91 59 -174 59q-56 0 -56 -38q0 -18 13.5 -28t51.5 -22l63 -20q73 -23 104 -62t31 -102q0 -76 -59.5 -121.5t-160.5 -45.5
q-111 0 -199 50zM309 762h99l-127 -170h-80l-126 170h99l69 -76z" />
    <glyph glyph-name="yacute.sc" horiz-adv-x="564" 
d="M351 0h-148v216l-199 320h170q70 -118 107 -186q56 92 118 186h161l-209 -320v-216zM308 592h-103l112 172h143z" />
    <glyph glyph-name="thorn.sc" horiz-adv-x="531" 
d="M214 0h-150v536h150v-75h36q72 0 123 -11q127 -31 127 -174q0 -123 -99 -166q-55 -23 -148 -23h-39v-87zM214 206h35q37 0 67 8q35 10 35 55q0 47 -45 59q-20 5 -62 5h-30v-127z" />
    <glyph glyph-name="zcaron.sc" horiz-adv-x="543" 
d="M516 0h-513q223 336 272 408h-37t-88.5 -0.5t-107.5 -0.5v129h475q-201 -306 -271 -407q5 0 41 0.5t98.5 0.5h130.5v-130zM333 762h99l-127 -170h-80l-126 170h99l69 -76z" />
    <glyph glyph-name="ampersand.sc" horiz-adv-x="633" 
d="M454 0q-6 6 -19 18t-20 20q-70 -48 -176 -48q-90 0 -147.5 43.5t-57.5 122.5q0 59 30.5 96t95.5 65q-33 44 -33 99q0 58 43.5 96t124.5 38q71 0 117.5 -30.5t46.5 -92.5q0 -91 -112 -147q39 -46 77 -83q22 21 64 84l104 -61q-33 -56 -81 -106q44 -48 110 -114h-167z
M279 356q62 29 62 58q0 36 -44 36q-46 0 -46 -42q0 -22 28 -52zM229 233q-56 -27 -56 -73q0 -23 19.5 -42t59.5 -19q47 0 80 25q-52 50 -103 109z" />
    <glyph glyph-name="amacron.sc" horiz-adv-x="576" 
d="M163 0h-159l205 536h157l207 -536h-154l-43 110h-173zM239 228h100q-16 46 -50 152q-23 -71 -50 -152zM427 620h-276v91h276v-91z" />
    <glyph glyph-name="abreve.sc" horiz-adv-x="576" 
d="M163 0h-159l205 536h157l207 -536h-154l-43 110h-173zM239 228h100q-16 46 -50 152q-23 -71 -50 -152zM144 741h75q3 -40 22.5 -58.5t46.5 -18.5q67 0 74 77h74q-2 -70 -39 -115.5t-110 -45.5q-70 0 -105.5 44.5t-37.5 116.5z" />
    <glyph glyph-name="aogonek.sc" horiz-adv-x="576" 
d="M163 0h-159l205 536h157l207 -536h-61q-90 -65 -90 -128q0 -26 15.5 -42.5t41.5 -16.5q34 0 64 15v-65q-34 -23 -82 -23q-60 0 -93 29.5t-33 86.5q0 85 97 144h-13l-43 110h-173zM239 228h100q-16 46 -50 152q-23 -71 -50 -152z" />
    <glyph glyph-name="cacute.sc" horiz-adv-x="525" 
d="M488 30q-70 -42 -180 -42q-121 0 -197.5 76t-76.5 204q0 126 80 203t201 77q115 0 172 -40v-137q-55 45 -151 45q-68 0 -108.5 -38.5t-40.5 -109.5q0 -74 42 -111.5t117 -37.5q71 0 142 42v-131zM324 592h-103l112 172h143z" />
    <glyph glyph-name="ccircumflex.sc" horiz-adv-x="525" 
d="M488 30q-70 -42 -180 -42q-121 0 -197.5 76t-76.5 204q0 126 80 203t201 77q115 0 172 -40v-137q-55 45 -151 45q-68 0 -108.5 -38.5t-40.5 -109.5q0 -74 42 -111.5t117 -37.5q71 0 142 42v-131zM234 590h-99l127 170h80l126 -170h-100l-68 76z" />
    <glyph glyph-name="cdotaccent.sc" horiz-adv-x="525" 
d="M488 30q-70 -42 -180 -42q-121 0 -197.5 76t-76.5 204q0 126 80 203t201 77q115 0 172 -40v-137q-55 45 -151 45q-68 0 -108.5 -38.5t-40.5 -109.5q0 -74 42 -111.5t117 -37.5q71 0 142 42v-131zM378 675q0 -28 -18.5 -46.5t-46.5 -18.5q-27 0 -44 18t-17 46
q0 29 18 47.5t46 18.5t45 -18t17 -47z" />
    <glyph glyph-name="ccaron.sc" horiz-adv-x="525" 
d="M488 30q-70 -42 -180 -42q-121 0 -197.5 76t-76.5 204q0 126 80 203t201 77q115 0 172 -40v-137q-55 45 -151 45q-68 0 -108.5 -38.5t-40.5 -109.5q0 -74 42 -111.5t117 -37.5q71 0 142 42v-131zM377 762h99l-127 -170h-80l-126 170h99l69 -76z" />
    <glyph glyph-name="dcaron.sc" horiz-adv-x="596" 
d="M64 0v536h156q142 0 201 -22q75 -28 108 -85.5t33 -153.5q0 -196 -157 -251q-67 -24 -197 -24h-144zM214 132h33q65 0 97 14q67 31 67 125q0 90 -62 120q-28 13 -96 13h-39v-272zM332 762h99l-127 -170h-80l-126 170h99l69 -76z" />
    <glyph glyph-name="dcroat.sc" horiz-adv-x="596" 
d="M64 0v230h-52v90h52v216h156q142 0 201 -22q75 -28 108 -85.5t33 -153.5q0 -196 -157 -251q-67 -24 -197 -24h-144zM214 132h33q65 0 97 14q67 31 67 125q0 90 -62 120q-28 13 -96 13h-39v-84h98v-90h-98v-98z" />
    <glyph glyph-name="emacron.sc" horiz-adv-x="477" 
d="M451 0h-387v536h373v-128h-225v-71h203v-125h-203v-83h239v-129zM389 620h-276v91h276v-91z" />
    <glyph glyph-name="ebreve.sc" horiz-adv-x="477" 
d="M451 0h-387v536h373v-128h-225v-71h203v-125h-203v-83h239v-129zM106 741h75q3 -40 22.5 -58.5t46.5 -18.5q67 0 74 77h74q-2 -70 -39 -115.5t-110 -45.5q-70 0 -105.5 44.5t-37.5 116.5z" />
    <glyph glyph-name="edotaccent.sc" horiz-adv-x="477" 
d="M451 0h-387v536h373v-128h-225v-71h203v-125h-203v-83h239v-129zM317 675q0 -28 -18.5 -46.5t-46.5 -18.5q-27 0 -44 18t-17 46q0 29 18 47.5t46 18.5t45 -18t17 -47z" />
    <glyph glyph-name="eogonek.sc" horiz-adv-x="477" 
d="M451 0h-40q-90 -65 -90 -128q0 -26 15.5 -42.5t41.5 -16.5q34 0 64 15v-65q-34 -23 -82 -23q-60 0 -93 29.5t-33 86.5q0 85 97 144h-267v536h373v-128h-225v-71h203v-125h-203v-83h239v-129z" />
    <glyph glyph-name="ecaron.sc" horiz-adv-x="477" 
d="M451 0h-387v536h373v-128h-225v-71h203v-125h-203v-83h239v-129zM315 762h99l-127 -170h-80l-126 170h99l69 -76z" />
    <glyph glyph-name="gcircumflex.sc" horiz-adv-x="580" 
d="M534 37q-36 -19 -98 -34t-126 -15q-124 0 -200 77t-76 203q0 127 79 203.5t203 76.5q122 0 193 -39v-138q-34 21 -81 33t-87 12q-75 0 -114.5 -38t-39.5 -114q0 -73 39 -112.5t102 -39.5q38 0 67 12v57h-78v132h217v-276zM241 590h-99l127 170h80l126 -170h-100l-68 76z
" />
    <glyph glyph-name="gbreve.sc" horiz-adv-x="580" 
d="M534 37q-36 -19 -98 -34t-126 -15q-124 0 -200 77t-76 203q0 127 79 203.5t203 76.5q122 0 193 -39v-138q-34 21 -81 33t-87 12q-75 0 -114.5 -38t-39.5 -114q0 -73 39 -112.5t102 -39.5q38 0 67 12v57h-78v132h217v-276zM170 741h75q3 -40 22.5 -58.5t46.5 -18.5
q67 0 74 77h74q-2 -70 -39 -115.5t-110 -45.5q-70 0 -105.5 44.5t-37.5 116.5z" />
    <glyph glyph-name="gdotaccent.sc" horiz-adv-x="580" 
d="M534 37q-36 -19 -98 -34t-126 -15q-124 0 -200 77t-76 203q0 127 79 203.5t203 76.5q122 0 193 -39v-138q-34 21 -81 33t-87 12q-75 0 -114.5 -38t-39.5 -114q0 -73 39 -112.5t102 -39.5q38 0 67 12v57h-78v132h217v-276zM377 675q0 -28 -18.5 -46.5t-46.5 -18.5
q-27 0 -44 18t-17 46q0 29 18 47.5t46 18.5t45 -18t17 -47z" />
    <glyph glyph-name="gcommaaccent.sc" horiz-adv-x="580" 
d="M534 37q-36 -19 -98 -34t-126 -15q-124 0 -200 77t-76 203q0 127 79 203.5t203 76.5q122 0 193 -39v-138q-34 21 -81 33t-87 12q-75 0 -114.5 -38t-39.5 -114q0 -73 39 -112.5t102 -39.5q38 0 67 12v57h-78v132h217v-276zM281 -309h-89q66 103 66 243h109
q0 -146 -86 -243z" />
    <glyph glyph-name="hbar.sc" horiz-adv-x="606" 
d="M543 0h-149v207h-180v-207h-150v367h-52v89h52v80h150v-80h180v80h149v-80h52v-89h-52v-367zM214 321h180v46h-180v-46z" />
    <glyph glyph-name="hcircumflex.sc" horiz-adv-x="606" 
d="M543 0h-149v207h-180v-207h-150v536h150v-192h180v192h149v-536zM236 590h-99l127 170h80l126 -170h-100l-68 76z" />
    <glyph glyph-name="itilde.sc" horiz-adv-x="277" 
d="M214 0h-150v536h150v-536zM50 607h-78q4 69 33 107t70 38q26 0 74 -30q34 -22 48 -22q26 0 32 52h74q-2 -70 -28 -107.5t-67 -37.5q-33 0 -78 29q-34 22 -48 22q-23 0 -32 -51z" />
    <glyph glyph-name="imacron.sc" horiz-adv-x="277" 
d="M214 0h-150v536h150v-536zM276 620h-276v91h276v-91z" />
    <glyph glyph-name="ibreve.sc" horiz-adv-x="277" 
d="M214 0h-150v536h150v-536zM-8 741h75q3 -40 22.5 -58.5t46.5 -18.5q67 0 74 77h74q-2 -70 -39 -115.5t-110 -45.5q-70 0 -105.5 44.5t-37.5 116.5z" />
    <glyph glyph-name="iogonek.sc" horiz-adv-x="277" 
d="M214 0h-33q-90 -65 -90 -128q0 -26 15.5 -42.5t41.5 -16.5q34 0 64 15v-65q-34 -23 -82 -23q-60 0 -93 29.5t-33 86.5q0 85 97 144h-37v536h150v-536z" />
    <glyph glyph-name="idotaccent.sc" horiz-adv-x="277" 
d="M214 0h-150v536h150v-536zM201 675q0 -28 -18.5 -46.5t-46.5 -18.5q-27 0 -44 18t-17 46q0 29 18 47.5t46 18.5t45 -18t17 -47z" />
    <glyph glyph-name="ij.sc" horiz-adv-x="544" 
d="M214 0h-150v536h150v-536zM291 -155l-51 110q61 29 78 52q18 21 18 71v458h150v-461q0 -94 -46 -140q-56 -54 -149 -90z" />
    <glyph glyph-name="jcircumflex.sc" horiz-adv-x="277" 
d="M19 -155l-51 110q61 29 78 52q18 21 18 71v458h150v-461q0 -94 -46 -140q-56 -54 -149 -90zM72 590h-99l127 170h80l126 -170h-100l-68 76z" />
    <glyph glyph-name="kcommaaccent.sc" horiz-adv-x="559" 
d="M213 0h-149v536h149v-223q151 218 155 223h170l-191 -250l211 -286h-177q-148 213 -168 244v-244zM253 -309h-89q66 103 66 243h109q0 -146 -86 -243z" />
    <glyph glyph-name="lacute.sc" horiz-adv-x="465" 
d="M440 0h-376v536h150v-406h226v-130zM168 592h-103l112 172h143z" />
    <glyph glyph-name="lcommaaccent.sc" horiz-adv-x="465" 
d="M440 0h-376v536h150v-406h226v-130zM214 -309h-89q66 103 66 243h109q0 -146 -86 -243z" />
    <glyph glyph-name="lcaron.sc" horiz-adv-x="465" 
d="M440 0h-376v536h150v-406h226v-130zM355 349h-89q66 103 66 243h109q0 -146 -86 -243z" />
    <glyph glyph-name="ldot.sc" horiz-adv-x="465" 
d="M450 292q0 -37 -25 -62.5t-62 -25.5q-36 0 -59.5 25t-23.5 61q0 38 25 63.5t62 25.5q35 0 59 -25t24 -62zM440 0h-376v536h150v-406h226v-130z" />
    <glyph glyph-name="nacute.sc" horiz-adv-x="625" 
d="M212 0h-148v536h144q186 -261 209 -300q-3 91 -3 300h148v-536h-135q-160 232 -216 321q1 -43 1 -321zM341 592h-103l112 172h143z" />
    <glyph glyph-name="ncommaaccent.sc" horiz-adv-x="625" 
d="M212 0h-148v536h144q186 -261 209 -300q-3 91 -3 300h148v-536h-135q-160 232 -216 321q1 -43 1 -321zM286 -309h-89q66 103 66 243h109q0 -146 -86 -243z" />
    <glyph glyph-name="ncaron.sc" horiz-adv-x="625" 
d="M212 0h-148v536h144q186 -261 209 -300q-3 91 -3 300h148v-536h-135q-160 232 -216 321q1 -43 1 -321zM381 762h99l-127 -170h-80l-126 170h99l69 -76z" />
    <glyph glyph-name="eng.sc" horiz-adv-x="625" 
d="M212 0h-148v536h145q151 -211 209 -305q-4 83 -4 305h148v-507q0 -107 -40 -155q-55 -66 -160 -112l-53 115q54 27 77 50q28 28 28 69v26q-189 274 -204 300q2 -38 2 -322z" />
    <glyph glyph-name="omacron.sc" horiz-adv-x="621" 
d="M586 274q0 -130 -76 -208t-200 -78t-200 76.5t-76 201.5q0 124 79 203t202 79t197 -75.5t74 -198.5zM436 268q0 73 -33.5 112t-88.5 39q-56 0 -91.5 -38.5t-35.5 -113.5q0 -72 35 -110.5t89 -38.5q56 0 90.5 37.5t34.5 112.5zM449 620h-276v91h276v-91z" />
    <glyph glyph-name="obreve.sc" horiz-adv-x="621" 
d="M586 274q0 -130 -76 -208t-200 -78t-200 76.5t-76 201.5q0 124 79 203t202 79t197 -75.5t74 -198.5zM436 268q0 73 -33.5 112t-88.5 39q-56 0 -91.5 -38.5t-35.5 -113.5q0 -72 35 -110.5t89 -38.5q56 0 90.5 37.5t34.5 112.5zM166 747h75q3 -40 22.5 -58.5t46.5 -18.5
q67 0 74 77h74q-2 -70 -39 -115.5t-110 -45.5q-70 0 -105.5 44.5t-37.5 116.5z" />
    <glyph glyph-name="ohungarumlaut.sc" horiz-adv-x="621" 
d="M586 274q0 -130 -76 -208t-200 -78t-200 76.5t-76 201.5q0 124 79 203t202 79t197 -75.5t74 -198.5zM436 268q0 73 -33.5 112t-88.5 39q-56 0 -91.5 -38.5t-35.5 -113.5q0 -72 35 -110.5t89 -38.5q56 0 90.5 37.5t34.5 112.5zM251 592h-92l112 172h123zM423 592h-92
l111 172h123z" />
    <glyph glyph-name="racute.sc" horiz-adv-x="550" 
d="M213 0h-149v536h178q90 0 134 -10q120 -28 120 -144q0 -111 -103 -150q34 -14 59 -53.5t93 -178.5h-161q-43 89 -60 117.5t-34 45.5q-15 13 -42 13h-35v-176zM213 292h44q36 0 55 7q37 15 37 57q0 50 -54 60q-24 4 -57 4h-25v-128zM283 592h-103l112 172h143z" />
    <glyph glyph-name="rcommaaccent.sc" horiz-adv-x="550" 
d="M213 0h-149v536h178q90 0 134 -10q120 -28 120 -144q0 -111 -103 -150q34 -14 59 -53.5t93 -178.5h-161q-43 89 -60 117.5t-34 45.5q-15 13 -42 13h-35v-176zM213 292h44q36 0 55 7q37 15 37 57q0 50 -54 60q-24 4 -57 4h-25v-128zM239 -309h-89q66 103 66 243h109
q0 -146 -86 -243z" />
    <glyph glyph-name="rcaron.sc" horiz-adv-x="550" 
d="M213 0h-149v536h178q90 0 134 -10q120 -28 120 -144q0 -111 -103 -150q34 -14 59 -53.5t93 -178.5h-161q-43 89 -60 117.5t-34 45.5q-15 13 -42 13h-35v-176zM213 292h44q36 0 55 7q37 15 37 57q0 50 -54 60q-24 4 -57 4h-25v-128zM319 762h99l-127 -170h-80l-126 170h99
l69 -76z" />
    <glyph glyph-name="sacute.sc" horiz-adv-x="486" 
d="M38 38v143q88 -69 196 -69q67 0 67 37q0 32 -69 55l-64 21q-68 22 -99.5 60t-31.5 101q0 75 56.5 118.5t155.5 43.5q98 0 175 -45v-135q-91 59 -174 59q-56 0 -56 -38q0 -18 13.5 -28t51.5 -22l63 -20q73 -23 104 -62t31 -102q0 -76 -59.5 -121.5t-160.5 -45.5
q-111 0 -199 50zM266 592h-103l112 172h143z" />
    <glyph glyph-name="scircumflex.sc" horiz-adv-x="486" 
d="M38 38v143q88 -69 196 -69q67 0 67 37q0 32 -69 55l-64 21q-68 22 -99.5 60t-31.5 101q0 75 56.5 118.5t155.5 43.5q98 0 175 -45v-135q-91 59 -174 59q-56 0 -56 -38q0 -18 13.5 -28t51.5 -22l63 -20q73 -23 104 -62t31 -102q0 -76 -59.5 -121.5t-160.5 -45.5
q-111 0 -199 50zM178 590h-99l127 170h80l126 -170h-100l-68 76z" />
    <glyph glyph-name="scedilla.sc" horiz-adv-x="486" 
d="M140 -249v66q30 -15 72 -15q48 0 48 40q0 39 -55 39q-24 0 -42 -6l31 115q-90 10 -156 48v143q88 -69 196 -69q67 0 67 37q0 32 -69 55l-64 21q-68 22 -99.5 60t-31.5 101q0 75 56.5 118.5t155.5 43.5q98 0 175 -45v-135q-91 59 -174 59q-56 0 -56 -38q0 -18 13.5 -28
t51.5 -22l63 -20q73 -23 104 -62t31 -102q0 -73 -54.5 -117.5t-147.5 -48.5l-13 -50h9q45 0 69.5 -25.5t24.5 -70.5q0 -54 -35.5 -81.5t-96.5 -27.5q-44 0 -73 17z" />
    <glyph glyph-name="uni0163.sc" horiz-adv-x="479" 
d="M146 -249v66q30 -15 72 -15q48 0 48 40q0 39 -55 39q-24 0 -42 -6l34 125h-41v406h-143v130h440v-130h-148v-406h-46l-17 -61h9q45 0 69.5 -25.5t24.5 -70.5q0 -54 -35.5 -81.5t-96.5 -27.5q-44 0 -73 17z" />
    <glyph glyph-name="tcaron.sc" horiz-adv-x="479" 
d="M311 0h-149v406h-143v130h440v-130h-148v-406zM303 762h99l-127 -170h-80l-126 170h99l69 -76z" />
    <glyph glyph-name="tbar.sc" horiz-adv-x="479" 
d="M311 0h-149v220h-93v89h93v97h-143v130h440v-130h-148v-97h94v-89h-94v-220z" />
    <glyph glyph-name="utilde.sc" horiz-adv-x="603" 
d="M59 536h150v-301q0 -52 10 -75q16 -42 83 -42q69 0 88 47q10 26 10 72v299h145v-306q0 -83 -29 -138q-26 -49 -83 -76.5t-138 -27.5q-153 0 -207 98q-29 50 -29 142v308zM217 607h-78q4 69 33 107t70 38q26 0 74 -30q34 -22 48 -22q26 0 32 52h74q-2 -70 -28 -107.5
t-67 -37.5q-33 0 -78 29q-34 22 -48 22q-23 0 -32 -51z" />
    <glyph glyph-name="umacron.sc" horiz-adv-x="603" 
d="M59 536h150v-301q0 -52 10 -75q16 -42 83 -42q69 0 88 47q10 26 10 72v299h145v-306q0 -83 -29 -138q-26 -49 -83 -76.5t-138 -27.5q-153 0 -207 98q-29 50 -29 142v308zM442 620h-276v91h276v-91z" />
    <glyph glyph-name="ubreve.sc" horiz-adv-x="603" 
d="M59 536h150v-301q0 -52 10 -75q16 -42 83 -42q69 0 88 47q10 26 10 72v299h145v-306q0 -83 -29 -138q-26 -49 -83 -76.5t-138 -27.5q-153 0 -207 98q-29 50 -29 142v308zM158 741h75q3 -40 22.5 -58.5t46.5 -18.5q67 0 74 77h74q-2 -70 -39 -115.5t-110 -45.5
q-70 0 -105.5 44.5t-37.5 116.5z" />
    <glyph glyph-name="uring.sc" horiz-adv-x="603" 
d="M59 536h150v-301q0 -52 10 -75q16 -42 83 -42q69 0 88 47q10 26 10 72v299h145v-306q0 -83 -29 -138q-26 -49 -83 -76.5t-138 -27.5q-153 0 -207 98q-29 50 -29 142v308zM405 686q0 -42 -29.5 -70.5t-73.5 -28.5q-43 0 -71 28.5t-28 70.5q0 44 28.5 72t73.5 28
q44 0 72 -28t28 -72zM356 687q0 26 -15 41.5t-39 15.5q-22 0 -36.5 -16t-14.5 -42q0 -25 14.5 -41.5t39.5 -16.5q23 0 37 17t14 42z" />
    <glyph glyph-name="uhungarumlaut.sc" horiz-adv-x="603" 
d="M59 536h150v-301q0 -52 10 -75q16 -42 83 -42q69 0 88 47q10 26 10 72v299h145v-306q0 -83 -29 -138q-26 -49 -83 -76.5t-138 -27.5q-153 0 -207 98q-29 50 -29 142v308zM239 592h-92l112 172h123zM411 592h-92l111 172h123z" />
    <glyph glyph-name="uogonek.sc" horiz-adv-x="603" 
d="M59 536h150v-301q0 -52 10 -75q16 -42 83 -42q69 0 88 47q10 26 10 72v299h145v-306q0 -83 -29 -138q-46 -85 -169 -101q-78 -60 -78 -119q0 -26 15.5 -42.5t41.5 -16.5q34 0 64 15v-65q-34 -23 -82 -23q-60 0 -93 29.5t-33 86.5q0 77 81 133q-128 10 -175 97
q-29 50 -29 142v308z" />
    <glyph glyph-name="wacute.sc" horiz-adv-x="817" 
d="M308 0h-147l-154 536h162q68 -261 82 -339q23 84 103 339h111q89 -273 104 -339q18 102 82 339h160l-156 -536h-146q-103 325 -103 326q-18 -71 -98 -326zM430 592h-103l112 172h143z" />
    <glyph glyph-name="wcircumflex.sc" horiz-adv-x="817" 
d="M308 0h-147l-154 536h162q68 -261 82 -339q23 84 103 339h111q89 -273 104 -339q18 102 82 339h160l-156 -536h-146q-103 325 -103 326q-18 -71 -98 -326zM339 590h-99l127 170h80l126 -170h-100l-68 76z" />
    <glyph glyph-name="wdieresis.sc" horiz-adv-x="817" 
d="M308 0h-147l-154 536h162q68 -261 82 -339q23 84 103 339h111q89 -273 104 -339q18 102 82 339h160l-156 -536h-146q-103 325 -103 326q-18 -71 -98 -326zM385 675q0 -28 -18.5 -46.5t-46.5 -18.5q-27 0 -44.5 18.5t-17.5 45.5q0 29 18 47.5t46 18.5t45.5 -18t17.5 -47z
M562 675q0 -28 -18.5 -46.5t-46.5 -18.5q-27 0 -44.5 18.5t-17.5 45.5q0 29 18 47.5t46 18.5t45.5 -18t17.5 -47z" />
    <glyph glyph-name="wgrave.sc" horiz-adv-x="817" 
d="M308 0h-147l-154 536h162q68 -261 82 -339q23 84 103 339h111q89 -273 104 -339q18 102 82 339h160l-156 -536h-146q-103 325 -103 326q-18 -71 -98 -326zM483 592h-104l-151 172h142z" />
    <glyph glyph-name="ycircumflex.sc" horiz-adv-x="564" 
d="M351 0h-148v216l-199 320h170q70 -118 107 -186q56 92 118 186h161l-209 -320v-216zM214 590h-99l127 170h80l126 -170h-100l-68 76z" />
    <glyph glyph-name="ygrave.sc" horiz-adv-x="564" 
d="M351 0h-148v216l-199 320h170q70 -118 107 -186q56 92 118 186h161l-209 -320v-216zM355 592h-104l-151 172h142z" />
    <glyph glyph-name="zacute.sc" horiz-adv-x="543" 
d="M516 0h-513q223 336 272 408h-37t-88.5 -0.5t-107.5 -0.5v129h475q-201 -306 -271 -407q5 0 41 0.5t98.5 0.5h130.5v-130zM302 592h-103l112 172h143z" />
    <glyph glyph-name="zdotaccent.sc" horiz-adv-x="543" 
d="M516 0h-513q223 336 272 408h-37t-88.5 -0.5t-107.5 -0.5v129h475q-201 -306 -271 -407q5 0 41 0.5t98.5 0.5h130.5v-130zM336 675q0 -28 -18.5 -46.5t-46.5 -18.5q-27 0 -44 18t-17 46q0 29 18 47.5t46 18.5t45 -18t17 -47z" />
    <glyph glyph-name="aringacute.sc" horiz-adv-x="576" 
d="M163 0h-159l205 538h157l207 -538h-154l-43 110h-173zM390 667q0 -42 -29 -70.5t-74 -28.5q-43 0 -70.5 28t-27.5 71q0 44 28 71.5t73 27.5t72.5 -27.5t27.5 -71.5zM314 797h-94l103 149h131zM343 668q0 26 -15.5 42t-40.5 16q-23 0 -38 -16.5t-15 -42.5t15 -42.5
t41 -16.5q24 0 38.5 17t14.5 43zM238 228h102l-51 152q-23 -73 -51 -152z" />
    <glyph glyph-name="aeacute.sc" horiz-adv-x="856" 
d="M176 0h-176l361 536h455v-128h-224v-71h202v-125h-202v-83h238v-129h-386v120h-191zM323 242h121v184q-25 -41 -121 -184zM571 592h-103l112 172h143z" />
    <glyph glyph-name="oslashacute.sc" horiz-adv-x="621" 
d="M126 -50l-55 37l48 68q-85 77 -85 211q0 124 79 203t202 79q71 0 130 -28l52 75l56 -37l-53 -75q86 -75 86 -209q0 -130 -76 -208t-200 -78q-74 0 -136 30zM436 268q0 55 -21 94l-162 -231q25 -13 58 -13q56 0 90.5 37.5t34.5 112.5zM187 267q0 -52 19 -88l160 229
q-25 11 -52 11q-56 0 -91.5 -38.5t-35.5 -113.5zM341 592h-103l112 172h143z" />
    <glyph glyph-name="uni0219.sc" horiz-adv-x="486" 
d="M38 38v143q88 -69 196 -69q67 0 67 37q0 32 -69 55l-64 21q-68 22 -99.5 60t-31.5 101q0 75 56.5 118.5t155.5 43.5q98 0 175 -45v-135q-91 59 -174 59q-56 0 -56 -38q0 -18 13.5 -28t51.5 -22l63 -20q73 -23 104 -62t31 -102q0 -76 -59.5 -121.5t-160.5 -45.5
q-111 0 -199 50zM209 -309h-89q66 103 66 243h109q0 -146 -86 -243z" />
    <glyph glyph-name="uni021B.sc" horiz-adv-x="479" 
d="M311 0h-149v406h-143v130h440v-130h-148v-406zM208 -309h-89q66 103 66 243h109q0 -146 -86 -243z" />
    <glyph glyph-name="kgreenlandic.sc" horiz-adv-x="668" 
d="M621 567h113q-77 -102 -77 -234h-120q0 142 84 234zM213 0h-149v536h149v-223q151 218 155 223h170l-191 -250l211 -286h-177q-148 213 -168 244v-244z" />
    <glyph glyph-name="dotlessi.sc" horiz-adv-x="278" 
d="M214 0h-150v536h150v-536z" />
    <glyph glyph-name="zero.fitted" horiz-adv-x="574" 
d="M544 340q0 -97 -25 -174t-84.5 -127.5t-147.5 -50.5q-67 0 -117.5 28.5t-80.5 78t-44.5 111t-14.5 133.5q0 101 27 181t87.5 130.5t146.5 50.5q253 0 253 -361zM393 341q0 87 -15 138t-36 67t-52 16q-104 0 -104 -225q0 -212 105 -212q102 0 102 216z" />
    <glyph glyph-name="one.fitted" horiz-adv-x="430" 
d="M320 0h-160v510l-118 -48v144l278 101v-707z" />
    <glyph glyph-name="two.fitted" horiz-adv-x="545" 
d="M511 0h-510q209 241 263 315q58 81 58 144q0 51 -29 77t-80 26q-88 0 -175 -69v136q95 72 214 72q108 0 165 -56.5t57 -152.5q0 -110 -82 -212q-46 -58 -126 -145q27 2 245 2v-137z" />
    <glyph glyph-name="three.fitted" horiz-adv-x="550" 
d="M45 31v142q78 -51 192 -51q107 0 107 87q0 63 -69 74q-27 7 -96 7h-23v122h23q65 0 88 8q53 18 53 70q0 74 -96 74q-92 0 -164 -50v128q34 25 88 42t107 17q106 0 159.5 -48.5t53.5 -133.5q0 -54 -31 -96.5t-97 -60.5q155 -26 155 -165q0 -96 -69 -152.5t-194 -56.5
q-116 0 -187 43z" />
    <glyph glyph-name="four.fitted" horiz-adv-x="593" 
d="M483 0h-151v170h-298v98l316 421h133v-402h89v-117h-89v-170zM332 287q0 184 2 228q-34 -52 -161 -228h159z" />
    <glyph glyph-name="five.fitted" horiz-adv-x="555" 
d="M52 30v145q80 -51 179 -51q62 0 94 27t32 75q0 92 -120 92q-96 0 -168 -30l37 401h364v-137h-255l-14 -137q36 16 96 16q94 0 152.5 -51t58.5 -152q0 -117 -69.5 -178.5t-196.5 -61.5q-119 0 -190 42z" />
    <glyph glyph-name="six.fitted" horiz-adv-x="585" 
d="M199 370q21 34 61.5 54t88.5 20q90 0 144 -55t54 -160q0 -111 -65 -176t-174 -65q-119 0 -189 86t-70 251q0 186 85 281t215 95q103 0 155 -35v-148q-58 43 -142 43q-83 0 -121.5 -48t-41.5 -143zM205 261q2 -49 16 -83q22 -59 85 -59q41 0 68 29t27 85q0 51 -25 76
t-68 25q-37 0 -65 -20.5t-38 -52.5z" />
    <glyph glyph-name="seven.fitted" horiz-adv-x="529" 
d="M253 0h-155l218 552h-297v137h493z" />
    <glyph glyph-name="eight.fitted" horiz-adv-x="574" 
d="M152 356q-95 42 -95 152q0 90 69.5 141.5t163.5 51.5q102 0 167.5 -48.5t65.5 -142.5q0 -49 -25 -90.5t-76 -61.5q59 -18 87.5 -62t28.5 -100q0 -95 -69.5 -151.5t-184.5 -56.5q-105 0 -176.5 50t-71.5 151q0 59 30.5 103t85.5 64zM389 492q0 41 -26.5 64.5t-72.5 23.5
q-43 0 -71.5 -23.5t-28.5 -63.5q0 -39 25.5 -64.5t72.5 -25.5q48 0 74.5 23.5t26.5 65.5zM398 210q0 45 -29.5 69t-79.5 24q-51 0 -80.5 -26.5t-29.5 -68.5q0 -48 31.5 -72t76.5 -24q49 0 80 25t31 73z" />
    <glyph glyph-name="nine.fitted" horiz-adv-x="585" 
d="M386 318q-20 -31 -62.5 -51.5t-88.5 -20.5q-90 0 -143.5 54.5t-53.5 159.5q0 111 66 176t175 65q120 0 188.5 -86t68.5 -251q0 -189 -84 -282.5t-216 -93.5q-108 0 -160 35v148q57 -43 147 -43q84 0 122 46t41 144zM379 428q0 48 -13 83q-23 59 -86 59q-42 0 -69 -29
t-27 -85q0 -51 25 -77t68 -26q37 0 65 21.5t37 53.5z" />
    </font>
</defs>
</svg>
