<?xml version="1.0" encoding="utf-8"?>
<!-- Generator: Adobe Illustrator 23.0.4, SVG Export Plug-In . SVG Version: 6.00 Build 0)  -->
<svg version="1.1" id="Layer_1" xmlns="http://www.w3.org/2000/svg" xmlns:xlink="http://www.w3.org/1999/xlink" x="0px" y="0px"
	 viewBox="0 0 43 43" style="enable-background:new 0 0 43 43;" xml:space="preserve">
<style type="text/css">
	.st0{fill:#117898;}
	.st1{fill:none;}
</style>
<path id="Path_2062" class="st0" d="M30.9,19.5l-8.9-9.7c-0.4-0.5-1.2-0.5-1.6-0.1c0,0,0,0-0.1,0.1l-8.9,9.7
	c-0.4,0.5-0.4,1.2,0.1,1.6c0.2,0.2,0.5,0.3,0.8,0.3l0,0c0.6,0,1.2,0.5,1.2,1.2l0,0v6.3c0,0.6,0.5,1.2,1.2,1.2c0,0,0,0,0,0h13.1
	c0.6,0,1.2-0.5,1.2-1.2l0,0v-6.3c0-0.6,0.5-1.2,1.2-1.2c0,0,0,0,0,0l0,0c0.6,0,1.2-0.5,1.2-1.2C31.3,20,31.1,19.8,30.9,19.5z"/>
<circle class="st1" cx="21.5" cy="21.5" r="21.5"/>
<g>
	<path class="st0" d="M21.5,43C9.6,43,0,33.4,0,21.5C0,9.6,9.6,0,21.5,0C33.4,0,43,9.6,43,21.5C43,33.4,33.4,43,21.5,43z M21.5,1
		C10.2,1,1,10.2,1,21.5S10.2,42,21.5,42S42,32.8,42,21.5S32.8,1,21.5,1z"/>
</g>
</svg>
