<svg height="23.077" viewBox="0 0 16.623 23.077" width="16.623" xmlns="http://www.w3.org/2000/svg"><path d="m1056.614-89.507a1.664 1.664 0 0 1 -1.664-1.664v-11.85a1.664 1.664 0 0 1 1.664-1.664 1.664 1.664 0 0 1 1.664 1.664v11.85a1.664 1.664 0 0 1 -1.664 1.664zm14.959-1.664v-15.182a1.664 1.664 0 0 0 -1.664-1.664 1.664 1.664 0 0 0 -1.664 1.664v15.182a1.664 1.664 0 0 0 1.664 1.664 1.664 1.664 0 0 0 1.664-1.664zm-6.648 0v-19.749a1.664 1.664 0 0 0 -1.664-1.664 1.664 1.664 0 0 0 -1.664 1.664v19.749a1.664 1.664 0 0 0 1.664 1.664 1.664 1.664 0 0 0 1.665-1.664z" fill="#1b94b6" transform="translate(-1054.95 112.584)"/></svg>