<svg height="19.422" viewBox="0 0 35.328 19.422" width="35.328" xmlns="http://www.w3.org/2000/svg"><path d="m1430.719 670.811h-4.109a.463.463 0 0 0 -.445.416 3.337 3.337 0 0 1 -6.618 0 .463.463 0 0 0 -.445-.416h-4.058a7.934 7.934 0 0 1 15.675 0zm9.872-.58c-.007-.079-.016-.158-.028-.237a17.816 17.816 0 0 0 -35.269 0q-.017.118-.027.237a.494.494 0 0 0 .133.381.951.951 0 0 0 .706.252h5.352a3.316 3.316 0 0 0 2.823-2.039 9.409 9.409 0 0 1 17.3 0 3.316 3.316 0 0 0 2.823 2.039h5.352a.952.952 0 0 0 .706-.252.5.5 0 0 0 .129-.382zm-.4-.183a17.436 17.436 0 0 0 -34.517 0q-.015.109-.025.217c-.011.12.2.218.46.218h5.352a2.928 2.928 0 0 0 2.474-1.809 9.789 9.789 0 0 1 18 0 2.928 2.928 0 0 0 2.474 1.809h5.352c.262 0 .471-.1.46-.218q-.021-.109-.034-.218zm-26.257-1.373a9.789 9.789 0 0 1 18 0 2.928 2.928 0 0 0 2.474 1.809h2.682a14.3 14.3 0 0 0 -28.307 0h2.682a2.928 2.928 0 0 0 2.465-1.81zm-2.027-5.254a37.5 37.5 0 0 0 3.46 2.9 10.163 10.163 0 0 1 7.565-3.578 9.787 9.787 0 0 1 2.74.391q.332-2.244.721-4.479a14.3 14.3 0 0 0 -14.486 4.769zm-3.128 7.063h2.682a2.427 2.427 0 0 0 1.63-.668 7.709 7.709 0 0 0 1.372-2.277 11.655 11.655 0 0 1 .905-1.22s-3.2-2.8-3.46-2.9a13.925 13.925 0 0 0 -3.133 7.064zm14.153-13.064a15.4 15.4 0 0 0 -14.981 13.064h.828a14.3 14.3 0 0 1 28.307 0h.828a15.4 15.4 0 0 0 -14.985-13.065zm0 0a15.363 15.363 0 0 1 14.849 12.37c-1.558-7.362-7.576-12.6-14.849-12.6a15.381 15.381 0 0 0 -14.981 13.291 15.4 15.4 0 0 1 14.978-13.062zm0 .808a14.32 14.32 0 0 0 -3.461.425q.385 2.236.721 4.479a9.787 9.787 0 0 1 2.74-.391 10.163 10.163 0 0 1 7.565 3.578 37.483 37.483 0 0 0 3.46-2.9 14.284 14.284 0 0 0 -11.028-5.193zm11.025 5.194c-.264.1-3.46 2.9-3.46 2.9a11.656 11.656 0 0 1 .905 1.22 7.716 7.716 0 0 0 1.372 2.277 2.428 2.428 0 0 0 1.63.668h2.682a13.925 13.925 0 0 0 -3.132-7.067zm2.147 3.541q.151.356.281.721-.135-.367-.285-.723zm-13.219-6.93a12.259 12.259 0 0 1 12.124 10.451h2.077a14.3 14.3 0 0 0 -28.307 0h1.982a12.259 12.259 0 0 1 12.12-10.452zm9.024 8.516a9.8 9.8 0 0 0 -17.927-.065 5.8 5.8 0 0 1 -1.022 1.476 3.1 3.1 0 0 0 .966-1.246 9.75 9.75 0 0 1 9.006-5.88 9.6 9.6 0 0 1 8.943 5.807 3.264 3.264 0 0 0 .99 1.276 5.217 5.217 0 0 1 -.965-1.369zm-10.142 4.381a1.283 1.283 0 0 0 1.8-.253 63.167 63.167 0 0 0 3.678-7.012c-.183-.138-5.3 4.9-5.727 5.468a1.283 1.283 0 0 0 .245 1.795zm.8-.974a.42.42 0 1 0 -.083-.589.42.42 0 0 0 .083.588z" fill="#1b94b6" transform="translate(-1405.264 -654.711)"/></svg>